<?xml version="1.0" encoding="utf-8" standalone="no"?>
<!DOCTYPE svg PUBLIC "-//W3C//DTD SVG 1.1//EN"
  "http://www.w3.org/Graphics/SVG/1.1/DTD/svg11.dtd">
<!-- Created with matplotlib (http://matplotlib.org/) -->
<svg height="345pt" version="1.1" viewBox="0 0 460 345" width="460pt" xmlns="http://www.w3.org/2000/svg" xmlns:xlink="http://www.w3.org/1999/xlink">
 <defs>
  <style type="text/css">
*{stroke-linecap:butt;stroke-linejoin:round;}
  </style>
 </defs>
 <g id="figure_1">
  <g id="patch_1">
   <path d="M 0 345.6 
L 460.8 345.6 
L 460.8 0 
L 0 0 
z
" style="fill:#ffffff;"/>
  </g>
  <g id="axes_1">
   <g id="patch_2">
    <path d="M 57.6 307.584 
L 414.72 307.584 
L 414.72 41.472 
L 57.6 41.472 
z
" style="fill:#ffffff;"/>
   </g>
   <g id="matplotlib.axis_1">
    <g id="xtick_1">
     <g id="line2d_1">
      <path clip-path="url(#p6de63f30e0)" d="M 98.706679 307.584 
L 98.706679 41.472 
" style="fill:none;stroke:#b0b0b0;stroke-linecap:square;stroke-width:0.8;"/>
     </g>
     <g id="line2d_2">
      <defs>
       <path d="M 0 0 
L 0 3.5 
" id="m365c4bbdab" style="stroke:#000000;stroke-width:0.8;"/>
      </defs>
      <g>
       <use style="stroke:#000000;stroke-width:0.8;" x="98.706679" xlink:href="#m365c4bbdab" y="307.584"/>
      </g>
     </g>
     <g id="text_1">
      <!-- −10 -->
      <defs>
       <path d="M 10.59375 35.5 
L 73.1875 35.5 
L 73.1875 27.203125 
L 10.59375 27.203125 
z
" id="DejaVuSans-2212"/>
       <path d="M 12.40625 8.296875 
L 28.515625 8.296875 
L 28.515625 63.921875 
L 10.984375 60.40625 
L 10.984375 69.390625 
L 28.421875 72.90625 
L 38.28125 72.90625 
L 38.28125 8.296875 
L 54.390625 8.296875 
L 54.390625 0 
L 12.40625 0 
z
" id="DejaVuSans-31"/>
       <path d="M 31.78125 66.40625 
Q 24.171875 66.40625 20.328125 58.90625 
Q 16.5 51.421875 16.5 36.375 
Q 16.5 21.390625 20.328125 13.890625 
Q 24.171875 6.390625 31.78125 6.390625 
Q 39.453125 6.390625 43.28125 13.890625 
Q 47.125 21.390625 47.125 36.375 
Q 47.125 51.421875 43.28125 58.90625 
Q 39.453125 66.40625 31.78125 66.40625 
z
M 31.78125 74.21875 
Q 44.046875 74.21875 50.515625 64.515625 
Q 56.984375 54.828125 56.984375 36.375 
Q 56.984375 17.96875 50.515625 8.265625 
Q 44.046875 -1.421875 31.78125 -1.421875 
Q 19.53125 -1.421875 13.0625 8.265625 
Q 6.59375 17.96875 6.59375 36.375 
Q 6.59375 54.828125 13.0625 64.515625 
Q 19.53125 74.21875 31.78125 74.21875 
z
" id="DejaVuSans-30"/>
      </defs>
      <g transform="translate(88.154335 322.182437)scale(0.1 -0.1)">
       <use xlink:href="#DejaVuSans-2212"/>
       <use x="83.789062" xlink:href="#DejaVuSans-31"/>
       <use x="147.412109" xlink:href="#DejaVuSans-30"/>
      </g>
     </g>
    </g>
    <g id="xtick_2">
     <g id="line2d_3">
      <path clip-path="url(#p6de63f30e0)" d="M 161.329922 307.584 
L 161.329922 41.472 
" style="fill:none;stroke:#b0b0b0;stroke-linecap:square;stroke-width:0.8;"/>
     </g>
     <g id="line2d_4">
      <g>
       <use style="stroke:#000000;stroke-width:0.8;" x="161.329922" xlink:href="#m365c4bbdab" y="307.584"/>
      </g>
     </g>
     <g id="text_2">
      <!-- −8 -->
      <defs>
       <path d="M 31.78125 34.625 
Q 24.75 34.625 20.71875 30.859375 
Q 16.703125 27.09375 16.703125 20.515625 
Q 16.703125 13.921875 20.71875 10.15625 
Q 24.75 6.390625 31.78125 6.390625 
Q 38.8125 6.390625 42.859375 10.171875 
Q 46.921875 13.96875 46.921875 20.515625 
Q 46.921875 27.09375 42.890625 30.859375 
Q 38.875 34.625 31.78125 34.625 
z
M 21.921875 38.8125 
Q 15.578125 40.375 12.03125 44.71875 
Q 8.5 49.078125 8.5 55.328125 
Q 8.5 64.0625 14.71875 69.140625 
Q 20.953125 74.21875 31.78125 74.21875 
Q 42.671875 74.21875 48.875 69.140625 
Q 55.078125 64.0625 55.078125 55.328125 
Q 55.078125 49.078125 51.53125 44.71875 
Q 48 40.375 41.703125 38.8125 
Q 48.828125 37.15625 52.796875 32.3125 
Q 56.78125 27.484375 56.78125 20.515625 
Q 56.78125 9.90625 50.3125 4.234375 
Q 43.84375 -1.421875 31.78125 -1.421875 
Q 19.734375 -1.421875 13.25 4.234375 
Q 6.78125 9.90625 6.78125 20.515625 
Q 6.78125 27.484375 10.78125 32.3125 
Q 14.796875 37.15625 21.921875 38.8125 
z
M 18.3125 54.390625 
Q 18.3125 48.734375 21.84375 45.5625 
Q 25.390625 42.390625 31.78125 42.390625 
Q 38.140625 42.390625 41.71875 45.5625 
Q 45.3125 48.734375 45.3125 54.390625 
Q 45.3125 60.0625 41.71875 63.234375 
Q 38.140625 66.40625 31.78125 66.40625 
Q 25.390625 66.40625 21.84375 63.234375 
Q 18.3125 60.0625 18.3125 54.390625 
z
" id="DejaVuSans-38"/>
      </defs>
      <g transform="translate(153.958828 322.182437)scale(0.1 -0.1)">
       <use xlink:href="#DejaVuSans-2212"/>
       <use x="83.789062" xlink:href="#DejaVuSans-38"/>
      </g>
     </g>
    </g>
    <g id="xtick_3">
     <g id="line2d_5">
      <path clip-path="url(#p6de63f30e0)" d="M 223.953164 307.584 
L 223.953164 41.472 
" style="fill:none;stroke:#b0b0b0;stroke-linecap:square;stroke-width:0.8;"/>
     </g>
     <g id="line2d_6">
      <g>
       <use style="stroke:#000000;stroke-width:0.8;" x="223.953164" xlink:href="#m365c4bbdab" y="307.584"/>
      </g>
     </g>
     <g id="text_3">
      <!-- −6 -->
      <defs>
       <path d="M 33.015625 40.375 
Q 26.375 40.375 22.484375 35.828125 
Q 18.609375 31.296875 18.609375 23.390625 
Q 18.609375 15.53125 22.484375 10.953125 
Q 26.375 6.390625 33.015625 6.390625 
Q 39.65625 6.390625 43.53125 10.953125 
Q 47.40625 15.53125 47.40625 23.390625 
Q 47.40625 31.296875 43.53125 35.828125 
Q 39.65625 40.375 33.015625 40.375 
z
M 52.59375 71.296875 
L 52.59375 62.3125 
Q 48.875 64.0625 45.09375 64.984375 
Q 41.3125 65.921875 37.59375 65.921875 
Q 27.828125 65.921875 22.671875 59.328125 
Q 17.53125 52.734375 16.796875 39.40625 
Q 19.671875 43.65625 24.015625 45.921875 
Q 28.375 48.1875 33.59375 48.1875 
Q 44.578125 48.1875 50.953125 41.515625 
Q 57.328125 34.859375 57.328125 23.390625 
Q 57.328125 12.15625 50.6875 5.359375 
Q 44.046875 -1.421875 33.015625 -1.421875 
Q 20.359375 -1.421875 13.671875 8.265625 
Q 6.984375 17.96875 6.984375 36.375 
Q 6.984375 53.65625 15.1875 63.9375 
Q 23.390625 74.21875 37.203125 74.21875 
Q 40.921875 74.21875 44.703125 73.484375 
Q 48.484375 72.75 52.59375 71.296875 
z
" id="DejaVuSans-36"/>
      </defs>
      <g transform="translate(216.582071 322.182437)scale(0.1 -0.1)">
       <use xlink:href="#DejaVuSans-2212"/>
       <use x="83.789062" xlink:href="#DejaVuSans-36"/>
      </g>
     </g>
    </g>
    <g id="xtick_4">
     <g id="line2d_7">
      <path clip-path="url(#p6de63f30e0)" d="M 286.576407 307.584 
L 286.576407 41.472 
" style="fill:none;stroke:#b0b0b0;stroke-linecap:square;stroke-width:0.8;"/>
     </g>
     <g id="line2d_8">
      <g>
       <use style="stroke:#000000;stroke-width:0.8;" x="286.576407" xlink:href="#m365c4bbdab" y="307.584"/>
      </g>
     </g>
     <g id="text_4">
      <!-- −4 -->
      <defs>
       <path d="M 37.796875 64.3125 
L 12.890625 25.390625 
L 37.796875 25.390625 
z
M 35.203125 72.90625 
L 47.609375 72.90625 
L 47.609375 25.390625 
L 58.015625 25.390625 
L 58.015625 17.1875 
L 47.609375 17.1875 
L 47.609375 0 
L 37.796875 0 
L 37.796875 17.1875 
L 4.890625 17.1875 
L 4.890625 26.703125 
z
" id="DejaVuSans-34"/>
      </defs>
      <g transform="translate(279.205313 322.182437)scale(0.1 -0.1)">
       <use xlink:href="#DejaVuSans-2212"/>
       <use x="83.789062" xlink:href="#DejaVuSans-34"/>
      </g>
     </g>
    </g>
    <g id="xtick_5">
     <g id="line2d_9">
      <path clip-path="url(#p6de63f30e0)" d="M 349.19965 307.584 
L 349.19965 41.472 
" style="fill:none;stroke:#b0b0b0;stroke-linecap:square;stroke-width:0.8;"/>
     </g>
     <g id="line2d_10">
      <g>
       <use style="stroke:#000000;stroke-width:0.8;" x="349.19965" xlink:href="#m365c4bbdab" y="307.584"/>
      </g>
     </g>
     <g id="text_5">
      <!-- −2 -->
      <defs>
       <path d="M 19.1875 8.296875 
L 53.609375 8.296875 
L 53.609375 0 
L 7.328125 0 
L 7.328125 8.296875 
Q 12.9375 14.109375 22.625 23.890625 
Q 32.328125 33.6875 34.8125 36.53125 
Q 39.546875 41.84375 41.421875 45.53125 
Q 43.3125 49.21875 43.3125 52.78125 
Q 43.3125 58.59375 39.234375 62.25 
Q 35.15625 65.921875 28.609375 65.921875 
Q 23.96875 65.921875 18.8125 64.3125 
Q 13.671875 62.703125 7.8125 59.421875 
L 7.8125 69.390625 
Q 13.765625 71.78125 18.9375 73 
Q 24.125 74.21875 28.421875 74.21875 
Q 39.75 74.21875 46.484375 68.546875 
Q 53.21875 62.890625 53.21875 53.421875 
Q 53.21875 48.921875 51.53125 44.890625 
Q 49.859375 40.875 45.40625 35.40625 
Q 44.1875 33.984375 37.640625 27.21875 
Q 31.109375 20.453125 19.1875 8.296875 
z
" id="DejaVuSans-32"/>
      </defs>
      <g transform="translate(341.828556 322.182437)scale(0.1 -0.1)">
       <use xlink:href="#DejaVuSans-2212"/>
       <use x="83.789062" xlink:href="#DejaVuSans-32"/>
      </g>
     </g>
    </g>
    <g id="xtick_6">
     <g id="line2d_11">
      <path clip-path="url(#p6de63f30e0)" d="M 411.822892 307.584 
L 411.822892 41.472 
" style="fill:none;stroke:#b0b0b0;stroke-linecap:square;stroke-width:0.8;"/>
     </g>
     <g id="line2d_12">
      <g>
       <use style="stroke:#000000;stroke-width:0.8;" x="411.822892" xlink:href="#m365c4bbdab" y="307.584"/>
      </g>
     </g>
     <g id="text_6">
      <!-- 0 -->
      <g transform="translate(408.641642 322.182437)scale(0.1 -0.1)">
       <use xlink:href="#DejaVuSans-30"/>
      </g>
     </g>
    </g>
   </g>
   <g id="matplotlib.axis_2">
    <g id="ytick_1">
     <g id="line2d_13">
      <path clip-path="url(#p6de63f30e0)" d="M 57.6 291.931043 
L 414.72 291.931043 
" style="fill:none;stroke:#b0b0b0;stroke-linecap:square;stroke-width:0.8;"/>
     </g>
     <g id="line2d_14">
      <defs>
       <path d="M 0 0 
L -3.5 0 
" id="m0eff848b55" style="stroke:#000000;stroke-width:0.8;"/>
      </defs>
      <g>
       <use style="stroke:#000000;stroke-width:0.8;" x="57.6" xlink:href="#m0eff848b55" y="291.931043"/>
      </g>
     </g>
     <g id="text_7">
      <!-- 1.7 -->
      <defs>
       <path d="M 10.6875 12.40625 
L 21 12.40625 
L 21 0 
L 10.6875 0 
z
" id="DejaVuSans-2e"/>
       <path d="M 8.203125 72.90625 
L 55.078125 72.90625 
L 55.078125 68.703125 
L 28.609375 0 
L 18.3125 0 
L 43.21875 64.59375 
L 8.203125 64.59375 
z
" id="DejaVuSans-37"/>
      </defs>
      <g transform="translate(34.696875 295.730262)scale(0.1 -0.1)">
       <use xlink:href="#DejaVuSans-31"/>
       <use x="63.623047" xlink:href="#DejaVuSans-2e"/>
       <use x="95.410156" xlink:href="#DejaVuSans-37"/>
      </g>
     </g>
    </g>
    <g id="ytick_2">
     <g id="line2d_15">
      <path clip-path="url(#p6de63f30e0)" d="M 57.6 252.800609 
L 414.72 252.800609 
" style="fill:none;stroke:#b0b0b0;stroke-linecap:square;stroke-width:0.8;"/>
     </g>
     <g id="line2d_16">
      <g>
       <use style="stroke:#000000;stroke-width:0.8;" x="57.6" xlink:href="#m0eff848b55" y="252.800609"/>
      </g>
     </g>
     <g id="text_8">
      <!-- 1.8 -->
      <g transform="translate(34.696875 256.599827)scale(0.1 -0.1)">
       <use xlink:href="#DejaVuSans-31"/>
       <use x="63.623047" xlink:href="#DejaVuSans-2e"/>
       <use x="95.410156" xlink:href="#DejaVuSans-38"/>
      </g>
     </g>
    </g>
    <g id="ytick_3">
     <g id="line2d_17">
      <path clip-path="url(#p6de63f30e0)" d="M 57.6 213.670174 
L 414.72 213.670174 
" style="fill:none;stroke:#b0b0b0;stroke-linecap:square;stroke-width:0.8;"/>
     </g>
     <g id="line2d_18">
      <g>
       <use style="stroke:#000000;stroke-width:0.8;" x="57.6" xlink:href="#m0eff848b55" y="213.670174"/>
      </g>
     </g>
     <g id="text_9">
      <!-- 1.9 -->
      <defs>
       <path d="M 10.984375 1.515625 
L 10.984375 10.5 
Q 14.703125 8.734375 18.5 7.8125 
Q 22.3125 6.890625 25.984375 6.890625 
Q 35.75 6.890625 40.890625 13.453125 
Q 46.046875 20.015625 46.78125 33.40625 
Q 43.953125 29.203125 39.59375 26.953125 
Q 35.25 24.703125 29.984375 24.703125 
Q 19.046875 24.703125 12.671875 31.3125 
Q 6.296875 37.9375 6.296875 49.421875 
Q 6.296875 60.640625 12.9375 67.421875 
Q 19.578125 74.21875 30.609375 74.21875 
Q 43.265625 74.21875 49.921875 64.515625 
Q 56.59375 54.828125 56.59375 36.375 
Q 56.59375 19.140625 48.40625 8.859375 
Q 40.234375 -1.421875 26.421875 -1.421875 
Q 22.703125 -1.421875 18.890625 -0.6875 
Q 15.09375 0.046875 10.984375 1.515625 
z
M 30.609375 32.421875 
Q 37.25 32.421875 41.125 36.953125 
Q 45.015625 41.5 45.015625 49.421875 
Q 45.015625 57.28125 41.125 61.84375 
Q 37.25 66.40625 30.609375 66.40625 
Q 23.96875 66.40625 20.09375 61.84375 
Q 16.21875 57.28125 16.21875 49.421875 
Q 16.21875 41.5 20.09375 36.953125 
Q 23.96875 32.421875 30.609375 32.421875 
z
" id="DejaVuSans-39"/>
      </defs>
      <g transform="translate(34.696875 217.469393)scale(0.1 -0.1)">
       <use xlink:href="#DejaVuSans-31"/>
       <use x="63.623047" xlink:href="#DejaVuSans-2e"/>
       <use x="95.410156" xlink:href="#DejaVuSans-39"/>
      </g>
     </g>
    </g>
    <g id="ytick_4">
     <g id="line2d_19">
      <path clip-path="url(#p6de63f30e0)" d="M 57.6 174.539739 
L 414.72 174.539739 
" style="fill:none;stroke:#b0b0b0;stroke-linecap:square;stroke-width:0.8;"/>
     </g>
     <g id="line2d_20">
      <g>
       <use style="stroke:#000000;stroke-width:0.8;" x="57.6" xlink:href="#m0eff848b55" y="174.539739"/>
      </g>
     </g>
     <g id="text_10">
      <!-- 2.0 -->
      <g transform="translate(34.696875 178.338958)scale(0.1 -0.1)">
       <use xlink:href="#DejaVuSans-32"/>
       <use x="63.623047" xlink:href="#DejaVuSans-2e"/>
       <use x="95.410156" xlink:href="#DejaVuSans-30"/>
      </g>
     </g>
    </g>
    <g id="ytick_5">
     <g id="line2d_21">
      <path clip-path="url(#p6de63f30e0)" d="M 57.6 135.409304 
L 414.72 135.409304 
" style="fill:none;stroke:#b0b0b0;stroke-linecap:square;stroke-width:0.8;"/>
     </g>
     <g id="line2d_22">
      <g>
       <use style="stroke:#000000;stroke-width:0.8;" x="57.6" xlink:href="#m0eff848b55" y="135.409304"/>
      </g>
     </g>
     <g id="text_11">
      <!-- 2.1 -->
      <g transform="translate(34.696875 139.208523)scale(0.1 -0.1)">
       <use xlink:href="#DejaVuSans-32"/>
       <use x="63.623047" xlink:href="#DejaVuSans-2e"/>
       <use x="95.410156" xlink:href="#DejaVuSans-31"/>
      </g>
     </g>
    </g>
    <g id="ytick_6">
     <g id="line2d_23">
      <path clip-path="url(#p6de63f30e0)" d="M 57.6 96.27887 
L 414.72 96.27887 
" style="fill:none;stroke:#b0b0b0;stroke-linecap:square;stroke-width:0.8;"/>
     </g>
     <g id="line2d_24">
      <g>
       <use style="stroke:#000000;stroke-width:0.8;" x="57.6" xlink:href="#m0eff848b55" y="96.27887"/>
      </g>
     </g>
     <g id="text_12">
      <!-- 2.2 -->
      <g transform="translate(34.696875 100.078088)scale(0.1 -0.1)">
       <use xlink:href="#DejaVuSans-32"/>
       <use x="63.623047" xlink:href="#DejaVuSans-2e"/>
       <use x="95.410156" xlink:href="#DejaVuSans-32"/>
      </g>
     </g>
    </g>
    <g id="ytick_7">
     <g id="line2d_25">
      <path clip-path="url(#p6de63f30e0)" d="M 57.6 57.148435 
L 414.72 57.148435 
" style="fill:none;stroke:#b0b0b0;stroke-linecap:square;stroke-width:0.8;"/>
     </g>
     <g id="line2d_26">
      <g>
       <use style="stroke:#000000;stroke-width:0.8;" x="57.6" xlink:href="#m0eff848b55" y="57.148435"/>
      </g>
     </g>
     <g id="text_13">
      <!-- 2.3 -->
      <defs>
       <path d="M 40.578125 39.3125 
Q 47.65625 37.796875 51.625 33 
Q 55.609375 28.21875 55.609375 21.1875 
Q 55.609375 10.40625 48.1875 4.484375 
Q 40.765625 -1.421875 27.09375 -1.421875 
Q 22.515625 -1.421875 17.65625 -0.515625 
Q 12.796875 0.390625 7.625 2.203125 
L 7.625 11.71875 
Q 11.71875 9.328125 16.59375 8.109375 
Q 21.484375 6.890625 26.8125 6.890625 
Q 36.078125 6.890625 40.9375 10.546875 
Q 45.796875 14.203125 45.796875 21.1875 
Q 45.796875 27.640625 41.28125 31.265625 
Q 36.765625 34.90625 28.71875 34.90625 
L 20.21875 34.90625 
L 20.21875 43.015625 
L 29.109375 43.015625 
Q 36.375 43.015625 40.234375 45.921875 
Q 44.09375 48.828125 44.09375 54.296875 
Q 44.09375 59.90625 40.109375 62.90625 
Q 36.140625 65.921875 28.71875 65.921875 
Q 24.65625 65.921875 20.015625 65.03125 
Q 15.375 64.15625 9.8125 62.3125 
L 9.8125 71.09375 
Q 15.4375 72.65625 20.34375 73.4375 
Q 25.25 74.21875 29.59375 74.21875 
Q 40.828125 74.21875 47.359375 69.109375 
Q 53.90625 64.015625 53.90625 55.328125 
Q 53.90625 49.265625 50.4375 45.09375 
Q 46.96875 40.921875 40.578125 39.3125 
z
" id="DejaVuSans-33"/>
      </defs>
      <g transform="translate(34.696875 60.947654)scale(0.1 -0.1)">
       <use xlink:href="#DejaVuSans-32"/>
       <use x="63.623047" xlink:href="#DejaVuSans-2e"/>
       <use x="95.410156" xlink:href="#DejaVuSans-33"/>
      </g>
     </g>
    </g>
   </g>
   <g id="line2d_27">
    <path clip-path="url(#p6de63f30e0)" d="M 75.489112 67.255826 
L 77.865664 70.026261 
L 79.775673 92.506696 
L 82.706441 86.335826 
L 84.86068 113.171478 
L 87.58166 121.486696 
L 90.932004 124.726696 
L 93.621672 128.76887 
L 96.377095 131.785826 
L 99.858947 129.754957 
L 104.641797 119.827565 
L 106.885275 118.696696 
L 109.190123 113.249739 
L 111.58828 115.022348 
L 114.25196 122.194957 
L 116.66452 122.856261 
L 120.948889 113.72713 
L 123.555895 116.313652 
L 127.449808 111.598435 
L 129.527961 122.081478 
L 131.804629 135.119739 
L 135.495016 137.354087 
L 137.735676 150.568435 
L 141.162733 157.913217 
L 144.272603 157.20887 
L 147.865925 156.684522 
L 150.847417 151.785391 
L 154.493969 151.840174 
L 157.835545 153.268435 
L 160.829875 159.247565 
L 163.983269 152.96713 
L 167.164216 151.261043 
L 170.153537 148.001478 
L 172.871699 156.543652 
L 176.085523 165.031043 
L 179.308742 170.352783 
L 183.154435 164.854957 
L 186.938758 163.829739 
L 189.800014 162.96887 
L 193.957884 160.875391 
L 197.193314 161.008435 
L 201.177717 157.064087 
L 204.190208 162.882783 
L 207.38462 161.69713 
L 210.984204 160.131913 
L 214.696197 159.361043 
L 217.290678 165.500609 
L 218.996848 182.651478 
L 223.604979 181.516696 
L 226.798765 183.348 
L 229.922099 186.318 
L 234.074959 187.761913 
L 236.864198 196.221913 
L 240.234268 205.26887 
L 244.055225 207.503217 
L 246.869514 203.144087 
L 250.022594 207.139304 
L 254.027977 215.552348 
L 256.53322 212.981478 
L 260.139066 221.54713 
L 263.032886 219.379304 
L 266.115515 220.92887 
L 269.604569 219.715826 
L 273.486584 224.188435 
L 277.118106 222.494087 
L 279.065688 229.009304 
L 282.236616 230.01887 
L 285.793617 229.130609 
L 289.648703 225.049304 
L 291.798872 231.709304 
L 294.961659 241.824522 
L 297.895558 237.602348 
L 300.68104 239.37887 
L 303.992557 239.977565 
L 307.430886 240.89713 
L 310.519151 240.431478 
L 313.397629 239.218435 
L 317.240191 238.439739 
L 321.201111 233.552348 
L 322.747905 235.794522 
L 326.228505 235.998 
L 330.039755 231.525391 
L 332.736625 234.569739 
L 333.778676 237.066261 
L 336.892304 239.734957 
L 340.297756 237.418435 
L 343.940863 234.761478 
L 347.55986 234.820174 
L 351.10684 235.391478 
L 353.532239 234.464087 
L 355.878418 235.336696 
L 359.550332 236.350174 
L 362.938563 237.985826 
L 365.32263 238.271478 
L 368.337939 237.097565 
L 371.327259 238.956261 
L 374.851382 236.264087 
L 377.474357 234.828 
L 379.173952 236.494957 
L 382.424599 238.901478 
L 383.94531 243.021913 
L 388.064229 243.111913 
L 390.52407 246.304957 
L 392.425969 244.23887 
L 395.982374 241.930174 
" style="fill:none;stroke:#1f77b4;stroke-linecap:square;stroke-width:1.5;"/>
   </g>
   <g id="line2d_28">
    <path clip-path="url(#p6de63f30e0)" d="M 75.489112 67.255826 
L 77.646483 71.243217 
L 78.438667 132.263217 
L 84.059103 66.453652 
L 82.402718 196.691478 
L 88.189106 149.398435 
L 90.781708 131.363217 
L 93.270982 140.879739 
L 96.214274 139.991478 
L 101.239163 112.878 
L 107.145787 59.508 
L 105.839467 104.719304 
L 106.915021 72.87887 
L 112.188524 118.681043 
L 112.537962 150.850174 
L 116.873995 119.804087 
L 122.594628 53.568 
L 123.158551 121.893652 
L 128.567007 75.531913 
L 127.809579 171.260609 
L 131.304582 200.49887 
L 135.798426 139.885826 
L 136.765329 216.749739 
L 140.639829 189.295826 
L 145.073867 146.451913 
L 147.602281 144.182348 
L 151.86254 118.411043 
L 155.223216 143.701043 
L 158.089482 152.912348 
L 160.125364 183.778435 
L 163.943503 109.278 
L 166.671684 132.235826 
L 170.352679 121.784087 
L 171.655242 195.051913 
L 175.7245 203.903217 
L 179.377314 192.469304 
L 183.699257 125.164957 
L 186.558948 147.766696 
L 190.213014 151.374522 
L 194.989915 139.940609 
L 197.363336 153.42887 
L 201.939529 125.231478 
L 203.43372 185.926696 
L 207.489201 146.792348 
L 210.731832 141.486261 
L 215.03217 145.759304 
L 216.376378 191.534087 
L 216.281504 270.014087 
L 224.926017 165.786261 
L 226.820056 186.501913 
L 229.834113 196.159304 
L 235.098223 188.407565 
L 236.252369 237.371478 
L 239.703223 249.149739 
L 244.559029 213.580174 
L 246.794366 173.401043 
L 249.483408 223.171043 
L 253.991342 256.365391 
L 256.803439 194.836696 
L 259.477764 263.901913 
L 263.909611 203.312348 
L 265.465799 224.982783 
L 270.582431 209.095826 
L 272.758902 242.740174 
L 277.823243 207.937565 
L 277.636 262.602783 
L 282.139863 232.041913 
L 286.876685 220.37713 
L 289.788979 197.388 
L 291.101249 265.772348 
L 294.020432 295.488 
L 298.421593 211.232348 
L 300.559238 247.361478 
L 304.112481 240.509739 
L 308.32859 243.51887 
L 309.877889 235.583217 
L 313.421112 230.598 
L 318.274727 231.169304 
L 322.416628 202.764522 
L 321.107176 246.993652 
L 326.200011 235.023652 
L 331.519856 203.371043 
L 331.483847 249.63887 
L 331.346389 250.221913 
L 337.28276 254.162348 
L 341.065204 222.709304 
L 344.660404 218.275826 
L 348.739682 232.754087 
L 352.092217 236.017565 
L 352.349599 228.02713 
L 355.486397 238.944522 
L 360.319033 239.938435 
L 363.259507 244.978435 
L 364.986656 238.134522 
L 368.497315 229.318435 
L 371.523896 247.666696 
L 375.384619 219.02713 
L 377.433339 225.468 
L 377.356312 245.76887 
L 382.530213 251.309739 
L 382.677315 266.230174 
L 389.530552 241.816696 
L 389.893485 264.11713 
L 391.752832 232.863652 
L 395.243326 228.664957 
" style="fill:none;stroke:#ff7f0e;stroke-linecap:square;stroke-width:1.5;"/>
   </g>
   <g id="line2d_29">
    <path clip-path="url(#p6de63f30e0)" d="M 74.530976 127.324957 
L 77.320842 128.338435 
L 80.110707 129.301043 
L 82.91936 130.083652 
L 85.74993 131.167565 
L 88.599288 132.314087 
L 91.467432 133.327565 
L 94.313659 134.298 
L 97.231902 135.929739 
L 100.154529 137.424522 
L 103.088428 138.844957 
L 106.03172 140.324087 
L 109.020727 141.795391 
L 111.978736 143.415391 
L 114.939563 144.961043 
L 117.91949 146.557565 
L 120.927598 147.844957 
L 123.902202 149.01887 
L 126.955398 150.318 
L 130.013604 151.444957 
L 133.087466 152.325391 
L 136.178549 153.358435 
L 139.324741 154.109739 
L 142.451832 154.939304 
L 145.58863 155.48713 
L 148.741084 156.183652 
L 151.90575 156.884087 
L 155.048497 157.525826 
L 158.234768 157.975826 
L 161.452037 158.551043 
L 164.684023 158.985391 
L 167.916008 159.419739 
L 171.169286 159.885391 
L 174.493327 161.031913 
L 177.786997 162.186261 
L 181.119493 163.696696 
L 184.56972 165.222783 
L 187.826755 166.459304 
L 191.176159 167.613652 
L 194.497696 168.752348 
L 197.882795 169.883217 
L 201.318933 171.002348 
L 204.715617 172.180174 
L 208.116686 172.95887 
L 211.58664 173.761043 
L 214.980506 174.731478 
L 218.429481 175.537565 
L 221.862487 176.433652 
L 225.277333 177.623217 
L 228.612021 178.773652 
L 231.978646 179.861478 
L 235.380028 181.090174 
L 238.7263 182.12713 
L 242.076957 183.285391 
L 245.460178 184.494522 
L 248.751655 185.484522 
L 252.065677 186.525391 
L 255.371871 187.562348 
L 258.679631 188.654087 
L 261.936353 189.902348 
L 265.21374 191.514522 
L 268.525257 192.83713 
L 271.778535 194.511913 
L 275.018348 196.034087 
L 278.288534 197.341043 
L 281.514883 198.843652 
L 284.678297 200.123217 
L 287.857992 201.164087 
L 291.033929 202.021043 
L 294.164778 203.104957 
L 297.323808 204.040174 
L 300.509139 205.002783 
L 303.6331 206.110174 
L 306.736081 207.370174 
L 309.871001 208.575391 
L 312.956761 209.718 
L 316.023108 210.762783 
L 319.040296 211.756696 
L 322.0913 212.691913 
L 325.09158 213.509739 
L 328.158866 214.198435 
L 331.183256 215.204087 
L 334.203575 215.982783 
L 337.24863 216.753652 
L 340.251101 217.473652 
L 343.250442 218.107565 
L 346.229429 218.66713 
L 349.170217 219.20713 
L 352.161416 219.856696 
L 355.139777 220.447565 
L 358.10624 220.764522 
L 361.067067 221.069739 
L 364.010673 221.296696 
L 366.961167 221.54713 
L 369.847785 221.81713 
L 372.741605 222.149739 
L 375.623214 222.501913 
L 378.463491 222.658435 
L 381.347166 222.53713 
L 384.218755 222.380609 
L 387.077537 222.282783 
L 389.927051 222.192783 
L 392.760941 222.00887 
L 395.642894 221.969739 
L 398.487273 221.942348 
" style="fill:none;stroke:#2ca02c;stroke-linecap:square;stroke-width:1.5;"/>
   </g>
   <g id="line2d_30">
    <path clip-path="url(#p6de63f30e0)" d="M 73.832727 130.056261 
L 76.497346 131.101043 
L 79.349835 132.212348 
L 82.001929 133.237565 
L 84.685335 134.266696 
L 87.772661 135.444522 
L 90.634543 136.524522 
L 93.505819 137.604522 
L 96.120339 138.57887 
L 99.275298 139.74887 
L 102.178825 140.821043 
L 105.328148 141.971478 
L 108.273319 143.043652 
L 111.258256 144.127565 
L 114.019315 145.121478 
L 117.190869 146.260174 
L 120.196471 147.332348 
L 123.063989 148.353652 
L 126.097772 149.425826 
L 129.278094 150.544957 
L 132.135592 151.542783 
L 135.226363 152.61887 
L 138.435804 153.726261 
L 141.450173 154.763217 
L 144.629242 155.851043 
L 147.802049 156.931043 
L 150.977674 158.003217 
L 154.001437 159.016696 
L 157.178001 160.07713 
L 160.358322 161.129739 
L 163.637901 162.209739 
L 166.816344 163.246696 
L 170.106256 164.311043 
L 173.381139 165.367565 
L 176.51324 166.365391 
L 179.976619 167.464957 
L 183.292519 168.505826 
L 186.621884 169.546696 
L 189.853556 170.548435 
L 193.378619 171.632348 
L 196.648804 172.634087 
L 200.071791 173.671043 
L 203.357319 174.65713 
L 206.815688 175.690174 
L 210.370496 176.73887 
L 213.718335 177.713217 
L 217.380229 178.769739 
L 220.559611 179.673652 
L 224.227141 180.706696 
L 227.241824 181.544087 
L 230.669507 182.48713 
L 234.133825 183.422348 
L 237.546479 184.334087 
L 240.971031 185.234087 
L 244.554019 186.161478 
L 247.511715 186.912783 
L 250.863311 187.754087 
L 254.117528 188.556261 
L 257.812299 189.452348 
L 261.222448 190.258435 
L 264.087461 190.919739 
L 267.612837 191.718 
L 270.477224 192.351913 
L 273.965025 193.103217 
L 277.176971 193.780174 
L 280.480347 194.453217 
L 283.80752 195.114522 
L 286.968115 195.721043 
L 290.200414 196.323652 
L 293.433652 196.906696 
L 296.593621 197.450609 
L 299.645878 197.959304 
L 302.81023 198.464087 
L 305.814893 198.925826 
L 308.907229 199.379739 
L 311.922851 199.806261 
L 315.136363 200.236696 
L 318.261263 200.635826 
L 321.270623 201.003652 
L 324.252428 201.348 
L 327.217952 201.66887 
L 330.377295 201.993652 
L 333.582039 202.306696 
L 336.368147 202.55713 
L 339.545024 202.82713 
L 342.555637 203.061913 
L 345.319514 203.257565 
L 348.461008 203.464957 
L 351.351697 203.633217 
L 354.229548 203.781913 
L 357.40987 203.91887 
L 360.18314 204.016696 
L 363.17841 204.09887 
L 366.254464 204.153652 
L 368.982332 204.184957 
L 371.897444 204.18887 
L 374.838231 204.169304 
L 377.728607 204.126261 
L 380.702178 204.059739 
L 383.38978 203.977565 
L 386.397605 203.860174 
L 389.06952 203.734957 
L 392.248839 203.55887 
L 394.805496 203.394522 
L 397.820147 203.179304 
" style="fill:none;stroke:#d62728;stroke-linecap:square;stroke-width:1.5;"/>
   </g>
   <g id="patch_3">
    <path d="M 57.6 307.584 
L 57.6 41.472 
" style="fill:none;stroke:#000000;stroke-linecap:square;stroke-linejoin:miter;stroke-width:0.8;"/>
   </g>
   <g id="patch_4">
    <path d="M 414.72 307.584 
L 414.72 41.472 
" style="fill:none;stroke:#000000;stroke-linecap:square;stroke-linejoin:miter;stroke-width:0.8;"/>
   </g>
   <g id="patch_5">
    <path d="M 57.6 307.584 
L 414.72 307.584 
" style="fill:none;stroke:#000000;stroke-linecap:square;stroke-linejoin:miter;stroke-width:0.8;"/>
   </g>
   <g id="patch_6">
    <path d="M 57.6 41.472 
L 414.72 41.472 
" style="fill:none;stroke:#000000;stroke-linecap:square;stroke-linejoin:miter;stroke-width:0.8;"/>
   </g>
   <g id="legend_1">
    <g id="patch_7">
     <path d="M 350.209063 108.1845 
L 407.72 108.1845 
Q 409.72 108.1845 409.72 106.1845 
L 409.72 48.472 
Q 409.72 46.472 407.72 46.472 
L 350.209063 46.472 
Q 348.209063 46.472 348.209063 48.472 
L 348.209063 106.1845 
Q 348.209063 108.1845 350.209063 108.1845 
z
" style="fill:#ffffff;opacity:0.8;stroke:#cccccc;stroke-linejoin:miter;"/>
    </g>
    <g id="line2d_31">
     <path d="M 352.209063 54.570438 
L 372.209063 54.570438 
" style="fill:none;stroke:#1f77b4;stroke-linecap:square;stroke-width:1.5;"/>
    </g>
    <g id="line2d_32"/>
    <g id="text_14">
     <!-- y -->
     <defs>
      <path d="M 32.171875 -5.078125 
Q 28.375 -14.84375 24.75 -17.8125 
Q 21.140625 -20.796875 15.09375 -20.796875 
L 7.90625 -20.796875 
L 7.90625 -13.28125 
L 13.1875 -13.28125 
Q 16.890625 -13.28125 18.9375 -11.515625 
Q 21 -9.765625 23.484375 -3.21875 
L 25.09375 0.875 
L 2.984375 54.6875 
L 12.5 54.6875 
L 29.59375 11.921875 
L 46.6875 54.6875 
L 56.203125 54.6875 
z
" id="DejaVuSans-79"/>
     </defs>
     <g transform="translate(380.209063 58.070438)scale(0.1 -0.1)">
      <use xlink:href="#DejaVuSans-79"/>
     </g>
    </g>
    <g id="line2d_33">
     <path d="M 352.209063 69.248563 
L 372.209063 69.248563 
" style="fill:none;stroke:#ff7f0e;stroke-linecap:square;stroke-width:1.5;"/>
    </g>
    <g id="line2d_34"/>
    <g id="text_15">
     <!-- zy -->
     <defs>
      <path d="M 5.515625 54.6875 
L 48.1875 54.6875 
L 48.1875 46.484375 
L 14.40625 7.171875 
L 48.1875 7.171875 
L 48.1875 0 
L 4.296875 0 
L 4.296875 8.203125 
L 38.09375 47.515625 
L 5.515625 47.515625 
z
" id="DejaVuSans-7a"/>
     </defs>
     <g transform="translate(380.209063 72.748563)scale(0.1 -0.1)">
      <use xlink:href="#DejaVuSans-7a"/>
      <use x="52.490234" xlink:href="#DejaVuSans-79"/>
     </g>
    </g>
    <g id="line2d_35">
     <path d="M 352.209063 83.926688 
L 372.209063 83.926688 
" style="fill:none;stroke:#2ca02c;stroke-linecap:square;stroke-width:1.5;"/>
    </g>
    <g id="line2d_36"/>
    <g id="text_16">
     <!-- RTKy -->
     <defs>
      <path d="M 44.390625 34.1875 
Q 47.5625 33.109375 50.5625 29.59375 
Q 53.5625 26.078125 56.59375 19.921875 
L 66.609375 0 
L 56 0 
L 46.6875 18.703125 
Q 43.0625 26.03125 39.671875 28.421875 
Q 36.28125 30.8125 30.421875 30.8125 
L 19.671875 30.8125 
L 19.671875 0 
L 9.8125 0 
L 9.8125 72.90625 
L 32.078125 72.90625 
Q 44.578125 72.90625 50.734375 67.671875 
Q 56.890625 62.453125 56.890625 51.90625 
Q 56.890625 45.015625 53.6875 40.46875 
Q 50.484375 35.9375 44.390625 34.1875 
z
M 19.671875 64.796875 
L 19.671875 38.921875 
L 32.078125 38.921875 
Q 39.203125 38.921875 42.84375 42.21875 
Q 46.484375 45.515625 46.484375 51.90625 
Q 46.484375 58.296875 42.84375 61.546875 
Q 39.203125 64.796875 32.078125 64.796875 
z
" id="DejaVuSans-52"/>
      <path d="M -0.296875 72.90625 
L 61.375 72.90625 
L 61.375 64.59375 
L 35.5 64.59375 
L 35.5 0 
L 25.59375 0 
L 25.59375 64.59375 
L -0.296875 64.59375 
z
" id="DejaVuSans-54"/>
      <path d="M 9.8125 72.90625 
L 19.671875 72.90625 
L 19.671875 42.09375 
L 52.390625 72.90625 
L 65.09375 72.90625 
L 28.90625 38.921875 
L 67.671875 0 
L 54.6875 0 
L 19.671875 35.109375 
L 19.671875 0 
L 9.8125 0 
z
" id="DejaVuSans-4b"/>
     </defs>
     <g transform="translate(380.209063 87.426688)scale(0.1 -0.1)">
      <use xlink:href="#DejaVuSans-52"/>
      <use x="69.373047" xlink:href="#DejaVuSans-54"/>
      <use x="130.457031" xlink:href="#DejaVuSans-4b"/>
      <use x="195.923828" xlink:href="#DejaVuSans-79"/>
     </g>
    </g>
    <g id="line2d_37">
     <path d="M 352.209063 98.604813 
L 372.209063 98.604813 
" style="fill:none;stroke:#d62728;stroke-linecap:square;stroke-width:1.5;"/>
    </g>
    <g id="line2d_38"/>
    <g id="text_17">
     <!-- DRy -->
     <defs>
      <path d="M 19.671875 64.796875 
L 19.671875 8.109375 
L 31.59375 8.109375 
Q 46.6875 8.109375 53.6875 14.9375 
Q 60.6875 21.78125 60.6875 36.53125 
Q 60.6875 51.171875 53.6875 57.984375 
Q 46.6875 64.796875 31.59375 64.796875 
z
M 9.8125 72.90625 
L 30.078125 72.90625 
Q 51.265625 72.90625 61.171875 64.09375 
Q 71.09375 55.28125 71.09375 36.53125 
Q 71.09375 17.671875 61.125 8.828125 
Q 51.171875 0 30.078125 0 
L 9.8125 0 
z
" id="DejaVuSans-44"/>
     </defs>
     <g transform="translate(380.209063 102.104813)scale(0.1 -0.1)">
      <use xlink:href="#DejaVuSans-44"/>
      <use x="77.001953" xlink:href="#DejaVuSans-52"/>
      <use x="146.40625" xlink:href="#DejaVuSans-79"/>
     </g>
    </g>
   </g>
  </g>
 </g>
 <defs>
  <clipPath id="p6de63f30e0">
   <rect height="266.112" width="357.12" x="57.6" y="41.472"/>
  </clipPath>
 </defs>
</svg>
