<?xml version="1.0" encoding="utf-8" standalone="no"?>
<!DOCTYPE svg PUBLIC "-//W3C//DTD SVG 1.1//EN"
  "http://www.w3.org/Graphics/SVG/1.1/DTD/svg11.dtd">
<!-- Created with matplotlib (http://matplotlib.org/) -->
<svg height="345pt" version="1.1" viewBox="0 0 460 345" width="460pt" xmlns="http://www.w3.org/2000/svg" xmlns:xlink="http://www.w3.org/1999/xlink">
 <defs>
  <style type="text/css">
*{stroke-linecap:butt;stroke-linejoin:round;}
  </style>
 </defs>
 <g id="figure_1">
  <g id="patch_1">
   <path d="M 0 345.6 
L 460.8 345.6 
L 460.8 0 
L 0 0 
z
" style="fill:#ffffff;"/>
  </g>
  <g id="axes_1">
   <g id="patch_2">
    <path d="M 57.6 307.584 
L 414.72 307.584 
L 414.72 41.472 
L 57.6 41.472 
z
" style="fill:#ffffff;"/>
   </g>
   <g id="matplotlib.axis_1">
    <g id="xtick_1">
     <g id="line2d_1">
      <path clip-path="url(#pd406354f10)" d="M 72.322706 307.584 
L 72.322706 41.472 
" style="fill:none;stroke:#b0b0b0;stroke-linecap:square;stroke-width:0.8;"/>
     </g>
     <g id="line2d_2">
      <defs>
       <path d="M 0 0 
L 0 3.5 
" id="m26fc6b9896" style="stroke:#000000;stroke-width:0.8;"/>
      </defs>
      <g>
       <use style="stroke:#000000;stroke-width:0.8;" x="72.322706" xlink:href="#m26fc6b9896" y="307.584"/>
      </g>
     </g>
     <g id="text_1">
      <!-- 0 -->
      <defs>
       <path d="M 31.78125 66.40625 
Q 24.171875 66.40625 20.328125 58.90625 
Q 16.5 51.421875 16.5 36.375 
Q 16.5 21.390625 20.328125 13.890625 
Q 24.171875 6.390625 31.78125 6.390625 
Q 39.453125 6.390625 43.28125 13.890625 
Q 47.125 21.390625 47.125 36.375 
Q 47.125 51.421875 43.28125 58.90625 
Q 39.453125 66.40625 31.78125 66.40625 
z
M 31.78125 74.21875 
Q 44.046875 74.21875 50.515625 64.515625 
Q 56.984375 54.828125 56.984375 36.375 
Q 56.984375 17.96875 50.515625 8.265625 
Q 44.046875 -1.421875 31.78125 -1.421875 
Q 19.53125 -1.421875 13.0625 8.265625 
Q 6.59375 17.96875 6.59375 36.375 
Q 6.59375 54.828125 13.0625 64.515625 
Q 19.53125 74.21875 31.78125 74.21875 
z
" id="DejaVuSans-30"/>
      </defs>
      <g transform="translate(69.141456 322.182437)scale(0.1 -0.1)">
       <use xlink:href="#DejaVuSans-30"/>
      </g>
     </g>
    </g>
    <g id="xtick_2">
     <g id="line2d_3">
      <path clip-path="url(#pd406354f10)" d="M 147.823763 307.584 
L 147.823763 41.472 
" style="fill:none;stroke:#b0b0b0;stroke-linecap:square;stroke-width:0.8;"/>
     </g>
     <g id="line2d_4">
      <g>
       <use style="stroke:#000000;stroke-width:0.8;" x="147.823763" xlink:href="#m26fc6b9896" y="307.584"/>
      </g>
     </g>
     <g id="text_2">
      <!-- 50 -->
      <defs>
       <path d="M 10.796875 72.90625 
L 49.515625 72.90625 
L 49.515625 64.59375 
L 19.828125 64.59375 
L 19.828125 46.734375 
Q 21.96875 47.46875 24.109375 47.828125 
Q 26.265625 48.1875 28.421875 48.1875 
Q 40.625 48.1875 47.75 41.5 
Q 54.890625 34.8125 54.890625 23.390625 
Q 54.890625 11.625 47.5625 5.09375 
Q 40.234375 -1.421875 26.90625 -1.421875 
Q 22.3125 -1.421875 17.546875 -0.640625 
Q 12.796875 0.140625 7.71875 1.703125 
L 7.71875 11.625 
Q 12.109375 9.234375 16.796875 8.0625 
Q 21.484375 6.890625 26.703125 6.890625 
Q 35.15625 6.890625 40.078125 11.328125 
Q 45.015625 15.765625 45.015625 23.390625 
Q 45.015625 31 40.078125 35.4375 
Q 35.15625 39.890625 26.703125 39.890625 
Q 22.75 39.890625 18.8125 39.015625 
Q 14.890625 38.140625 10.796875 36.28125 
z
" id="DejaVuSans-35"/>
      </defs>
      <g transform="translate(141.461263 322.182437)scale(0.1 -0.1)">
       <use xlink:href="#DejaVuSans-35"/>
       <use x="63.623047" xlink:href="#DejaVuSans-30"/>
      </g>
     </g>
    </g>
    <g id="xtick_3">
     <g id="line2d_5">
      <path clip-path="url(#pd406354f10)" d="M 223.32482 307.584 
L 223.32482 41.472 
" style="fill:none;stroke:#b0b0b0;stroke-linecap:square;stroke-width:0.8;"/>
     </g>
     <g id="line2d_6">
      <g>
       <use style="stroke:#000000;stroke-width:0.8;" x="223.32482" xlink:href="#m26fc6b9896" y="307.584"/>
      </g>
     </g>
     <g id="text_3">
      <!-- 100 -->
      <defs>
       <path d="M 12.40625 8.296875 
L 28.515625 8.296875 
L 28.515625 63.921875 
L 10.984375 60.40625 
L 10.984375 69.390625 
L 28.421875 72.90625 
L 38.28125 72.90625 
L 38.28125 8.296875 
L 54.390625 8.296875 
L 54.390625 0 
L 12.40625 0 
z
" id="DejaVuSans-31"/>
      </defs>
      <g transform="translate(213.78107 322.182437)scale(0.1 -0.1)">
       <use xlink:href="#DejaVuSans-31"/>
       <use x="63.623047" xlink:href="#DejaVuSans-30"/>
       <use x="127.246094" xlink:href="#DejaVuSans-30"/>
      </g>
     </g>
    </g>
    <g id="xtick_4">
     <g id="line2d_7">
      <path clip-path="url(#pd406354f10)" d="M 298.825877 307.584 
L 298.825877 41.472 
" style="fill:none;stroke:#b0b0b0;stroke-linecap:square;stroke-width:0.8;"/>
     </g>
     <g id="line2d_8">
      <g>
       <use style="stroke:#000000;stroke-width:0.8;" x="298.825877" xlink:href="#m26fc6b9896" y="307.584"/>
      </g>
     </g>
     <g id="text_4">
      <!-- 150 -->
      <g transform="translate(289.282127 322.182437)scale(0.1 -0.1)">
       <use xlink:href="#DejaVuSans-31"/>
       <use x="63.623047" xlink:href="#DejaVuSans-35"/>
       <use x="127.246094" xlink:href="#DejaVuSans-30"/>
      </g>
     </g>
    </g>
    <g id="xtick_5">
     <g id="line2d_9">
      <path clip-path="url(#pd406354f10)" d="M 374.326934 307.584 
L 374.326934 41.472 
" style="fill:none;stroke:#b0b0b0;stroke-linecap:square;stroke-width:0.8;"/>
     </g>
     <g id="line2d_10">
      <g>
       <use style="stroke:#000000;stroke-width:0.8;" x="374.326934" xlink:href="#m26fc6b9896" y="307.584"/>
      </g>
     </g>
     <g id="text_5">
      <!-- 200 -->
      <defs>
       <path d="M 19.1875 8.296875 
L 53.609375 8.296875 
L 53.609375 0 
L 7.328125 0 
L 7.328125 8.296875 
Q 12.9375 14.109375 22.625 23.890625 
Q 32.328125 33.6875 34.8125 36.53125 
Q 39.546875 41.84375 41.421875 45.53125 
Q 43.3125 49.21875 43.3125 52.78125 
Q 43.3125 58.59375 39.234375 62.25 
Q 35.15625 65.921875 28.609375 65.921875 
Q 23.96875 65.921875 18.8125 64.3125 
Q 13.671875 62.703125 7.8125 59.421875 
L 7.8125 69.390625 
Q 13.765625 71.78125 18.9375 73 
Q 24.125 74.21875 28.421875 74.21875 
Q 39.75 74.21875 46.484375 68.546875 
Q 53.21875 62.890625 53.21875 53.421875 
Q 53.21875 48.921875 51.53125 44.890625 
Q 49.859375 40.875 45.40625 35.40625 
Q 44.1875 33.984375 37.640625 27.21875 
Q 31.109375 20.453125 19.1875 8.296875 
z
" id="DejaVuSans-32"/>
      </defs>
      <g transform="translate(364.783184 322.182437)scale(0.1 -0.1)">
       <use xlink:href="#DejaVuSans-32"/>
       <use x="63.623047" xlink:href="#DejaVuSans-30"/>
       <use x="127.246094" xlink:href="#DejaVuSans-30"/>
      </g>
     </g>
    </g>
   </g>
   <g id="matplotlib.axis_2">
    <g id="ytick_1">
     <g id="line2d_11">
      <path clip-path="url(#pd406354f10)" d="M 57.6 257.464877 
L 414.72 257.464877 
" style="fill:none;stroke:#b0b0b0;stroke-linecap:square;stroke-width:0.8;"/>
     </g>
     <g id="line2d_12">
      <defs>
       <path d="M 0 0 
L -3.5 0 
" id="m896760a79d" style="stroke:#000000;stroke-width:0.8;"/>
      </defs>
      <g>
       <use style="stroke:#000000;stroke-width:0.8;" x="57.6" xlink:href="#m896760a79d" y="257.464877"/>
      </g>
     </g>
     <g id="text_6">
      <!-- −4 -->
      <defs>
       <path d="M 10.59375 35.5 
L 73.1875 35.5 
L 73.1875 27.203125 
L 10.59375 27.203125 
z
" id="DejaVuSans-2212"/>
       <path d="M 37.796875 64.3125 
L 12.890625 25.390625 
L 37.796875 25.390625 
z
M 35.203125 72.90625 
L 47.609375 72.90625 
L 47.609375 25.390625 
L 58.015625 25.390625 
L 58.015625 17.1875 
L 47.609375 17.1875 
L 47.609375 0 
L 37.796875 0 
L 37.796875 17.1875 
L 4.890625 17.1875 
L 4.890625 26.703125 
z
" id="DejaVuSans-34"/>
      </defs>
      <g transform="translate(35.857813 261.264095)scale(0.1 -0.1)">
       <use xlink:href="#DejaVuSans-2212"/>
       <use x="83.789062" xlink:href="#DejaVuSans-34"/>
      </g>
     </g>
    </g>
    <g id="ytick_2">
     <g id="line2d_13">
      <path clip-path="url(#pd406354f10)" d="M 57.6 205.441475 
L 414.72 205.441475 
" style="fill:none;stroke:#b0b0b0;stroke-linecap:square;stroke-width:0.8;"/>
     </g>
     <g id="line2d_14">
      <g>
       <use style="stroke:#000000;stroke-width:0.8;" x="57.6" xlink:href="#m896760a79d" y="205.441475"/>
      </g>
     </g>
     <g id="text_7">
      <!-- −2 -->
      <g transform="translate(35.857813 209.240694)scale(0.1 -0.1)">
       <use xlink:href="#DejaVuSans-2212"/>
       <use x="83.789062" xlink:href="#DejaVuSans-32"/>
      </g>
     </g>
    </g>
    <g id="ytick_3">
     <g id="line2d_15">
      <path clip-path="url(#pd406354f10)" d="M 57.6 153.418074 
L 414.72 153.418074 
" style="fill:none;stroke:#b0b0b0;stroke-linecap:square;stroke-width:0.8;"/>
     </g>
     <g id="line2d_16">
      <g>
       <use style="stroke:#000000;stroke-width:0.8;" x="57.6" xlink:href="#m896760a79d" y="153.418074"/>
      </g>
     </g>
     <g id="text_8">
      <!-- 0 -->
      <g transform="translate(44.2375 157.217293)scale(0.1 -0.1)">
       <use xlink:href="#DejaVuSans-30"/>
      </g>
     </g>
    </g>
    <g id="ytick_4">
     <g id="line2d_17">
      <path clip-path="url(#pd406354f10)" d="M 57.6 101.394673 
L 414.72 101.394673 
" style="fill:none;stroke:#b0b0b0;stroke-linecap:square;stroke-width:0.8;"/>
     </g>
     <g id="line2d_18">
      <g>
       <use style="stroke:#000000;stroke-width:0.8;" x="57.6" xlink:href="#m896760a79d" y="101.394673"/>
      </g>
     </g>
     <g id="text_9">
      <!-- 2 -->
      <g transform="translate(44.2375 105.193892)scale(0.1 -0.1)">
       <use xlink:href="#DejaVuSans-32"/>
      </g>
     </g>
    </g>
    <g id="ytick_5">
     <g id="line2d_19">
      <path clip-path="url(#pd406354f10)" d="M 57.6 49.371272 
L 414.72 49.371272 
" style="fill:none;stroke:#b0b0b0;stroke-linecap:square;stroke-width:0.8;"/>
     </g>
     <g id="line2d_20">
      <g>
       <use style="stroke:#000000;stroke-width:0.8;" x="57.6" xlink:href="#m896760a79d" y="49.371272"/>
      </g>
     </g>
     <g id="text_10">
      <!-- 4 -->
      <g transform="translate(44.2375 53.170491)scale(0.1 -0.1)">
       <use xlink:href="#DejaVuSans-34"/>
      </g>
     </g>
    </g>
   </g>
   <g id="line2d_21">
    <path clip-path="url(#pd406354f10)" d="M 73.832727 212.223766 
L 78.362791 212.072378 
L 79.872812 208.214063 
L 81.382833 208.138108 
L 82.892854 207.929234 
L 84.402875 204.556818 
L 85.912896 204.36303 
L 87.422918 205.891998 
L 88.932939 205.700032 
L 90.44296 204.986271 
L 93.463002 204.27225 
L 94.973023 201.936919 
L 97.993066 201.169054 
L 99.503087 199.784971 
L 101.013108 197.361721 
L 102.523129 196.882325 
L 104.03315 201.554287 
L 105.543171 201.374286 
L 107.053192 200.844428 
L 108.563214 198.98251 
L 110.073235 198.595976 
L 111.583256 196.340502 
L 113.093277 194.297283 
L 116.113319 193.522654 
L 117.62334 195.207952 
L 120.643383 194.480405 
L 122.153404 193.31352 
L 123.663425 192.466319 
L 126.683467 191.523915 
L 131.213531 190.170266 
L 149.333784 184.405553 
L 155.373869 183.008205 
L 156.88389 182.683839 
L 158.393911 181.53178 
L 161.413953 180.917644 
L 162.923975 180.04209 
L 164.433996 180.431746 
L 165.944017 180.601342 
L 167.454038 179.004874 
L 173.494123 177.66717 
L 175.004144 176.279368 
L 176.514165 175.107515 
L 178.024186 174.750894 
L 179.534207 175.151292 
L 185.574292 173.974263 
L 187.084313 173.648284 
L 188.594334 172.471593 
L 190.104355 171.863648 
L 191.614376 170.817119 
L 193.124397 171.812274 
L 194.634419 170.777997 
L 196.14444 167.931667 
L 197.654461 167.365236 
L 199.164482 169.184442 
L 200.674503 168.434889 
L 202.184524 169.528109 
L 203.694545 165.356378 
L 205.204567 165.151432 
L 206.714588 164.206999 
L 208.224609 164.025048 
L 209.73463 160.665558 
L 211.244651 160.310785 
L 212.754672 158.536605 
L 214.264693 157.691563 
L 215.774715 157.592692 
L 217.284736 158.75245 
L 218.794757 156.597979 
L 220.304778 158.519619 
L 221.814799 159.467746 
L 223.32482 159.685021 
L 224.834841 156.685924 
L 226.344863 152.780741 
L 227.854884 150.644395 
L 229.364905 152.609202 
L 230.874926 153.051286 
L 232.384947 153.334144 
L 233.894968 154.333574 
L 235.404989 154.50432 
L 236.915011 156.554799 
L 238.425032 155.126247 
L 242.955095 154.827745 
L 244.465116 153.533171 
L 245.975137 153.11315 
L 247.485159 153.280125 
L 248.99518 150.677794 
L 250.505201 147.232908 
L 252.015222 145.373592 
L 253.525243 141.929617 
L 255.035264 137.588472 
L 256.545285 136.438989 
L 258.055307 138.051428 
L 259.565328 135.97996 
L 261.075349 131.656191 
L 262.58537 132.482505 
L 264.095391 127.775506 
L 265.605412 129.237233 
L 267.115433 127.009956 
L 268.625455 128.573337 
L 270.135476 124.918095 
L 271.645497 126.562814 
L 273.155518 121.171369 
L 274.665539 119.84009 
L 276.17556 120.470874 
L 277.685581 121.301688 
L 279.195603 120.680008 
L 280.705624 119.893935 
L 282.215645 120.687812 
L 283.725666 119.433267 
L 285.235687 113.987458 
L 286.745708 113.826445 
L 288.255729 113.233639 
L 289.765751 112.188489 
L 291.275772 113.452657 
L 292.785793 116.412789 
L 294.295814 112.96988 
L 295.805835 108.334855 
L 297.315856 112.197072 
L 298.825877 109.16775 
L 300.335899 107.7241 
L 301.84592 103.218354 
L 303.355941 105.63458 
L 304.865962 106.098889 
L 306.375983 106.774153 
L 307.886004 108.517977 
L 309.396025 107.965489 
L 310.906047 104.702061 
L 312.416068 104.406828 
L 313.926089 105.592962 
L 315.43611 105.336486 
L 316.946131 103.330204 
L 318.456152 96.800747 
L 319.966173 97.378727 
L 321.476195 96.40771 
L 322.986216 94.589752 
L 326.006258 92.945033 
L 330.536321 86.454333 
L 332.046342 87.877433 
L 333.556364 88.792785 
L 335.066385 89.509147 
L 336.576406 89.491459 
L 338.086427 91.794535 
L 339.596448 85.693491 
L 341.106469 87.462806 
L 342.61649 86.87104 
L 344.126512 90.752506 
L 345.636533 93.459024 
L 347.146554 96.467537 
L 348.656575 99.064285 
L 350.166596 101.985659 
L 351.676617 103.78853 
L 353.186638 106.781436 
L 354.69666 108.697198 
L 356.206681 105.881692 
L 357.716702 103.404597 
L 359.226723 103.970352 
L 360.736744 99.524692 
L 362.246765 95.693429 
L 363.756786 95.706695 
L 365.266808 98.759428 
L 366.776829 102.096469 
L 368.28685 99.313477 
L 369.796871 98.379137 
L 371.306892 98.299021 
L 372.816913 99.348073 
L 374.326934 99.516368 
L 375.836956 100.383078 
L 377.346977 98.570063 
L 378.856998 97.020286 
L 380.367019 97.129275 
L 381.87704 93.598186 
L 383.387061 90.564442 
L 386.407104 89.744033 
L 390.937167 103.206648 
L 392.447188 107.87913 
L 393.957209 107.205427 
L 395.46723 105.837992 
L 396.977252 104.004687 
L 398.487273 99.800156 
L 398.487273 99.800156 
" style="fill:none;stroke:#1f77b4;stroke-linecap:square;stroke-width:1.5;"/>
   </g>
   <g id="line2d_22">
    <path clip-path="url(#pd406354f10)" d="M 73.832727 170.631941 
L 75.342748 165.430278 
L 76.85277 155.025691 
L 78.362791 155.025335 
L 79.872812 191.441458 
L 82.892854 170.632306 
L 84.402875 186.239378 
L 85.912896 181.036778 
L 87.422918 217.453679 
L 88.932939 175.834672 
L 90.44296 201.846138 
L 91.952981 149.823309 
L 93.463002 149.823127 
L 94.973023 186.239898 
L 96.483044 165.43046 
L 97.993066 295.488 
L 99.503087 191.441458 
L 101.013108 181.036778 
L 102.523129 165.429731 
L 104.03315 236.961414 
L 105.543171 201.846658 
L 107.053192 160.227886 
L 108.563214 186.239638 
L 110.073235 279.88202 
L 111.583256 181.036778 
L 113.093277 181.036778 
L 114.603298 191.441458 
L 116.113319 129.027813 
L 117.62334 212.251079 
L 119.133362 170.632124 
L 120.643383 73.088741 
L 122.153404 186.239118 
L 123.663425 186.239118 
L 125.173446 149.822763 
L 126.683467 144.620397 
L 128.193488 149.822763 
L 129.70351 129.013247 
L 131.213531 160.228068 
L 132.723552 134.215977 
L 134.233573 139.418005 
L 135.743594 170.632644 
L 137.253615 160.228068 
L 138.763636 129.014131 
L 140.273658 129.013247 
L 141.783679 155.025691 
L 143.2937 113.420923 
L 144.803721 155.025691 
L 146.313742 129.013793 
L 147.823763 123.811297 
L 149.333784 129.013793 
L 150.843805 139.418005 
L 152.353827 134.216341 
L 153.863848 160.227703 
L 155.373869 139.433118 
L 156.88389 160.227703 
L 158.393911 170.632644 
L 161.413953 160.227703 
L 164.433996 181.037298 
L 165.944017 181.037298 
L 167.454038 165.430278 
L 168.964059 134.216341 
L 170.47408 123.811297 
L 171.984101 139.418005 
L 173.494123 149.823127 
L 175.004144 165.430278 
L 176.514165 165.430278 
L 178.024186 144.620917 
L 179.534207 175.834672 
L 181.044228 129.013793 
L 182.554249 144.620917 
L 184.064271 149.823127 
L 185.574292 149.837356 
L 187.084313 144.620917 
L 188.594334 160.227703 
L 190.104355 165.430278 
L 191.614376 160.227703 
L 193.124397 175.834672 
L 196.14444 144.620917 
L 197.654461 160.227703 
L 199.164482 181.037298 
L 200.674503 160.227703 
L 202.184524 175.834672 
L 203.694545 134.216341 
L 205.204567 129.013793 
L 206.714588 155.025691 
L 208.224609 123.811297 
L 209.73463 134.215977 
L 211.244651 155.025158 
L 212.754672 144.620917 
L 215.774715 155.025158 
L 217.284736 165.429914 
L 218.794757 139.418551 
L 220.304778 170.646872 
L 223.32482 160.227703 
L 224.834841 134.215977 
L 226.344863 123.811297 
L 227.854884 134.215977 
L 229.364905 165.429914 
L 230.874926 155.025158 
L 232.384947 155.025158 
L 233.894968 160.227703 
L 235.404989 155.025158 
L 236.915011 170.632306 
L 238.425032 144.620917 
L 239.935053 155.025158 
L 242.955095 155.025158 
L 244.465116 144.635484 
L 245.975137 113.421443 
L 247.485159 155.025158 
L 248.99518 134.216341 
L 250.505201 123.811297 
L 252.015222 134.215977 
L 253.525243 118.623523 
L 255.035264 108.218323 
L 258.055307 149.823127 
L 259.565328 123.811297 
L 261.075349 103.016503 
L 262.58537 139.418551 
L 264.095391 97.813642 
L 265.605412 139.432754 
L 267.115433 113.421443 
L 268.625455 139.418369 
L 270.135476 103.016503 
L 271.645497 139.418369 
L 273.155518 87.409222 
L 274.665539 113.421443 
L 276.17556 129.013793 
L 277.685581 129.013611 
L 279.195603 118.623263 
L 280.705624 56.194662 
L 282.215645 129.013611 
L 283.725666 113.421443 
L 285.235687 82.206882 
L 286.745708 113.421443 
L 288.255729 113.421443 
L 289.765751 108.218843 
L 292.785793 139.418369 
L 294.295814 92.611563 
L 295.805835 82.206882 
L 297.315856 139.432754 
L 298.825877 92.611563 
L 300.335899 103.016503 
L 301.84592 77.004282 
L 303.355941 123.825863 
L 304.865962 113.421183 
L 306.375983 113.421183 
L 307.886004 123.811297 
L 309.396025 108.218583 
L 310.906047 87.408962 
L 312.416068 108.218583 
L 313.926089 118.623263 
L 316.946131 97.813642 
L 318.456152 63.959154 
L 319.966173 105.577615 
L 321.476195 92.611563 
L 322.986216 87.408962 
L 324.496237 92.611563 
L 326.006258 152.398624 
L 327.516279 84.767994 
L 329.0263 79.579961 
L 330.536321 79.565914 
L 332.046342 103.016503 
L 333.556364 97.813642 
L 335.066385 97.813642 
L 336.576406 92.611563 
L 338.086427 108.218583 
L 339.596448 53.568 
L 341.106469 97.813642 
L 342.61649 82.206882 
L 344.126512 113.421183 
L 345.636533 108.216502 
L 347.146554 113.418842 
L 348.656575 113.418842 
L 350.166596 118.608957 
L 351.676617 113.420923 
L 353.186638 123.811297 
L 354.69666 115.982555 
L 356.206681 87.408962 
L 357.716702 87.408962 
L 359.226723 105.577355 
L 360.736744 71.802202 
L 362.246765 71.802202 
L 363.756786 95.18516 
L 365.266808 115.996602 
L 366.776829 121.184635 
L 368.28685 82.206882 
L 369.796871 92.611563 
L 371.306892 97.814163 
L 372.816913 105.591661 
L 374.326934 100.389321 
L 375.836956 105.591661 
L 377.346977 87.409222 
L 378.856998 87.408962 
L 380.367019 97.814163 
L 381.87704 71.802202 
L 383.387061 71.802202 
L 384.897082 87.409222 
L 386.407104 87.409222 
L 387.917125 121.184635 
L 392.447188 136.791838 
L 393.957209 103.016503 
L 396.977252 92.611563 
L 398.487273 77.004282 
L 398.487273 77.004282 
" style="fill:none;stroke:#ff7f0e;stroke-linecap:square;stroke-width:1.5;"/>
   </g>
   <g id="line2d_23">
    <path clip-path="url(#pd406354f10)" d="M 73.832727 212.223831 
L 79.872812 211.963316 
L 81.382833 211.887308 
L 88.932939 210.765066 
L 97.993066 208.721633 
L 102.523129 207.317266 
L 105.543171 206.477298 
L 107.053192 205.947326 
L 110.073235 205.232698 
L 113.093277 204.172903 
L 116.113319 203.392997 
L 117.62334 202.875991 
L 120.643383 202.148546 
L 122.153404 201.630198 
L 123.663425 201.237936 
L 126.683467 200.29558 
L 131.213531 198.942035 
L 149.333784 193.177469 
L 155.373869 191.780107 
L 165.944017 189.592406 
L 170.47408 188.651393 
L 181.044228 186.251316 
L 191.614376 184.367351 
L 211.244651 181.413307 
L 230.874926 177.899633 
L 232.384947 177.518249 
L 235.404989 177.035671 
L 239.935053 175.996144 
L 242.955095 175.162287 
L 245.975137 174.364944 
L 248.99518 173.457315 
L 253.525243 172.102875 
L 256.545285 171.03831 
L 258.055307 170.626226 
L 262.58537 168.931835 
L 264.095391 168.168695 
L 268.625455 166.410815 
L 283.725666 158.881588 
L 285.235687 157.981857 
L 286.745708 157.412539 
L 288.255729 156.546654 
L 291.275772 155.052985 
L 292.785793 154.120693 
L 294.295814 153.630148 
L 297.315856 152.132892 
L 298.825877 151.412988 
L 300.335899 150.539994 
L 303.355941 149.184735 
L 306.375983 147.489017 
L 307.886004 146.395465 
L 310.906047 144.659419 
L 313.926089 142.484893 
L 315.43611 141.604164 
L 316.946131 140.319801 
L 318.456152 139.654832 
L 319.966173 138.580685 
L 322.986216 136.736318 
L 324.496237 135.651634 
L 326.006258 134.870387 
L 327.516279 133.619229 
L 330.536321 132.075812 
L 332.046342 130.85625 
L 338.086427 127.897884 
L 342.61649 127.298013 
L 354.69666 126.324212 
L 363.756786 126.107066 
L 396.977252 126.047452 
L 398.487273 125.517331 
L 398.487273 125.517331 
" style="fill:none;stroke:#2ca02c;stroke-linecap:square;stroke-width:1.5;"/>
   </g>
   <g id="line2d_24">
    <path clip-path="url(#pd406354f10)" d="M 73.832727 153.418074 
L 75.342748 225.524069 
L 79.872812 225.512364 
L 81.382833 225.252247 
L 84.402875 225.246784 
L 85.912896 224.984066 
L 87.422918 224.981205 
L 88.932939 224.720568 
L 90.44296 224.720047 
L 101.013108 222.901829 
L 104.03315 221.882691 
L 107.053192 221.282081 
L 108.563214 220.587829 
L 111.583256 220.05693 
L 113.093277 219.281001 
L 116.113319 218.9673 
L 117.62334 218.289955 
L 119.133362 218.240793 
L 125.173446 217.116307 
L 126.683467 216.681651 
L 128.193488 216.428818 
L 129.70351 216.341158 
L 131.213531 215.65497 
L 134.233573 215.140198 
L 141.783679 212.544751 
L 143.2937 212.287235 
L 144.803721 211.767261 
L 147.823763 210.970262 
L 149.333784 210.450288 
L 155.373869 209.4093 
L 156.88389 209.360138 
L 158.393911 208.888806 
L 161.413953 208.377936 
L 164.433996 207.848858 
L 167.454038 206.787061 
L 168.964059 206.576886 
L 170.47408 206.526944 
L 171.984101 206.261624 
L 173.494123 205.692228 
L 176.514165 205.226619 
L 178.024186 204.708726 
L 181.044228 204.625488 
L 182.554249 204.189272 
L 184.064271 203.923693 
L 185.574292 203.926294 
L 190.104355 203.145943 
L 191.614376 203.110047 
L 193.124397 202.641056 
L 194.634419 202.376777 
L 196.14444 202.378077 
L 199.164482 201.84978 
L 202.184524 201.798537 
L 203.694545 201.365442 
L 205.204567 201.578998 
L 206.714588 201.319141 
L 209.73463 201.308736 
L 211.244651 201.048099 
L 212.754672 201.053822 
L 215.774715 200.555177 
L 217.284736 200.771075 
L 218.794757 200.501593 
L 220.304778 200.022198 
L 223.32482 200.036764 
L 224.834841 199.517831 
L 226.344863 199.524074 
L 230.874926 198.765833 
L 232.384947 198.76037 
L 233.894968 198.500253 
L 235.404989 198.498172 
L 236.915011 198.237535 
L 238.425032 197.722763 
L 239.935053 197.994065 
L 241.445074 197.73681 
L 242.955095 196.947355 
L 245.975137 196.437005 
L 247.485159 195.663677 
L 253.525243 194.627631 
L 256.545285 193.578059 
L 258.055307 193.31378 
L 259.565328 192.789905 
L 262.58537 192.013976 
L 264.095391 191.450822 
L 265.605412 190.710009 
L 267.115433 190.257405 
L 268.625455 189.927837 
L 271.645497 188.642339 
L 273.155518 188.380141 
L 274.665539 187.340453 
L 276.17556 186.571808 
L 279.195603 185.543825 
L 283.725666 183.195229 
L 285.235687 182.612306 
L 289.765751 180.238219 
L 291.275772 179.754401 
L 294.295814 178.265855 
L 295.805835 177.488522 
L 300.335899 175.943245 
L 303.355941 174.381398 
L 304.865962 174.120943 
L 306.375983 173.533443 
L 307.886004 172.558992 
L 309.396025 171.97477 
L 310.906047 171.200843 
L 316.946131 167.235958 
L 319.966173 165.944919 
L 324.496237 162.918926 
L 326.006258 162.334573 
L 327.516279 161.364077 
L 333.556364 158.247121 
L 336.576406 156.159265 
L 338.086427 155.63502 
L 341.106469 154.080582 
L 344.126512 154.092922 
L 345.636533 153.580027 
L 347.146554 153.844294 
L 348.656575 153.849538 
L 350.166596 153.333889 
L 353.186638 153.871388 
L 356.206681 153.387918 
L 359.226723 153.456857 
L 360.736744 153.20648 
L 362.246765 153.372674 
L 363.756786 153.207023 
L 365.266808 153.269098 
L 366.776829 153.191123 
L 369.796871 153.352752 
L 377.346977 153.350892 
L 381.87704 153.09754 
L 383.387061 153.102113 
L 384.897082 152.841832 
L 386.407104 153.098971 
L 387.917125 152.838919 
L 389.427146 152.835985 
L 390.937167 153.089653 
L 392.447188 152.583983 
L 393.957209 152.85071 
L 395.46723 152.755247 
L 396.977252 152.051557 
L 398.487273 152.569669 
L 398.487273 152.569669 
" style="fill:none;stroke:#d62728;stroke-linecap:square;stroke-width:1.5;"/>
   </g>
   <g id="line2d_25">
    <path clip-path="url(#pd406354f10)" d="M 73.832727 225.436149 
L 79.872812 225.248605 
L 84.402875 224.910973 
L 88.932939 224.220102 
L 94.973023 222.988188 
L 97.993066 222.242433 
L 101.013108 221.453238 
L 104.03315 220.516036 
L 134.233573 211.621855 
L 150.843805 206.366191 
L 155.373869 205.333527 
L 167.454038 202.780999 
L 175.004144 201.140961 
L 185.574292 198.828781 
L 194.634419 197.286547 
L 203.694545 196.009893 
L 212.754672 194.593816 
L 218.794757 193.546845 
L 238.425032 189.894542 
L 245.975137 187.970717 
L 258.055307 184.30905 
L 262.58537 182.680197 
L 273.155518 178.216303 
L 294.295814 167.52526 
L 304.865962 162.390758 
L 309.396025 159.813649 
L 315.43611 155.770034 
L 319.966173 152.869519 
L 332.046342 145.172261 
L 338.086427 141.711951 
L 339.596448 141.182795 
L 341.106469 140.831038 
L 345.636533 140.320247 
L 356.206681 139.475777 
L 365.266808 139.241698 
L 398.487273 139.182027 
L 398.487273 139.182027 
" style="fill:none;stroke:#9467bd;stroke-linecap:square;stroke-width:1.5;"/>
   </g>
   <g id="patch_3">
    <path d="M 57.6 307.584 
L 57.6 41.472 
" style="fill:none;stroke:#000000;stroke-linecap:square;stroke-linejoin:miter;stroke-width:0.8;"/>
   </g>
   <g id="patch_4">
    <path d="M 414.72 307.584 
L 414.72 41.472 
" style="fill:none;stroke:#000000;stroke-linecap:square;stroke-linejoin:miter;stroke-width:0.8;"/>
   </g>
   <g id="patch_5">
    <path d="M 57.6 307.584 
L 414.72 307.584 
" style="fill:none;stroke:#000000;stroke-linecap:square;stroke-linejoin:miter;stroke-width:0.8;"/>
   </g>
   <g id="patch_6">
    <path d="M 57.6 41.472 
L 414.72 41.472 
" style="fill:none;stroke:#000000;stroke-linecap:square;stroke-linejoin:miter;stroke-width:0.8;"/>
   </g>
   <g id="legend_1">
    <g id="patch_7">
     <path d="M 329.6575 302.584 
L 407.72 302.584 
Q 409.72 302.584 409.72 300.584 
L 409.72 227.91525 
Q 409.72 225.91525 407.72 225.91525 
L 329.6575 225.91525 
Q 327.6575 225.91525 327.6575 227.91525 
L 327.6575 300.584 
Q 327.6575 302.584 329.6575 302.584 
z
" style="fill:#ffffff;opacity:0.8;stroke:#cccccc;stroke-linejoin:miter;"/>
    </g>
    <g id="line2d_26">
     <path d="M 331.6575 234.013687 
L 351.6575 234.013687 
" style="fill:none;stroke:#1f77b4;stroke-linecap:square;stroke-width:1.5;"/>
    </g>
    <g id="line2d_27"/>
    <g id="text_11">
     <!-- angle -->
     <defs>
      <path d="M 34.28125 27.484375 
Q 23.390625 27.484375 19.1875 25 
Q 14.984375 22.515625 14.984375 16.5 
Q 14.984375 11.71875 18.140625 8.90625 
Q 21.296875 6.109375 26.703125 6.109375 
Q 34.1875 6.109375 38.703125 11.40625 
Q 43.21875 16.703125 43.21875 25.484375 
L 43.21875 27.484375 
z
M 52.203125 31.203125 
L 52.203125 0 
L 43.21875 0 
L 43.21875 8.296875 
Q 40.140625 3.328125 35.546875 0.953125 
Q 30.953125 -1.421875 24.3125 -1.421875 
Q 15.921875 -1.421875 10.953125 3.296875 
Q 6 8.015625 6 15.921875 
Q 6 25.140625 12.171875 29.828125 
Q 18.359375 34.515625 30.609375 34.515625 
L 43.21875 34.515625 
L 43.21875 35.40625 
Q 43.21875 41.609375 39.140625 45 
Q 35.0625 48.390625 27.6875 48.390625 
Q 23 48.390625 18.546875 47.265625 
Q 14.109375 46.140625 10.015625 43.890625 
L 10.015625 52.203125 
Q 14.9375 54.109375 19.578125 55.046875 
Q 24.21875 56 28.609375 56 
Q 40.484375 56 46.34375 49.84375 
Q 52.203125 43.703125 52.203125 31.203125 
z
" id="DejaVuSans-61"/>
      <path d="M 54.890625 33.015625 
L 54.890625 0 
L 45.90625 0 
L 45.90625 32.71875 
Q 45.90625 40.484375 42.875 44.328125 
Q 39.84375 48.1875 33.796875 48.1875 
Q 26.515625 48.1875 22.3125 43.546875 
Q 18.109375 38.921875 18.109375 30.90625 
L 18.109375 0 
L 9.078125 0 
L 9.078125 54.6875 
L 18.109375 54.6875 
L 18.109375 46.1875 
Q 21.34375 51.125 25.703125 53.5625 
Q 30.078125 56 35.796875 56 
Q 45.21875 56 50.046875 50.171875 
Q 54.890625 44.34375 54.890625 33.015625 
z
" id="DejaVuSans-6e"/>
      <path d="M 45.40625 27.984375 
Q 45.40625 37.75 41.375 43.109375 
Q 37.359375 48.484375 30.078125 48.484375 
Q 22.859375 48.484375 18.828125 43.109375 
Q 14.796875 37.75 14.796875 27.984375 
Q 14.796875 18.265625 18.828125 12.890625 
Q 22.859375 7.515625 30.078125 7.515625 
Q 37.359375 7.515625 41.375 12.890625 
Q 45.40625 18.265625 45.40625 27.984375 
z
M 54.390625 6.78125 
Q 54.390625 -7.171875 48.1875 -13.984375 
Q 42 -20.796875 29.203125 -20.796875 
Q 24.46875 -20.796875 20.265625 -20.09375 
Q 16.0625 -19.390625 12.109375 -17.921875 
L 12.109375 -9.1875 
Q 16.0625 -11.328125 19.921875 -12.34375 
Q 23.78125 -13.375 27.78125 -13.375 
Q 36.625 -13.375 41.015625 -8.765625 
Q 45.40625 -4.15625 45.40625 5.171875 
L 45.40625 9.625 
Q 42.625 4.78125 38.28125 2.390625 
Q 33.9375 0 27.875 0 
Q 17.828125 0 11.671875 7.65625 
Q 5.515625 15.328125 5.515625 27.984375 
Q 5.515625 40.671875 11.671875 48.328125 
Q 17.828125 56 27.875 56 
Q 33.9375 56 38.28125 53.609375 
Q 42.625 51.21875 45.40625 46.390625 
L 45.40625 54.6875 
L 54.390625 54.6875 
z
" id="DejaVuSans-67"/>
      <path d="M 9.421875 75.984375 
L 18.40625 75.984375 
L 18.40625 0 
L 9.421875 0 
z
" id="DejaVuSans-6c"/>
      <path d="M 56.203125 29.59375 
L 56.203125 25.203125 
L 14.890625 25.203125 
Q 15.484375 15.921875 20.484375 11.0625 
Q 25.484375 6.203125 34.421875 6.203125 
Q 39.59375 6.203125 44.453125 7.46875 
Q 49.3125 8.734375 54.109375 11.28125 
L 54.109375 2.78125 
Q 49.265625 0.734375 44.1875 -0.34375 
Q 39.109375 -1.421875 33.890625 -1.421875 
Q 20.796875 -1.421875 13.15625 6.1875 
Q 5.515625 13.8125 5.515625 26.8125 
Q 5.515625 40.234375 12.765625 48.109375 
Q 20.015625 56 32.328125 56 
Q 43.359375 56 49.78125 48.890625 
Q 56.203125 41.796875 56.203125 29.59375 
z
M 47.21875 32.234375 
Q 47.125 39.59375 43.09375 43.984375 
Q 39.0625 48.390625 32.421875 48.390625 
Q 24.90625 48.390625 20.390625 44.140625 
Q 15.875 39.890625 15.1875 32.171875 
z
" id="DejaVuSans-65"/>
     </defs>
     <g transform="translate(359.6575 237.513687)scale(0.1 -0.1)">
      <use xlink:href="#DejaVuSans-61"/>
      <use x="61.279297" xlink:href="#DejaVuSans-6e"/>
      <use x="124.658203" xlink:href="#DejaVuSans-67"/>
      <use x="188.134766" xlink:href="#DejaVuSans-6c"/>
      <use x="215.917969" xlink:href="#DejaVuSans-65"/>
     </g>
    </g>
    <g id="line2d_28">
     <path d="M 331.6575 248.691812 
L 351.6575 248.691812 
" style="fill:none;stroke:#ff7f0e;stroke-linecap:square;stroke-width:1.5;"/>
    </g>
    <g id="line2d_29"/>
    <g id="text_12">
     <!-- ztheta -->
     <defs>
      <path d="M 5.515625 54.6875 
L 48.1875 54.6875 
L 48.1875 46.484375 
L 14.40625 7.171875 
L 48.1875 7.171875 
L 48.1875 0 
L 4.296875 0 
L 4.296875 8.203125 
L 38.09375 47.515625 
L 5.515625 47.515625 
z
" id="DejaVuSans-7a"/>
      <path d="M 18.3125 70.21875 
L 18.3125 54.6875 
L 36.8125 54.6875 
L 36.8125 47.703125 
L 18.3125 47.703125 
L 18.3125 18.015625 
Q 18.3125 11.328125 20.140625 9.421875 
Q 21.96875 7.515625 27.59375 7.515625 
L 36.8125 7.515625 
L 36.8125 0 
L 27.59375 0 
Q 17.1875 0 13.234375 3.875 
Q 9.28125 7.765625 9.28125 18.015625 
L 9.28125 47.703125 
L 2.6875 47.703125 
L 2.6875 54.6875 
L 9.28125 54.6875 
L 9.28125 70.21875 
z
" id="DejaVuSans-74"/>
      <path d="M 54.890625 33.015625 
L 54.890625 0 
L 45.90625 0 
L 45.90625 32.71875 
Q 45.90625 40.484375 42.875 44.328125 
Q 39.84375 48.1875 33.796875 48.1875 
Q 26.515625 48.1875 22.3125 43.546875 
Q 18.109375 38.921875 18.109375 30.90625 
L 18.109375 0 
L 9.078125 0 
L 9.078125 75.984375 
L 18.109375 75.984375 
L 18.109375 46.1875 
Q 21.34375 51.125 25.703125 53.5625 
Q 30.078125 56 35.796875 56 
Q 45.21875 56 50.046875 50.171875 
Q 54.890625 44.34375 54.890625 33.015625 
z
" id="DejaVuSans-68"/>
     </defs>
     <g transform="translate(359.6575 252.191812)scale(0.1 -0.1)">
      <use xlink:href="#DejaVuSans-7a"/>
      <use x="52.490234" xlink:href="#DejaVuSans-74"/>
      <use x="91.699219" xlink:href="#DejaVuSans-68"/>
      <use x="155.078125" xlink:href="#DejaVuSans-65"/>
      <use x="216.601562" xlink:href="#DejaVuSans-74"/>
      <use x="255.810547" xlink:href="#DejaVuSans-61"/>
     </g>
    </g>
    <g id="line2d_30">
     <path d="M 331.6575 263.369937 
L 351.6575 263.369937 
" style="fill:none;stroke:#2ca02c;stroke-linecap:square;stroke-width:1.5;"/>
    </g>
    <g id="line2d_31"/>
    <g id="text_13">
     <!-- dr_theta -->
     <defs>
      <path d="M 45.40625 46.390625 
L 45.40625 75.984375 
L 54.390625 75.984375 
L 54.390625 0 
L 45.40625 0 
L 45.40625 8.203125 
Q 42.578125 3.328125 38.25 0.953125 
Q 33.9375 -1.421875 27.875 -1.421875 
Q 17.96875 -1.421875 11.734375 6.484375 
Q 5.515625 14.40625 5.515625 27.296875 
Q 5.515625 40.1875 11.734375 48.09375 
Q 17.96875 56 27.875 56 
Q 33.9375 56 38.25 53.625 
Q 42.578125 51.265625 45.40625 46.390625 
z
M 14.796875 27.296875 
Q 14.796875 17.390625 18.875 11.75 
Q 22.953125 6.109375 30.078125 6.109375 
Q 37.203125 6.109375 41.296875 11.75 
Q 45.40625 17.390625 45.40625 27.296875 
Q 45.40625 37.203125 41.296875 42.84375 
Q 37.203125 48.484375 30.078125 48.484375 
Q 22.953125 48.484375 18.875 42.84375 
Q 14.796875 37.203125 14.796875 27.296875 
z
" id="DejaVuSans-64"/>
      <path d="M 41.109375 46.296875 
Q 39.59375 47.171875 37.8125 47.578125 
Q 36.03125 48 33.890625 48 
Q 26.265625 48 22.1875 43.046875 
Q 18.109375 38.09375 18.109375 28.8125 
L 18.109375 0 
L 9.078125 0 
L 9.078125 54.6875 
L 18.109375 54.6875 
L 18.109375 46.1875 
Q 20.953125 51.171875 25.484375 53.578125 
Q 30.03125 56 36.53125 56 
Q 37.453125 56 38.578125 55.875 
Q 39.703125 55.765625 41.0625 55.515625 
z
" id="DejaVuSans-72"/>
      <path d="M 50.984375 -16.609375 
L 50.984375 -23.578125 
L -0.984375 -23.578125 
L -0.984375 -16.609375 
z
" id="DejaVuSans-5f"/>
     </defs>
     <g transform="translate(359.6575 266.869937)scale(0.1 -0.1)">
      <use xlink:href="#DejaVuSans-64"/>
      <use x="63.476562" xlink:href="#DejaVuSans-72"/>
      <use x="104.589844" xlink:href="#DejaVuSans-5f"/>
      <use x="154.589844" xlink:href="#DejaVuSans-74"/>
      <use x="193.798828" xlink:href="#DejaVuSans-68"/>
      <use x="257.177734" xlink:href="#DejaVuSans-65"/>
      <use x="318.701172" xlink:href="#DejaVuSans-74"/>
      <use x="357.910156" xlink:href="#DejaVuSans-61"/>
     </g>
    </g>
    <g id="line2d_32">
     <path d="M 331.6575 278.326187 
L 351.6575 278.326187 
" style="fill:none;stroke:#d62728;stroke-linecap:square;stroke-width:1.5;"/>
    </g>
    <g id="line2d_33"/>
    <g id="text_14">
     <!-- RTKtheta -->
     <defs>
      <path d="M 44.390625 34.1875 
Q 47.5625 33.109375 50.5625 29.59375 
Q 53.5625 26.078125 56.59375 19.921875 
L 66.609375 0 
L 56 0 
L 46.6875 18.703125 
Q 43.0625 26.03125 39.671875 28.421875 
Q 36.28125 30.8125 30.421875 30.8125 
L 19.671875 30.8125 
L 19.671875 0 
L 9.8125 0 
L 9.8125 72.90625 
L 32.078125 72.90625 
Q 44.578125 72.90625 50.734375 67.671875 
Q 56.890625 62.453125 56.890625 51.90625 
Q 56.890625 45.015625 53.6875 40.46875 
Q 50.484375 35.9375 44.390625 34.1875 
z
M 19.671875 64.796875 
L 19.671875 38.921875 
L 32.078125 38.921875 
Q 39.203125 38.921875 42.84375 42.21875 
Q 46.484375 45.515625 46.484375 51.90625 
Q 46.484375 58.296875 42.84375 61.546875 
Q 39.203125 64.796875 32.078125 64.796875 
z
" id="DejaVuSans-52"/>
      <path d="M -0.296875 72.90625 
L 61.375 72.90625 
L 61.375 64.59375 
L 35.5 64.59375 
L 35.5 0 
L 25.59375 0 
L 25.59375 64.59375 
L -0.296875 64.59375 
z
" id="DejaVuSans-54"/>
      <path d="M 9.8125 72.90625 
L 19.671875 72.90625 
L 19.671875 42.09375 
L 52.390625 72.90625 
L 65.09375 72.90625 
L 28.90625 38.921875 
L 67.671875 0 
L 54.6875 0 
L 19.671875 35.109375 
L 19.671875 0 
L 9.8125 0 
z
" id="DejaVuSans-4b"/>
     </defs>
     <g transform="translate(359.6575 281.826187)scale(0.1 -0.1)">
      <use xlink:href="#DejaVuSans-52"/>
      <use x="69.373047" xlink:href="#DejaVuSans-54"/>
      <use x="130.457031" xlink:href="#DejaVuSans-4b"/>
      <use x="196.033203" xlink:href="#DejaVuSans-74"/>
      <use x="235.242188" xlink:href="#DejaVuSans-68"/>
      <use x="298.621094" xlink:href="#DejaVuSans-65"/>
      <use x="360.144531" xlink:href="#DejaVuSans-74"/>
      <use x="399.353516" xlink:href="#DejaVuSans-61"/>
     </g>
    </g>
    <g id="line2d_34">
     <path d="M 331.6575 293.004312 
L 351.6575 293.004312 
" style="fill:none;stroke:#9467bd;stroke-linecap:square;stroke-width:1.5;"/>
    </g>
    <g id="line2d_35"/>
    <g id="text_15">
     <!-- DRtheta -->
     <defs>
      <path d="M 19.671875 64.796875 
L 19.671875 8.109375 
L 31.59375 8.109375 
Q 46.6875 8.109375 53.6875 14.9375 
Q 60.6875 21.78125 60.6875 36.53125 
Q 60.6875 51.171875 53.6875 57.984375 
Q 46.6875 64.796875 31.59375 64.796875 
z
M 9.8125 72.90625 
L 30.078125 72.90625 
Q 51.265625 72.90625 61.171875 64.09375 
Q 71.09375 55.28125 71.09375 36.53125 
Q 71.09375 17.671875 61.125 8.828125 
Q 51.171875 0 30.078125 0 
L 9.8125 0 
z
" id="DejaVuSans-44"/>
     </defs>
     <g transform="translate(359.6575 296.504312)scale(0.1 -0.1)">
      <use xlink:href="#DejaVuSans-44"/>
      <use x="77.001953" xlink:href="#DejaVuSans-52"/>
      <use x="146.484375" xlink:href="#DejaVuSans-74"/>
      <use x="185.693359" xlink:href="#DejaVuSans-68"/>
      <use x="249.072266" xlink:href="#DejaVuSans-65"/>
      <use x="310.595703" xlink:href="#DejaVuSans-74"/>
      <use x="349.804688" xlink:href="#DejaVuSans-61"/>
     </g>
    </g>
   </g>
  </g>
 </g>
 <defs>
  <clipPath id="pd406354f10">
   <rect height="266.112" width="357.12" x="57.6" y="41.472"/>
  </clipPath>
 </defs>
</svg>
