<?xml version="1.0" encoding="utf-8" standalone="no"?>
<!DOCTYPE svg PUBLIC "-//W3C//DTD SVG 1.1//EN"
  "http://www.w3.org/Graphics/SVG/1.1/DTD/svg11.dtd">
<!-- Created with matplotlib (http://matplotlib.org/) -->
<svg height="345pt" version="1.1" viewBox="0 0 460 345" width="460pt" xmlns="http://www.w3.org/2000/svg" xmlns:xlink="http://www.w3.org/1999/xlink">
 <defs>
  <style type="text/css">
*{stroke-linecap:butt;stroke-linejoin:round;}
  </style>
 </defs>
 <g id="figure_1">
  <g id="patch_1">
   <path d="M 0 345.6 
L 460.8 345.6 
L 460.8 0 
L 0 0 
z
" style="fill:#ffffff;"/>
  </g>
  <g id="axes_1">
   <g id="patch_2">
    <path d="M 57.6 307.584 
L 414.72 307.584 
L 414.72 41.472 
L 57.6 41.472 
z
" style="fill:#ffffff;"/>
   </g>
   <g id="matplotlib.axis_1">
    <g id="xtick_1">
     <g id="line2d_1">
      <path clip-path="url(#pcd43b6263b)" d="M 73.832727 307.584 
L 73.832727 41.472 
" style="fill:none;stroke:#b0b0b0;stroke-linecap:square;stroke-width:0.8;"/>
     </g>
     <g id="line2d_2">
      <defs>
       <path d="M 0 0 
L 0 3.5 
" id="m931b8a8b44" style="stroke:#000000;stroke-width:0.8;"/>
      </defs>
      <g>
       <use style="stroke:#000000;stroke-width:0.8;" x="73.832727" xlink:href="#m931b8a8b44" y="307.584"/>
      </g>
     </g>
     <g id="text_1">
      <!-- 0 -->
      <defs>
       <path d="M 31.78125 66.40625 
Q 24.171875 66.40625 20.328125 58.90625 
Q 16.5 51.421875 16.5 36.375 
Q 16.5 21.390625 20.328125 13.890625 
Q 24.171875 6.390625 31.78125 6.390625 
Q 39.453125 6.390625 43.28125 13.890625 
Q 47.125 21.390625 47.125 36.375 
Q 47.125 51.421875 43.28125 58.90625 
Q 39.453125 66.40625 31.78125 66.40625 
z
M 31.78125 74.21875 
Q 44.046875 74.21875 50.515625 64.515625 
Q 56.984375 54.828125 56.984375 36.375 
Q 56.984375 17.96875 50.515625 8.265625 
Q 44.046875 -1.421875 31.78125 -1.421875 
Q 19.53125 -1.421875 13.0625 8.265625 
Q 6.59375 17.96875 6.59375 36.375 
Q 6.59375 54.828125 13.0625 64.515625 
Q 19.53125 74.21875 31.78125 74.21875 
z
" id="DejaVuSans-30"/>
      </defs>
      <g transform="translate(70.651477 322.182437)scale(0.1 -0.1)">
       <use xlink:href="#DejaVuSans-30"/>
      </g>
     </g>
    </g>
    <g id="xtick_2">
     <g id="line2d_3">
      <path clip-path="url(#pcd43b6263b)" d="M 148.124385 307.584 
L 148.124385 41.472 
" style="fill:none;stroke:#b0b0b0;stroke-linecap:square;stroke-width:0.8;"/>
     </g>
     <g id="line2d_4">
      <g>
       <use style="stroke:#000000;stroke-width:0.8;" x="148.124385" xlink:href="#m931b8a8b44" y="307.584"/>
      </g>
     </g>
     <g id="text_2">
      <!-- 100 -->
      <defs>
       <path d="M 12.40625 8.296875 
L 28.515625 8.296875 
L 28.515625 63.921875 
L 10.984375 60.40625 
L 10.984375 69.390625 
L 28.421875 72.90625 
L 38.28125 72.90625 
L 38.28125 8.296875 
L 54.390625 8.296875 
L 54.390625 0 
L 12.40625 0 
z
" id="DejaVuSans-31"/>
      </defs>
      <g transform="translate(138.580635 322.182437)scale(0.1 -0.1)">
       <use xlink:href="#DejaVuSans-31"/>
       <use x="63.623047" xlink:href="#DejaVuSans-30"/>
       <use x="127.246094" xlink:href="#DejaVuSans-30"/>
      </g>
     </g>
    </g>
    <g id="xtick_3">
     <g id="line2d_5">
      <path clip-path="url(#pcd43b6263b)" d="M 222.416043 307.584 
L 222.416043 41.472 
" style="fill:none;stroke:#b0b0b0;stroke-linecap:square;stroke-width:0.8;"/>
     </g>
     <g id="line2d_6">
      <g>
       <use style="stroke:#000000;stroke-width:0.8;" x="222.416043" xlink:href="#m931b8a8b44" y="307.584"/>
      </g>
     </g>
     <g id="text_3">
      <!-- 200 -->
      <defs>
       <path d="M 19.1875 8.296875 
L 53.609375 8.296875 
L 53.609375 0 
L 7.328125 0 
L 7.328125 8.296875 
Q 12.9375 14.109375 22.625 23.890625 
Q 32.328125 33.6875 34.8125 36.53125 
Q 39.546875 41.84375 41.421875 45.53125 
Q 43.3125 49.21875 43.3125 52.78125 
Q 43.3125 58.59375 39.234375 62.25 
Q 35.15625 65.921875 28.609375 65.921875 
Q 23.96875 65.921875 18.8125 64.3125 
Q 13.671875 62.703125 7.8125 59.421875 
L 7.8125 69.390625 
Q 13.765625 71.78125 18.9375 73 
Q 24.125 74.21875 28.421875 74.21875 
Q 39.75 74.21875 46.484375 68.546875 
Q 53.21875 62.890625 53.21875 53.421875 
Q 53.21875 48.921875 51.53125 44.890625 
Q 49.859375 40.875 45.40625 35.40625 
Q 44.1875 33.984375 37.640625 27.21875 
Q 31.109375 20.453125 19.1875 8.296875 
z
" id="DejaVuSans-32"/>
      </defs>
      <g transform="translate(212.872293 322.182437)scale(0.1 -0.1)">
       <use xlink:href="#DejaVuSans-32"/>
       <use x="63.623047" xlink:href="#DejaVuSans-30"/>
       <use x="127.246094" xlink:href="#DejaVuSans-30"/>
      </g>
     </g>
    </g>
    <g id="xtick_4">
     <g id="line2d_7">
      <path clip-path="url(#pcd43b6263b)" d="M 296.707701 307.584 
L 296.707701 41.472 
" style="fill:none;stroke:#b0b0b0;stroke-linecap:square;stroke-width:0.8;"/>
     </g>
     <g id="line2d_8">
      <g>
       <use style="stroke:#000000;stroke-width:0.8;" x="296.707701" xlink:href="#m931b8a8b44" y="307.584"/>
      </g>
     </g>
     <g id="text_4">
      <!-- 300 -->
      <defs>
       <path d="M 40.578125 39.3125 
Q 47.65625 37.796875 51.625 33 
Q 55.609375 28.21875 55.609375 21.1875 
Q 55.609375 10.40625 48.1875 4.484375 
Q 40.765625 -1.421875 27.09375 -1.421875 
Q 22.515625 -1.421875 17.65625 -0.515625 
Q 12.796875 0.390625 7.625 2.203125 
L 7.625 11.71875 
Q 11.71875 9.328125 16.59375 8.109375 
Q 21.484375 6.890625 26.8125 6.890625 
Q 36.078125 6.890625 40.9375 10.546875 
Q 45.796875 14.203125 45.796875 21.1875 
Q 45.796875 27.640625 41.28125 31.265625 
Q 36.765625 34.90625 28.71875 34.90625 
L 20.21875 34.90625 
L 20.21875 43.015625 
L 29.109375 43.015625 
Q 36.375 43.015625 40.234375 45.921875 
Q 44.09375 48.828125 44.09375 54.296875 
Q 44.09375 59.90625 40.109375 62.90625 
Q 36.140625 65.921875 28.71875 65.921875 
Q 24.65625 65.921875 20.015625 65.03125 
Q 15.375 64.15625 9.8125 62.3125 
L 9.8125 71.09375 
Q 15.4375 72.65625 20.34375 73.4375 
Q 25.25 74.21875 29.59375 74.21875 
Q 40.828125 74.21875 47.359375 69.109375 
Q 53.90625 64.015625 53.90625 55.328125 
Q 53.90625 49.265625 50.4375 45.09375 
Q 46.96875 40.921875 40.578125 39.3125 
z
" id="DejaVuSans-33"/>
      </defs>
      <g transform="translate(287.163951 322.182437)scale(0.1 -0.1)">
       <use xlink:href="#DejaVuSans-33"/>
       <use x="63.623047" xlink:href="#DejaVuSans-30"/>
       <use x="127.246094" xlink:href="#DejaVuSans-30"/>
      </g>
     </g>
    </g>
    <g id="xtick_5">
     <g id="line2d_9">
      <path clip-path="url(#pcd43b6263b)" d="M 370.999359 307.584 
L 370.999359 41.472 
" style="fill:none;stroke:#b0b0b0;stroke-linecap:square;stroke-width:0.8;"/>
     </g>
     <g id="line2d_10">
      <g>
       <use style="stroke:#000000;stroke-width:0.8;" x="370.999359" xlink:href="#m931b8a8b44" y="307.584"/>
      </g>
     </g>
     <g id="text_5">
      <!-- 400 -->
      <defs>
       <path d="M 37.796875 64.3125 
L 12.890625 25.390625 
L 37.796875 25.390625 
z
M 35.203125 72.90625 
L 47.609375 72.90625 
L 47.609375 25.390625 
L 58.015625 25.390625 
L 58.015625 17.1875 
L 47.609375 17.1875 
L 47.609375 0 
L 37.796875 0 
L 37.796875 17.1875 
L 4.890625 17.1875 
L 4.890625 26.703125 
z
" id="DejaVuSans-34"/>
      </defs>
      <g transform="translate(361.455609 322.182437)scale(0.1 -0.1)">
       <use xlink:href="#DejaVuSans-34"/>
       <use x="63.623047" xlink:href="#DejaVuSans-30"/>
       <use x="127.246094" xlink:href="#DejaVuSans-30"/>
      </g>
     </g>
    </g>
   </g>
   <g id="matplotlib.axis_2">
    <g id="ytick_1">
     <g id="line2d_11">
      <path clip-path="url(#pcd43b6263b)" d="M 57.6 258.210113 
L 414.72 258.210113 
" style="fill:none;stroke:#b0b0b0;stroke-linecap:square;stroke-width:0.8;"/>
     </g>
     <g id="line2d_12">
      <defs>
       <path d="M 0 0 
L -3.5 0 
" id="mccd94be9d2" style="stroke:#000000;stroke-width:0.8;"/>
      </defs>
      <g>
       <use style="stroke:#000000;stroke-width:0.8;" x="57.6" xlink:href="#mccd94be9d2" y="258.210113"/>
      </g>
     </g>
     <g id="text_6">
      <!-- −200 -->
      <defs>
       <path d="M 10.59375 35.5 
L 73.1875 35.5 
L 73.1875 27.203125 
L 10.59375 27.203125 
z
" id="DejaVuSans-2212"/>
      </defs>
      <g transform="translate(23.132812 262.009331)scale(0.1 -0.1)">
       <use xlink:href="#DejaVuSans-2212"/>
       <use x="83.789062" xlink:href="#DejaVuSans-32"/>
       <use x="147.412109" xlink:href="#DejaVuSans-30"/>
       <use x="211.035156" xlink:href="#DejaVuSans-30"/>
      </g>
     </g>
    </g>
    <g id="ytick_2">
     <g id="line2d_13">
      <path clip-path="url(#pcd43b6263b)" d="M 57.6 204.337219 
L 414.72 204.337219 
" style="fill:none;stroke:#b0b0b0;stroke-linecap:square;stroke-width:0.8;"/>
     </g>
     <g id="line2d_14">
      <g>
       <use style="stroke:#000000;stroke-width:0.8;" x="57.6" xlink:href="#mccd94be9d2" y="204.337219"/>
      </g>
     </g>
     <g id="text_7">
      <!-- −100 -->
      <g transform="translate(23.132812 208.136438)scale(0.1 -0.1)">
       <use xlink:href="#DejaVuSans-2212"/>
       <use x="83.789062" xlink:href="#DejaVuSans-31"/>
       <use x="147.412109" xlink:href="#DejaVuSans-30"/>
       <use x="211.035156" xlink:href="#DejaVuSans-30"/>
      </g>
     </g>
    </g>
    <g id="ytick_3">
     <g id="line2d_15">
      <path clip-path="url(#pcd43b6263b)" d="M 57.6 150.464325 
L 414.72 150.464325 
" style="fill:none;stroke:#b0b0b0;stroke-linecap:square;stroke-width:0.8;"/>
     </g>
     <g id="line2d_16">
      <g>
       <use style="stroke:#000000;stroke-width:0.8;" x="57.6" xlink:href="#mccd94be9d2" y="150.464325"/>
      </g>
     </g>
     <g id="text_8">
      <!-- 0 -->
      <g transform="translate(44.2375 154.263544)scale(0.1 -0.1)">
       <use xlink:href="#DejaVuSans-30"/>
      </g>
     </g>
    </g>
    <g id="ytick_4">
     <g id="line2d_17">
      <path clip-path="url(#pcd43b6263b)" d="M 57.6 96.591432 
L 414.72 96.591432 
" style="fill:none;stroke:#b0b0b0;stroke-linecap:square;stroke-width:0.8;"/>
     </g>
     <g id="line2d_18">
      <g>
       <use style="stroke:#000000;stroke-width:0.8;" x="57.6" xlink:href="#mccd94be9d2" y="96.591432"/>
      </g>
     </g>
     <g id="text_9">
      <!-- 100 -->
      <g transform="translate(31.5125 100.39065)scale(0.1 -0.1)">
       <use xlink:href="#DejaVuSans-31"/>
       <use x="63.623047" xlink:href="#DejaVuSans-30"/>
       <use x="127.246094" xlink:href="#DejaVuSans-30"/>
      </g>
     </g>
    </g>
    <g id="ytick_5">
     <g id="line2d_19">
      <path clip-path="url(#pcd43b6263b)" d="M 57.6 42.718538 
L 414.72 42.718538 
" style="fill:none;stroke:#b0b0b0;stroke-linecap:square;stroke-width:0.8;"/>
     </g>
     <g id="line2d_20">
      <g>
       <use style="stroke:#000000;stroke-width:0.8;" x="57.6" xlink:href="#mccd94be9d2" y="42.718538"/>
      </g>
     </g>
     <g id="text_10">
      <!-- 200 -->
      <g transform="translate(31.5125 46.517757)scale(0.1 -0.1)">
       <use xlink:href="#DejaVuSans-32"/>
       <use x="63.623047" xlink:href="#DejaVuSans-30"/>
       <use x="127.246094" xlink:href="#DejaVuSans-30"/>
      </g>
     </g>
    </g>
   </g>
   <g id="line2d_21">
    <path clip-path="url(#pcd43b6263b)" d="M 73.832727 246.325213 
L 76.061477 246.348918 
L 79.033143 246.281576 
L 84.233559 245.982582 
L 85.719393 245.971807 
L 90.176892 245.840357 
L 96.863141 245.831738 
L 107.263973 246.463667 
L 125.093971 246.209387 
L 127.322721 245.977195 
L 128.065638 246.014367 
L 128.808554 245.822041 
L 136.23772 245.865139 
L 136.980637 245.69921 
L 148.867302 245.509578 
L 151.096052 245.627559 
L 162.2398 245.786485 
L 165.211467 245.728302 
L 165.954383 245.885072 
L 176.355215 246.126961 
L 177.098132 246.357537 
L 177.841048 246.402252 
L 178.583965 246.66569 
L 180.069798 246.904886 
L 180.812715 247.217887 
L 181.555631 247.370348 
L 183.784381 248.406862 
L 186.013131 249.937391 
L 187.498964 251.170542 
L 188.984797 252.283555 
L 189.727714 253.008685 
L 190.47063 253.43428 
L 191.213547 254.094762 
L 191.956463 254.604938 
L 192.69938 255.330606 
L 193.442297 255.694787 
L 194.185213 256.267995 
L 194.92813 256.694129 
L 195.671046 257.329291 
L 199.385629 259.702392 
L 200.128546 260.339169 
L 200.871462 260.699579 
L 202.357296 261.807206 
L 203.843129 262.739207 
L 205.328962 263.633497 
L 206.071879 264.267042 
L 206.814795 264.565498 
L 208.300628 265.587467 
L 209.786461 266.372395 
L 212.015211 267.692281 
L 214.243961 268.651757 
L 215.729794 269.435607 
L 216.472711 269.51911 
L 218.70146 270.455421 
L 222.416043 271.835645 
L 223.901876 272.342589 
L 224.644793 272.641045 
L 225.38771 272.705692 
L 226.130626 273.00307 
L 227.616459 273.362941 
L 229.845209 273.958776 
L 230.588126 274.084838 
L 231.331042 274.383294 
L 232.073959 274.383294 
L 232.816875 274.68175 
L 233.559792 274.807812 
L 234.302709 275.105191 
L 235.045625 275.105191 
L 235.788542 275.403108 
L 236.531458 275.403108 
L 241.731874 276.82212 
L 243.217708 277.329064 
L 249.903957 278.710365 
L 250.646873 278.710365 
L 251.38979 278.947405 
L 252.132706 279.008821 
L 252.875623 279.223773 
L 254.361456 279.434416 
L 255.104373 279.732872 
L 255.847289 279.881561 
L 260.304789 281.559702 
L 261.047705 281.983682 
L 262.533539 282.496013 
L 264.019372 283.002957 
L 266.248121 283.724315 
L 266.991038 284.021693 
L 268.476871 284.380487 
L 269.962704 284.975782 
L 270.705621 285.101845 
L 272.934371 285.99398 
L 273.677287 286.120043 
L 275.16312 286.626986 
L 275.906037 286.779447 
L 277.39187 287.286929 
L 278.134787 287.436157 
L 278.877703 287.733536 
L 279.62062 287.859598 
L 280.363537 288.156977 
L 282.592286 288.663382 
L 287.049786 289.894916 
L 287.792702 290.040373 
L 288.535619 290.337751 
L 290.021452 290.699777 
L 290.764369 290.997156 
L 291.507285 291.058571 
L 292.993118 291.565515 
L 298.193534 293.007153 
L 298.936451 293.094966 
L 300.422284 293.518407 
L 301.908117 293.60191 
L 302.651034 293.815785 
L 304.136867 293.89875 
L 305.6227 294.11047 
L 306.365617 294.11047 
L 307.108533 294.311416 
L 307.85145 294.311416 
L 308.594367 294.490813 
L 309.337283 294.490813 
L 310.823116 294.69553 
L 312.308949 294.852839 
L 314.537699 295.055401 
L 320.481032 295.26335 
L 338.31103 295.38618 
L 386.600607 295.486923 
L 398.487273 295.486923 
L 398.487273 295.486923 
" style="fill:none;stroke:#1f77b4;stroke-linecap:square;stroke-width:1.5;"/>
   </g>
   <g id="line2d_22">
    <path clip-path="url(#pcd43b6263b)" d="M 73.832727 246.325213 
L 75.31856 246.432959 
L 76.061477 246.217468 
L 76.804394 246.348379 
L 77.54731 245.89423 
L 78.290227 245.032264 
L 79.033143 246.281038 
L 80.518976 245.247756 
L 81.261893 245.355501 
L 82.00481 246.001976 
L 82.747726 245.89423 
L 83.490643 245.570993 
L 84.233559 246.109722 
L 84.976476 246.432959 
L 85.719393 245.570993 
L 86.462309 245.570993 
L 87.205226 245.89423 
L 87.948142 245.570993 
L 89.433975 245.89423 
L 90.176892 245.570993 
L 90.919809 245.786485 
L 91.662725 245.678739 
L 92.405642 246.217468 
L 93.148558 246.540705 
L 93.891475 245.89423 
L 96.863141 245.89423 
L 97.606058 246.432959 
L 98.348974 246.432959 
L 99.091891 245.678739 
L 99.834808 246.432959 
L 100.577724 246.540705 
L 101.320641 246.863942 
L 102.063557 246.971688 
L 102.806474 246.756197 
L 103.54939 246.217468 
L 104.292307 246.648451 
L 105.035224 246.863942 
L 105.77814 247.294926 
L 106.521057 246.791753 
L 107.263973 246.791753 
L 108.00689 53.568 
L 108.749807 53.891237 
L 109.492723 246.684007 
L 110.978556 246.36077 
L 111.721473 246.971688 
L 112.464389 246.468515 
L 113.950223 246.36077 
L 114.693139 246.468515 
L 116.178972 246.36077 
L 117.664805 246.468515 
L 118.407722 246.037532 
L 119.150639 246.253024 
L 119.893555 246.253024 
L 121.379388 246.684007 
L 122.122305 55.614631 
L 122.865222 246.253024 
L 124.351055 246.36077 
L 125.093971 245.032264 
L 125.836888 245.247756 
L 126.579804 244.709027 
L 127.322721 246.253024 
L 128.065638 246.36077 
L 128.808554 244.30498 
L 129.551471 245.929786 
L 130.294387 246.145278 
L 131.037304 245.851671 
L 131.780221 246.037532 
L 133.266054 245.929786 
L 134.00897 245.822041 
L 134.751887 245.247756 
L 135.494803 246.253024 
L 136.23772 246.037532 
L 136.980637 244.385789 
L 137.723553 245.606549 
L 138.46647 246.36077 
L 139.209386 245.032264 
L 140.695219 245.14001 
L 141.438136 245.570993 
L 142.181053 245.463247 
L 142.923969 245.570993 
L 143.666886 245.463247 
L 144.409802 245.570993 
L 145.895636 245.463247 
L 146.638552 245.570993 
L 148.124385 245.463247 
L 148.867302 245.678739 
L 149.610218 246.109722 
L 150.353135 245.786485 
L 151.096052 245.89423 
L 152.581885 245.786485 
L 154.810634 246.001976 
L 156.296468 245.463247 
L 157.039384 245.89423 
L 157.782301 245.678739 
L 158.525217 246.217468 
L 159.268134 245.678739 
L 161.496884 246.001976 
L 162.982717 245.463247 
L 163.725633 245.678739 
L 165.211467 245.678739 
L 165.954383 247.11499 
L 166.6973 246.001976 
L 170.411883 246.109722 
L 171.154799 245.786485 
L 172.640632 245.89423 
L 173.383549 245.89423 
L 174.126466 246.109722 
L 175.612299 246.001976 
L 177.098132 246.217468 
L 177.841048 246.756197 
L 179.326882 246.540705 
L 180.069798 246.863942 
L 180.812715 246.540705 
L 182.298548 247.294926 
L 183.041465 247.402671 
L 183.784381 54.573268 
L 184.527298 54.213936 
L 186.013131 55.291394 
L 186.756047 55.973963 
L 187.498964 56.404947 
L 188.241881 56.476598 
L 188.984797 57.769547 
L 190.47063 58.954751 
L 191.213547 59.816717 
L 192.69938 60.714778 
L 193.442297 61.468999 
L 194.185213 256.058968 
L 194.92813 62.546456 
L 195.671046 257.120264 
L 196.413963 257.990311 
L 197.15688 64.054897 
L 199.385629 64.018803 
L 201.614379 65.311752 
L 202.357296 67.610508 
L 203.100212 66.173718 
L 203.843129 66.38921 
L 204.586045 69.011204 
L 205.328962 67.14343 
L 206.071879 70.411899 
L 206.814795 68.544126 
L 207.557712 71.381611 
L 208.300628 69.298346 
L 209.043545 69.729329 
L 209.786461 72.459069 
L 210.529378 72.997798 
L 211.272295 73.213289 
L 212.015211 74.470144 
L 212.758128 74.57789 
L 213.501044 74.901127 
L 214.243961 75.655348 
L 214.986877 76.62506 
L 215.729794 75.906934 
L 216.472711 75.799188 
L 217.215627 75.906934 
L 220.187294 77.738612 
L 220.93021 77.918009 
L 221.673127 78.241247 
L 222.416043 78.06185 
L 223.15896 78.492833 
L 223.901876 78.708325 
L 224.644793 79.139308 
L 225.38771 80.180671 
L 227.616459 80.503908 
L 228.359376 80.934891 
L 229.102292 80.827145 
L 229.845209 81.042637 
L 230.588126 81.689112 
L 231.331042 81.47362 
L 232.073959 81.689112 
L 232.816875 81.581366 
L 233.559792 81.258129 
L 234.302709 82.335586 
L 235.045625 81.47362 
L 235.788542 82.048444 
L 236.531458 82.443332 
L 237.274375 275.403108 
L 238.017291 82.874315 
L 239.503125 83.089807 
L 240.246041 276.315176 
L 240.988958 276.686899 
L 241.731874 276.818349 
L 242.474791 84.167265 
L 244.703541 84.921485 
L 246.189374 84.526597 
L 246.93229 84.095614 
L 249.903957 84.95758 
L 250.646873 84.95758 
L 252.132706 85.388563 
L 254.361456 85.496309 
L 255.847289 85.819547 
L 256.590206 86.035038 
L 257.333123 86.573767 
L 258.076039 88.046652 
L 258.818956 88.262144 
L 259.561872 87.112496 
L 260.304789 88.800872 
L 261.047705 88.585381 
L 262.533539 89.231856 
L 263.276455 90.201568 
L 264.019372 89.662839 
L 265.505205 90.848042 
L 266.248121 89.87833 
L 266.991038 91.386771 
L 267.733955 90.740297 
L 268.476871 90.632551 
L 269.219788 90.668107 
L 271.448538 91.637819 
L 272.191454 91.637819 
L 272.934371 92.679721 
L 273.677287 92.284294 
L 274.420204 93.038514 
L 275.906037 93.97267 
L 276.648954 94.295908 
L 277.39187 94.331464 
L 278.134787 93.900481 
L 278.877703 94.008226 
L 279.62062 94.834637 
L 280.363537 94.223718 
L 281.106453 94.188162 
L 281.84937 94.331464 
L 282.592286 95.481111 
L 283.335203 95.26562 
L 284.821036 96.01984 
L 285.563953 95.732159 
L 286.306869 95.301176 
L 287.049786 96.881591 
L 287.792702 97.204828 
L 288.535619 96.881591 
L 289.278535 96.809832 
L 290.021452 98.066849 
L 291.507285 97.959049 
L 292.250202 97.671799 
L 292.993118 98.713323 
L 293.736035 98.497832 
L 294.478952 98.497832 
L 295.221868 99.036561 
L 295.964785 98.821069 
L 296.707701 98.964748 
L 297.450618 99.898527 
L 298.193534 100.114018 
L 298.936451 100.114018 
L 299.679368 100.437256 
L 300.422284 100.04226 
L 301.165201 100.365497 
L 301.908117 99.683035 
L 302.651034 100.221764 
L 303.39395 100.365497 
L 304.136867 101.083731 
L 305.6227 100.221764 
L 307.108533 101.083731 
L 307.85145 100.652747 
L 308.594367 100.79648 
L 309.337283 100.79648 
L 310.0802 101.299222 
L 311.566033 101.442955 
L 312.308949 101.945697 
L 313.051866 101.119448 
L 313.794783 101.442686 
L 314.537699 101.550431 
L 315.280616 101.837951 
L 316.023532 102.268934 
L 316.766449 101.837951 
L 317.509366 102.807394 
L 318.995199 101.837951 
L 319.738115 102.08916 
L 320.481032 102.520144 
L 321.223948 102.699648 
L 321.966865 102.304652 
L 322.709782 102.91514 
L 323.452698 102.520144 
L 324.195615 102.843381 
L 324.938531 102.592172 
L 325.681448 102.591902 
L 326.424364 102.412398 
L 327.167281 295.325843 
L 327.910198 103.130631 
L 328.653114 102.735635 
L 329.396031 103.058872 
L 330.881864 103.166618 
L 332.367697 102.951127 
L 333.110614 295.360321 
L 349.454778 295.434127 
L 350.197695 101.227463 
L 350.940612 295.432511 
L 353.169361 295.432511 
L 353.912278 102.627889 
L 354.655195 295.432511 
L 355.398111 102.807394 
L 356.141028 102.591902 
L 356.883944 102.91514 
L 357.626861 100.473243 
L 358.369777 103.453869 
L 359.855611 103.453869 
L 360.598527 102.627889 
L 361.341444 102.91514 
L 362.08436 102.91514 
L 362.827277 101.550701 
L 363.570193 100.580989 
L 364.31311 103.453869 
L 365.056027 103.022885 
L 365.798943 101.766192 
L 366.54186 101.873938 
L 367.284776 101.442955 
L 368.027693 101.227463 
L 368.77061 101.766192 
L 369.513526 102.91514 
L 370.256443 103.453869 
L 370.999359 102.520144 
L 371.742276 295.483151 
L 372.485192 103.453869 
L 373.228109 103.346123 
L 373.971026 103.453869 
L 374.713942 101.981415 
L 375.456859 102.91514 
L 376.199775 102.304652 
L 376.942692 102.196906 
L 377.685608 103.561614 
L 378.428525 101.766192 
L 379.171442 101.658447 
L 379.914358 103.346123 
L 381.400191 103.453869 
L 382.143108 103.346123 
L 382.886025 101.873938 
L 383.628941 102.807394 
L 384.371858 102.951127 
L 385.114774 103.346123 
L 385.857691 103.453869 
L 386.600607 102.08943 
L 387.343524 102.91514 
L 388.086441 103.022885 
L 388.829357 101.658447 
L 389.572274 103.453869 
L 390.31519 103.346123 
L 391.801024 103.453869 
L 392.54394 102.08943 
L 393.286857 102.304652 
L 394.029773 102.197176 
L 394.77269 103.453869 
L 396.258523 103.346123 
L 397.00144 102.196906 
L 397.744356 103.130631 
L 398.487273 101.766192 
L 398.487273 101.766192 
" style="fill:none;stroke:#ff7f0e;stroke-linecap:square;stroke-width:1.5;"/>
   </g>
   <g id="line2d_23">
    <path clip-path="url(#pcd43b6263b)" d="M 73.832727 246.75458 
L 97.606058 246.657609 
L 107.263973 246.556867 
L 135.494803 246.381241 
L 173.383549 246.258411 
L 176.355215 246.387167 
L 179.326882 246.794446 
L 181.555631 247.391358 
L 182.298548 53.726386 
L 183.784381 54.39872 
L 185.270214 55.253144 
L 186.756047 56.29343 
L 194.92813 62.592787 
L 198.642713 65.119965 
L 209.786461 72.311996 
L 212.758128 73.873771 
L 215.729794 75.277699 
L 222.416043 77.942791 
L 226.873543 79.349951 
L 232.073959 80.693541 
L 237.274375 81.843727 
L 240.246041 82.563469 
L 245.446457 84.085917 
L 248.418124 84.755018 
L 256.590206 86.315177 
L 258.818956 87.039229 
L 263.276455 88.81865 
L 266.248121 89.892337 
L 277.39187 93.472191 
L 292.993118 97.704284 
L 298.936451 99.337602 
L 301.908117 99.931551 
L 305.6227 100.419316 
L 312.308949 101.244972 
L 317.509366 101.900767 
L 321.966865 102.199546 
L 330.881864 102.377488 
L 390.31519 102.70552 
L 398.487273 102.700079 
L 398.487273 102.700079 
" style="fill:none;stroke:#2ca02c;stroke-linecap:square;stroke-width:1.5;"/>
   </g>
   <g id="line2d_24">
    <path clip-path="url(#pcd43b6263b)" d="M 73.832727 246.682391 
L 95.377308 246.582726 
L 115.436056 246.356998 
L 162.2398 246.158746 
L 174.126466 246.251946 
L 177.098132 246.417336 
L 181.555631 247.390281 
L 182.298548 53.783492 
L 184.527298 54.840478 
L 186.756047 56.29343 
L 195.671046 63.261888 
L 196.413963 63.685868 
L 197.15688 64.280625 
L 199.385629 65.668929 
L 207.557712 71.041134 
L 211.272295 73.213289 
L 215.729794 75.376286 
L 218.70146 76.634218 
L 219.444377 76.862639 
L 220.187294 77.219816 
L 220.93021 77.442312 
L 222.416043 78.049459 
L 226.130626 79.286919 
L 229.102292 80.038985 
L 229.845209 80.303501 
L 232.073959 80.718322 
L 232.816875 81.016239 
L 233.559792 81.114827 
L 234.302709 81.38042 
L 235.045625 81.483856 
L 235.788542 81.716587 
L 236.531458 81.738675 
L 237.274375 82.036053 
L 238.017291 82.095852 
L 247.675207 84.689293 
L 249.16104 85.00445 
L 249.903957 85.066942 
L 250.646873 85.301828 
L 252.132706 85.366475 
L 252.875623 85.630991 
L 254.361456 85.872881 
L 256.590206 86.40299 
L 257.333123 86.664273 
L 258.076039 86.803266 
L 265.505205 89.722099 
L 269.962704 91.055453 
L 271.448538 91.601724 
L 272.934371 92.068802 
L 274.420204 92.618306 
L 284.821036 95.571618 
L 287.049786 96.097417 
L 288.535619 96.546717 
L 290.764369 97.09649 
L 292.250202 97.586356 
L 292.993118 97.745443 
L 293.736035 98.026713 
L 294.478952 98.13489 
L 295.221868 98.401453 
L 295.964785 98.516579 
L 298.193534 99.178516 
L 300.422284 99.74375 
L 301.165201 99.751238 
L 302.651034 100.124362 
L 304.136867 100.258128 
L 304.879784 100.427505 
L 307.85145 100.679899 
L 316.766449 101.622998 
L 321.966865 101.886329 
L 331.624781 101.984378 
L 387.343524 102.142764 
L 398.487273 102.142764 
L 398.487273 102.142764 
" style="fill:none;stroke:#d62728;stroke-linecap:square;stroke-width:1.5;"/>
   </g>
   <g id="patch_3">
    <path d="M 57.6 307.584 
L 57.6 41.472 
" style="fill:none;stroke:#000000;stroke-linecap:square;stroke-linejoin:miter;stroke-width:0.8;"/>
   </g>
   <g id="patch_4">
    <path d="M 414.72 307.584 
L 414.72 41.472 
" style="fill:none;stroke:#000000;stroke-linecap:square;stroke-linejoin:miter;stroke-width:0.8;"/>
   </g>
   <g id="patch_5">
    <path d="M 57.6 307.584 
L 414.72 307.584 
" style="fill:none;stroke:#000000;stroke-linecap:square;stroke-linejoin:miter;stroke-width:0.8;"/>
   </g>
   <g id="patch_6">
    <path d="M 57.6 41.472 
L 414.72 41.472 
" style="fill:none;stroke:#000000;stroke-linecap:square;stroke-linejoin:miter;stroke-width:0.8;"/>
   </g>
   <g id="legend_1">
    <g id="patch_7">
     <path d="M 329.6575 205.38425 
L 407.72 205.38425 
Q 409.72 205.38425 409.72 203.38425 
L 409.72 145.67175 
Q 409.72 143.67175 407.72 143.67175 
L 329.6575 143.67175 
Q 327.6575 143.67175 327.6575 145.67175 
L 327.6575 203.38425 
Q 327.6575 205.38425 329.6575 205.38425 
z
" style="fill:#ffffff;opacity:0.8;stroke:#cccccc;stroke-linejoin:miter;"/>
    </g>
    <g id="line2d_25">
     <path d="M 331.6575 151.770188 
L 351.6575 151.770188 
" style="fill:none;stroke:#1f77b4;stroke-linecap:square;stroke-width:1.5;"/>
    </g>
    <g id="line2d_26"/>
    <g id="text_11">
     <!-- angle -->
     <defs>
      <path d="M 34.28125 27.484375 
Q 23.390625 27.484375 19.1875 25 
Q 14.984375 22.515625 14.984375 16.5 
Q 14.984375 11.71875 18.140625 8.90625 
Q 21.296875 6.109375 26.703125 6.109375 
Q 34.1875 6.109375 38.703125 11.40625 
Q 43.21875 16.703125 43.21875 25.484375 
L 43.21875 27.484375 
z
M 52.203125 31.203125 
L 52.203125 0 
L 43.21875 0 
L 43.21875 8.296875 
Q 40.140625 3.328125 35.546875 0.953125 
Q 30.953125 -1.421875 24.3125 -1.421875 
Q 15.921875 -1.421875 10.953125 3.296875 
Q 6 8.015625 6 15.921875 
Q 6 25.140625 12.171875 29.828125 
Q 18.359375 34.515625 30.609375 34.515625 
L 43.21875 34.515625 
L 43.21875 35.40625 
Q 43.21875 41.609375 39.140625 45 
Q 35.0625 48.390625 27.6875 48.390625 
Q 23 48.390625 18.546875 47.265625 
Q 14.109375 46.140625 10.015625 43.890625 
L 10.015625 52.203125 
Q 14.9375 54.109375 19.578125 55.046875 
Q 24.21875 56 28.609375 56 
Q 40.484375 56 46.34375 49.84375 
Q 52.203125 43.703125 52.203125 31.203125 
z
" id="DejaVuSans-61"/>
      <path d="M 54.890625 33.015625 
L 54.890625 0 
L 45.90625 0 
L 45.90625 32.71875 
Q 45.90625 40.484375 42.875 44.328125 
Q 39.84375 48.1875 33.796875 48.1875 
Q 26.515625 48.1875 22.3125 43.546875 
Q 18.109375 38.921875 18.109375 30.90625 
L 18.109375 0 
L 9.078125 0 
L 9.078125 54.6875 
L 18.109375 54.6875 
L 18.109375 46.1875 
Q 21.34375 51.125 25.703125 53.5625 
Q 30.078125 56 35.796875 56 
Q 45.21875 56 50.046875 50.171875 
Q 54.890625 44.34375 54.890625 33.015625 
z
" id="DejaVuSans-6e"/>
      <path d="M 45.40625 27.984375 
Q 45.40625 37.75 41.375 43.109375 
Q 37.359375 48.484375 30.078125 48.484375 
Q 22.859375 48.484375 18.828125 43.109375 
Q 14.796875 37.75 14.796875 27.984375 
Q 14.796875 18.265625 18.828125 12.890625 
Q 22.859375 7.515625 30.078125 7.515625 
Q 37.359375 7.515625 41.375 12.890625 
Q 45.40625 18.265625 45.40625 27.984375 
z
M 54.390625 6.78125 
Q 54.390625 -7.171875 48.1875 -13.984375 
Q 42 -20.796875 29.203125 -20.796875 
Q 24.46875 -20.796875 20.265625 -20.09375 
Q 16.0625 -19.390625 12.109375 -17.921875 
L 12.109375 -9.1875 
Q 16.0625 -11.328125 19.921875 -12.34375 
Q 23.78125 -13.375 27.78125 -13.375 
Q 36.625 -13.375 41.015625 -8.765625 
Q 45.40625 -4.15625 45.40625 5.171875 
L 45.40625 9.625 
Q 42.625 4.78125 38.28125 2.390625 
Q 33.9375 0 27.875 0 
Q 17.828125 0 11.671875 7.65625 
Q 5.515625 15.328125 5.515625 27.984375 
Q 5.515625 40.671875 11.671875 48.328125 
Q 17.828125 56 27.875 56 
Q 33.9375 56 38.28125 53.609375 
Q 42.625 51.21875 45.40625 46.390625 
L 45.40625 54.6875 
L 54.390625 54.6875 
z
" id="DejaVuSans-67"/>
      <path d="M 9.421875 75.984375 
L 18.40625 75.984375 
L 18.40625 0 
L 9.421875 0 
z
" id="DejaVuSans-6c"/>
      <path d="M 56.203125 29.59375 
L 56.203125 25.203125 
L 14.890625 25.203125 
Q 15.484375 15.921875 20.484375 11.0625 
Q 25.484375 6.203125 34.421875 6.203125 
Q 39.59375 6.203125 44.453125 7.46875 
Q 49.3125 8.734375 54.109375 11.28125 
L 54.109375 2.78125 
Q 49.265625 0.734375 44.1875 -0.34375 
Q 39.109375 -1.421875 33.890625 -1.421875 
Q 20.796875 -1.421875 13.15625 6.1875 
Q 5.515625 13.8125 5.515625 26.8125 
Q 5.515625 40.234375 12.765625 48.109375 
Q 20.015625 56 32.328125 56 
Q 43.359375 56 49.78125 48.890625 
Q 56.203125 41.796875 56.203125 29.59375 
z
M 47.21875 32.234375 
Q 47.125 39.59375 43.09375 43.984375 
Q 39.0625 48.390625 32.421875 48.390625 
Q 24.90625 48.390625 20.390625 44.140625 
Q 15.875 39.890625 15.1875 32.171875 
z
" id="DejaVuSans-65"/>
     </defs>
     <g transform="translate(359.6575 155.270188)scale(0.1 -0.1)">
      <use xlink:href="#DejaVuSans-61"/>
      <use x="61.279297" xlink:href="#DejaVuSans-6e"/>
      <use x="124.658203" xlink:href="#DejaVuSans-67"/>
      <use x="188.134766" xlink:href="#DejaVuSans-6c"/>
      <use x="215.917969" xlink:href="#DejaVuSans-65"/>
     </g>
    </g>
    <g id="line2d_27">
     <path d="M 331.6575 166.448313 
L 351.6575 166.448313 
" style="fill:none;stroke:#ff7f0e;stroke-linecap:square;stroke-width:1.5;"/>
    </g>
    <g id="line2d_28"/>
    <g id="text_12">
     <!-- ztheta -->
     <defs>
      <path d="M 5.515625 54.6875 
L 48.1875 54.6875 
L 48.1875 46.484375 
L 14.40625 7.171875 
L 48.1875 7.171875 
L 48.1875 0 
L 4.296875 0 
L 4.296875 8.203125 
L 38.09375 47.515625 
L 5.515625 47.515625 
z
" id="DejaVuSans-7a"/>
      <path d="M 18.3125 70.21875 
L 18.3125 54.6875 
L 36.8125 54.6875 
L 36.8125 47.703125 
L 18.3125 47.703125 
L 18.3125 18.015625 
Q 18.3125 11.328125 20.140625 9.421875 
Q 21.96875 7.515625 27.59375 7.515625 
L 36.8125 7.515625 
L 36.8125 0 
L 27.59375 0 
Q 17.1875 0 13.234375 3.875 
Q 9.28125 7.765625 9.28125 18.015625 
L 9.28125 47.703125 
L 2.6875 47.703125 
L 2.6875 54.6875 
L 9.28125 54.6875 
L 9.28125 70.21875 
z
" id="DejaVuSans-74"/>
      <path d="M 54.890625 33.015625 
L 54.890625 0 
L 45.90625 0 
L 45.90625 32.71875 
Q 45.90625 40.484375 42.875 44.328125 
Q 39.84375 48.1875 33.796875 48.1875 
Q 26.515625 48.1875 22.3125 43.546875 
Q 18.109375 38.921875 18.109375 30.90625 
L 18.109375 0 
L 9.078125 0 
L 9.078125 75.984375 
L 18.109375 75.984375 
L 18.109375 46.1875 
Q 21.34375 51.125 25.703125 53.5625 
Q 30.078125 56 35.796875 56 
Q 45.21875 56 50.046875 50.171875 
Q 54.890625 44.34375 54.890625 33.015625 
z
" id="DejaVuSans-68"/>
     </defs>
     <g transform="translate(359.6575 169.948313)scale(0.1 -0.1)">
      <use xlink:href="#DejaVuSans-7a"/>
      <use x="52.490234" xlink:href="#DejaVuSans-74"/>
      <use x="91.699219" xlink:href="#DejaVuSans-68"/>
      <use x="155.078125" xlink:href="#DejaVuSans-65"/>
      <use x="216.601562" xlink:href="#DejaVuSans-74"/>
      <use x="255.810547" xlink:href="#DejaVuSans-61"/>
     </g>
    </g>
    <g id="line2d_29">
     <path d="M 331.6575 181.126438 
L 351.6575 181.126438 
" style="fill:none;stroke:#2ca02c;stroke-linecap:square;stroke-width:1.5;"/>
    </g>
    <g id="line2d_30"/>
    <g id="text_13">
     <!-- RTKtheta -->
     <defs>
      <path d="M 44.390625 34.1875 
Q 47.5625 33.109375 50.5625 29.59375 
Q 53.5625 26.078125 56.59375 19.921875 
L 66.609375 0 
L 56 0 
L 46.6875 18.703125 
Q 43.0625 26.03125 39.671875 28.421875 
Q 36.28125 30.8125 30.421875 30.8125 
L 19.671875 30.8125 
L 19.671875 0 
L 9.8125 0 
L 9.8125 72.90625 
L 32.078125 72.90625 
Q 44.578125 72.90625 50.734375 67.671875 
Q 56.890625 62.453125 56.890625 51.90625 
Q 56.890625 45.015625 53.6875 40.46875 
Q 50.484375 35.9375 44.390625 34.1875 
z
M 19.671875 64.796875 
L 19.671875 38.921875 
L 32.078125 38.921875 
Q 39.203125 38.921875 42.84375 42.21875 
Q 46.484375 45.515625 46.484375 51.90625 
Q 46.484375 58.296875 42.84375 61.546875 
Q 39.203125 64.796875 32.078125 64.796875 
z
" id="DejaVuSans-52"/>
      <path d="M -0.296875 72.90625 
L 61.375 72.90625 
L 61.375 64.59375 
L 35.5 64.59375 
L 35.5 0 
L 25.59375 0 
L 25.59375 64.59375 
L -0.296875 64.59375 
z
" id="DejaVuSans-54"/>
      <path d="M 9.8125 72.90625 
L 19.671875 72.90625 
L 19.671875 42.09375 
L 52.390625 72.90625 
L 65.09375 72.90625 
L 28.90625 38.921875 
L 67.671875 0 
L 54.6875 0 
L 19.671875 35.109375 
L 19.671875 0 
L 9.8125 0 
z
" id="DejaVuSans-4b"/>
     </defs>
     <g transform="translate(359.6575 184.626438)scale(0.1 -0.1)">
      <use xlink:href="#DejaVuSans-52"/>
      <use x="69.373047" xlink:href="#DejaVuSans-54"/>
      <use x="130.457031" xlink:href="#DejaVuSans-4b"/>
      <use x="196.033203" xlink:href="#DejaVuSans-74"/>
      <use x="235.242188" xlink:href="#DejaVuSans-68"/>
      <use x="298.621094" xlink:href="#DejaVuSans-65"/>
      <use x="360.144531" xlink:href="#DejaVuSans-74"/>
      <use x="399.353516" xlink:href="#DejaVuSans-61"/>
     </g>
    </g>
    <g id="line2d_31">
     <path d="M 331.6575 195.804563 
L 351.6575 195.804563 
" style="fill:none;stroke:#d62728;stroke-linecap:square;stroke-width:1.5;"/>
    </g>
    <g id="line2d_32"/>
    <g id="text_14">
     <!-- DRtheta -->
     <defs>
      <path d="M 19.671875 64.796875 
L 19.671875 8.109375 
L 31.59375 8.109375 
Q 46.6875 8.109375 53.6875 14.9375 
Q 60.6875 21.78125 60.6875 36.53125 
Q 60.6875 51.171875 53.6875 57.984375 
Q 46.6875 64.796875 31.59375 64.796875 
z
M 9.8125 72.90625 
L 30.078125 72.90625 
Q 51.265625 72.90625 61.171875 64.09375 
Q 71.09375 55.28125 71.09375 36.53125 
Q 71.09375 17.671875 61.125 8.828125 
Q 51.171875 0 30.078125 0 
L 9.8125 0 
z
" id="DejaVuSans-44"/>
     </defs>
     <g transform="translate(359.6575 199.304563)scale(0.1 -0.1)">
      <use xlink:href="#DejaVuSans-44"/>
      <use x="77.001953" xlink:href="#DejaVuSans-52"/>
      <use x="146.484375" xlink:href="#DejaVuSans-74"/>
      <use x="185.693359" xlink:href="#DejaVuSans-68"/>
      <use x="249.072266" xlink:href="#DejaVuSans-65"/>
      <use x="310.595703" xlink:href="#DejaVuSans-74"/>
      <use x="349.804688" xlink:href="#DejaVuSans-61"/>
     </g>
    </g>
   </g>
  </g>
 </g>
 <defs>
  <clipPath id="pcd43b6263b">
   <rect height="266.112" width="357.12" x="57.6" y="41.472"/>
  </clipPath>
 </defs>
</svg>
