<?xml version="1.0" encoding="utf-8" standalone="no"?>
<!DOCTYPE svg PUBLIC "-//W3C//DTD SVG 1.1//EN"
  "http://www.w3.org/Graphics/SVG/1.1/DTD/svg11.dtd">
<!-- Created with matplotlib (http://matplotlib.org/) -->
<svg height="345pt" version="1.1" viewBox="0 0 460 345" width="460pt" xmlns="http://www.w3.org/2000/svg" xmlns:xlink="http://www.w3.org/1999/xlink">
 <defs>
  <style type="text/css">
*{stroke-linecap:butt;stroke-linejoin:round;}
  </style>
 </defs>
 <g id="figure_1">
  <g id="patch_1">
   <path d="M 0 345.6 
L 460.8 345.6 
L 460.8 0 
L 0 0 
z
" style="fill:#ffffff;"/>
  </g>
  <g id="axes_1">
   <g id="patch_2">
    <path d="M 57.6 307.584 
L 414.72 307.584 
L 414.72 41.472 
L 57.6 41.472 
z
" style="fill:#ffffff;"/>
   </g>
   <g id="matplotlib.axis_1">
    <g id="xtick_1">
     <g id="line2d_1">
      <path clip-path="url(#p137e12d032)" d="M 93.63998 307.584 
L 93.63998 41.472 
" style="fill:none;stroke:#b0b0b0;stroke-linecap:square;stroke-width:0.8;"/>
     </g>
     <g id="line2d_2">
      <defs>
       <path d="M 0 0 
L 0 3.5 
" id="m875b3199ec" style="stroke:#000000;stroke-width:0.8;"/>
      </defs>
      <g>
       <use style="stroke:#000000;stroke-width:0.8;" x="93.63998" xlink:href="#m875b3199ec" y="307.584"/>
      </g>
     </g>
     <g id="text_1">
      <!-- −10 -->
      <defs>
       <path d="M 10.59375 35.5 
L 73.1875 35.5 
L 73.1875 27.203125 
L 10.59375 27.203125 
z
" id="DejaVuSans-2212"/>
       <path d="M 12.40625 8.296875 
L 28.515625 8.296875 
L 28.515625 63.921875 
L 10.984375 60.40625 
L 10.984375 69.390625 
L 28.421875 72.90625 
L 38.28125 72.90625 
L 38.28125 8.296875 
L 54.390625 8.296875 
L 54.390625 0 
L 12.40625 0 
z
" id="DejaVuSans-31"/>
       <path d="M 31.78125 66.40625 
Q 24.171875 66.40625 20.328125 58.90625 
Q 16.5 51.421875 16.5 36.375 
Q 16.5 21.390625 20.328125 13.890625 
Q 24.171875 6.390625 31.78125 6.390625 
Q 39.453125 6.390625 43.28125 13.890625 
Q 47.125 21.390625 47.125 36.375 
Q 47.125 51.421875 43.28125 58.90625 
Q 39.453125 66.40625 31.78125 66.40625 
z
M 31.78125 74.21875 
Q 44.046875 74.21875 50.515625 64.515625 
Q 56.984375 54.828125 56.984375 36.375 
Q 56.984375 17.96875 50.515625 8.265625 
Q 44.046875 -1.421875 31.78125 -1.421875 
Q 19.53125 -1.421875 13.0625 8.265625 
Q 6.59375 17.96875 6.59375 36.375 
Q 6.59375 54.828125 13.0625 64.515625 
Q 19.53125 74.21875 31.78125 74.21875 
z
" id="DejaVuSans-30"/>
      </defs>
      <g transform="translate(83.087636 322.182437)scale(0.1 -0.1)">
       <use xlink:href="#DejaVuSans-2212"/>
       <use x="83.789062" xlink:href="#DejaVuSans-31"/>
       <use x="147.412109" xlink:href="#DejaVuSans-30"/>
      </g>
     </g>
    </g>
    <g id="xtick_2">
     <g id="line2d_3">
      <path clip-path="url(#p137e12d032)" d="M 148.033093 307.584 
L 148.033093 41.472 
" style="fill:none;stroke:#b0b0b0;stroke-linecap:square;stroke-width:0.8;"/>
     </g>
     <g id="line2d_4">
      <g>
       <use style="stroke:#000000;stroke-width:0.8;" x="148.033093" xlink:href="#m875b3199ec" y="307.584"/>
      </g>
     </g>
     <g id="text_2">
      <!-- −8 -->
      <defs>
       <path d="M 31.78125 34.625 
Q 24.75 34.625 20.71875 30.859375 
Q 16.703125 27.09375 16.703125 20.515625 
Q 16.703125 13.921875 20.71875 10.15625 
Q 24.75 6.390625 31.78125 6.390625 
Q 38.8125 6.390625 42.859375 10.171875 
Q 46.921875 13.96875 46.921875 20.515625 
Q 46.921875 27.09375 42.890625 30.859375 
Q 38.875 34.625 31.78125 34.625 
z
M 21.921875 38.8125 
Q 15.578125 40.375 12.03125 44.71875 
Q 8.5 49.078125 8.5 55.328125 
Q 8.5 64.0625 14.71875 69.140625 
Q 20.953125 74.21875 31.78125 74.21875 
Q 42.671875 74.21875 48.875 69.140625 
Q 55.078125 64.0625 55.078125 55.328125 
Q 55.078125 49.078125 51.53125 44.71875 
Q 48 40.375 41.703125 38.8125 
Q 48.828125 37.15625 52.796875 32.3125 
Q 56.78125 27.484375 56.78125 20.515625 
Q 56.78125 9.90625 50.3125 4.234375 
Q 43.84375 -1.421875 31.78125 -1.421875 
Q 19.734375 -1.421875 13.25 4.234375 
Q 6.78125 9.90625 6.78125 20.515625 
Q 6.78125 27.484375 10.78125 32.3125 
Q 14.796875 37.15625 21.921875 38.8125 
z
M 18.3125 54.390625 
Q 18.3125 48.734375 21.84375 45.5625 
Q 25.390625 42.390625 31.78125 42.390625 
Q 38.140625 42.390625 41.71875 45.5625 
Q 45.3125 48.734375 45.3125 54.390625 
Q 45.3125 60.0625 41.71875 63.234375 
Q 38.140625 66.40625 31.78125 66.40625 
Q 25.390625 66.40625 21.84375 63.234375 
Q 18.3125 60.0625 18.3125 54.390625 
z
" id="DejaVuSans-38"/>
      </defs>
      <g transform="translate(140.661999 322.182437)scale(0.1 -0.1)">
       <use xlink:href="#DejaVuSans-2212"/>
       <use x="83.789062" xlink:href="#DejaVuSans-38"/>
      </g>
     </g>
    </g>
    <g id="xtick_3">
     <g id="line2d_5">
      <path clip-path="url(#p137e12d032)" d="M 202.426207 307.584 
L 202.426207 41.472 
" style="fill:none;stroke:#b0b0b0;stroke-linecap:square;stroke-width:0.8;"/>
     </g>
     <g id="line2d_6">
      <g>
       <use style="stroke:#000000;stroke-width:0.8;" x="202.426207" xlink:href="#m875b3199ec" y="307.584"/>
      </g>
     </g>
     <g id="text_3">
      <!-- −6 -->
      <defs>
       <path d="M 33.015625 40.375 
Q 26.375 40.375 22.484375 35.828125 
Q 18.609375 31.296875 18.609375 23.390625 
Q 18.609375 15.53125 22.484375 10.953125 
Q 26.375 6.390625 33.015625 6.390625 
Q 39.65625 6.390625 43.53125 10.953125 
Q 47.40625 15.53125 47.40625 23.390625 
Q 47.40625 31.296875 43.53125 35.828125 
Q 39.65625 40.375 33.015625 40.375 
z
M 52.59375 71.296875 
L 52.59375 62.3125 
Q 48.875 64.0625 45.09375 64.984375 
Q 41.3125 65.921875 37.59375 65.921875 
Q 27.828125 65.921875 22.671875 59.328125 
Q 17.53125 52.734375 16.796875 39.40625 
Q 19.671875 43.65625 24.015625 45.921875 
Q 28.375 48.1875 33.59375 48.1875 
Q 44.578125 48.1875 50.953125 41.515625 
Q 57.328125 34.859375 57.328125 23.390625 
Q 57.328125 12.15625 50.6875 5.359375 
Q 44.046875 -1.421875 33.015625 -1.421875 
Q 20.359375 -1.421875 13.671875 8.265625 
Q 6.984375 17.96875 6.984375 36.375 
Q 6.984375 53.65625 15.1875 63.9375 
Q 23.390625 74.21875 37.203125 74.21875 
Q 40.921875 74.21875 44.703125 73.484375 
Q 48.484375 72.75 52.59375 71.296875 
z
" id="DejaVuSans-36"/>
      </defs>
      <g transform="translate(195.055113 322.182437)scale(0.1 -0.1)">
       <use xlink:href="#DejaVuSans-2212"/>
       <use x="83.789062" xlink:href="#DejaVuSans-36"/>
      </g>
     </g>
    </g>
    <g id="xtick_4">
     <g id="line2d_7">
      <path clip-path="url(#p137e12d032)" d="M 256.81932 307.584 
L 256.81932 41.472 
" style="fill:none;stroke:#b0b0b0;stroke-linecap:square;stroke-width:0.8;"/>
     </g>
     <g id="line2d_8">
      <g>
       <use style="stroke:#000000;stroke-width:0.8;" x="256.81932" xlink:href="#m875b3199ec" y="307.584"/>
      </g>
     </g>
     <g id="text_4">
      <!-- −4 -->
      <defs>
       <path d="M 37.796875 64.3125 
L 12.890625 25.390625 
L 37.796875 25.390625 
z
M 35.203125 72.90625 
L 47.609375 72.90625 
L 47.609375 25.390625 
L 58.015625 25.390625 
L 58.015625 17.1875 
L 47.609375 17.1875 
L 47.609375 0 
L 37.796875 0 
L 37.796875 17.1875 
L 4.890625 17.1875 
L 4.890625 26.703125 
z
" id="DejaVuSans-34"/>
      </defs>
      <g transform="translate(249.448227 322.182437)scale(0.1 -0.1)">
       <use xlink:href="#DejaVuSans-2212"/>
       <use x="83.789062" xlink:href="#DejaVuSans-34"/>
      </g>
     </g>
    </g>
    <g id="xtick_5">
     <g id="line2d_9">
      <path clip-path="url(#p137e12d032)" d="M 311.212434 307.584 
L 311.212434 41.472 
" style="fill:none;stroke:#b0b0b0;stroke-linecap:square;stroke-width:0.8;"/>
     </g>
     <g id="line2d_10">
      <g>
       <use style="stroke:#000000;stroke-width:0.8;" x="311.212434" xlink:href="#m875b3199ec" y="307.584"/>
      </g>
     </g>
     <g id="text_5">
      <!-- −2 -->
      <defs>
       <path d="M 19.1875 8.296875 
L 53.609375 8.296875 
L 53.609375 0 
L 7.328125 0 
L 7.328125 8.296875 
Q 12.9375 14.109375 22.625 23.890625 
Q 32.328125 33.6875 34.8125 36.53125 
Q 39.546875 41.84375 41.421875 45.53125 
Q 43.3125 49.21875 43.3125 52.78125 
Q 43.3125 58.59375 39.234375 62.25 
Q 35.15625 65.921875 28.609375 65.921875 
Q 23.96875 65.921875 18.8125 64.3125 
Q 13.671875 62.703125 7.8125 59.421875 
L 7.8125 69.390625 
Q 13.765625 71.78125 18.9375 73 
Q 24.125 74.21875 28.421875 74.21875 
Q 39.75 74.21875 46.484375 68.546875 
Q 53.21875 62.890625 53.21875 53.421875 
Q 53.21875 48.921875 51.53125 44.890625 
Q 49.859375 40.875 45.40625 35.40625 
Q 44.1875 33.984375 37.640625 27.21875 
Q 31.109375 20.453125 19.1875 8.296875 
z
" id="DejaVuSans-32"/>
      </defs>
      <g transform="translate(303.84134 322.182437)scale(0.1 -0.1)">
       <use xlink:href="#DejaVuSans-2212"/>
       <use x="83.789062" xlink:href="#DejaVuSans-32"/>
      </g>
     </g>
    </g>
    <g id="xtick_6">
     <g id="line2d_11">
      <path clip-path="url(#p137e12d032)" d="M 365.605548 307.584 
L 365.605548 41.472 
" style="fill:none;stroke:#b0b0b0;stroke-linecap:square;stroke-width:0.8;"/>
     </g>
     <g id="line2d_12">
      <g>
       <use style="stroke:#000000;stroke-width:0.8;" x="365.605548" xlink:href="#m875b3199ec" y="307.584"/>
      </g>
     </g>
     <g id="text_6">
      <!-- 0 -->
      <g transform="translate(362.424298 322.182437)scale(0.1 -0.1)">
       <use xlink:href="#DejaVuSans-30"/>
      </g>
     </g>
    </g>
   </g>
   <g id="matplotlib.axis_2">
    <g id="ytick_1">
     <g id="line2d_13">
      <path clip-path="url(#p137e12d032)" d="M 57.6 271.231711 
L 414.72 271.231711 
" style="fill:none;stroke:#b0b0b0;stroke-linecap:square;stroke-width:0.8;"/>
     </g>
     <g id="line2d_14">
      <defs>
       <path d="M 0 0 
L -3.5 0 
" id="m8e44850757" style="stroke:#000000;stroke-width:0.8;"/>
      </defs>
      <g>
       <use style="stroke:#000000;stroke-width:0.8;" x="57.6" xlink:href="#m8e44850757" y="271.231711"/>
      </g>
     </g>
     <g id="text_7">
      <!-- −0.5 -->
      <defs>
       <path d="M 10.6875 12.40625 
L 21 12.40625 
L 21 0 
L 10.6875 0 
z
" id="DejaVuSans-2e"/>
       <path d="M 10.796875 72.90625 
L 49.515625 72.90625 
L 49.515625 64.59375 
L 19.828125 64.59375 
L 19.828125 46.734375 
Q 21.96875 47.46875 24.109375 47.828125 
Q 26.265625 48.1875 28.421875 48.1875 
Q 40.625 48.1875 47.75 41.5 
Q 54.890625 34.8125 54.890625 23.390625 
Q 54.890625 11.625 47.5625 5.09375 
Q 40.234375 -1.421875 26.90625 -1.421875 
Q 22.3125 -1.421875 17.546875 -0.640625 
Q 12.796875 0.140625 7.71875 1.703125 
L 7.71875 11.625 
Q 12.109375 9.234375 16.796875 8.0625 
Q 21.484375 6.890625 26.703125 6.890625 
Q 35.15625 6.890625 40.078125 11.328125 
Q 45.015625 15.765625 45.015625 23.390625 
Q 45.015625 31 40.078125 35.4375 
Q 35.15625 39.890625 26.703125 39.890625 
Q 22.75 39.890625 18.8125 39.015625 
Q 14.890625 38.140625 10.796875 36.28125 
z
" id="DejaVuSans-35"/>
      </defs>
      <g transform="translate(26.317187 275.03093)scale(0.1 -0.1)">
       <use xlink:href="#DejaVuSans-2212"/>
       <use x="83.789062" xlink:href="#DejaVuSans-30"/>
       <use x="147.412109" xlink:href="#DejaVuSans-2e"/>
       <use x="179.199219" xlink:href="#DejaVuSans-35"/>
      </g>
     </g>
    </g>
    <g id="ytick_2">
     <g id="line2d_15">
      <path clip-path="url(#p137e12d032)" d="M 57.6 232.68451 
L 414.72 232.68451 
" style="fill:none;stroke:#b0b0b0;stroke-linecap:square;stroke-width:0.8;"/>
     </g>
     <g id="line2d_16">
      <g>
       <use style="stroke:#000000;stroke-width:0.8;" x="57.6" xlink:href="#m8e44850757" y="232.68451"/>
      </g>
     </g>
     <g id="text_8">
      <!-- 0.0 -->
      <g transform="translate(34.696875 236.483728)scale(0.1 -0.1)">
       <use xlink:href="#DejaVuSans-30"/>
       <use x="63.623047" xlink:href="#DejaVuSans-2e"/>
       <use x="95.410156" xlink:href="#DejaVuSans-30"/>
      </g>
     </g>
    </g>
    <g id="ytick_3">
     <g id="line2d_17">
      <path clip-path="url(#p137e12d032)" d="M 57.6 194.137308 
L 414.72 194.137308 
" style="fill:none;stroke:#b0b0b0;stroke-linecap:square;stroke-width:0.8;"/>
     </g>
     <g id="line2d_18">
      <g>
       <use style="stroke:#000000;stroke-width:0.8;" x="57.6" xlink:href="#m8e44850757" y="194.137308"/>
      </g>
     </g>
     <g id="text_9">
      <!-- 0.5 -->
      <g transform="translate(34.696875 197.936527)scale(0.1 -0.1)">
       <use xlink:href="#DejaVuSans-30"/>
       <use x="63.623047" xlink:href="#DejaVuSans-2e"/>
       <use x="95.410156" xlink:href="#DejaVuSans-35"/>
      </g>
     </g>
    </g>
    <g id="ytick_4">
     <g id="line2d_19">
      <path clip-path="url(#p137e12d032)" d="M 57.6 155.590107 
L 414.72 155.590107 
" style="fill:none;stroke:#b0b0b0;stroke-linecap:square;stroke-width:0.8;"/>
     </g>
     <g id="line2d_20">
      <g>
       <use style="stroke:#000000;stroke-width:0.8;" x="57.6" xlink:href="#m8e44850757" y="155.590107"/>
      </g>
     </g>
     <g id="text_10">
      <!-- 1.0 -->
      <g transform="translate(34.696875 159.389326)scale(0.1 -0.1)">
       <use xlink:href="#DejaVuSans-31"/>
       <use x="63.623047" xlink:href="#DejaVuSans-2e"/>
       <use x="95.410156" xlink:href="#DejaVuSans-30"/>
      </g>
     </g>
    </g>
    <g id="ytick_5">
     <g id="line2d_21">
      <path clip-path="url(#p137e12d032)" d="M 57.6 117.042906 
L 414.72 117.042906 
" style="fill:none;stroke:#b0b0b0;stroke-linecap:square;stroke-width:0.8;"/>
     </g>
     <g id="line2d_22">
      <g>
       <use style="stroke:#000000;stroke-width:0.8;" x="57.6" xlink:href="#m8e44850757" y="117.042906"/>
      </g>
     </g>
     <g id="text_11">
      <!-- 1.5 -->
      <g transform="translate(34.696875 120.842124)scale(0.1 -0.1)">
       <use xlink:href="#DejaVuSans-31"/>
       <use x="63.623047" xlink:href="#DejaVuSans-2e"/>
       <use x="95.410156" xlink:href="#DejaVuSans-35"/>
      </g>
     </g>
    </g>
    <g id="ytick_6">
     <g id="line2d_23">
      <path clip-path="url(#p137e12d032)" d="M 57.6 78.495704 
L 414.72 78.495704 
" style="fill:none;stroke:#b0b0b0;stroke-linecap:square;stroke-width:0.8;"/>
     </g>
     <g id="line2d_24">
      <g>
       <use style="stroke:#000000;stroke-width:0.8;" x="57.6" xlink:href="#m8e44850757" y="78.495704"/>
      </g>
     </g>
     <g id="text_12">
      <!-- 2.0 -->
      <g transform="translate(34.696875 82.294923)scale(0.1 -0.1)">
       <use xlink:href="#DejaVuSans-32"/>
       <use x="63.623047" xlink:href="#DejaVuSans-2e"/>
       <use x="95.410156" xlink:href="#DejaVuSans-30"/>
      </g>
     </g>
    </g>
   </g>
   <g id="line2d_25">
    <path clip-path="url(#p137e12d032)" d="M 74.743812 66.756539 
L 77.259493 67.40182 
L 78.793379 72.09764 
L 81.785 72.402163 
L 82.900059 76.96538 
L 85.258001 79.477116 
L 87.656737 78.187327 
L 90.417188 78.437883 
L 93.248349 79.322156 
L 95.795579 77.857363 
L 99.18427 76.776499 
L 102.335263 75.920751 
L 104.831635 74.17996 
L 106.596147 73.634902 
L 108.459383 75.411928 
L 110.941613 75.539134 
L 114.340095 74.782838 
L 116.36651 74.982512 
L 119.116354 72.97189 
L 121.053021 74.159915 
L 123.321758 75.405761 
L 126.293797 75.265449 
L 127.663416 76.446535 
L 130.317528 77.010866 
L 136.213742 76.7287 
L 138.896682 76.384088 
L 144.781473 76.108091 
L 147.101067 76.791147 
L 153.228995 75.539134 
L 156.154529 74.732726 
L 158.105338 75.825925 
L 161.06242 77.05481 
L 163.791866 77.801855 
L 166.975223 77.139614 
L 172.857022 76.945336 
L 176.58839 76.522087 
L 178.754324 76.512065 
L 182.186529 76.013264 
L 184.850432 76.770331 
L 194.136968 77.532795 
L 200.122387 78.671479 
L 202.464554 78.669938 
L 205.335151 79.854108 
L 208.209283 80.867128 
L 210.644462 82.382033 
L 213.36303 83.297144 
L 216.318208 84.509068 
L 218.900793 84.84597 
L 222.574232 84.564576 
L 225.331691 85.119655 
L 228.286053 86.12805 
L 231.659786 85.928376 
L 234.126785 86.355479 
L 237.31531 86.330808 
L 239.777142 86.834235 
L 243.106817 86.798 
L 245.61869 87.121797 
L 248.353304 87.194266 
L 251.142855 88.182616 
L 253.572595 88.212683 
L 256.846789 88.534937 
L 259.190316 88.52877 
L 261.889575 88.867985 
L 267.438488 89.177905 
L 270.20329 89.551812 
L 274.932771 89.975832 
L 275.572978 90.217137 
L 277.43975 90.702061 
L 283.506214 90.738295 
L 287.057268 90.173193 
L 289.057303 90.39908 
L 291.727461 90.130791 
L 295.020692 89.91724 
L 299.250572 90.087619 
L 302.217173 90.719793 
L 305.262099 90.523973 
L 307.398933 90.220221 
L 310.310052 90.29269 
L 315.282399 89.97429 
L 317.572349 89.565689 
L 319.597404 88.664456 
L 323.0462 88.181074 
L 324.64291 87.431716 
L 330.351739 87.533481 
L 333.158968 87.102523 
L 335.532955 87.520375 
L 337.407342 86.293803 
L 341.790502 86.231357 
L 345.031706 86.859676 
L 346.916863 87.81873 
L 349.364906 88.639786 
L 352.068516 88.740008 
L 353.797265 89.689041 
L 356.164807 90.498532 
L 363.040415 91.789092 
L 365.295961 92.014208 
L 367.424413 91.939426 
L 370.137364 92.199234 
L 373.400108 93.122054 
L 378.974124 93.370298 
L 380.129026 93.687156 
L 382.337903 93.915356 
L 385.311955 94.734869 
L 386.224536 94.451933 
L 388.593682 94.288493 
L 389.590735 93.930004 
L 390.348214 93.47823 
L 390.839819 93.341002 
L 390.815287 93.199149 
L 390.48319 92.805967 
L 391.064788 92.747375 
L 391.191824 92.487567 
L 391.707144 92.446707 
L 391.10319 92.148352 
L 391.450082 92.20386 
L 390.905117 92.585477 
L 391.124893 92.502986 
L 390.775499 92.347256 
L 391.047491 92.099012 
L 390.589257 92.166855 
L 390.605602 92.196921 
L 391.085403 91.639529 
L 392.20873 91.959471 
L 391.970543 91.897795 
L 390.168798 91.068259 
L 390.531274 91.042047 
L 390.775743 91.230158 
L 390.688633 91.40362 
L 390.355149 91.319587 
L 390.428171 91.442938 
L 389.62212 91.810678 
L 388.464254 91.883147 
L 388.510216 91.717394 
L 387.451862 91.875438 
L 386.709178 92.14681 
L 386.727427 92.374239 
L 386.899337 92.17919 
L 385.503473 91.922465 
L 384.647815 92.122911 
L 383.758053 92.061235 
L 381.158116 92.149123 
L 380.928795 92.509154 
L 380.574505 92.493735 
L 380.477767 92.786694 
L 379.457135 93.06115 
L 379.144674 93.429661 
L 377.471596 93.872954 
L 377.81691 94.035623 
L 374.28435 95.091045 
L 374.362404 95.912101 
L 371.270319 96.38546 
L 370.103913 96.772474 
L 369.406838 97.140985 
L 369.219753 97.51258 
L 368.123446 97.772389 
L 367.599798 98.148609 
L 366.565004 98.591902 
L 366.09009 97.511039 
L 363.717859 99.131563 
L 363.129568 99.841602 
L 360.721046 101.680304 
L 358.383665 104.432574 
L 357.997284 104.548216 
L 358.804178 105.622912 
L 358.080152 105.679191 
L 357.286447 106.066204 
L 357.646774 106.885718 
L 356.664788 107.175593 
L 355.5376 107.937286 
L 354.18381 109.092931 
L 353.534709 109.365845 
L 353.075523 109.764423 
L 351.935171 110.57854 
L 351.556514 110.425893 
L 349.359005 112.710971 
L 349.143907 113.22442 
L 344.302322 121.556012 
L 342.670474 124.015323 
L 339.809777 129.155978 
L 339.392527 129.740354 
L 333.821476 140.723222 
L 332.000122 144.41296 
L 330.048769 147.081198 
L 329.370487 148.723308 
L 328.371286 150.201979 
L 327.973672 151.765454 
L 326.518384 154.981832 
L 321.361101 163.977901 
L 320.341502 165.783143 
L 313.153724 181.072659 
L 311.799064 183.530969 
L 305.996134 195.364497 
L 299.812453 209.092312 
L 298.838273 212.01974 
L 295.039458 219.146578 
L 294.200444 222.377373 
L 292.768817 224.819801 
L 291.693737 226.986185 
L 290.182968 229.611126 
L 289.069541 232.227176 
L 287.7535 234.892516 
L 286.680052 236.761848 
L 285.329743 238.806468 
L 282.445004 242.62537 
L 281.044109 244.868046 
L 279.239074 247.052593 
L 277.993472 249.900615 
L 275.847391 251.380827 
L 274.537605 253.085616 
L 273.255832 255.700658 
L 272.735561 256.30608 
L 271.398307 256.494268 
L 270.53808 258.145553 
L 270.612054 258.418159 
L 268.94137 261.488829 
L 267.724868 261.847241 
L 267.391982 261.157169 
L 266.297864 261.951472 
L 265.816757 261.965349 
L 265.351152 262.293309 
L 264.555381 262.691964 
L 263.996492 265.070403 
L 262.343213 266.897155 
L 261.825391 267.90848 
L 261.352171 269.22132 
L 260.592027 270.422837 
L 260.226505 271.240346 
L 256.811705 274.772657 
L 251.653334 279.253923 
L 251.313378 279.440492 
L 250.604363 280.092248 
L 249.149891 281.080444 
L 247.840105 281.985455 
L 245.413628 283.544689 
L 243.96514 284.347011 
L 241.240861 285.719445 
L 238.501352 286.871082 
L 238.367816 286.887965 
L 237.361 287.283614 
L 232.750096 288.560991 
L 232.006542 288.696908 
L 230.070419 288.996266 
L 232.585013 288.672007 
L 235.307388 288.456759 
L 235.307388 288.456759 
" style="fill:none;stroke:#1f77b4;stroke-linecap:square;stroke-width:1.5;"/>
   </g>
   <g id="line2d_26">
    <path clip-path="url(#p137e12d032)" d="M 74.743812 66.756539 
L 77.240456 67.871325 
L 78.418067 82.390513 
L 77.145268 107.534082 
L 80.267433 94.199834 
L 86.05758 90.398309 
L 86.756531 69.989108 
L 90.419907 78.437883 
L 93.416968 83.476003 
L 95.839637 66.347168 
L 104.607263 67.930687 
L 103.457665 58.466578 
L 105.350001 67.490478 
L 106.17596 87.256712 
L 110.232055 74.183043 
L 116.660505 66.387257 
L 115.082017 74.52303 
L 119.08807 53.568 
L 119.657566 82.073655 
L 121.953771 83.610147 
L 124.956543 71.130105 
L 126.69685 85.204459 
L 130.044475 79.689126 
L 133.913729 72.961097 
L 136.561858 73.666511 
L 138.695427 70.992106 
L 141.628304 72.419894 
L 145.72193 72.594899 
L 145.978121 80.315903 
L 151.115007 67.974631 
L 153.868114 67.840487 
L 155.870325 64.997245 
L 156.745782 83.177647 
L 160.271 85.039477 
L 163.708645 82.02817 
L 167.462585 68.767932 
L 169.946447 73.220905 
L 173.113758 73.931716 
L 176.480692 69.397023 
L 178.526689 74.33569 
L 183.305668 68.781038 
L 184.603487 80.739151 
L 188.125985 76.141241 
L 190.942461 76.643897 
L 194.677636 77.039391 
L 196.831875 79.956643 
L 199.530861 80.784637 
L 203.271204 76.770331 
L 204.323439 87.429404 
L 207.207905 87.109462 
L 210.514463 93.844429 
L 212.549853 89.300485 
L 216.106347 93.196065 
L 219.144746 86.187413 
L 223.601446 79.826354 
L 224.733095 88.076997 
L 228.774775 93.156747 
L 232.511582 82.183129 
L 234.077016 88.600468 
L 237.696333 84.165227 
L 239.714046 89.846313 
L 243.846563 84.583849 
L 244.979299 88.379207 
L 248.284497 86.166597 
L 249.337548 95.191268 
L 254.59845 87.494934 
L 256.273758 89.551812 
L 259.996966 87.528855 
L 261.026356 90.506241 
L 261.174577 112.72639 
L 268.201079 89.374495 
L 270.205738 91.874667 
L 272.907988 91.49305 
L 274.62545 91.930175 
L 278.437591 94.595328 
L 282.032432 90.194009 
L 284.351755 89.652806 
L 289.063014 84.056523 
L 287.699651 91.764422 
L 292.193066 86.911329 
L 295.082428 86.891285 
L 296.635896 90.459214 
L 299.352832 89.910301 
L 302.031964 95.74789 
L 305.393459 88.001444 
L 307.680145 87.104065 
L 310.682917 89.965038 
L 312.615776 87.441739 
L 315.660159 88.353765 
L 316.365638 85.815818 
L 319.005879 81.148523 
L 323.503918 83.924692 
L 324.255903 81.340488 
L 328.635364 88.317531 
L 330.130903 87.595157 
L 333.266938 83.754313 
L 335.828582 90.813077 
L 335.739649 76.699405 
L 344.603469 115.359164 
L 341.459737 86.237524 
L 346.242932 91.750545 
L 346.558113 96.144926 
L 349.266047 95.678505 
L 351.919914 89.73761 
L 353.041119 97.956644 
L 355.15557 97.483285 
L 357.300644 94.720992 
L 360.841799 94.367129 
L 362.797993 95.92752 
L 365.293315 93.808965 
L 367.097586 91.390514 
L 376.542235 100.554726 
L 376.932533 93.366444 
L 378.542107 93.814362 
L 378.616489 95.725532 
L 382.216525 95.291491 
L 387.135376 100.998789 
L 383.39419 91.717394 
L 386.335198 94.321643 
L 388.404829 93.088133 
L 390.251802 90.929489 
L 390.399506 89.861732 
L 391.387938 92.316418 
L 390.752926 92.226988 
L 389.639199 89.596527 
L 392.278788 92.180732 
L 391.254294 92.87381 
L 391.514619 90.269561 
L 393.016685 92.041962 
L 389.568325 89.646639 
L 392.331658 92.642527 
L 389.520187 95.843487 
L 391.683429 91.80374 
L 389.887531 91.022774 
L 391.738692 89.983541 
L 389.424727 92.759711 
L 390.647158 92.457501 
L 391.615655 88.84717 
L 391.579973 89.887173 
L 395.649856 94.658546 
L 391.365202 91.372782 
L 389.295299 88.268962 
L 390.861222 90.601838 
L 391.93758 91.966409 
L 390.911128 92.828325 
L 389.018764 88.126337 
L 391.452448 90.822328 
L 391.397049 92.834492 
L 391.02655 92.882291 
L 390.859536 90.584107 
L 391.252146 92.496048 
L 388.754822 94.920667 
L 386.871977 92.375009 
L 389.810837 90.261852 
L 386.631396 93.034167 
L 386.002992 94.267677 
L 389.281211 94.038707 
L 389.828759 90.274187 
L 386.272157 90.31736 
L 385.434394 90.918696 
L 384.90863 93.362589 
L 383.922782 90.951076 
L 381.569002 91.940197 
L 380.257965 91.029712 
L 383.245207 94.27847 
L 382.595454 90.731357 
L 381.920164 94.317018 
L 378.589673 94.238381 
L 380.749869 94.918354 
L 375.971543 95.126509 
L 378.899932 92.633276 
L 379.898399 94.168225 
L 374.919607 95.672337 
L 374.15862 96.420924 
L 375.135765 92.373468 
L 374.843157 95.091816 
L 376.943656 99.709771 
L 371.178068 94.384861 
L 369.779403 94.966152 
L 368.844658 97.163343 
L 369.300445 97.467095 
L 371.111246 96.606721 
L 367.699938 95.65846 
L 367.265329 99.462298 
L 366.291059 97.711484 
L 365.873893 86.044017 
L 362.61991 103.471978 
L 368.192778 129.573059 
L 360.440867 103.508212 
L 360.869757 101.812906 
L 359.82685 104.771789 
L 358.837168 107.147068 
L 357.742806 107.588819 
L 359.149112 103.650837 
L 358.632432 100.824556 
L 362.50854 109.976433 
L 357.35588 102.761938 
L 357.559773 102.377237 
L 359.736041 110.261682 
L 355.772524 104.525087 
L 355.418533 105.491851 
L 353.006743 111.112804 
L 353.509607 106.022261 
L 353.493398 107.571858 
L 351.769707 107.553356 
L 352.828034 100.572457 
L 349.932933 111.367216 
L 349.083313 113.06946 
L 350.802788 108.428377 
L 347.944376 120.028001 
L 347.248769 119.094388 
L 346.667769 119.885376 
L 345.264345 124.028429 
L 344.943589 122.562094 
L 344.758843 119.016522 
L 342.698105 126.326614 
L 342.873931 123.127967 
L 342.392362 124.967439 
L 341.127939 129.256972 
L 341.212766 125.27042 
L 339.73931 131.26451 
L 339.396906 128.70035 
L 337.470438 138.855996 
L 337.960248 132.025432 
L 337.336359 134.818562 
L 336.65998 133.628995 
L 336.276237 134.268108 
L 335.393437 138.481317 
L 334.745071 136.98954 
L 334.02817 140.067149 
L 333.398297 141.26057 
L 332.674869 144.123856 
L 332.617484 139.313937 
L 328.165952 149.426409 
L 329.750151 148.639276 
L 327.934781 148.762627 
L 329.532035 148.047961 
L 327.125411 152.635078 
L 324.636926 157.955594 
L 323.919209 156.525879 
L 322.318692 160.648116 
L 321.005098 162.980839 
L 320.368155 163.053385 
L 319.268598 167.598485 
L 318.163602 170.67116 
L 317.792913 170.70431 
L 316.154048 173.20772 
L 314.44828 178.025272 
L 314.380017 175.757926 
L 313.698471 178.176685 
L 311.347601 183.003412 
L 310.146601 186.62415 
L 309.56677 185.50127 
L 308.091085 189.779856 
L 307.639622 190.329307 
L 306.174816 194.30576 
L 304.715721 199.332392 
L 303.127442 201.665962 
L 302.340645 204.245541 
L 301.332469 204.807482 
L 299.880989 208.670682 
L 300.467074 207.867898 
L 297.432483 211.5066 
L 296.297026 213.963367 
L 294.931215 218.318739 
L 295.671506 224.775086 
L 292.679068 221.62632 
L 291.970054 225.305889 
L 289.976275 227.938871 
L 289.774476 231.389663 
L 287.986303 234.594238 
L 287.502748 230.743388 
L 285.507336 234.436102 
L 284.106442 236.238307 
L 281.892914 240.161202 
L 281.130595 243.486438 
L 278.943991 242.321002 
L 277.920313 257.190739 
L 276.912409 244.087466 
L 275.255594 246.616008 
L 273.400517 256.656397 
L 272.207948 267.527017 
L 272.384998 256.928001 
L 270.198939 247.020214 
L 270.567996 261.772845 
L 270.80107 260.786807 
L 269.286222 265.441613 
L 268.833127 264.927393 
L 267.753152 257.994371 
L 268.526078 253.753716 
L 267.539387 251.356003 
L 265.297031 260.898825 
L 266.208388 255.497514 
L 265.297303 260.603014 
L 264.809397 257.031924 
L 264.204002 278.967903 
L 264.746573 242.208367 
L 261.564304 269.137364 
L 262.140599 270.226785 
L 261.313551 275.903709 
L 260.915394 272.159157 
L 260.915394 272.159157 
L 259.587658 271.923094 
L 255.912859 275.625398 
L 255.139933 276.250248 
L 252.814899 278.347216 
L 250.928274 279.818563 
L 251.124905 279.585738 
L 249.047632 281.17234 
L 248.761253 281.352433 
L 246.814251 282.670516 
L 244.761183 283.924225 
L 244.756016 283.882902 
L 243.038009 284.838642 
L 240.776072 285.931069 
L 238.028947 287.047319 
L 238.367816 286.887965 
L 236.417007 287.576958 
L 236.563053 287.518674 
L 234.344358 288.173823 
L 234.483876 288.128723 
L 232.204261 288.671775 
L 232.595891 288.571476 
L 230.103871 288.999195 
L 230.305397 288.964734 
L 229.901528 289.024328 
L 233.335094 288.597765 
L 235.419166 288.447816 
L 235.419166 288.447816 
" style="fill:none;stroke:#ff7f0e;stroke-linecap:square;stroke-width:1.5;"/>
   </g>
   <g id="line2d_27">
    <path clip-path="url(#p137e12d032)" d="M 74.743812 66.756539 
L 104.888475 70.144838 
L 142.030813 74.098239 
L 176.183977 77.518147 
L 208.821205 80.567231 
L 235.19969 82.81222 
L 257.29934 84.483626 
L 273.875097 85.579138 
L 294.964667 86.760224 
L 313.569288 87.601324 
L 331.665333 88.206515 
L 348.982822 88.556524 
L 368.325503 88.696836 
L 395.959081 88.704545 
L 390.300021 88.83098 
L 386.971924 89.147067 
L 384.124336 89.633533 
L 381.176148 90.380577 
L 377.959257 91.499217 
L 375.221271 92.699577 
L 372.70287 93.999389 
L 369.533356 95.915184 
L 366.388395 98.13319 
L 363.083796 100.80297 
L 360.451773 103.200606 
L 357.397464 106.273588 
L 354.199176 109.83535 
L 351.223872 113.47806 
L 348.292709 117.39754 
L 345.41156 121.60381 
L 342.579909 126.081453 
L 339.192415 131.902081 
L 335.118751 139.45579 
L 329.37647 150.706176 
L 322.250973 165.184274 
L 315.439051 179.522908 
L 294.40741 224.457303 
L 289.354017 234.530497 
L 285.084974 242.557142 
L 281.002227 249.672724 
L 278.100082 254.392906 
L 274.112523 260.427162 
L 270.231846 265.794628 
L 266.496399 270.542256 
L 262.763672 274.887142 
L 259.400546 278.476041 
L 256.143758 281.611162 
L 253.038455 284.273694 
L 249.90514 286.640415 
L 246.74626 288.7104 
L 243.564807 290.47432 
L 240.844879 291.736895 
L 238.089052 292.784299 
L 235.144209 293.65192 
L 235.144209 293.65192 
L 232.115056 294.282783 
L 232.115056 294.282783 
L 229.556948 294.601029 
L 228.640696 294.668641 
L 231.369055 294.531721 
L 234.034045 294.511754 
L 234.034045 294.511754 
" style="fill:none;stroke:#2ca02c;stroke-linecap:square;stroke-width:1.5;"/>
   </g>
   <g id="line2d_28">
    <path clip-path="url(#p137e12d032)" d="M 74.60239 71.165568 
L 94.320709 72.858561 
L 117.485377 75.434285 
L 122.793601 75.9115 
L 136.32144 76.704801 
L 150.100303 77.306908 
L 158.540483 77.568259 
L 167.182733 78.318387 
L 175.917723 79.08856 
L 190.632148 80.140128 
L 202.571436 80.822413 
L 231.67692 83.011894 
L 237.378678 83.471377 
L 248.741399 84.677904 
L 262.652166 85.855907 
L 292.233861 88.114773 
L 323.481345 89.600382 
L 343.590397 89.855564 
L 365.776653 89.795431 
L 387.397795 89.899508 
L 398.487273 89.642784 
L 398.33742 89.616572 
L 398.281395 89.594214 
L 398.324093 89.505556 
L 398.126918 89.170195 
L 397.990936 89.057637 
L 397.911522 89.011381 
L 397.761669 89.042218 
L 396.326234 89.342887 
L 391.86415 89.800827 
L 389.112021 90.180903 
L 384.252704 90.997333 
L 382.480195 91.440625 
L 378.68652 92.765878 
L 373.14563 95.385546 
L 366.298823 99.608777 
L 363.965867 101.395055 
L 359.881162 104.908247 
L 356.840315 107.860962 
L 354.105674 110.739667 
L 351.209866 114.08248 
L 347.772901 118.354281 
L 344.803636 122.424866 
L 340.662525 128.642529 
L 337.707864 133.548046 
L 330.922051 146.141417 
L 328.13522 151.896514 
L 322.568084 163.658807 
L 315.625075 178.193646 
L 310.135178 190.239647 
L 306.676864 197.924031 
L 301.482322 209.301623 
L 296.171378 220.701572 
L 292.141936 228.763797 
L 286.75593 239.158635 
L 282.599753 246.518406 
L 279.779742 251.137209 
L 275.773145 257.43135 
L 266.322069 270.836833 
L 263.79279 273.88769 
L 261.760391 275.983579 
L 258.222119 279.381437 
L 255.513886 282.234778 
L 252.55626 284.912498 
L 248.687006 288.132731 
L 246.426972 289.453513 
L 237.516836 293.599264 
L 236.820332 294.019352 
L 236.047406 294.397962 
L 234.104212 294.86022 
L 233.417499 295.124577 
L 232.546665 295.140073 
L 230.746525 295.101063 
L 230.682885 294.516379 
L 230.568932 294.266285 
L 230.552342 294.384008 
L 230.516171 294.527327 
L 230.558597 294.462413 
L 230.616254 294.566414 
L 230.771002 294.580599 
L 230.859663 294.642814 
L 231.075332 294.598485 
L 231.814806 294.599795 
L 232.509678 294.509364 
L 234.735172 294.454318 
L 235.475191 294.420628 
L 235.475191 294.420628 
" style="fill:none;stroke:#d62728;stroke-linecap:square;stroke-width:1.5;"/>
   </g>
   <g id="line2d_29">
    <path clip-path="url(#p137e12d032)" d="M 73.832727 71.625051 
L 103.745404 74.183814 
L 140.837428 77.130362 
L 174.604129 79.60278 
L 207.078722 81.769133 
L 233.631536 83.326439 
L 256.21039 84.442766 
L 278.011421 85.283095 
L 299.443396 85.859762 
L 320.139704 86.17739 
L 337.788093 86.21825 
L 355.239145 86.031682 
L 374.588978 85.591473 
L 398.288194 84.942338 
L 392.896477 85.209856 
L 389.43256 85.639272 
L 386.429108 86.252943 
L 383.933606 86.965295 
L 380.704913 88.1618 
L 377.737768 89.541019 
L 375.258095 90.897881 
L 372.799962 92.430517 
L 369.677416 94.647752 
L 366.392874 97.325241 
L 363.45068 100.028942 
L 360.625804 102.907647 
L 357.588057 106.319845 
L 354.806611 109.736669 
L 351.245521 114.551214 
L 347.86507 119.601669 
L 344.46153 125.191013 
L 340.876453 131.635334 
L 336.563976 139.953049 
L 330.434416 152.348287 
L 323.984753 165.831327 
L 317.389316 180.088164 
L 299.136075 219.985134 
L 293.862119 230.845199 
L 289.823974 238.74157 
L 285.6988 246.278797 
L 281.429213 253.462762 
L 277.296424 259.841784 
L 273.343676 265.444697 
L 269.872308 269.975149 
L 266.115376 274.48787 
L 262.570848 278.390235 
L 259.193308 281.740372 
L 255.91014 284.625861 
L 252.923958 286.945015 
L 249.689199 289.139584 
L 246.539294 290.952536 
L 243.553112 292.392351 
L 240.670277 293.528029 
L 238.075997 294.336672 
L 235.159711 295.011171 
L 235.159711 295.011171 
L 232.329909 295.425708 
L 231.687254 295.488 
L 234.81921 295.260263 
L 236.165711 295.211154 
L 236.165711 295.211154 
" style="fill:none;stroke:#9467bd;stroke-linecap:square;stroke-width:1.5;"/>
   </g>
   <g id="patch_3">
    <path d="M 57.6 307.584 
L 57.6 41.472 
" style="fill:none;stroke:#000000;stroke-linecap:square;stroke-linejoin:miter;stroke-width:0.8;"/>
   </g>
   <g id="patch_4">
    <path d="M 414.72 307.584 
L 414.72 41.472 
" style="fill:none;stroke:#000000;stroke-linecap:square;stroke-linejoin:miter;stroke-width:0.8;"/>
   </g>
   <g id="patch_5">
    <path d="M 57.6 307.584 
L 414.72 307.584 
" style="fill:none;stroke:#000000;stroke-linecap:square;stroke-linejoin:miter;stroke-width:0.8;"/>
   </g>
   <g id="patch_6">
    <path d="M 57.6 41.472 
L 414.72 41.472 
" style="fill:none;stroke:#000000;stroke-linecap:square;stroke-linejoin:miter;stroke-width:0.8;"/>
   </g>
   <g id="legend_1">
    <g id="patch_7">
     <path d="M 64.6 302.584 
L 122.110937 302.584 
Q 124.110937 302.584 124.110937 300.584 
L 124.110937 227.91525 
Q 124.110937 225.91525 122.110937 225.91525 
L 64.6 225.91525 
Q 62.6 225.91525 62.6 227.91525 
L 62.6 300.584 
Q 62.6 302.584 64.6 302.584 
z
" style="fill:#ffffff;opacity:0.8;stroke:#cccccc;stroke-linejoin:miter;"/>
    </g>
    <g id="line2d_30">
     <path d="M 66.6 234.013687 
L 86.6 234.013687 
" style="fill:none;stroke:#1f77b4;stroke-linecap:square;stroke-width:1.5;"/>
    </g>
    <g id="line2d_31"/>
    <g id="text_13">
     <!-- y -->
     <defs>
      <path d="M 32.171875 -5.078125 
Q 28.375 -14.84375 24.75 -17.8125 
Q 21.140625 -20.796875 15.09375 -20.796875 
L 7.90625 -20.796875 
L 7.90625 -13.28125 
L 13.1875 -13.28125 
Q 16.890625 -13.28125 18.9375 -11.515625 
Q 21 -9.765625 23.484375 -3.21875 
L 25.09375 0.875 
L 2.984375 54.6875 
L 12.5 54.6875 
L 29.59375 11.921875 
L 46.6875 54.6875 
L 56.203125 54.6875 
z
" id="DejaVuSans-79"/>
     </defs>
     <g transform="translate(94.6 237.513687)scale(0.1 -0.1)">
      <use xlink:href="#DejaVuSans-79"/>
     </g>
    </g>
    <g id="line2d_32">
     <path d="M 66.6 248.691812 
L 86.6 248.691812 
" style="fill:none;stroke:#ff7f0e;stroke-linecap:square;stroke-width:1.5;"/>
    </g>
    <g id="line2d_33"/>
    <g id="text_14">
     <!-- zy -->
     <defs>
      <path d="M 5.515625 54.6875 
L 48.1875 54.6875 
L 48.1875 46.484375 
L 14.40625 7.171875 
L 48.1875 7.171875 
L 48.1875 0 
L 4.296875 0 
L 4.296875 8.203125 
L 38.09375 47.515625 
L 5.515625 47.515625 
z
" id="DejaVuSans-7a"/>
     </defs>
     <g transform="translate(94.6 252.191812)scale(0.1 -0.1)">
      <use xlink:href="#DejaVuSans-7a"/>
      <use x="52.490234" xlink:href="#DejaVuSans-79"/>
     </g>
    </g>
    <g id="line2d_34">
     <path d="M 66.6 263.369937 
L 86.6 263.369937 
" style="fill:none;stroke:#2ca02c;stroke-linecap:square;stroke-width:1.5;"/>
    </g>
    <g id="line2d_35"/>
    <g id="text_15">
     <!-- dr_y -->
     <defs>
      <path d="M 45.40625 46.390625 
L 45.40625 75.984375 
L 54.390625 75.984375 
L 54.390625 0 
L 45.40625 0 
L 45.40625 8.203125 
Q 42.578125 3.328125 38.25 0.953125 
Q 33.9375 -1.421875 27.875 -1.421875 
Q 17.96875 -1.421875 11.734375 6.484375 
Q 5.515625 14.40625 5.515625 27.296875 
Q 5.515625 40.1875 11.734375 48.09375 
Q 17.96875 56 27.875 56 
Q 33.9375 56 38.25 53.625 
Q 42.578125 51.265625 45.40625 46.390625 
z
M 14.796875 27.296875 
Q 14.796875 17.390625 18.875 11.75 
Q 22.953125 6.109375 30.078125 6.109375 
Q 37.203125 6.109375 41.296875 11.75 
Q 45.40625 17.390625 45.40625 27.296875 
Q 45.40625 37.203125 41.296875 42.84375 
Q 37.203125 48.484375 30.078125 48.484375 
Q 22.953125 48.484375 18.875 42.84375 
Q 14.796875 37.203125 14.796875 27.296875 
z
" id="DejaVuSans-64"/>
      <path d="M 41.109375 46.296875 
Q 39.59375 47.171875 37.8125 47.578125 
Q 36.03125 48 33.890625 48 
Q 26.265625 48 22.1875 43.046875 
Q 18.109375 38.09375 18.109375 28.8125 
L 18.109375 0 
L 9.078125 0 
L 9.078125 54.6875 
L 18.109375 54.6875 
L 18.109375 46.1875 
Q 20.953125 51.171875 25.484375 53.578125 
Q 30.03125 56 36.53125 56 
Q 37.453125 56 38.578125 55.875 
Q 39.703125 55.765625 41.0625 55.515625 
z
" id="DejaVuSans-72"/>
      <path d="M 50.984375 -16.609375 
L 50.984375 -23.578125 
L -0.984375 -23.578125 
L -0.984375 -16.609375 
z
" id="DejaVuSans-5f"/>
     </defs>
     <g transform="translate(94.6 266.869937)scale(0.1 -0.1)">
      <use xlink:href="#DejaVuSans-64"/>
      <use x="63.476562" xlink:href="#DejaVuSans-72"/>
      <use x="104.589844" xlink:href="#DejaVuSans-5f"/>
      <use x="154.589844" xlink:href="#DejaVuSans-79"/>
     </g>
    </g>
    <g id="line2d_36">
     <path d="M 66.6 278.326187 
L 86.6 278.326187 
" style="fill:none;stroke:#d62728;stroke-linecap:square;stroke-width:1.5;"/>
    </g>
    <g id="line2d_37"/>
    <g id="text_16">
     <!-- RTKy -->
     <defs>
      <path d="M 44.390625 34.1875 
Q 47.5625 33.109375 50.5625 29.59375 
Q 53.5625 26.078125 56.59375 19.921875 
L 66.609375 0 
L 56 0 
L 46.6875 18.703125 
Q 43.0625 26.03125 39.671875 28.421875 
Q 36.28125 30.8125 30.421875 30.8125 
L 19.671875 30.8125 
L 19.671875 0 
L 9.8125 0 
L 9.8125 72.90625 
L 32.078125 72.90625 
Q 44.578125 72.90625 50.734375 67.671875 
Q 56.890625 62.453125 56.890625 51.90625 
Q 56.890625 45.015625 53.6875 40.46875 
Q 50.484375 35.9375 44.390625 34.1875 
z
M 19.671875 64.796875 
L 19.671875 38.921875 
L 32.078125 38.921875 
Q 39.203125 38.921875 42.84375 42.21875 
Q 46.484375 45.515625 46.484375 51.90625 
Q 46.484375 58.296875 42.84375 61.546875 
Q 39.203125 64.796875 32.078125 64.796875 
z
" id="DejaVuSans-52"/>
      <path d="M -0.296875 72.90625 
L 61.375 72.90625 
L 61.375 64.59375 
L 35.5 64.59375 
L 35.5 0 
L 25.59375 0 
L 25.59375 64.59375 
L -0.296875 64.59375 
z
" id="DejaVuSans-54"/>
      <path d="M 9.8125 72.90625 
L 19.671875 72.90625 
L 19.671875 42.09375 
L 52.390625 72.90625 
L 65.09375 72.90625 
L 28.90625 38.921875 
L 67.671875 0 
L 54.6875 0 
L 19.671875 35.109375 
L 19.671875 0 
L 9.8125 0 
z
" id="DejaVuSans-4b"/>
     </defs>
     <g transform="translate(94.6 281.826187)scale(0.1 -0.1)">
      <use xlink:href="#DejaVuSans-52"/>
      <use x="69.373047" xlink:href="#DejaVuSans-54"/>
      <use x="130.457031" xlink:href="#DejaVuSans-4b"/>
      <use x="195.923828" xlink:href="#DejaVuSans-79"/>
     </g>
    </g>
    <g id="line2d_38">
     <path d="M 66.6 293.004312 
L 86.6 293.004312 
" style="fill:none;stroke:#9467bd;stroke-linecap:square;stroke-width:1.5;"/>
    </g>
    <g id="line2d_39"/>
    <g id="text_17">
     <!-- DRy -->
     <defs>
      <path d="M 19.671875 64.796875 
L 19.671875 8.109375 
L 31.59375 8.109375 
Q 46.6875 8.109375 53.6875 14.9375 
Q 60.6875 21.78125 60.6875 36.53125 
Q 60.6875 51.171875 53.6875 57.984375 
Q 46.6875 64.796875 31.59375 64.796875 
z
M 9.8125 72.90625 
L 30.078125 72.90625 
Q 51.265625 72.90625 61.171875 64.09375 
Q 71.09375 55.28125 71.09375 36.53125 
Q 71.09375 17.671875 61.125 8.828125 
Q 51.171875 0 30.078125 0 
L 9.8125 0 
z
" id="DejaVuSans-44"/>
     </defs>
     <g transform="translate(94.6 296.504312)scale(0.1 -0.1)">
      <use xlink:href="#DejaVuSans-44"/>
      <use x="77.001953" xlink:href="#DejaVuSans-52"/>
      <use x="146.40625" xlink:href="#DejaVuSans-79"/>
     </g>
    </g>
   </g>
  </g>
 </g>
 <defs>
  <clipPath id="p137e12d032">
   <rect height="266.112" width="357.12" x="57.6" y="41.472"/>
  </clipPath>
 </defs>
</svg>
