<?xml version="1.0" encoding="utf-8" standalone="no"?>
<!DOCTYPE svg PUBLIC "-//W3C//DTD SVG 1.1//EN"
  "http://www.w3.org/Graphics/SVG/1.1/DTD/svg11.dtd">
<!-- Created with matplotlib (http://matplotlib.org/) -->
<svg height="345pt" version="1.1" viewBox="0 0 460 345" width="460pt" xmlns="http://www.w3.org/2000/svg" xmlns:xlink="http://www.w3.org/1999/xlink">
 <defs>
  <style type="text/css">
*{stroke-linecap:butt;stroke-linejoin:round;}
  </style>
 </defs>
 <g id="figure_1">
  <g id="patch_1">
   <path d="M 0 345.6 
L 460.8 345.6 
L 460.8 0 
L 0 0 
z
" style="fill:#ffffff;"/>
  </g>
  <g id="axes_1">
   <g id="patch_2">
    <path d="M 57.6 307.584 
L 414.72 307.584 
L 414.72 41.472 
L 57.6 41.472 
z
" style="fill:#ffffff;"/>
   </g>
   <g id="matplotlib.axis_1">
    <g id="xtick_1">
     <g id="line2d_1">
      <path clip-path="url(#p6188b9b667)" d="M 98.582704 307.584 
L 98.582704 41.472 
" style="fill:none;stroke:#b0b0b0;stroke-linecap:square;stroke-width:0.8;"/>
     </g>
     <g id="line2d_2">
      <defs>
       <path d="M 0 0 
L 0 3.5 
" id="m402c0e95c3" style="stroke:#000000;stroke-width:0.8;"/>
      </defs>
      <g>
       <use style="stroke:#000000;stroke-width:0.8;" x="98.582704" xlink:href="#m402c0e95c3" y="307.584"/>
      </g>
     </g>
     <g id="text_1">
      <!-- −10 -->
      <defs>
       <path d="M 10.59375 35.5 
L 73.1875 35.5 
L 73.1875 27.203125 
L 10.59375 27.203125 
z
" id="DejaVuSans-2212"/>
       <path d="M 12.40625 8.296875 
L 28.515625 8.296875 
L 28.515625 63.921875 
L 10.984375 60.40625 
L 10.984375 69.390625 
L 28.421875 72.90625 
L 38.28125 72.90625 
L 38.28125 8.296875 
L 54.390625 8.296875 
L 54.390625 0 
L 12.40625 0 
z
" id="DejaVuSans-31"/>
       <path d="M 31.78125 66.40625 
Q 24.171875 66.40625 20.328125 58.90625 
Q 16.5 51.421875 16.5 36.375 
Q 16.5 21.390625 20.328125 13.890625 
Q 24.171875 6.390625 31.78125 6.390625 
Q 39.453125 6.390625 43.28125 13.890625 
Q 47.125 21.390625 47.125 36.375 
Q 47.125 51.421875 43.28125 58.90625 
Q 39.453125 66.40625 31.78125 66.40625 
z
M 31.78125 74.21875 
Q 44.046875 74.21875 50.515625 64.515625 
Q 56.984375 54.828125 56.984375 36.375 
Q 56.984375 17.96875 50.515625 8.265625 
Q 44.046875 -1.421875 31.78125 -1.421875 
Q 19.53125 -1.421875 13.0625 8.265625 
Q 6.59375 17.96875 6.59375 36.375 
Q 6.59375 54.828125 13.0625 64.515625 
Q 19.53125 74.21875 31.78125 74.21875 
z
" id="DejaVuSans-30"/>
      </defs>
      <g transform="translate(88.03036 322.182437)scale(0.1 -0.1)">
       <use xlink:href="#DejaVuSans-2212"/>
       <use x="83.789062" xlink:href="#DejaVuSans-31"/>
       <use x="147.412109" xlink:href="#DejaVuSans-30"/>
      </g>
     </g>
    </g>
    <g id="xtick_2">
     <g id="line2d_3">
      <path clip-path="url(#p6188b9b667)" d="M 160.893823 307.584 
L 160.893823 41.472 
" style="fill:none;stroke:#b0b0b0;stroke-linecap:square;stroke-width:0.8;"/>
     </g>
     <g id="line2d_4">
      <g>
       <use style="stroke:#000000;stroke-width:0.8;" x="160.893823" xlink:href="#m402c0e95c3" y="307.584"/>
      </g>
     </g>
     <g id="text_2">
      <!-- −8 -->
      <defs>
       <path d="M 31.78125 34.625 
Q 24.75 34.625 20.71875 30.859375 
Q 16.703125 27.09375 16.703125 20.515625 
Q 16.703125 13.921875 20.71875 10.15625 
Q 24.75 6.390625 31.78125 6.390625 
Q 38.8125 6.390625 42.859375 10.171875 
Q 46.921875 13.96875 46.921875 20.515625 
Q 46.921875 27.09375 42.890625 30.859375 
Q 38.875 34.625 31.78125 34.625 
z
M 21.921875 38.8125 
Q 15.578125 40.375 12.03125 44.71875 
Q 8.5 49.078125 8.5 55.328125 
Q 8.5 64.0625 14.71875 69.140625 
Q 20.953125 74.21875 31.78125 74.21875 
Q 42.671875 74.21875 48.875 69.140625 
Q 55.078125 64.0625 55.078125 55.328125 
Q 55.078125 49.078125 51.53125 44.71875 
Q 48 40.375 41.703125 38.8125 
Q 48.828125 37.15625 52.796875 32.3125 
Q 56.78125 27.484375 56.78125 20.515625 
Q 56.78125 9.90625 50.3125 4.234375 
Q 43.84375 -1.421875 31.78125 -1.421875 
Q 19.734375 -1.421875 13.25 4.234375 
Q 6.78125 9.90625 6.78125 20.515625 
Q 6.78125 27.484375 10.78125 32.3125 
Q 14.796875 37.15625 21.921875 38.8125 
z
M 18.3125 54.390625 
Q 18.3125 48.734375 21.84375 45.5625 
Q 25.390625 42.390625 31.78125 42.390625 
Q 38.140625 42.390625 41.71875 45.5625 
Q 45.3125 48.734375 45.3125 54.390625 
Q 45.3125 60.0625 41.71875 63.234375 
Q 38.140625 66.40625 31.78125 66.40625 
Q 25.390625 66.40625 21.84375 63.234375 
Q 18.3125 60.0625 18.3125 54.390625 
z
" id="DejaVuSans-38"/>
      </defs>
      <g transform="translate(153.522729 322.182437)scale(0.1 -0.1)">
       <use xlink:href="#DejaVuSans-2212"/>
       <use x="83.789062" xlink:href="#DejaVuSans-38"/>
      </g>
     </g>
    </g>
    <g id="xtick_3">
     <g id="line2d_5">
      <path clip-path="url(#p6188b9b667)" d="M 223.204942 307.584 
L 223.204942 41.472 
" style="fill:none;stroke:#b0b0b0;stroke-linecap:square;stroke-width:0.8;"/>
     </g>
     <g id="line2d_6">
      <g>
       <use style="stroke:#000000;stroke-width:0.8;" x="223.204942" xlink:href="#m402c0e95c3" y="307.584"/>
      </g>
     </g>
     <g id="text_3">
      <!-- −6 -->
      <defs>
       <path d="M 33.015625 40.375 
Q 26.375 40.375 22.484375 35.828125 
Q 18.609375 31.296875 18.609375 23.390625 
Q 18.609375 15.53125 22.484375 10.953125 
Q 26.375 6.390625 33.015625 6.390625 
Q 39.65625 6.390625 43.53125 10.953125 
Q 47.40625 15.53125 47.40625 23.390625 
Q 47.40625 31.296875 43.53125 35.828125 
Q 39.65625 40.375 33.015625 40.375 
z
M 52.59375 71.296875 
L 52.59375 62.3125 
Q 48.875 64.0625 45.09375 64.984375 
Q 41.3125 65.921875 37.59375 65.921875 
Q 27.828125 65.921875 22.671875 59.328125 
Q 17.53125 52.734375 16.796875 39.40625 
Q 19.671875 43.65625 24.015625 45.921875 
Q 28.375 48.1875 33.59375 48.1875 
Q 44.578125 48.1875 50.953125 41.515625 
Q 57.328125 34.859375 57.328125 23.390625 
Q 57.328125 12.15625 50.6875 5.359375 
Q 44.046875 -1.421875 33.015625 -1.421875 
Q 20.359375 -1.421875 13.671875 8.265625 
Q 6.984375 17.96875 6.984375 36.375 
Q 6.984375 53.65625 15.1875 63.9375 
Q 23.390625 74.21875 37.203125 74.21875 
Q 40.921875 74.21875 44.703125 73.484375 
Q 48.484375 72.75 52.59375 71.296875 
z
" id="DejaVuSans-36"/>
      </defs>
      <g transform="translate(215.833848 322.182437)scale(0.1 -0.1)">
       <use xlink:href="#DejaVuSans-2212"/>
       <use x="83.789062" xlink:href="#DejaVuSans-36"/>
      </g>
     </g>
    </g>
    <g id="xtick_4">
     <g id="line2d_7">
      <path clip-path="url(#p6188b9b667)" d="M 285.516061 307.584 
L 285.516061 41.472 
" style="fill:none;stroke:#b0b0b0;stroke-linecap:square;stroke-width:0.8;"/>
     </g>
     <g id="line2d_8">
      <g>
       <use style="stroke:#000000;stroke-width:0.8;" x="285.516061" xlink:href="#m402c0e95c3" y="307.584"/>
      </g>
     </g>
     <g id="text_4">
      <!-- −4 -->
      <defs>
       <path d="M 37.796875 64.3125 
L 12.890625 25.390625 
L 37.796875 25.390625 
z
M 35.203125 72.90625 
L 47.609375 72.90625 
L 47.609375 25.390625 
L 58.015625 25.390625 
L 58.015625 17.1875 
L 47.609375 17.1875 
L 47.609375 0 
L 37.796875 0 
L 37.796875 17.1875 
L 4.890625 17.1875 
L 4.890625 26.703125 
z
" id="DejaVuSans-34"/>
      </defs>
      <g transform="translate(278.144967 322.182437)scale(0.1 -0.1)">
       <use xlink:href="#DejaVuSans-2212"/>
       <use x="83.789062" xlink:href="#DejaVuSans-34"/>
      </g>
     </g>
    </g>
    <g id="xtick_5">
     <g id="line2d_9">
      <path clip-path="url(#p6188b9b667)" d="M 347.82718 307.584 
L 347.82718 41.472 
" style="fill:none;stroke:#b0b0b0;stroke-linecap:square;stroke-width:0.8;"/>
     </g>
     <g id="line2d_10">
      <g>
       <use style="stroke:#000000;stroke-width:0.8;" x="347.82718" xlink:href="#m402c0e95c3" y="307.584"/>
      </g>
     </g>
     <g id="text_5">
      <!-- −2 -->
      <defs>
       <path d="M 19.1875 8.296875 
L 53.609375 8.296875 
L 53.609375 0 
L 7.328125 0 
L 7.328125 8.296875 
Q 12.9375 14.109375 22.625 23.890625 
Q 32.328125 33.6875 34.8125 36.53125 
Q 39.546875 41.84375 41.421875 45.53125 
Q 43.3125 49.21875 43.3125 52.78125 
Q 43.3125 58.59375 39.234375 62.25 
Q 35.15625 65.921875 28.609375 65.921875 
Q 23.96875 65.921875 18.8125 64.3125 
Q 13.671875 62.703125 7.8125 59.421875 
L 7.8125 69.390625 
Q 13.765625 71.78125 18.9375 73 
Q 24.125 74.21875 28.421875 74.21875 
Q 39.75 74.21875 46.484375 68.546875 
Q 53.21875 62.890625 53.21875 53.421875 
Q 53.21875 48.921875 51.53125 44.890625 
Q 49.859375 40.875 45.40625 35.40625 
Q 44.1875 33.984375 37.640625 27.21875 
Q 31.109375 20.453125 19.1875 8.296875 
z
" id="DejaVuSans-32"/>
      </defs>
      <g transform="translate(340.456086 322.182437)scale(0.1 -0.1)">
       <use xlink:href="#DejaVuSans-2212"/>
       <use x="83.789062" xlink:href="#DejaVuSans-32"/>
      </g>
     </g>
    </g>
    <g id="xtick_6">
     <g id="line2d_11">
      <path clip-path="url(#p6188b9b667)" d="M 410.138299 307.584 
L 410.138299 41.472 
" style="fill:none;stroke:#b0b0b0;stroke-linecap:square;stroke-width:0.8;"/>
     </g>
     <g id="line2d_12">
      <g>
       <use style="stroke:#000000;stroke-width:0.8;" x="410.138299" xlink:href="#m402c0e95c3" y="307.584"/>
      </g>
     </g>
     <g id="text_6">
      <!-- 0 -->
      <g transform="translate(406.957049 322.182437)scale(0.1 -0.1)">
       <use xlink:href="#DejaVuSans-30"/>
      </g>
     </g>
    </g>
   </g>
   <g id="matplotlib.axis_2">
    <g id="ytick_1">
     <g id="line2d_13">
      <path clip-path="url(#p6188b9b667)" d="M 57.6 291.931043 
L 414.72 291.931043 
" style="fill:none;stroke:#b0b0b0;stroke-linecap:square;stroke-width:0.8;"/>
     </g>
     <g id="line2d_14">
      <defs>
       <path d="M 0 0 
L -3.5 0 
" id="m7a9f5d2c32" style="stroke:#000000;stroke-width:0.8;"/>
      </defs>
      <g>
       <use style="stroke:#000000;stroke-width:0.8;" x="57.6" xlink:href="#m7a9f5d2c32" y="291.931043"/>
      </g>
     </g>
     <g id="text_7">
      <!-- 1.7 -->
      <defs>
       <path d="M 10.6875 12.40625 
L 21 12.40625 
L 21 0 
L 10.6875 0 
z
" id="DejaVuSans-2e"/>
       <path d="M 8.203125 72.90625 
L 55.078125 72.90625 
L 55.078125 68.703125 
L 28.609375 0 
L 18.3125 0 
L 43.21875 64.59375 
L 8.203125 64.59375 
z
" id="DejaVuSans-37"/>
      </defs>
      <g transform="translate(34.696875 295.730262)scale(0.1 -0.1)">
       <use xlink:href="#DejaVuSans-31"/>
       <use x="63.623047" xlink:href="#DejaVuSans-2e"/>
       <use x="95.410156" xlink:href="#DejaVuSans-37"/>
      </g>
     </g>
    </g>
    <g id="ytick_2">
     <g id="line2d_15">
      <path clip-path="url(#p6188b9b667)" d="M 57.6 252.800609 
L 414.72 252.800609 
" style="fill:none;stroke:#b0b0b0;stroke-linecap:square;stroke-width:0.8;"/>
     </g>
     <g id="line2d_16">
      <g>
       <use style="stroke:#000000;stroke-width:0.8;" x="57.6" xlink:href="#m7a9f5d2c32" y="252.800609"/>
      </g>
     </g>
     <g id="text_8">
      <!-- 1.8 -->
      <g transform="translate(34.696875 256.599827)scale(0.1 -0.1)">
       <use xlink:href="#DejaVuSans-31"/>
       <use x="63.623047" xlink:href="#DejaVuSans-2e"/>
       <use x="95.410156" xlink:href="#DejaVuSans-38"/>
      </g>
     </g>
    </g>
    <g id="ytick_3">
     <g id="line2d_17">
      <path clip-path="url(#p6188b9b667)" d="M 57.6 213.670174 
L 414.72 213.670174 
" style="fill:none;stroke:#b0b0b0;stroke-linecap:square;stroke-width:0.8;"/>
     </g>
     <g id="line2d_18">
      <g>
       <use style="stroke:#000000;stroke-width:0.8;" x="57.6" xlink:href="#m7a9f5d2c32" y="213.670174"/>
      </g>
     </g>
     <g id="text_9">
      <!-- 1.9 -->
      <defs>
       <path d="M 10.984375 1.515625 
L 10.984375 10.5 
Q 14.703125 8.734375 18.5 7.8125 
Q 22.3125 6.890625 25.984375 6.890625 
Q 35.75 6.890625 40.890625 13.453125 
Q 46.046875 20.015625 46.78125 33.40625 
Q 43.953125 29.203125 39.59375 26.953125 
Q 35.25 24.703125 29.984375 24.703125 
Q 19.046875 24.703125 12.671875 31.3125 
Q 6.296875 37.9375 6.296875 49.421875 
Q 6.296875 60.640625 12.9375 67.421875 
Q 19.578125 74.21875 30.609375 74.21875 
Q 43.265625 74.21875 49.921875 64.515625 
Q 56.59375 54.828125 56.59375 36.375 
Q 56.59375 19.140625 48.40625 8.859375 
Q 40.234375 -1.421875 26.421875 -1.421875 
Q 22.703125 -1.421875 18.890625 -0.6875 
Q 15.09375 0.046875 10.984375 1.515625 
z
M 30.609375 32.421875 
Q 37.25 32.421875 41.125 36.953125 
Q 45.015625 41.5 45.015625 49.421875 
Q 45.015625 57.28125 41.125 61.84375 
Q 37.25 66.40625 30.609375 66.40625 
Q 23.96875 66.40625 20.09375 61.84375 
Q 16.21875 57.28125 16.21875 49.421875 
Q 16.21875 41.5 20.09375 36.953125 
Q 23.96875 32.421875 30.609375 32.421875 
z
" id="DejaVuSans-39"/>
      </defs>
      <g transform="translate(34.696875 217.469393)scale(0.1 -0.1)">
       <use xlink:href="#DejaVuSans-31"/>
       <use x="63.623047" xlink:href="#DejaVuSans-2e"/>
       <use x="95.410156" xlink:href="#DejaVuSans-39"/>
      </g>
     </g>
    </g>
    <g id="ytick_4">
     <g id="line2d_19">
      <path clip-path="url(#p6188b9b667)" d="M 57.6 174.539739 
L 414.72 174.539739 
" style="fill:none;stroke:#b0b0b0;stroke-linecap:square;stroke-width:0.8;"/>
     </g>
     <g id="line2d_20">
      <g>
       <use style="stroke:#000000;stroke-width:0.8;" x="57.6" xlink:href="#m7a9f5d2c32" y="174.539739"/>
      </g>
     </g>
     <g id="text_10">
      <!-- 2.0 -->
      <g transform="translate(34.696875 178.338958)scale(0.1 -0.1)">
       <use xlink:href="#DejaVuSans-32"/>
       <use x="63.623047" xlink:href="#DejaVuSans-2e"/>
       <use x="95.410156" xlink:href="#DejaVuSans-30"/>
      </g>
     </g>
    </g>
    <g id="ytick_5">
     <g id="line2d_21">
      <path clip-path="url(#p6188b9b667)" d="M 57.6 135.409304 
L 414.72 135.409304 
" style="fill:none;stroke:#b0b0b0;stroke-linecap:square;stroke-width:0.8;"/>
     </g>
     <g id="line2d_22">
      <g>
       <use style="stroke:#000000;stroke-width:0.8;" x="57.6" xlink:href="#m7a9f5d2c32" y="135.409304"/>
      </g>
     </g>
     <g id="text_11">
      <!-- 2.1 -->
      <g transform="translate(34.696875 139.208523)scale(0.1 -0.1)">
       <use xlink:href="#DejaVuSans-32"/>
       <use x="63.623047" xlink:href="#DejaVuSans-2e"/>
       <use x="95.410156" xlink:href="#DejaVuSans-31"/>
      </g>
     </g>
    </g>
    <g id="ytick_6">
     <g id="line2d_23">
      <path clip-path="url(#p6188b9b667)" d="M 57.6 96.27887 
L 414.72 96.27887 
" style="fill:none;stroke:#b0b0b0;stroke-linecap:square;stroke-width:0.8;"/>
     </g>
     <g id="line2d_24">
      <g>
       <use style="stroke:#000000;stroke-width:0.8;" x="57.6" xlink:href="#m7a9f5d2c32" y="96.27887"/>
      </g>
     </g>
     <g id="text_12">
      <!-- 2.2 -->
      <g transform="translate(34.696875 100.078088)scale(0.1 -0.1)">
       <use xlink:href="#DejaVuSans-32"/>
       <use x="63.623047" xlink:href="#DejaVuSans-2e"/>
       <use x="95.410156" xlink:href="#DejaVuSans-32"/>
      </g>
     </g>
    </g>
    <g id="ytick_7">
     <g id="line2d_25">
      <path clip-path="url(#p6188b9b667)" d="M 57.6 57.148435 
L 414.72 57.148435 
" style="fill:none;stroke:#b0b0b0;stroke-linecap:square;stroke-width:0.8;"/>
     </g>
     <g id="line2d_26">
      <g>
       <use style="stroke:#000000;stroke-width:0.8;" x="57.6" xlink:href="#m7a9f5d2c32" y="57.148435"/>
      </g>
     </g>
     <g id="text_13">
      <!-- 2.3 -->
      <defs>
       <path d="M 40.578125 39.3125 
Q 47.65625 37.796875 51.625 33 
Q 55.609375 28.21875 55.609375 21.1875 
Q 55.609375 10.40625 48.1875 4.484375 
Q 40.765625 -1.421875 27.09375 -1.421875 
Q 22.515625 -1.421875 17.65625 -0.515625 
Q 12.796875 0.390625 7.625 2.203125 
L 7.625 11.71875 
Q 11.71875 9.328125 16.59375 8.109375 
Q 21.484375 6.890625 26.8125 6.890625 
Q 36.078125 6.890625 40.9375 10.546875 
Q 45.796875 14.203125 45.796875 21.1875 
Q 45.796875 27.640625 41.28125 31.265625 
Q 36.765625 34.90625 28.71875 34.90625 
L 20.21875 34.90625 
L 20.21875 43.015625 
L 29.109375 43.015625 
Q 36.375 43.015625 40.234375 45.921875 
Q 44.09375 48.828125 44.09375 54.296875 
Q 44.09375 59.90625 40.109375 62.90625 
Q 36.140625 65.921875 28.71875 65.921875 
Q 24.65625 65.921875 20.015625 65.03125 
Q 15.375 64.15625 9.8125 62.3125 
L 9.8125 71.09375 
Q 15.4375 72.65625 20.34375 73.4375 
Q 25.25 74.21875 29.59375 74.21875 
Q 40.828125 74.21875 47.359375 69.109375 
Q 53.90625 64.015625 53.90625 55.328125 
Q 53.90625 49.265625 50.4375 45.09375 
Q 46.96875 40.921875 40.578125 39.3125 
z
" id="DejaVuSans-33"/>
      </defs>
      <g transform="translate(34.696875 60.947654)scale(0.1 -0.1)">
       <use xlink:href="#DejaVuSans-32"/>
       <use x="63.623047" xlink:href="#DejaVuSans-2e"/>
       <use x="95.410156" xlink:href="#DejaVuSans-33"/>
      </g>
     </g>
    </g>
   </g>
   <g id="line2d_27">
    <path clip-path="url(#p6188b9b667)" d="M 75.480856 67.255826 
L 77.845563 70.026261 
L 79.746052 92.506696 
L 82.662213 86.335826 
L 84.805715 113.171478 
L 87.513133 121.486696 
L 90.846778 124.726696 
L 93.523041 128.76887 
L 96.26473 131.785826 
L 99.729228 129.754957 
L 104.48824 119.827565 
L 106.720536 118.696696 
L 109.013897 113.249739 
L 111.400101 115.022348 
L 114.050504 122.194957 
L 116.45104 122.856261 
L 120.714056 113.72713 
L 123.308067 116.313652 
L 127.182573 111.598435 
L 129.250367 122.081478 
L 131.515688 135.119739 
L 135.187682 137.354087 
L 137.417174 150.568435 
L 140.82715 157.913217 
L 143.92152 157.20887 
L 147.496932 156.684522 
L 150.463565 151.785391 
L 154.091941 151.840174 
L 157.416862 153.268435 
L 160.396269 159.247565 
L 163.533945 152.96713 
L 166.699038 151.261043 
L 169.67346 148.001478 
L 172.378074 156.543652 
L 175.57588 165.031043 
L 178.783034 170.352783 
L 182.609559 164.854957 
L 186.37502 163.829739 
L 189.222015 162.96887 
L 193.359162 160.875391 
L 196.578466 161.008435 
L 200.543011 157.064087 
L 203.540487 162.882783 
L 206.718978 161.69713 
L 210.300621 160.131913 
L 213.994112 159.361043 
L 216.575662 165.500609 
L 218.273328 182.651478 
L 222.858492 181.516696 
L 226.036359 183.348 
L 229.144126 186.318 
L 233.276288 187.761913 
L 236.051625 196.221913 
L 239.404898 205.26887 
L 243.206811 207.503217 
L 246.007073 203.144087 
L 249.144438 207.139304 
L 253.129857 215.552348 
L 255.622613 212.981478 
L 259.210487 221.54713 
L 262.089884 219.379304 
L 265.157149 220.92887 
L 268.628813 219.715826 
L 272.491479 224.188435 
L 276.104901 222.494087 
L 278.042777 229.009304 
L 281.197901 230.01887 
L 284.737172 229.130609 
L 288.573045 225.049304 
L 290.712497 231.709304 
L 293.85952 241.824522 
L 296.778796 237.602348 
L 299.550394 239.37887 
L 302.845406 239.977565 
L 306.266598 240.89713 
L 309.339471 240.431478 
L 312.203602 239.218435 
L 316.027012 238.439739 
L 319.96819 233.552348 
L 321.507275 235.794522 
L 324.970527 235.998 
L 328.762782 231.525391 
L 331.44621 234.569739 
L 332.483067 237.066261 
L 335.581176 239.734957 
L 338.969655 237.418435 
L 342.594604 234.761478 
L 346.195563 234.820174 
L 349.724865 235.391478 
L 352.138175 234.464087 
L 354.472661 235.336696 
L 358.126273 236.350174 
L 361.497617 237.985826 
L 363.869801 238.271478 
L 366.870081 237.097565 
L 369.844503 238.956261 
L 373.351061 236.264087 
L 375.960962 234.828 
L 377.652086 236.494957 
L 380.886531 238.901478 
L 382.399663 243.021913 
L 386.498053 243.111913 
L 388.945633 246.304957 
L 390.838053 244.23887 
L 394.376733 241.930174 
" style="fill:none;stroke:#1f77b4;stroke-linecap:square;stroke-width:1.5;"/>
   </g>
   <g id="line2d_28">
    <path clip-path="url(#p6188b9b667)" d="M 75.480856 67.255826 
L 77.627474 71.243217 
L 78.41571 132.263217 
L 84.008133 66.453652 
L 82.360004 196.691478 
L 88.117551 149.398435 
L 90.697232 131.363217 
L 93.174099 140.879739 
L 96.102721 139.991478 
L 101.102565 112.878 
L 106.97975 59.508 
L 105.67994 104.719304 
L 106.750134 72.87887 
L 111.997353 118.681043 
L 112.345049 150.850174 
L 116.659471 119.804087 
L 122.351592 53.568 
L 122.912703 121.893652 
L 128.294203 75.531913 
L 127.54055 171.260609 
L 131.018134 200.49887 
L 135.48958 139.885826 
L 136.451663 216.749739 
L 140.306852 189.295826 
L 144.718791 146.451913 
L 147.234602 144.182348 
L 151.473628 118.411043 
L 154.817554 143.701043 
L 157.669534 152.912348 
L 159.695268 183.778435 
L 163.494377 109.278 
L 166.208961 132.235826 
L 169.871609 121.784087 
L 171.16768 195.051913 
L 175.216657 203.903217 
L 178.851264 192.469304 
L 183.151666 125.164957 
L 185.997103 147.766696 
L 189.632957 151.374522 
L 194.386049 139.940609 
L 196.747641 153.42887 
L 201.301026 125.231478 
L 202.787769 185.926696 
L 206.823037 146.792348 
L 210.049507 141.486261 
L 214.328411 145.759304 
L 215.66592 191.534087 
L 215.571518 270.014087 
L 224.172945 165.786261 
L 226.057545 186.501913 
L 229.056579 196.159304 
L 234.294452 188.407565 
L 235.442846 237.371478 
L 238.8765 249.149739 
L 243.708104 213.580174 
L 245.9323 173.401043 
L 248.607939 223.171043 
L 253.093405 256.365391 
L 255.891486 194.836696 
L 258.552482 263.901913 
L 262.96224 203.312348 
L 264.510671 224.982783 
L 269.601801 209.095826 
L 271.767424 242.740174 
L 276.806524 207.937565 
L 276.620214 262.602783 
L 281.10163 232.041913 
L 285.814843 220.37713 
L 288.712621 197.388 
L 290.018351 265.772348 
L 292.922984 295.488 
L 297.302209 211.232348 
L 299.429199 247.361478 
L 302.964732 240.509739 
L 307.159828 243.51887 
L 308.701405 235.583217 
L 312.226968 230.598 
L 317.056392 231.169304 
L 321.177649 202.764522 
L 319.874724 246.993652 
L 324.942175 235.023652 
L 330.235505 203.371043 
L 330.199676 249.63887 
L 330.062903 250.221913 
L 335.969686 254.162348 
L 339.733277 222.709304 
L 343.310559 218.275826 
L 347.369505 232.754087 
L 350.705331 236.017565 
L 350.961429 228.02713 
L 354.082593 238.944522 
L 358.891142 239.938435 
L 361.816961 244.978435 
L 363.535502 238.134522 
L 367.028663 229.318435 
L 370.040159 247.666696 
L 373.88164 219.02713 
L 375.920148 225.468 
L 375.843506 245.76887 
L 380.991619 251.309739 
L 381.137988 266.230174 
L 387.957067 241.816696 
L 388.318192 264.11713 
L 390.168271 232.863652 
L 393.641368 228.664957 
" style="fill:none;stroke:#ff7f0e;stroke-linecap:square;stroke-width:1.5;"/>
   </g>
   <g id="line2d_29">
    <path clip-path="url(#p6188b9b667)" d="M 75.480856 67.255826 
L 78.063652 68.805391 
L 80.964235 70.53887 
L 82.967537 71.732348 
L 86.706204 73.94713 
L 89.027294 75.316696 
L 92.454405 77.328 
L 95.351872 79.018435 
L 98.196375 80.673652 
L 100.780729 82.172348 
L 103.943329 83.995826 
L 106.841731 85.662783 
L 110.584448 87.811043 
L 112.587751 88.953652 
L 116.329534 91.086261 
L 118.596101 92.369739 
L 121.81042 94.193217 
L 124.657415 95.797565 
L 127.820327 97.578 
L 130.982616 99.350609 
L 133.565724 100.790609 
L 137.044242 102.727565 
L 139.890926 104.308435 
L 143.63302 106.374522 
L 146.216127 107.79887 
L 149.958533 109.849304 
L 152.277441 111.11713 
L 155.440665 112.83887 
L 158.602955 114.552783 
L 162.030378 116.403652 
L 165.192979 118.101913 
L 168.671497 119.964522 
L 171.518492 121.47887 
L 174.997322 123.325826 
L 178.424122 125.133652 
L 181.586722 126.792783 
L 185.065552 128.612348 
L 189.072469 130.698 
L 191.655888 132.036261 
L 195.135341 133.832348 
L 198.245912 135.42887 
L 201.724741 137.209304 
L 205.203883 138.978 
L 208.315388 140.551043 
L 212.057794 142.433217 
L 215.537247 144.166696 
L 218.700783 145.735826 
L 222.128206 147.422348 
L 225.870923 149.253652 
L 229.03477 150.787565 
L 232.197683 152.305826 
L 235.677136 153.96887 
L 238.841294 155.467565 
L 242.53167 157.201043 
L 246.011435 158.821043 
L 248.859053 160.131913 
L 252.338506 161.724522 
L 256.346045 163.536261 
L 258.665888 164.573217 
L 262.673428 166.349739 
L 264.993582 167.363217 
L 268.473347 168.865826 
L 271.321277 170.07887 
L 275.64598 171.902348 
L 278.808892 173.213217 
L 281.656822 174.375391 
L 284.872387 175.674522 
L 287.720628 176.805391 
L 291.465838 178.26887 
L 294.048946 179.25887 
L 297.794156 180.671478 
L 300.377263 181.630174 
L 303.225504 182.66713 
L 306.442939 183.817565 
L 309.29118 184.819304 
L 312.771568 186.024522 
L 315.62012 186.98713 
L 318.783656 188.039739 
L 321.949372 189.072783 
L 324.532791 189.898435 
L 328.01349 190.990174 
L 330.862043 191.862783 
L 334.343054 192.911478 
L 336.928965 193.674522 
L 339.777518 194.496261 
L 342.676231 195.314087 
L 345.842259 196.190609 
L 348.691124 196.953652 
L 351.591706 197.716696 
L 354.758046 198.522783 
L 357.341465 199.156696 
L 360.505 199.911913 
L 363.67134 200.635826 
L 366.257563 201.203217 
L 369.155965 201.821478 
L 372.004517 202.400609 
L 375.17148 203.022783 
L 377.806929 203.515826 
L 380.65598 204.028435 
L 383.822818 204.572348 
L 386.143689 204.948 
L 389.307536 205.441043 
L 392.156712 205.859739 
L 394.477895 206.180609 
L 398.487273 206.712783 
" style="fill:none;stroke:#2ca02c;stroke-linecap:square;stroke-width:1.5;"/>
   </g>
   <g id="line2d_30">
    <path clip-path="url(#p6188b9b667)" d="M 74.527496 127.324957 
L 77.303457 128.338435 
L 80.079417 129.301043 
L 82.874071 130.083652 
L 85.690533 131.167565 
L 88.525689 132.314087 
L 91.379538 133.327565 
L 94.211579 134.298 
L 97.115277 135.929739 
L 100.023337 137.424522 
L 102.942613 138.844957 
L 105.871235 140.324087 
L 108.845345 141.795391 
L 111.788611 143.415391 
L 114.734681 144.961043 
L 117.699755 146.557565 
L 120.69287 147.844957 
L 123.652648 149.01887 
L 126.690626 150.318 
L 129.73359 151.444957 
L 132.792131 152.325391 
L 135.867808 153.358435 
L 138.998319 154.109739 
L 142.109824 154.939304 
L 145.230988 155.48713 
L 148.36773 156.183652 
L 151.516623 156.884087 
L 154.643706 157.525826 
L 157.814096 157.975826 
L 161.01533 158.551043 
L 164.231206 158.985391 
L 167.447083 159.419739 
L 170.684146 159.885391 
L 173.99162 161.031913 
L 177.268873 162.186261 
L 180.58476 163.696696 
L 184.017791 165.222783 
L 187.258592 166.459304 
L 190.591302 167.613652 
L 193.896284 168.752348 
L 197.264512 169.883217 
L 200.683523 171.002348 
L 204.063278 172.180174 
L 207.447395 172.95887 
L 210.900054 173.761043 
L 214.277005 174.731478 
L 217.70879 175.537565 
L 221.124685 176.433652 
L 224.522511 177.623217 
L 227.840578 178.773652 
L 231.190423 179.861478 
L 234.574852 181.090174 
L 237.904447 182.12713 
L 241.238403 183.285391 
L 244.604761 184.494522 
L 247.879834 185.484522 
L 251.177338 186.525391 
L 254.467054 187.562348 
L 257.758327 188.654087 
L 260.998817 189.902348 
L 264.259869 191.514522 
L 267.554881 192.83713 
L 270.791944 194.511913 
L 274.015609 196.034087 
L 277.269496 197.341043 
L 280.479765 198.843652 
L 283.627411 200.123217 
L 286.791258 201.164087 
L 289.951367 202.021043 
L 293.066611 203.104957 
L 296.209895 204.040174 
L 299.37935 205.002783 
L 302.487741 206.110174 
L 305.575257 207.370174 
L 308.694551 208.575391 
L 311.764932 209.718 
L 314.815995 210.762783 
L 317.818145 211.756696 
L 320.853943 212.691913 
L 323.839269 213.509739 
L 326.891267 214.198435 
L 329.900583 215.204087 
L 332.905848 215.982783 
L 335.935726 216.753652 
L 338.923233 217.473652 
L 341.907624 218.107565 
L 344.871764 218.66713 
L 347.797894 219.20713 
L 350.774185 219.856696 
L 353.737701 220.447565 
L 356.689379 220.764522 
L 359.635449 221.069739 
L 362.564383 221.296696 
L 365.500171 221.54713 
L 368.372402 221.81713 
L 371.251799 222.149739 
L 374.119045 222.501913 
L 376.945166 222.658435 
L 379.814469 222.53713 
L 382.671745 222.380609 
L 385.516279 222.282783 
L 388.35159 222.192783 
L 391.171355 222.00887 
L 394.038944 221.969739 
L 396.869146 221.942348 
" style="fill:none;stroke:#d62728;stroke-linecap:square;stroke-width:1.5;"/>
   </g>
   <g id="line2d_31">
    <path clip-path="url(#p6188b9b667)" d="M 73.832727 130.056261 
L 76.484065 131.101043 
L 79.322337 132.212348 
L 81.961213 133.237565 
L 84.631244 134.266696 
L 87.703182 135.444522 
L 90.550801 136.524522 
L 93.407765 137.604522 
L 96.009255 138.57887 
L 99.148489 139.74887 
L 102.037544 140.821043 
L 105.17117 141.971478 
L 108.101662 143.043652 
L 111.071721 144.127565 
L 113.819019 145.121478 
L 116.974765 146.260174 
L 119.965387 147.332348 
L 122.818614 148.353652 
L 125.837276 149.425826 
L 129.001746 150.544957 
L 131.845002 151.542783 
L 134.920368 152.61887 
L 138.113812 153.726261 
L 141.113158 154.763217 
L 144.276382 155.851043 
L 147.433375 156.931043 
L 150.593172 158.003217 
L 153.601864 159.016696 
L 156.762596 160.07713 
L 159.927066 161.129739 
L 163.190299 162.209739 
L 166.3529 163.246696 
L 169.626415 164.311043 
L 172.884975 165.367565 
L 176.001465 166.365391 
L 179.447582 167.464957 
L 182.746955 168.505826 
L 186.059726 169.546696 
L 189.275291 170.548435 
L 192.782784 171.632348 
L 196.036671 172.634087 
L 199.442597 173.671043 
L 202.71175 174.65713 
L 206.152881 175.690174 
L 209.689972 176.73887 
L 213.021124 177.713217 
L 216.664767 178.769739 
L 219.828302 179.673652 
L 223.477553 180.706696 
L 226.47721 181.544087 
L 229.887809 182.48713 
L 233.334861 183.422348 
L 236.730505 184.334087 
L 240.137989 185.234087 
L 243.703119 186.161478 
L 246.646073 186.912783 
L 249.980965 187.754087 
L 253.218962 188.556261 
L 256.895318 189.452348 
L 260.28847 190.258435 
L 263.139204 190.919739 
L 266.647008 191.718 
L 269.497119 192.351913 
L 272.967536 193.103217 
L 276.163474 193.780174 
L 279.450385 194.453217 
L 282.760975 195.114522 
L 285.905817 195.721043 
L 289.122006 196.323652 
L 292.339129 196.906696 
L 295.483348 197.450609 
L 298.520392 197.959304 
L 301.668972 198.464087 
L 304.65866 198.925826 
L 307.735583 199.379739 
L 310.736175 199.806261 
L 313.93367 200.236696 
L 317.042995 200.635826 
L 320.037356 201.003652 
L 323.0043 201.348 
L 325.955043 201.66887 
L 329.098639 201.993652 
L 332.28741 202.306696 
L 335.059632 202.55713 
L 338.220675 202.82713 
L 341.216282 203.061913 
L 343.966383 203.257565 
L 347.09222 203.464957 
L 349.968502 203.633217 
L 352.832009 203.781913 
L 355.996479 203.91887 
L 358.755927 204.016696 
L 361.736268 204.09887 
L 364.79699 204.153652 
L 367.511263 204.184957 
L 370.411845 204.18887 
L 373.337975 204.169304 
L 376.213945 204.126261 
L 379.172695 204.059739 
L 381.846901 203.977565 
L 384.839736 203.860174 
L 387.498333 203.734957 
L 390.661806 203.55887 
L 393.20572 203.394522 
L 396.205346 203.179304 
" style="fill:none;stroke:#9467bd;stroke-linecap:square;stroke-width:1.5;"/>
   </g>
   <g id="patch_3">
    <path d="M 57.6 307.584 
L 57.6 41.472 
" style="fill:none;stroke:#000000;stroke-linecap:square;stroke-linejoin:miter;stroke-width:0.8;"/>
   </g>
   <g id="patch_4">
    <path d="M 414.72 307.584 
L 414.72 41.472 
" style="fill:none;stroke:#000000;stroke-linecap:square;stroke-linejoin:miter;stroke-width:0.8;"/>
   </g>
   <g id="patch_5">
    <path d="M 57.6 307.584 
L 414.72 307.584 
" style="fill:none;stroke:#000000;stroke-linecap:square;stroke-linejoin:miter;stroke-width:0.8;"/>
   </g>
   <g id="patch_6">
    <path d="M 57.6 41.472 
L 414.72 41.472 
" style="fill:none;stroke:#000000;stroke-linecap:square;stroke-linejoin:miter;stroke-width:0.8;"/>
   </g>
   <g id="legend_1">
    <g id="patch_7">
     <path d="M 350.209063 123.14075 
L 407.72 123.14075 
Q 409.72 123.14075 409.72 121.14075 
L 409.72 48.472 
Q 409.72 46.472 407.72 46.472 
L 350.209063 46.472 
Q 348.209063 46.472 348.209063 48.472 
L 348.209063 121.14075 
Q 348.209063 123.14075 350.209063 123.14075 
z
" style="fill:#ffffff;opacity:0.8;stroke:#cccccc;stroke-linejoin:miter;"/>
    </g>
    <g id="line2d_32">
     <path d="M 352.209063 54.570437 
L 372.209063 54.570437 
" style="fill:none;stroke:#1f77b4;stroke-linecap:square;stroke-width:1.5;"/>
    </g>
    <g id="line2d_33"/>
    <g id="text_14">
     <!-- y -->
     <defs>
      <path d="M 32.171875 -5.078125 
Q 28.375 -14.84375 24.75 -17.8125 
Q 21.140625 -20.796875 15.09375 -20.796875 
L 7.90625 -20.796875 
L 7.90625 -13.28125 
L 13.1875 -13.28125 
Q 16.890625 -13.28125 18.9375 -11.515625 
Q 21 -9.765625 23.484375 -3.21875 
L 25.09375 0.875 
L 2.984375 54.6875 
L 12.5 54.6875 
L 29.59375 11.921875 
L 46.6875 54.6875 
L 56.203125 54.6875 
z
" id="DejaVuSans-79"/>
     </defs>
     <g transform="translate(380.209063 58.070437)scale(0.1 -0.1)">
      <use xlink:href="#DejaVuSans-79"/>
     </g>
    </g>
    <g id="line2d_34">
     <path d="M 352.209063 69.248562 
L 372.209063 69.248562 
" style="fill:none;stroke:#ff7f0e;stroke-linecap:square;stroke-width:1.5;"/>
    </g>
    <g id="line2d_35"/>
    <g id="text_15">
     <!-- zy -->
     <defs>
      <path d="M 5.515625 54.6875 
L 48.1875 54.6875 
L 48.1875 46.484375 
L 14.40625 7.171875 
L 48.1875 7.171875 
L 48.1875 0 
L 4.296875 0 
L 4.296875 8.203125 
L 38.09375 47.515625 
L 5.515625 47.515625 
z
" id="DejaVuSans-7a"/>
     </defs>
     <g transform="translate(380.209063 72.748562)scale(0.1 -0.1)">
      <use xlink:href="#DejaVuSans-7a"/>
      <use x="52.490234" xlink:href="#DejaVuSans-79"/>
     </g>
    </g>
    <g id="line2d_36">
     <path d="M 352.209063 83.926687 
L 372.209063 83.926687 
" style="fill:none;stroke:#2ca02c;stroke-linecap:square;stroke-width:1.5;"/>
    </g>
    <g id="line2d_37"/>
    <g id="text_16">
     <!-- dr_y -->
     <defs>
      <path d="M 45.40625 46.390625 
L 45.40625 75.984375 
L 54.390625 75.984375 
L 54.390625 0 
L 45.40625 0 
L 45.40625 8.203125 
Q 42.578125 3.328125 38.25 0.953125 
Q 33.9375 -1.421875 27.875 -1.421875 
Q 17.96875 -1.421875 11.734375 6.484375 
Q 5.515625 14.40625 5.515625 27.296875 
Q 5.515625 40.1875 11.734375 48.09375 
Q 17.96875 56 27.875 56 
Q 33.9375 56 38.25 53.625 
Q 42.578125 51.265625 45.40625 46.390625 
z
M 14.796875 27.296875 
Q 14.796875 17.390625 18.875 11.75 
Q 22.953125 6.109375 30.078125 6.109375 
Q 37.203125 6.109375 41.296875 11.75 
Q 45.40625 17.390625 45.40625 27.296875 
Q 45.40625 37.203125 41.296875 42.84375 
Q 37.203125 48.484375 30.078125 48.484375 
Q 22.953125 48.484375 18.875 42.84375 
Q 14.796875 37.203125 14.796875 27.296875 
z
" id="DejaVuSans-64"/>
      <path d="M 41.109375 46.296875 
Q 39.59375 47.171875 37.8125 47.578125 
Q 36.03125 48 33.890625 48 
Q 26.265625 48 22.1875 43.046875 
Q 18.109375 38.09375 18.109375 28.8125 
L 18.109375 0 
L 9.078125 0 
L 9.078125 54.6875 
L 18.109375 54.6875 
L 18.109375 46.1875 
Q 20.953125 51.171875 25.484375 53.578125 
Q 30.03125 56 36.53125 56 
Q 37.453125 56 38.578125 55.875 
Q 39.703125 55.765625 41.0625 55.515625 
z
" id="DejaVuSans-72"/>
      <path d="M 50.984375 -16.609375 
L 50.984375 -23.578125 
L -0.984375 -23.578125 
L -0.984375 -16.609375 
z
" id="DejaVuSans-5f"/>
     </defs>
     <g transform="translate(380.209063 87.426687)scale(0.1 -0.1)">
      <use xlink:href="#DejaVuSans-64"/>
      <use x="63.476562" xlink:href="#DejaVuSans-72"/>
      <use x="104.589844" xlink:href="#DejaVuSans-5f"/>
      <use x="154.589844" xlink:href="#DejaVuSans-79"/>
     </g>
    </g>
    <g id="line2d_38">
     <path d="M 352.209063 98.882937 
L 372.209063 98.882937 
" style="fill:none;stroke:#d62728;stroke-linecap:square;stroke-width:1.5;"/>
    </g>
    <g id="line2d_39"/>
    <g id="text_17">
     <!-- RTKy -->
     <defs>
      <path d="M 44.390625 34.1875 
Q 47.5625 33.109375 50.5625 29.59375 
Q 53.5625 26.078125 56.59375 19.921875 
L 66.609375 0 
L 56 0 
L 46.6875 18.703125 
Q 43.0625 26.03125 39.671875 28.421875 
Q 36.28125 30.8125 30.421875 30.8125 
L 19.671875 30.8125 
L 19.671875 0 
L 9.8125 0 
L 9.8125 72.90625 
L 32.078125 72.90625 
Q 44.578125 72.90625 50.734375 67.671875 
Q 56.890625 62.453125 56.890625 51.90625 
Q 56.890625 45.015625 53.6875 40.46875 
Q 50.484375 35.9375 44.390625 34.1875 
z
M 19.671875 64.796875 
L 19.671875 38.921875 
L 32.078125 38.921875 
Q 39.203125 38.921875 42.84375 42.21875 
Q 46.484375 45.515625 46.484375 51.90625 
Q 46.484375 58.296875 42.84375 61.546875 
Q 39.203125 64.796875 32.078125 64.796875 
z
" id="DejaVuSans-52"/>
      <path d="M -0.296875 72.90625 
L 61.375 72.90625 
L 61.375 64.59375 
L 35.5 64.59375 
L 35.5 0 
L 25.59375 0 
L 25.59375 64.59375 
L -0.296875 64.59375 
z
" id="DejaVuSans-54"/>
      <path d="M 9.8125 72.90625 
L 19.671875 72.90625 
L 19.671875 42.09375 
L 52.390625 72.90625 
L 65.09375 72.90625 
L 28.90625 38.921875 
L 67.671875 0 
L 54.6875 0 
L 19.671875 35.109375 
L 19.671875 0 
L 9.8125 0 
z
" id="DejaVuSans-4b"/>
     </defs>
     <g transform="translate(380.209063 102.382937)scale(0.1 -0.1)">
      <use xlink:href="#DejaVuSans-52"/>
      <use x="69.373047" xlink:href="#DejaVuSans-54"/>
      <use x="130.457031" xlink:href="#DejaVuSans-4b"/>
      <use x="195.923828" xlink:href="#DejaVuSans-79"/>
     </g>
    </g>
    <g id="line2d_40">
     <path d="M 352.209063 113.561062 
L 372.209063 113.561062 
" style="fill:none;stroke:#9467bd;stroke-linecap:square;stroke-width:1.5;"/>
    </g>
    <g id="line2d_41"/>
    <g id="text_18">
     <!-- DRy -->
     <defs>
      <path d="M 19.671875 64.796875 
L 19.671875 8.109375 
L 31.59375 8.109375 
Q 46.6875 8.109375 53.6875 14.9375 
Q 60.6875 21.78125 60.6875 36.53125 
Q 60.6875 51.171875 53.6875 57.984375 
Q 46.6875 64.796875 31.59375 64.796875 
z
M 9.8125 72.90625 
L 30.078125 72.90625 
Q 51.265625 72.90625 61.171875 64.09375 
Q 71.09375 55.28125 71.09375 36.53125 
Q 71.09375 17.671875 61.125 8.828125 
Q 51.171875 0 30.078125 0 
L 9.8125 0 
z
" id="DejaVuSans-44"/>
     </defs>
     <g transform="translate(380.209063 117.061062)scale(0.1 -0.1)">
      <use xlink:href="#DejaVuSans-44"/>
      <use x="77.001953" xlink:href="#DejaVuSans-52"/>
      <use x="146.40625" xlink:href="#DejaVuSans-79"/>
     </g>
    </g>
   </g>
  </g>
 </g>
 <defs>
  <clipPath id="p6188b9b667">
   <rect height="266.112" width="357.12" x="57.6" y="41.472"/>
  </clipPath>
 </defs>
</svg>
