<?xml version="1.0" encoding="utf-8" standalone="no"?>
<!DOCTYPE svg PUBLIC "-//W3C//DTD SVG 1.1//EN"
  "http://www.w3.org/Graphics/SVG/1.1/DTD/svg11.dtd">
<!-- Created with matplotlib (http://matplotlib.org/) -->
<svg height="345pt" version="1.1" viewBox="0 0 460 345" width="460pt" xmlns="http://www.w3.org/2000/svg" xmlns:xlink="http://www.w3.org/1999/xlink">
 <defs>
  <style type="text/css">
*{stroke-linecap:butt;stroke-linejoin:round;}
  </style>
 </defs>
 <g id="figure_1">
  <g id="patch_1">
   <path d="M 0 345.6 
L 460.8 345.6 
L 460.8 0 
L 0 0 
z
" style="fill:#ffffff;"/>
  </g>
  <g id="axes_1">
   <g id="patch_2">
    <path d="M 57.6 307.584 
L 414.72 307.584 
L 414.72 41.472 
L 57.6 41.472 
z
" style="fill:#ffffff;"/>
   </g>
   <g id="matplotlib.axis_1">
    <g id="xtick_1">
     <g id="line2d_1">
      <path clip-path="url(#pcc6af4970f)" d="M 81.916938 307.584 
L 81.916938 41.472 
" style="fill:none;stroke:#b0b0b0;stroke-linecap:square;stroke-width:0.8;"/>
     </g>
     <g id="line2d_2">
      <defs>
       <path d="M 0 0 
L 0 3.5 
" id="m114a4ef7d6" style="stroke:#000000;stroke-width:0.8;"/>
      </defs>
      <g>
       <use style="stroke:#000000;stroke-width:0.8;" x="81.916938" xlink:href="#m114a4ef7d6" y="307.584"/>
      </g>
     </g>
     <g id="text_1">
      <!-- −2 -->
      <defs>
       <path d="M 10.59375 35.5 
L 73.1875 35.5 
L 73.1875 27.203125 
L 10.59375 27.203125 
z
" id="DejaVuSans-2212"/>
       <path d="M 19.1875 8.296875 
L 53.609375 8.296875 
L 53.609375 0 
L 7.328125 0 
L 7.328125 8.296875 
Q 12.9375 14.109375 22.625 23.890625 
Q 32.328125 33.6875 34.8125 36.53125 
Q 39.546875 41.84375 41.421875 45.53125 
Q 43.3125 49.21875 43.3125 52.78125 
Q 43.3125 58.59375 39.234375 62.25 
Q 35.15625 65.921875 28.609375 65.921875 
Q 23.96875 65.921875 18.8125 64.3125 
Q 13.671875 62.703125 7.8125 59.421875 
L 7.8125 69.390625 
Q 13.765625 71.78125 18.9375 73 
Q 24.125 74.21875 28.421875 74.21875 
Q 39.75 74.21875 46.484375 68.546875 
Q 53.21875 62.890625 53.21875 53.421875 
Q 53.21875 48.921875 51.53125 44.890625 
Q 49.859375 40.875 45.40625 35.40625 
Q 44.1875 33.984375 37.640625 27.21875 
Q 31.109375 20.453125 19.1875 8.296875 
z
" id="DejaVuSans-32"/>
      </defs>
      <g transform="translate(74.545844 322.182437)scale(0.1 -0.1)">
       <use xlink:href="#DejaVuSans-2212"/>
       <use x="83.789062" xlink:href="#DejaVuSans-32"/>
      </g>
     </g>
    </g>
    <g id="xtick_2">
     <g id="line2d_3">
      <path clip-path="url(#pcc6af4970f)" d="M 146.954834 307.584 
L 146.954834 41.472 
" style="fill:none;stroke:#b0b0b0;stroke-linecap:square;stroke-width:0.8;"/>
     </g>
     <g id="line2d_4">
      <g>
       <use style="stroke:#000000;stroke-width:0.8;" x="146.954834" xlink:href="#m114a4ef7d6" y="307.584"/>
      </g>
     </g>
     <g id="text_2">
      <!-- 0 -->
      <defs>
       <path d="M 31.78125 66.40625 
Q 24.171875 66.40625 20.328125 58.90625 
Q 16.5 51.421875 16.5 36.375 
Q 16.5 21.390625 20.328125 13.890625 
Q 24.171875 6.390625 31.78125 6.390625 
Q 39.453125 6.390625 43.28125 13.890625 
Q 47.125 21.390625 47.125 36.375 
Q 47.125 51.421875 43.28125 58.90625 
Q 39.453125 66.40625 31.78125 66.40625 
z
M 31.78125 74.21875 
Q 44.046875 74.21875 50.515625 64.515625 
Q 56.984375 54.828125 56.984375 36.375 
Q 56.984375 17.96875 50.515625 8.265625 
Q 44.046875 -1.421875 31.78125 -1.421875 
Q 19.53125 -1.421875 13.0625 8.265625 
Q 6.59375 17.96875 6.59375 36.375 
Q 6.59375 54.828125 13.0625 64.515625 
Q 19.53125 74.21875 31.78125 74.21875 
z
" id="DejaVuSans-30"/>
      </defs>
      <g transform="translate(143.773584 322.182437)scale(0.1 -0.1)">
       <use xlink:href="#DejaVuSans-30"/>
      </g>
     </g>
    </g>
    <g id="xtick_3">
     <g id="line2d_5">
      <path clip-path="url(#pcc6af4970f)" d="M 211.992731 307.584 
L 211.992731 41.472 
" style="fill:none;stroke:#b0b0b0;stroke-linecap:square;stroke-width:0.8;"/>
     </g>
     <g id="line2d_6">
      <g>
       <use style="stroke:#000000;stroke-width:0.8;" x="211.992731" xlink:href="#m114a4ef7d6" y="307.584"/>
      </g>
     </g>
     <g id="text_3">
      <!-- 2 -->
      <g transform="translate(208.811481 322.182437)scale(0.1 -0.1)">
       <use xlink:href="#DejaVuSans-32"/>
      </g>
     </g>
    </g>
    <g id="xtick_4">
     <g id="line2d_7">
      <path clip-path="url(#pcc6af4970f)" d="M 277.030627 307.584 
L 277.030627 41.472 
" style="fill:none;stroke:#b0b0b0;stroke-linecap:square;stroke-width:0.8;"/>
     </g>
     <g id="line2d_8">
      <g>
       <use style="stroke:#000000;stroke-width:0.8;" x="277.030627" xlink:href="#m114a4ef7d6" y="307.584"/>
      </g>
     </g>
     <g id="text_4">
      <!-- 4 -->
      <defs>
       <path d="M 37.796875 64.3125 
L 12.890625 25.390625 
L 37.796875 25.390625 
z
M 35.203125 72.90625 
L 47.609375 72.90625 
L 47.609375 25.390625 
L 58.015625 25.390625 
L 58.015625 17.1875 
L 47.609375 17.1875 
L 47.609375 0 
L 37.796875 0 
L 37.796875 17.1875 
L 4.890625 17.1875 
L 4.890625 26.703125 
z
" id="DejaVuSans-34"/>
      </defs>
      <g transform="translate(273.849377 322.182437)scale(0.1 -0.1)">
       <use xlink:href="#DejaVuSans-34"/>
      </g>
     </g>
    </g>
    <g id="xtick_5">
     <g id="line2d_9">
      <path clip-path="url(#pcc6af4970f)" d="M 342.068524 307.584 
L 342.068524 41.472 
" style="fill:none;stroke:#b0b0b0;stroke-linecap:square;stroke-width:0.8;"/>
     </g>
     <g id="line2d_10">
      <g>
       <use style="stroke:#000000;stroke-width:0.8;" x="342.068524" xlink:href="#m114a4ef7d6" y="307.584"/>
      </g>
     </g>
     <g id="text_5">
      <!-- 6 -->
      <defs>
       <path d="M 33.015625 40.375 
Q 26.375 40.375 22.484375 35.828125 
Q 18.609375 31.296875 18.609375 23.390625 
Q 18.609375 15.53125 22.484375 10.953125 
Q 26.375 6.390625 33.015625 6.390625 
Q 39.65625 6.390625 43.53125 10.953125 
Q 47.40625 15.53125 47.40625 23.390625 
Q 47.40625 31.296875 43.53125 35.828125 
Q 39.65625 40.375 33.015625 40.375 
z
M 52.59375 71.296875 
L 52.59375 62.3125 
Q 48.875 64.0625 45.09375 64.984375 
Q 41.3125 65.921875 37.59375 65.921875 
Q 27.828125 65.921875 22.671875 59.328125 
Q 17.53125 52.734375 16.796875 39.40625 
Q 19.671875 43.65625 24.015625 45.921875 
Q 28.375 48.1875 33.59375 48.1875 
Q 44.578125 48.1875 50.953125 41.515625 
Q 57.328125 34.859375 57.328125 23.390625 
Q 57.328125 12.15625 50.6875 5.359375 
Q 44.046875 -1.421875 33.015625 -1.421875 
Q 20.359375 -1.421875 13.671875 8.265625 
Q 6.984375 17.96875 6.984375 36.375 
Q 6.984375 53.65625 15.1875 63.9375 
Q 23.390625 74.21875 37.203125 74.21875 
Q 40.921875 74.21875 44.703125 73.484375 
Q 48.484375 72.75 52.59375 71.296875 
z
" id="DejaVuSans-36"/>
      </defs>
      <g transform="translate(338.887274 322.182437)scale(0.1 -0.1)">
       <use xlink:href="#DejaVuSans-36"/>
      </g>
     </g>
    </g>
    <g id="xtick_6">
     <g id="line2d_11">
      <path clip-path="url(#pcc6af4970f)" d="M 407.10642 307.584 
L 407.10642 41.472 
" style="fill:none;stroke:#b0b0b0;stroke-linecap:square;stroke-width:0.8;"/>
     </g>
     <g id="line2d_12">
      <g>
       <use style="stroke:#000000;stroke-width:0.8;" x="407.10642" xlink:href="#m114a4ef7d6" y="307.584"/>
      </g>
     </g>
     <g id="text_6">
      <!-- 8 -->
      <defs>
       <path d="M 31.78125 34.625 
Q 24.75 34.625 20.71875 30.859375 
Q 16.703125 27.09375 16.703125 20.515625 
Q 16.703125 13.921875 20.71875 10.15625 
Q 24.75 6.390625 31.78125 6.390625 
Q 38.8125 6.390625 42.859375 10.171875 
Q 46.921875 13.96875 46.921875 20.515625 
Q 46.921875 27.09375 42.890625 30.859375 
Q 38.875 34.625 31.78125 34.625 
z
M 21.921875 38.8125 
Q 15.578125 40.375 12.03125 44.71875 
Q 8.5 49.078125 8.5 55.328125 
Q 8.5 64.0625 14.71875 69.140625 
Q 20.953125 74.21875 31.78125 74.21875 
Q 42.671875 74.21875 48.875 69.140625 
Q 55.078125 64.0625 55.078125 55.328125 
Q 55.078125 49.078125 51.53125 44.71875 
Q 48 40.375 41.703125 38.8125 
Q 48.828125 37.15625 52.796875 32.3125 
Q 56.78125 27.484375 56.78125 20.515625 
Q 56.78125 9.90625 50.3125 4.234375 
Q 43.84375 -1.421875 31.78125 -1.421875 
Q 19.734375 -1.421875 13.25 4.234375 
Q 6.78125 9.90625 6.78125 20.515625 
Q 6.78125 27.484375 10.78125 32.3125 
Q 14.796875 37.15625 21.921875 38.8125 
z
M 18.3125 54.390625 
Q 18.3125 48.734375 21.84375 45.5625 
Q 25.390625 42.390625 31.78125 42.390625 
Q 38.140625 42.390625 41.71875 45.5625 
Q 45.3125 48.734375 45.3125 54.390625 
Q 45.3125 60.0625 41.71875 63.234375 
Q 38.140625 66.40625 31.78125 66.40625 
Q 25.390625 66.40625 21.84375 63.234375 
Q 18.3125 60.0625 18.3125 54.390625 
z
" id="DejaVuSans-38"/>
      </defs>
      <g transform="translate(403.92517 322.182437)scale(0.1 -0.1)">
       <use xlink:href="#DejaVuSans-38"/>
      </g>
     </g>
    </g>
   </g>
   <g id="matplotlib.axis_2">
    <g id="ytick_1">
     <g id="line2d_13">
      <path clip-path="url(#pcc6af4970f)" d="M 57.6 283.568679 
L 414.72 283.568679 
" style="fill:none;stroke:#b0b0b0;stroke-linecap:square;stroke-width:0.8;"/>
     </g>
     <g id="line2d_14">
      <defs>
       <path d="M 0 0 
L -3.5 0 
" id="m2354ceab21" style="stroke:#000000;stroke-width:0.8;"/>
      </defs>
      <g>
       <use style="stroke:#000000;stroke-width:0.8;" x="57.6" xlink:href="#m2354ceab21" y="283.568679"/>
      </g>
     </g>
     <g id="text_7">
      <!-- −4 -->
      <g transform="translate(35.857813 287.367898)scale(0.1 -0.1)">
       <use xlink:href="#DejaVuSans-2212"/>
       <use x="83.789062" xlink:href="#DejaVuSans-34"/>
      </g>
     </g>
    </g>
    <g id="ytick_2">
     <g id="line2d_15">
      <path clip-path="url(#pcc6af4970f)" d="M 57.6 252.159064 
L 414.72 252.159064 
" style="fill:none;stroke:#b0b0b0;stroke-linecap:square;stroke-width:0.8;"/>
     </g>
     <g id="line2d_16">
      <g>
       <use style="stroke:#000000;stroke-width:0.8;" x="57.6" xlink:href="#m2354ceab21" y="252.159064"/>
      </g>
     </g>
     <g id="text_8">
      <!-- −3 -->
      <defs>
       <path d="M 40.578125 39.3125 
Q 47.65625 37.796875 51.625 33 
Q 55.609375 28.21875 55.609375 21.1875 
Q 55.609375 10.40625 48.1875 4.484375 
Q 40.765625 -1.421875 27.09375 -1.421875 
Q 22.515625 -1.421875 17.65625 -0.515625 
Q 12.796875 0.390625 7.625 2.203125 
L 7.625 11.71875 
Q 11.71875 9.328125 16.59375 8.109375 
Q 21.484375 6.890625 26.8125 6.890625 
Q 36.078125 6.890625 40.9375 10.546875 
Q 45.796875 14.203125 45.796875 21.1875 
Q 45.796875 27.640625 41.28125 31.265625 
Q 36.765625 34.90625 28.71875 34.90625 
L 20.21875 34.90625 
L 20.21875 43.015625 
L 29.109375 43.015625 
Q 36.375 43.015625 40.234375 45.921875 
Q 44.09375 48.828125 44.09375 54.296875 
Q 44.09375 59.90625 40.109375 62.90625 
Q 36.140625 65.921875 28.71875 65.921875 
Q 24.65625 65.921875 20.015625 65.03125 
Q 15.375 64.15625 9.8125 62.3125 
L 9.8125 71.09375 
Q 15.4375 72.65625 20.34375 73.4375 
Q 25.25 74.21875 29.59375 74.21875 
Q 40.828125 74.21875 47.359375 69.109375 
Q 53.90625 64.015625 53.90625 55.328125 
Q 53.90625 49.265625 50.4375 45.09375 
Q 46.96875 40.921875 40.578125 39.3125 
z
" id="DejaVuSans-33"/>
      </defs>
      <g transform="translate(35.857813 255.958282)scale(0.1 -0.1)">
       <use xlink:href="#DejaVuSans-2212"/>
       <use x="83.789062" xlink:href="#DejaVuSans-33"/>
      </g>
     </g>
    </g>
    <g id="ytick_3">
     <g id="line2d_17">
      <path clip-path="url(#pcc6af4970f)" d="M 57.6 220.749448 
L 414.72 220.749448 
" style="fill:none;stroke:#b0b0b0;stroke-linecap:square;stroke-width:0.8;"/>
     </g>
     <g id="line2d_18">
      <g>
       <use style="stroke:#000000;stroke-width:0.8;" x="57.6" xlink:href="#m2354ceab21" y="220.749448"/>
      </g>
     </g>
     <g id="text_9">
      <!-- −2 -->
      <g transform="translate(35.857813 224.548667)scale(0.1 -0.1)">
       <use xlink:href="#DejaVuSans-2212"/>
       <use x="83.789062" xlink:href="#DejaVuSans-32"/>
      </g>
     </g>
    </g>
    <g id="ytick_4">
     <g id="line2d_19">
      <path clip-path="url(#pcc6af4970f)" d="M 57.6 189.339832 
L 414.72 189.339832 
" style="fill:none;stroke:#b0b0b0;stroke-linecap:square;stroke-width:0.8;"/>
     </g>
     <g id="line2d_20">
      <g>
       <use style="stroke:#000000;stroke-width:0.8;" x="57.6" xlink:href="#m2354ceab21" y="189.339832"/>
      </g>
     </g>
     <g id="text_10">
      <!-- −1 -->
      <defs>
       <path d="M 12.40625 8.296875 
L 28.515625 8.296875 
L 28.515625 63.921875 
L 10.984375 60.40625 
L 10.984375 69.390625 
L 28.421875 72.90625 
L 38.28125 72.90625 
L 38.28125 8.296875 
L 54.390625 8.296875 
L 54.390625 0 
L 12.40625 0 
z
" id="DejaVuSans-31"/>
      </defs>
      <g transform="translate(35.857813 193.139051)scale(0.1 -0.1)">
       <use xlink:href="#DejaVuSans-2212"/>
       <use x="83.789062" xlink:href="#DejaVuSans-31"/>
      </g>
     </g>
    </g>
    <g id="ytick_5">
     <g id="line2d_21">
      <path clip-path="url(#pcc6af4970f)" d="M 57.6 157.930217 
L 414.72 157.930217 
" style="fill:none;stroke:#b0b0b0;stroke-linecap:square;stroke-width:0.8;"/>
     </g>
     <g id="line2d_22">
      <g>
       <use style="stroke:#000000;stroke-width:0.8;" x="57.6" xlink:href="#m2354ceab21" y="157.930217"/>
      </g>
     </g>
     <g id="text_11">
      <!-- 0 -->
      <g transform="translate(44.2375 161.729436)scale(0.1 -0.1)">
       <use xlink:href="#DejaVuSans-30"/>
      </g>
     </g>
    </g>
    <g id="ytick_6">
     <g id="line2d_23">
      <path clip-path="url(#pcc6af4970f)" d="M 57.6 126.520601 
L 414.72 126.520601 
" style="fill:none;stroke:#b0b0b0;stroke-linecap:square;stroke-width:0.8;"/>
     </g>
     <g id="line2d_24">
      <g>
       <use style="stroke:#000000;stroke-width:0.8;" x="57.6" xlink:href="#m2354ceab21" y="126.520601"/>
      </g>
     </g>
     <g id="text_12">
      <!-- 1 -->
      <g transform="translate(44.2375 130.31982)scale(0.1 -0.1)">
       <use xlink:href="#DejaVuSans-31"/>
      </g>
     </g>
    </g>
    <g id="ytick_7">
     <g id="line2d_25">
      <path clip-path="url(#pcc6af4970f)" d="M 57.6 95.110986 
L 414.72 95.110986 
" style="fill:none;stroke:#b0b0b0;stroke-linecap:square;stroke-width:0.8;"/>
     </g>
     <g id="line2d_26">
      <g>
       <use style="stroke:#000000;stroke-width:0.8;" x="57.6" xlink:href="#m2354ceab21" y="95.110986"/>
      </g>
     </g>
     <g id="text_13">
      <!-- 2 -->
      <g transform="translate(44.2375 98.910204)scale(0.1 -0.1)">
       <use xlink:href="#DejaVuSans-32"/>
      </g>
     </g>
    </g>
    <g id="ytick_8">
     <g id="line2d_27">
      <path clip-path="url(#pcc6af4970f)" d="M 57.6 63.70137 
L 414.72 63.70137 
" style="fill:none;stroke:#b0b0b0;stroke-linecap:square;stroke-width:0.8;"/>
     </g>
     <g id="line2d_28">
      <g>
       <use style="stroke:#000000;stroke-width:0.8;" x="57.6" xlink:href="#m2354ceab21" y="63.70137"/>
      </g>
     </g>
     <g id="text_14">
      <!-- 3 -->
      <g transform="translate(44.2375 67.500589)scale(0.1 -0.1)">
       <use xlink:href="#DejaVuSans-33"/>
      </g>
     </g>
    </g>
   </g>
   <g id="line2d_29">
    <path clip-path="url(#pcc6af4970f)" d="M 394.502401 63.481503 
L 389.666508 64.040908 
L 384.616966 64.343069 
L 379.296541 64.069491 
L 374.178383 64.2435 
L 368.379279 63.682838 
L 358.802774 64.02803 
L 352.902861 63.698229 
L 346.65272 63.155471 
L 340.592488 62.796459 
L 331.257924 63.211694 
L 325.754418 63.156099 
L 320.916248 63.521393 
L 316.471884 64.175655 
L 305.230734 64.247583 
L 300.417279 64.425362 
L 294.776217 64.449547 
L 271.309243 65.436437 
L 262.930086 66.500281 
L 254.391261 66.938759 
L 249.467892 67.350853 
L 240.792487 67.776454 
L 233.782377 68.665974 
L 228.446018 68.794753 
L 225.261112 69.153765 
L 217.013981 70.418631 
L 213.769891 70.747803 
L 209.978832 70.941601 
L 203.867871 71.614709 
L 202.185016 72.04345 
L 194.979142 72.123859 
L 185.302479 72.478473 
L 181.613529 72.661591 
L 178.375878 72.678866 
L 175.834554 72.984482 
L 172.78483 73.021859 
L 158.159043 73.633405 
L 153.704955 73.752133 
L 151.441896 74.005609 
L 144.555772 74.304 
L 140.669344 74.300859 
L 134.080973 74.393517 
L 122.530307 73.426415 
L 121.128253 73.84008 
L 121.486872 73.651308 
L 117.532373 74.380639 
L 116.373267 74.429324 
L 112.891886 75.073536 
L 109.468291 75.744131 
L 106.933765 75.502591 
L 105.430414 75.814488 
L 100.770774 75.660895 
L 100.019261 76.125444 
L 100.305753 76.0799 
L 97.365064 75.798784 
L 87.173626 77.008054 
L 83.2242 77.345079 
L 79.438669 77.5238 
L 75.824188 77.561177 
L 75.916867 77.471346 
L 74.794963 77.458782 
L 74.837238 77.479198 
L 77.263151 76.63742 
L 76.775692 76.681708 
L 76.002391 76.809231 
L 76.047593 76.870166 
L 76.013448 76.898748 
L 77.008528 77.008996 
L 83.163064 76.900005 
L 94.140485 77.423603 
L 98.226166 77.864594 
L 103.181078 78.579477 
L 109.103104 79.724357 
L 113.106511 80.671043 
L 120.511824 82.864063 
L 125.51584 84.629597 
L 130.792949 86.764509 
L 136.335577 89.331616 
L 140.743553 91.637082 
L 145.45389 94.362495 
L 149.545993 96.982685 
L 153.602488 99.825255 
L 157.524078 102.83995 
L 161.663577 106.325789 
L 165.453661 109.829532 
L 168.91901 113.329191 
L 172.007172 116.721744 
L 172.007172 116.721744 
L 174.463978 119.622107 
L 174.463978 119.622107 
L 175.50995 121.031143 
L 178.74435 125.319183 
L 181.630439 129.549776 
L 181.630439 129.549776 
L 184.442027 134.103856 
L 186.962571 138.640787 
L 189.336454 143.425288 
L 191.38027 148.093196 
L 193.133041 152.630472 
L 194.752485 157.463517 
L 196.140719 162.351309 
L 197.350749 167.527331 
L 198.323066 172.820762 
L 199.024499 178.083506 
L 199.438466 182.910504 
L 199.438466 182.910504 
L 199.703495 189.042949 
L 200.067057 204.988731 
L 201.095631 261.019716 
L 201.095631 261.019716 
L 201.496265 286.843446 
L 201.48781 286.259227 
" style="fill:none;stroke:#1f77b4;stroke-linecap:square;stroke-width:1.5;"/>
   </g>
   <g id="line2d_30">
    <path clip-path="url(#pcc6af4970f)" d="M 394.502401 63.481503 
L 389.997226 64.558539 
L 385.219542 64.628896 
L 378.870868 62.647578 
L 374.178383 64.2435 
L 367.396882 60.094918 
L 357.16577 53.568 
L 358.802449 64.02803 
L 351.621615 60.229037 
L 343.780321 57.856355 
L 338.894349 58.416702 
L 337.124668 63.065325 
L 333.053946 62.732384 
L 324.769093 60.790641 
L 322.321067 64.494777 
L 318.879587 67.588624 
L 309.805174 62.282912 
L 304.474668 62.499324 
L 301.184726 63.898623 
L 293.438713 62.507177 
L 290.978654 64.039966 
L 286.808424 64.880173 
L 279.831159 64.055357 
L 276.247571 64.959953 
L 270.89105 65.304203 
L 268.612447 68.234406 
L 265.063004 69.449016 
L 258.074031 66.912689 
L 255.891685 66.847043 
L 249.255218 68.801978 
L 244.475258 67.410218 
L 240.574285 67.996949 
L 238.812083 70.187456 
L 234.436658 71.414001 
L 225.508581 68.11819 
L 226.393096 70.945056 
L 224.217904 72.542549 
L 221.879141 72.416282 
L 218.839595 72.820838 
L 207.897294 71.616279 
L 208.770103 72.937054 
L 205.564385 73.640943 
L 204.762793 75.241577 
L 198.477205 71.371284 
L 193.50766 72.050988 
L 196.929954 76.037811 
L 194.798012 77.123013 
L 183.651817 73.232932 
L 179.793444 73.447146 
L 176.302209 72.171287 
L 176.931549 74.973339 
L 171.188995 72.733833 
L 167.735483 73.812754 
L 164.834467 73.732659 
L 162.900923 73.445575 
L 161.023019 73.846048 
L 157.197067 73.880284 
L 155.571608 73.564618 
L 154.812388 73.613617 
L 150.167186 75.553789 
L 147.364963 74.584802 
L 146.037172 74.852412 
L 145.333222 73.901329 
L 143.185563 73.12928 
L 143.563368 73.112319 
L 138.052414 73.648167 
L 136.400712 74.29175 
L 133.34611 74.091357 
L 122.580712 69.704062 
L 121.688359 70.43622 
L 117.953948 70.157931 
L 125.361765 74.994697 
L 123.921403 74.660499 
L 125.471061 71.201358 
L 118.349411 77.143743 
L 117.695098 76.057599 
L 115.663151 74.472984 
L 114.076226 76.911312 
L 110.764822 77.427372 
L 108.974654 78.147909 
L 103.566428 72.83403 
L 108.347363 76.094662 
L 105.877549 77.057681 
L 93.399704 73.353231 
L 101.183439 79.490042 
L 104.108518 75.247231 
L 93.662782 72.6239 
L 92.787697 77.769737 
L 91.746765 77.628394 
L 93.27418 77.061136 
L 91.515231 77.27692 
L 90.616407 77.009624 
L 88.681855 77.345079 
L 87.785307 77.199024 
L 85.808806 77.555837 
L 83.719788 77.416379 
L 80.550492 77.553325 
L 80.337818 77.392193 
L 80.320257 77.028156 
L 78.04198 77.335656 
L 77.652403 77.26844 
L 75.409246 77.448417 
L 75.51103 77.294509 
L 75.40827 77.259645 
L 75.949711 77.120186 
L 75.371849 77.344137 
L 74.034995 77.744609 
L 74.768948 77.279747 
L 74.887642 77.464436 
L 76.666754 76.917594 
L 74.731551 77.618971 
L 75.294454 77.430199 
L 75.120803 77.51846 
L 75.472658 77.192114 
L 74.828132 77.49082 
L 73.832727 77.775391 
L 74.990727 77.5706 
L 74.762769 77.5238 
L 83.03689 68.949289 
L 77.543464 77.106052 
L 75.537371 77.060194 
L 75.63135 77.05454 
L 75.159826 77.19871 
L 76.526922 76.970676 
L 75.326973 77.336598 
L 75.926622 77.142487 
L 75.931825 77.357643 
L 76.317175 77.089719 
L 76.768213 77.235145 
L 77.205267 77.08061 
L 77.675491 77.10511 
L 80.027262 76.567377 
L 79.185671 77.013708 
L 80.415538 76.831846 
L 79.838977 77.370521 
L 82.189772 76.96942 
L 83.091522 77.182063 
L 89.256139 75.208911 
L 86.097574 77.287285 
L 90.107485 77.144057 
L 94.31251 78.61654 
L 95.852608 77.081866 
L 94.229587 77.855485 
L 99.257992 77.430513 
L 101.186366 77.491448 
L 103.693577 78.113672 
L 106.931488 78.557804 
L 110.286143 77.618343 
L 111.837297 78.900169 
L 116.8112 79.810106 
L 114.435236 81.022831 
L 118.463976 81.437752 
L 118.135567 82.118712 
L 121.116871 83.099949 
L 125.553822 82.856524 
L 125.051469 85.810284 
L 134.083379 83.486915 
L 133.682453 84.297283 
L 137.124096 84.786959 
L 138.364434 86.095484 
L 137.090569 89.099814 
L 140.843873 87.149905 
L 142.688869 87.600947 
L 140.861564 91.417529 
L 127.338592 89.343866 
L 146.26061 90.092671 
L 149.983903 90.927853 
L 150.029712 92.330921 
L 134.339303 92.736733 
L 150.89935 93.732104 
L 154.20295 96.480445 
L 155.63593 96.110126 
L 155.904049 97.062779 
L 164.206169 99.892157 
L 164.911993 100.821568 
L 166.996782 102.300647 
L 170.060718 103.933004 
L 164.677076 100.547362 
L 164.209323 103.016158 
L 164.312863 105.258804 
L 165.521463 106.480638 
L 166.266732 106.555079 
L 170.67796 106.632661 
L 169.953405 104.95099 
L 172.707305 109.103341 
L 173.478654 108.805892 
L 170.126406 110.132634 
L 172.125053 109.876018 
L 172.215195 110.70743 
L 173.226827 110.746064 
L 178.324888 113.752593 
L 178.553106 114.611331 
L 179.224069 114.946472 
L 178.741196 115.107917 
L 179.877343 116.302739 
L 179.58077 115.439289 
L 179.973924 116.192177 
L 181.58914 118.666313 
L 181.05648 117.888611 
L 180.898438 119.00271 
L 181.216473 117.691987 
L 180.235051 117.146087 
L 182.940628 119.799572 
L 179.99246 118.181662 
L 179.549877 117.637962 
L 181.965709 120.279511 
L 174.463978 119.622107 
L 184.046272 123.350115 
L 183.155253 121.710219 
L 184.571778 123.872771 
L 176.490722 122.28847 
L 177.623032 123.783253 
L 186.109274 125.088323 
L 187.21817 127.525301 
L 187.516369 126.540012 
L 188.42007 129.024073 
L 185.792864 125.947376 
L 184.362356 127.232752 
L 182.813804 128.864827 
L 183.732789 130.091592 
L 184.014403 130.703734 
L 184.34382 131.093119 
L 185.746688 131.02807 
L 184.726568 130.966098 
L 186.184067 130.558433 
L 185.706689 131.716694 
L 185.875463 131.762301 
L 185.772052 131.298789 
L 186.221139 134.285718 
L 186.027651 134.328969 
L 186.365198 133.546555 
L 186.755751 135.524356 
L 188.232761 135.36222 
L 193.779518 137.19161 
L 194.044548 137.914471 
L 188.048054 136.975355 
L 194.83736 140.210011 
L 194.888414 138.443252 
L 194.844514 140.289917 
L 195.555053 141.130093 
L 197.139051 144.741476 
L 197.866174 145.976974 
L 195.940402 144.950507 
L 198.711017 147.491577 
L 197.669435 147.171513 
L 196.571595 146.378043 
L 195.260431 149.52246 
L 195.788864 149.421006 
L 196.713703 151.134338 
L 197.622933 149.868468 
L 195.815204 151.873658 
L 200.325582 152.775239 
L 196.799228 154.283027 
L 200.771092 152.581002 
L 201.157092 155.407698 
L 201.464396 156.078947 
L 201.764221 157.776157 
L 202.46663 155.045269 
L 198.808573 158.358085 
L 199.323674 159.818089 
L 202.272492 159.702743 
L 198.542894 161.257343 
L 200.408506 159.717254 
L 198.7689 162.317198 
L 202.814258 162.480873 
L 202.162253 161.644561 
L 202.704018 163.676952 
L 203.122537 164.187232 
L 200.883608 165.735695 
L 199.609515 167.624292 
L 204.017133 167.228154 
L 204.015182 167.99546 
L 202.452972 166.914906 
L 202.230868 167.366796 
L 204.252245 170.643636 
L 203.766087 170.703188 
L 204.418092 170.797668 
L 202.925147 170.141145 
L 204.969288 172.901359 
L 204.550119 172.723203 
L 204.432726 172.940181 
L 204.958557 174.020515 
L 204.283464 174.042973 
L 201.90893 174.501773 
L 205.163752 176.954895 
L 205.5039 177.531702 
L 205.206677 177.922092 
L 205.158874 178.569569 
L 205.018392 178.3813 
L 205.343581 177.703826 
L 202.733936 177.404838 
L 203.603818 178.621866 
L 205.162451 181.039904 
L 202.720928 180.564551 
L 202.425331 178.839252 
L 204.838887 180.828392 
L 205.052212 181.27934 
L 204.691902 180.258496 
L 202.808729 182.23237 
L 202.73296 182.712184 
L 204.926688 181.922106 
L 204.192085 182.234569 
L 204.587191 183.143595 
L 205.209278 183.8075 
L 203.320252 184.740145 
L 203.974208 184.703239 
L 203.945917 185.487946 
L 204.743607 184.410125 
L 204.99888 185.933774 
L 204.908803 185.303854 
L 205.673649 187.934189 
L 204.607352 187.360304 
L 204.426547 186.468679 
L 203.000266 189.842072 
L 203.075059 189.574462 
L 205.127005 190.647415 
L 203.117985 192.078751 
L 203.712756 190.531199 
L 203.257816 193.360263 
L 204.755964 194.207066 
L 203.678286 193.297758 
L 203.333585 197.958945 
L 200.148354 209.03052 
L 204.674992 198.502331 
L 203.173917 201.169008 
L 204.659383 201.724644 
L 203.183673 202.50423 
L 204.130625 204.234586 
L 203.113107 206.192662 
L 203.247085 207.939036 
L 200.458585 225.181659 
L 201.105062 261.734285 
L 205.763076 258.350213 
L 201.095631 261.019716 
L 201.095631 261.019716 
L 202.346635 262.421213 
L 201.095631 261.019716 
L 202.424681 249.405697 
L 203.048719 249.968871 
L 202.984006 251.557883 
L 207.099279 269.564388 
L 202.025998 274.222748 
L 201.854949 275.237279 
L 202.4146 275.171632 
L 204.51825 257.306785 
L 202.360293 258.178402 
L 202.697515 259.371968 
L 205.492518 276.567162 
L 208.037126 279.647817 
L 201.966163 282.013589 
L 202.47606 263.664092 
L 204.238913 279.416328 
L 204.01063 280.171729 
L 204.906201 282.495727 
L 205.904533 283.192392 
L 204.227206 281.291796 
L 202.420453 268.653195 
L 201.452689 288.345453 
L 203.387892 269.947585 
L 201.460819 284.474532 
L 201.612357 290.06513 
L 202.022421 290.448955 
L 201.577562 291.075577 
L 203.803159 288.794297 
L 202.372975 274.38545 
L 203.171316 291.691206 
L 200.869624 292.532983 
L 204.130299 293.188188 
L 204.510771 294.217481 
L 202.146969 293.446061 
L 201.15449 292.940994 
L 201.409439 294.705272 
L 201.997056 293.501342 
L 204.026889 292.729922 
L 202.099491 274.964957 
L 202.513132 275.72507 
L 201.956733 294.81552 
L 201.761619 294.682972 
L 203.633735 293.882026 
L 202.372 276.076229 
L 201.963237 275.382077 
L 204.287366 295.082502 
L 201.283591 294.551051 
L 201.851371 292.967692 
L 199.702519 295.488 
L 201.735279 294.949325 
L 204.349152 291.433647 
L 203.522195 291.767217 
L 204.402808 291.817786 
L 201.606504 294.877397 
L 201.344401 294.374529 
L 203.088392 293.408998 
L 202.217535 276.238303 
L 205.034651 292.769812 
L 205.034651 292.769812 
" style="fill:none;stroke:#ff7f0e;stroke-linecap:square;stroke-width:1.5;"/>
   </g>
   <g id="line2d_31">
    <path clip-path="url(#pcc6af4970f)" d="M 394.502401 63.481503 
L 258.513037 68.303507 
L 206.899613 70.345446 
L 150.454166 72.811415 
L 94.679975 75.483117 
L 81.151767 76.167847 
L 86.292362 75.966197 
L 91.235893 75.94421 
L 97.059386 76.155597 
L 101.486516 76.49859 
L 105.56927 76.963766 
L 110.519629 77.708174 
L 116.434175 78.888233 
L 122.612613 80.450234 
L 128.063407 82.131276 
L 133.054512 83.930419 
L 138.316078 86.101138 
L 143.840039 88.705309 
L 148.231226 91.0403 
L 152.921769 93.797436 
L 156.994832 96.445266 
L 161.030693 99.315163 
L 164.930398 102.356242 
L 169.044631 105.869721 
L 172.809317 109.398906 
L 176.249269 112.922122 
L 179.312846 116.335091 
L 179.312846 116.335091 
L 182.73023 120.488385 
L 185.670593 124.410817 
L 188.553073 128.644771 
L 191.235561 132.99048 
L 193.722935 137.451556 
L 195.775531 141.529875 
L 197.646346 145.671327 
L 199.539925 150.398317 
L 201.146035 154.986087 
L 202.666296 160.084295 
L 203.711455 164.244932 
L 204.781979 169.449379 
L 205.539996 174.236487 
L 206.083062 179.051142 
L 206.395894 183.57042 
L 206.395894 183.57042 
L 206.600113 190.367241 
L 206.91132 213.595594 
L 207.459264 269.870946 
L 207.579584 286.680116 
L 207.575682 286.095897 
" style="fill:none;stroke:#2ca02c;stroke-linecap:square;stroke-width:1.5;"/>
   </g>
   <g id="line2d_32">
    <path clip-path="url(#pcc6af4970f)" d="M 398.487273 65.455597 
L 299.881692 67.192235 
L 284.836475 67.470838 
L 251.762429 68.121331 
L 234.48186 68.480971 
L 211.680549 69.127381 
L 137.854342 71.314433 
L 109.194482 72.358803 
L 92.591933 72.911298 
L 81.990756 73.220368 
L 78.814955 73.317738 
L 87.327115 73.084051 
L 92.101872 73.195869 
L 95.979107 73.4283 
L 100.418919 73.813382 
L 107.228386 74.76792 
L 113.542591 76.006087 
L 119.421138 77.471974 
L 126.71426 79.71305 
L 133.718874 82.343291 
L 137.181524 83.831165 
L 143.791102 87.08206 
L 149.786425 90.550938 
L 153.755359 93.11145 
L 158.380692 96.484528 
L 162.367417 99.687681 
L 165.803922 102.722478 
L 171.346712 108.222616 
L 174.33852 111.517484 
L 180.186598 118.229091 
L 184.846563 124.233667 
L 187.302719 127.821745 
L 189.283774 130.990724 
L 191.309054 134.72561 
L 193.281653 138.770194 
L 195.746264 144.658775 
L 197.606023 149.929936 
L 199.244327 155.446442 
L 202.145993 168.110356 
L 202.758975 171.750793 
L 203.436345 176.871471 
L 203.783322 181.703684 
L 203.682188 188.867557 
L 203.54821 193.674359 
L 203.427565 198.501075 
L 203.194079 205.635455 
L 202.7154 234.471681 
L 202.528416 243.489696 
L 202.159651 255.253853 
L 201.716093 270.358737 
L 201.737555 278.066971 
L 201.602927 284.530756 
L 201.536263 284.508141 
L 201.444885 284.494635 
L 201.444885 284.494635 
" style="fill:none;stroke:#d62728;stroke-linecap:square;stroke-width:1.5;"/>
   </g>
   <g id="patch_3">
    <path d="M 57.6 307.584 
L 57.6 41.472 
" style="fill:none;stroke:#000000;stroke-linecap:square;stroke-linejoin:miter;stroke-width:0.8;"/>
   </g>
   <g id="patch_4">
    <path d="M 414.72 307.584 
L 414.72 41.472 
" style="fill:none;stroke:#000000;stroke-linecap:square;stroke-linejoin:miter;stroke-width:0.8;"/>
   </g>
   <g id="patch_5">
    <path d="M 57.6 307.584 
L 414.72 307.584 
" style="fill:none;stroke:#000000;stroke-linecap:square;stroke-linejoin:miter;stroke-width:0.8;"/>
   </g>
   <g id="patch_6">
    <path d="M 57.6 41.472 
L 414.72 41.472 
" style="fill:none;stroke:#000000;stroke-linecap:square;stroke-linejoin:miter;stroke-width:0.8;"/>
   </g>
   <g id="legend_1">
    <g id="patch_7">
     <path d="M 64.6 302.584 
L 122.110937 302.584 
Q 124.110937 302.584 124.110937 300.584 
L 124.110937 242.593375 
Q 124.110937 240.593375 122.110937 240.593375 
L 64.6 240.593375 
Q 62.6 240.593375 62.6 242.593375 
L 62.6 300.584 
Q 62.6 302.584 64.6 302.584 
z
" style="fill:#ffffff;opacity:0.8;stroke:#cccccc;stroke-linejoin:miter;"/>
    </g>
    <g id="line2d_33">
     <path d="M 66.6 248.691812 
L 86.6 248.691812 
" style="fill:none;stroke:#1f77b4;stroke-linecap:square;stroke-width:1.5;"/>
    </g>
    <g id="line2d_34"/>
    <g id="text_15">
     <!-- y -->
     <defs>
      <path d="M 32.171875 -5.078125 
Q 28.375 -14.84375 24.75 -17.8125 
Q 21.140625 -20.796875 15.09375 -20.796875 
L 7.90625 -20.796875 
L 7.90625 -13.28125 
L 13.1875 -13.28125 
Q 16.890625 -13.28125 18.9375 -11.515625 
Q 21 -9.765625 23.484375 -3.21875 
L 25.09375 0.875 
L 2.984375 54.6875 
L 12.5 54.6875 
L 29.59375 11.921875 
L 46.6875 54.6875 
L 56.203125 54.6875 
z
" id="DejaVuSans-79"/>
     </defs>
     <g transform="translate(94.6 252.191812)scale(0.1 -0.1)">
      <use xlink:href="#DejaVuSans-79"/>
     </g>
    </g>
    <g id="line2d_35">
     <path d="M 66.6 263.369937 
L 86.6 263.369937 
" style="fill:none;stroke:#ff7f0e;stroke-linecap:square;stroke-width:1.5;"/>
    </g>
    <g id="line2d_36"/>
    <g id="text_16">
     <!-- zy -->
     <defs>
      <path d="M 5.515625 54.6875 
L 48.1875 54.6875 
L 48.1875 46.484375 
L 14.40625 7.171875 
L 48.1875 7.171875 
L 48.1875 0 
L 4.296875 0 
L 4.296875 8.203125 
L 38.09375 47.515625 
L 5.515625 47.515625 
z
" id="DejaVuSans-7a"/>
     </defs>
     <g transform="translate(94.6 266.869937)scale(0.1 -0.1)">
      <use xlink:href="#DejaVuSans-7a"/>
      <use x="52.490234" xlink:href="#DejaVuSans-79"/>
     </g>
    </g>
    <g id="line2d_37">
     <path d="M 66.6 278.048062 
L 86.6 278.048062 
" style="fill:none;stroke:#2ca02c;stroke-linecap:square;stroke-width:1.5;"/>
    </g>
    <g id="line2d_38"/>
    <g id="text_17">
     <!-- dr_y -->
     <defs>
      <path d="M 45.40625 46.390625 
L 45.40625 75.984375 
L 54.390625 75.984375 
L 54.390625 0 
L 45.40625 0 
L 45.40625 8.203125 
Q 42.578125 3.328125 38.25 0.953125 
Q 33.9375 -1.421875 27.875 -1.421875 
Q 17.96875 -1.421875 11.734375 6.484375 
Q 5.515625 14.40625 5.515625 27.296875 
Q 5.515625 40.1875 11.734375 48.09375 
Q 17.96875 56 27.875 56 
Q 33.9375 56 38.25 53.625 
Q 42.578125 51.265625 45.40625 46.390625 
z
M 14.796875 27.296875 
Q 14.796875 17.390625 18.875 11.75 
Q 22.953125 6.109375 30.078125 6.109375 
Q 37.203125 6.109375 41.296875 11.75 
Q 45.40625 17.390625 45.40625 27.296875 
Q 45.40625 37.203125 41.296875 42.84375 
Q 37.203125 48.484375 30.078125 48.484375 
Q 22.953125 48.484375 18.875 42.84375 
Q 14.796875 37.203125 14.796875 27.296875 
z
" id="DejaVuSans-64"/>
      <path d="M 41.109375 46.296875 
Q 39.59375 47.171875 37.8125 47.578125 
Q 36.03125 48 33.890625 48 
Q 26.265625 48 22.1875 43.046875 
Q 18.109375 38.09375 18.109375 28.8125 
L 18.109375 0 
L 9.078125 0 
L 9.078125 54.6875 
L 18.109375 54.6875 
L 18.109375 46.1875 
Q 20.953125 51.171875 25.484375 53.578125 
Q 30.03125 56 36.53125 56 
Q 37.453125 56 38.578125 55.875 
Q 39.703125 55.765625 41.0625 55.515625 
z
" id="DejaVuSans-72"/>
      <path d="M 50.984375 -16.609375 
L 50.984375 -23.578125 
L -0.984375 -23.578125 
L -0.984375 -16.609375 
z
" id="DejaVuSans-5f"/>
     </defs>
     <g transform="translate(94.6 281.548062)scale(0.1 -0.1)">
      <use xlink:href="#DejaVuSans-64"/>
      <use x="63.476562" xlink:href="#DejaVuSans-72"/>
      <use x="104.589844" xlink:href="#DejaVuSans-5f"/>
      <use x="154.589844" xlink:href="#DejaVuSans-79"/>
     </g>
    </g>
    <g id="line2d_39">
     <path d="M 66.6 293.004312 
L 86.6 293.004312 
" style="fill:none;stroke:#d62728;stroke-linecap:square;stroke-width:1.5;"/>
    </g>
    <g id="line2d_40"/>
    <g id="text_18">
     <!-- RTKy -->
     <defs>
      <path d="M 44.390625 34.1875 
Q 47.5625 33.109375 50.5625 29.59375 
Q 53.5625 26.078125 56.59375 19.921875 
L 66.609375 0 
L 56 0 
L 46.6875 18.703125 
Q 43.0625 26.03125 39.671875 28.421875 
Q 36.28125 30.8125 30.421875 30.8125 
L 19.671875 30.8125 
L 19.671875 0 
L 9.8125 0 
L 9.8125 72.90625 
L 32.078125 72.90625 
Q 44.578125 72.90625 50.734375 67.671875 
Q 56.890625 62.453125 56.890625 51.90625 
Q 56.890625 45.015625 53.6875 40.46875 
Q 50.484375 35.9375 44.390625 34.1875 
z
M 19.671875 64.796875 
L 19.671875 38.921875 
L 32.078125 38.921875 
Q 39.203125 38.921875 42.84375 42.21875 
Q 46.484375 45.515625 46.484375 51.90625 
Q 46.484375 58.296875 42.84375 61.546875 
Q 39.203125 64.796875 32.078125 64.796875 
z
" id="DejaVuSans-52"/>
      <path d="M -0.296875 72.90625 
L 61.375 72.90625 
L 61.375 64.59375 
L 35.5 64.59375 
L 35.5 0 
L 25.59375 0 
L 25.59375 64.59375 
L -0.296875 64.59375 
z
" id="DejaVuSans-54"/>
      <path d="M 9.8125 72.90625 
L 19.671875 72.90625 
L 19.671875 42.09375 
L 52.390625 72.90625 
L 65.09375 72.90625 
L 28.90625 38.921875 
L 67.671875 0 
L 54.6875 0 
L 19.671875 35.109375 
L 19.671875 0 
L 9.8125 0 
z
" id="DejaVuSans-4b"/>
     </defs>
     <g transform="translate(94.6 296.504312)scale(0.1 -0.1)">
      <use xlink:href="#DejaVuSans-52"/>
      <use x="69.373047" xlink:href="#DejaVuSans-54"/>
      <use x="130.457031" xlink:href="#DejaVuSans-4b"/>
      <use x="195.923828" xlink:href="#DejaVuSans-79"/>
     </g>
    </g>
   </g>
  </g>
 </g>
 <defs>
  <clipPath id="pcc6af4970f">
   <rect height="266.112" width="357.12" x="57.6" y="41.472"/>
  </clipPath>
 </defs>
</svg>
