<?xml version="1.0" encoding="utf-8" standalone="no"?>
<!DOCTYPE svg PUBLIC "-//W3C//DTD SVG 1.1//EN"
  "http://www.w3.org/Graphics/SVG/1.1/DTD/svg11.dtd">
<!-- Created with matplotlib (http://matplotlib.org/) -->
<svg height="345pt" version="1.1" viewBox="0 0 460 345" width="460pt" xmlns="http://www.w3.org/2000/svg" xmlns:xlink="http://www.w3.org/1999/xlink">
 <defs>
  <style type="text/css">
*{stroke-linecap:butt;stroke-linejoin:round;}
  </style>
 </defs>
 <g id="figure_1">
  <g id="patch_1">
   <path d="M 0 345.6 
L 460.8 345.6 
L 460.8 0 
L 0 0 
z
" style="fill:#ffffff;"/>
  </g>
  <g id="axes_1">
   <g id="patch_2">
    <path d="M 57.6 307.584 
L 414.72 307.584 
L 414.72 41.472 
L 57.6 41.472 
z
" style="fill:#ffffff;"/>
   </g>
   <g id="matplotlib.axis_1">
    <g id="xtick_1">
     <g id="line2d_1">
      <path clip-path="url(#pe673677e8c)" d="M 93.649542 307.584 
L 93.649542 41.472 
" style="fill:none;stroke:#b0b0b0;stroke-linecap:square;stroke-width:0.8;"/>
     </g>
     <g id="line2d_2">
      <defs>
       <path d="M 0 0 
L 0 3.5 
" id="mdddc0dd59c" style="stroke:#000000;stroke-width:0.8;"/>
      </defs>
      <g>
       <use style="stroke:#000000;stroke-width:0.8;" x="93.649542" xlink:href="#mdddc0dd59c" y="307.584"/>
      </g>
     </g>
     <g id="text_1">
      <!-- −10 -->
      <defs>
       <path d="M 10.59375 35.5 
L 73.1875 35.5 
L 73.1875 27.203125 
L 10.59375 27.203125 
z
" id="DejaVuSans-2212"/>
       <path d="M 12.40625 8.296875 
L 28.515625 8.296875 
L 28.515625 63.921875 
L 10.984375 60.40625 
L 10.984375 69.390625 
L 28.421875 72.90625 
L 38.28125 72.90625 
L 38.28125 8.296875 
L 54.390625 8.296875 
L 54.390625 0 
L 12.40625 0 
z
" id="DejaVuSans-31"/>
       <path d="M 31.78125 66.40625 
Q 24.171875 66.40625 20.328125 58.90625 
Q 16.5 51.421875 16.5 36.375 
Q 16.5 21.390625 20.328125 13.890625 
Q 24.171875 6.390625 31.78125 6.390625 
Q 39.453125 6.390625 43.28125 13.890625 
Q 47.125 21.390625 47.125 36.375 
Q 47.125 51.421875 43.28125 58.90625 
Q 39.453125 66.40625 31.78125 66.40625 
z
M 31.78125 74.21875 
Q 44.046875 74.21875 50.515625 64.515625 
Q 56.984375 54.828125 56.984375 36.375 
Q 56.984375 17.96875 50.515625 8.265625 
Q 44.046875 -1.421875 31.78125 -1.421875 
Q 19.53125 -1.421875 13.0625 8.265625 
Q 6.59375 17.96875 6.59375 36.375 
Q 6.59375 54.828125 13.0625 64.515625 
Q 19.53125 74.21875 31.78125 74.21875 
z
" id="DejaVuSans-30"/>
      </defs>
      <g transform="translate(83.097198 322.182437)scale(0.1 -0.1)">
       <use xlink:href="#DejaVuSans-2212"/>
       <use x="83.789062" xlink:href="#DejaVuSans-31"/>
       <use x="147.412109" xlink:href="#DejaVuSans-30"/>
      </g>
     </g>
    </g>
    <g id="xtick_2">
     <g id="line2d_3">
      <path clip-path="url(#pe673677e8c)" d="M 148.068914 307.584 
L 148.068914 41.472 
" style="fill:none;stroke:#b0b0b0;stroke-linecap:square;stroke-width:0.8;"/>
     </g>
     <g id="line2d_4">
      <g>
       <use style="stroke:#000000;stroke-width:0.8;" x="148.068914" xlink:href="#mdddc0dd59c" y="307.584"/>
      </g>
     </g>
     <g id="text_2">
      <!-- −8 -->
      <defs>
       <path d="M 31.78125 34.625 
Q 24.75 34.625 20.71875 30.859375 
Q 16.703125 27.09375 16.703125 20.515625 
Q 16.703125 13.921875 20.71875 10.15625 
Q 24.75 6.390625 31.78125 6.390625 
Q 38.8125 6.390625 42.859375 10.171875 
Q 46.921875 13.96875 46.921875 20.515625 
Q 46.921875 27.09375 42.890625 30.859375 
Q 38.875 34.625 31.78125 34.625 
z
M 21.921875 38.8125 
Q 15.578125 40.375 12.03125 44.71875 
Q 8.5 49.078125 8.5 55.328125 
Q 8.5 64.0625 14.71875 69.140625 
Q 20.953125 74.21875 31.78125 74.21875 
Q 42.671875 74.21875 48.875 69.140625 
Q 55.078125 64.0625 55.078125 55.328125 
Q 55.078125 49.078125 51.53125 44.71875 
Q 48 40.375 41.703125 38.8125 
Q 48.828125 37.15625 52.796875 32.3125 
Q 56.78125 27.484375 56.78125 20.515625 
Q 56.78125 9.90625 50.3125 4.234375 
Q 43.84375 -1.421875 31.78125 -1.421875 
Q 19.734375 -1.421875 13.25 4.234375 
Q 6.78125 9.90625 6.78125 20.515625 
Q 6.78125 27.484375 10.78125 32.3125 
Q 14.796875 37.15625 21.921875 38.8125 
z
M 18.3125 54.390625 
Q 18.3125 48.734375 21.84375 45.5625 
Q 25.390625 42.390625 31.78125 42.390625 
Q 38.140625 42.390625 41.71875 45.5625 
Q 45.3125 48.734375 45.3125 54.390625 
Q 45.3125 60.0625 41.71875 63.234375 
Q 38.140625 66.40625 31.78125 66.40625 
Q 25.390625 66.40625 21.84375 63.234375 
Q 18.3125 60.0625 18.3125 54.390625 
z
" id="DejaVuSans-38"/>
      </defs>
      <g transform="translate(140.69782 322.182437)scale(0.1 -0.1)">
       <use xlink:href="#DejaVuSans-2212"/>
       <use x="83.789062" xlink:href="#DejaVuSans-38"/>
      </g>
     </g>
    </g>
    <g id="xtick_3">
     <g id="line2d_5">
      <path clip-path="url(#pe673677e8c)" d="M 202.488286 307.584 
L 202.488286 41.472 
" style="fill:none;stroke:#b0b0b0;stroke-linecap:square;stroke-width:0.8;"/>
     </g>
     <g id="line2d_6">
      <g>
       <use style="stroke:#000000;stroke-width:0.8;" x="202.488286" xlink:href="#mdddc0dd59c" y="307.584"/>
      </g>
     </g>
     <g id="text_3">
      <!-- −6 -->
      <defs>
       <path d="M 33.015625 40.375 
Q 26.375 40.375 22.484375 35.828125 
Q 18.609375 31.296875 18.609375 23.390625 
Q 18.609375 15.53125 22.484375 10.953125 
Q 26.375 6.390625 33.015625 6.390625 
Q 39.65625 6.390625 43.53125 10.953125 
Q 47.40625 15.53125 47.40625 23.390625 
Q 47.40625 31.296875 43.53125 35.828125 
Q 39.65625 40.375 33.015625 40.375 
z
M 52.59375 71.296875 
L 52.59375 62.3125 
Q 48.875 64.0625 45.09375 64.984375 
Q 41.3125 65.921875 37.59375 65.921875 
Q 27.828125 65.921875 22.671875 59.328125 
Q 17.53125 52.734375 16.796875 39.40625 
Q 19.671875 43.65625 24.015625 45.921875 
Q 28.375 48.1875 33.59375 48.1875 
Q 44.578125 48.1875 50.953125 41.515625 
Q 57.328125 34.859375 57.328125 23.390625 
Q 57.328125 12.15625 50.6875 5.359375 
Q 44.046875 -1.421875 33.015625 -1.421875 
Q 20.359375 -1.421875 13.671875 8.265625 
Q 6.984375 17.96875 6.984375 36.375 
Q 6.984375 53.65625 15.1875 63.9375 
Q 23.390625 74.21875 37.203125 74.21875 
Q 40.921875 74.21875 44.703125 73.484375 
Q 48.484375 72.75 52.59375 71.296875 
z
" id="DejaVuSans-36"/>
      </defs>
      <g transform="translate(195.117192 322.182437)scale(0.1 -0.1)">
       <use xlink:href="#DejaVuSans-2212"/>
       <use x="83.789062" xlink:href="#DejaVuSans-36"/>
      </g>
     </g>
    </g>
    <g id="xtick_4">
     <g id="line2d_7">
      <path clip-path="url(#pe673677e8c)" d="M 256.907658 307.584 
L 256.907658 41.472 
" style="fill:none;stroke:#b0b0b0;stroke-linecap:square;stroke-width:0.8;"/>
     </g>
     <g id="line2d_8">
      <g>
       <use style="stroke:#000000;stroke-width:0.8;" x="256.907658" xlink:href="#mdddc0dd59c" y="307.584"/>
      </g>
     </g>
     <g id="text_4">
      <!-- −4 -->
      <defs>
       <path d="M 37.796875 64.3125 
L 12.890625 25.390625 
L 37.796875 25.390625 
z
M 35.203125 72.90625 
L 47.609375 72.90625 
L 47.609375 25.390625 
L 58.015625 25.390625 
L 58.015625 17.1875 
L 47.609375 17.1875 
L 47.609375 0 
L 37.796875 0 
L 37.796875 17.1875 
L 4.890625 17.1875 
L 4.890625 26.703125 
z
" id="DejaVuSans-34"/>
      </defs>
      <g transform="translate(249.536564 322.182437)scale(0.1 -0.1)">
       <use xlink:href="#DejaVuSans-2212"/>
       <use x="83.789062" xlink:href="#DejaVuSans-34"/>
      </g>
     </g>
    </g>
    <g id="xtick_5">
     <g id="line2d_9">
      <path clip-path="url(#pe673677e8c)" d="M 311.32703 307.584 
L 311.32703 41.472 
" style="fill:none;stroke:#b0b0b0;stroke-linecap:square;stroke-width:0.8;"/>
     </g>
     <g id="line2d_10">
      <g>
       <use style="stroke:#000000;stroke-width:0.8;" x="311.32703" xlink:href="#mdddc0dd59c" y="307.584"/>
      </g>
     </g>
     <g id="text_5">
      <!-- −2 -->
      <defs>
       <path d="M 19.1875 8.296875 
L 53.609375 8.296875 
L 53.609375 0 
L 7.328125 0 
L 7.328125 8.296875 
Q 12.9375 14.109375 22.625 23.890625 
Q 32.328125 33.6875 34.8125 36.53125 
Q 39.546875 41.84375 41.421875 45.53125 
Q 43.3125 49.21875 43.3125 52.78125 
Q 43.3125 58.59375 39.234375 62.25 
Q 35.15625 65.921875 28.609375 65.921875 
Q 23.96875 65.921875 18.8125 64.3125 
Q 13.671875 62.703125 7.8125 59.421875 
L 7.8125 69.390625 
Q 13.765625 71.78125 18.9375 73 
Q 24.125 74.21875 28.421875 74.21875 
Q 39.75 74.21875 46.484375 68.546875 
Q 53.21875 62.890625 53.21875 53.421875 
Q 53.21875 48.921875 51.53125 44.890625 
Q 49.859375 40.875 45.40625 35.40625 
Q 44.1875 33.984375 37.640625 27.21875 
Q 31.109375 20.453125 19.1875 8.296875 
z
" id="DejaVuSans-32"/>
      </defs>
      <g transform="translate(303.955936 322.182437)scale(0.1 -0.1)">
       <use xlink:href="#DejaVuSans-2212"/>
       <use x="83.789062" xlink:href="#DejaVuSans-32"/>
      </g>
     </g>
    </g>
    <g id="xtick_6">
     <g id="line2d_11">
      <path clip-path="url(#pe673677e8c)" d="M 365.746402 307.584 
L 365.746402 41.472 
" style="fill:none;stroke:#b0b0b0;stroke-linecap:square;stroke-width:0.8;"/>
     </g>
     <g id="line2d_12">
      <g>
       <use style="stroke:#000000;stroke-width:0.8;" x="365.746402" xlink:href="#mdddc0dd59c" y="307.584"/>
      </g>
     </g>
     <g id="text_6">
      <!-- 0 -->
      <g transform="translate(362.565152 322.182437)scale(0.1 -0.1)">
       <use xlink:href="#DejaVuSans-30"/>
      </g>
     </g>
    </g>
   </g>
   <g id="matplotlib.axis_2">
    <g id="ytick_1">
     <g id="line2d_13">
      <path clip-path="url(#pe673677e8c)" d="M 57.6 266.681021 
L 414.72 266.681021 
" style="fill:none;stroke:#b0b0b0;stroke-linecap:square;stroke-width:0.8;"/>
     </g>
     <g id="line2d_14">
      <defs>
       <path d="M 0 0 
L -3.5 0 
" id="m211b12cf0e" style="stroke:#000000;stroke-width:0.8;"/>
      </defs>
      <g>
       <use style="stroke:#000000;stroke-width:0.8;" x="57.6" xlink:href="#m211b12cf0e" y="266.681021"/>
      </g>
     </g>
     <g id="text_7">
      <!-- 1.4 -->
      <defs>
       <path d="M 10.6875 12.40625 
L 21 12.40625 
L 21 0 
L 10.6875 0 
z
" id="DejaVuSans-2e"/>
      </defs>
      <g transform="translate(34.696875 270.48024)scale(0.1 -0.1)">
       <use xlink:href="#DejaVuSans-31"/>
       <use x="63.623047" xlink:href="#DejaVuSans-2e"/>
       <use x="95.410156" xlink:href="#DejaVuSans-34"/>
      </g>
     </g>
    </g>
    <g id="ytick_2">
     <g id="line2d_15">
      <path clip-path="url(#pe673677e8c)" d="M 57.6 220.519689 
L 414.72 220.519689 
" style="fill:none;stroke:#b0b0b0;stroke-linecap:square;stroke-width:0.8;"/>
     </g>
     <g id="line2d_16">
      <g>
       <use style="stroke:#000000;stroke-width:0.8;" x="57.6" xlink:href="#m211b12cf0e" y="220.519689"/>
      </g>
     </g>
     <g id="text_8">
      <!-- 1.6 -->
      <g transform="translate(34.696875 224.318908)scale(0.1 -0.1)">
       <use xlink:href="#DejaVuSans-31"/>
       <use x="63.623047" xlink:href="#DejaVuSans-2e"/>
       <use x="95.410156" xlink:href="#DejaVuSans-36"/>
      </g>
     </g>
    </g>
    <g id="ytick_3">
     <g id="line2d_17">
      <path clip-path="url(#pe673677e8c)" d="M 57.6 174.358357 
L 414.72 174.358357 
" style="fill:none;stroke:#b0b0b0;stroke-linecap:square;stroke-width:0.8;"/>
     </g>
     <g id="line2d_18">
      <g>
       <use style="stroke:#000000;stroke-width:0.8;" x="57.6" xlink:href="#m211b12cf0e" y="174.358357"/>
      </g>
     </g>
     <g id="text_9">
      <!-- 1.8 -->
      <g transform="translate(34.696875 178.157576)scale(0.1 -0.1)">
       <use xlink:href="#DejaVuSans-31"/>
       <use x="63.623047" xlink:href="#DejaVuSans-2e"/>
       <use x="95.410156" xlink:href="#DejaVuSans-38"/>
      </g>
     </g>
    </g>
    <g id="ytick_4">
     <g id="line2d_19">
      <path clip-path="url(#pe673677e8c)" d="M 57.6 128.197025 
L 414.72 128.197025 
" style="fill:none;stroke:#b0b0b0;stroke-linecap:square;stroke-width:0.8;"/>
     </g>
     <g id="line2d_20">
      <g>
       <use style="stroke:#000000;stroke-width:0.8;" x="57.6" xlink:href="#m211b12cf0e" y="128.197025"/>
      </g>
     </g>
     <g id="text_10">
      <!-- 2.0 -->
      <g transform="translate(34.696875 131.996244)scale(0.1 -0.1)">
       <use xlink:href="#DejaVuSans-32"/>
       <use x="63.623047" xlink:href="#DejaVuSans-2e"/>
       <use x="95.410156" xlink:href="#DejaVuSans-30"/>
      </g>
     </g>
    </g>
    <g id="ytick_5">
     <g id="line2d_21">
      <path clip-path="url(#pe673677e8c)" d="M 57.6 82.035693 
L 414.72 82.035693 
" style="fill:none;stroke:#b0b0b0;stroke-linecap:square;stroke-width:0.8;"/>
     </g>
     <g id="line2d_22">
      <g>
       <use style="stroke:#000000;stroke-width:0.8;" x="57.6" xlink:href="#m211b12cf0e" y="82.035693"/>
      </g>
     </g>
     <g id="text_11">
      <!-- 2.2 -->
      <g transform="translate(34.696875 85.834912)scale(0.1 -0.1)">
       <use xlink:href="#DejaVuSans-32"/>
       <use x="63.623047" xlink:href="#DejaVuSans-2e"/>
       <use x="95.410156" xlink:href="#DejaVuSans-32"/>
      </g>
     </g>
    </g>
   </g>
   <g id="line2d_23">
    <path clip-path="url(#pe673677e8c)" d="M 74.744252 93.052095 
L 77.111494 94.928553 
L 79.198477 109.178557 
L 81.962981 110.021001 
L 83.037764 123.666291 
L 85.519287 131.229825 
L 87.845716 127.354581 
L 90.378937 128.042385 
L 93.023719 130.622803 
L 95.442388 126.179775 
L 99.133654 123.02234 
L 102.501125 120.531936 
L 104.560081 115.172605 
L 106.967867 113.766993 
L 108.368077 118.932446 
L 110.684166 119.241727 
L 114.392574 117.079068 
L 116.377792 117.663009 
L 119.131957 111.64588 
L 121.269278 115.283393 
L 123.088517 118.851664 
L 125.886761 118.526226 
L 127.907897 122.262986 
L 130.506966 123.934026 
L 133.459761 123.384706 
L 136.252291 123.061577 
L 139.082915 121.953705 
L 141.793816 121.462087 
L 144.915311 121.115877 
L 147.34949 123.218526 
L 150.45221 120.529628 
L 153.608262 118.893209 
L 156.042712 116.375108 
L 158.505733 119.698724 
L 161.602739 122.803074 
L 164.192557 125.164226 
L 166.945633 123.172364 
L 169.673132 122.071416 
L 173.006591 122.2099 
L 176.405353 121.589031 
L 179.02755 121.766752 
L 182.275842 120.347291 
L 185.128778 122.743064 
L 191.387822 124.414104 
L 194.11777 123.747073 
L 196.883907 125.441194 
L 199.633173 129.011773 
L 202.858065 129.321054 
L 208.105997 135.504364 
L 210.986143 140.15281 
L 213.670922 142.691683 
L 216.771466 145.26287 
L 219.645081 146.486145 
L 222.167147 145.939133 
L 226.398525 147.898682 
L 228.818555 150.839159 
L 231.668225 150.158279 
L 234.748634 150.594503 
L 237.542252 150.543726 
L 242.825829 154.707478 
L 246.228944 156.715496 
L 249.297381 156.417755 
L 251.118253 158.99125 
L 253.983433 159.68367 
L 256.509308 159.614428 
L 259.917321 159.242829 
L 261.963489 160.436099 
L 264.179718 163.341955 
L 267.326519 162.303325 
L 269.751446 163.152694 
L 272.686827 163.872811 
L 275.774038 164.772957 
L 277.782385 164.886052 
L 280.867963 164.495989 
L 283.863477 164.532918 
L 287.345501 162.880342 
L 289.073316 163.556605 
L 291.970603 163.771256 
L 295.0287 163.016518 
L 296.967662 163.28887 
L 299.47449 164.152087 
L 301.953021 164.606776 
L 304.742014 164.002062 
L 310.21116 163.436586 
L 315.645207 162.217927 
L 317.897625 162.571061 
L 320.470845 163.459667 
L 323.253307 164.701406 
L 327.690119 164.738336 
L 330.333267 165.594628 
L 333.376671 166.150872 
L 335.427465 165.876212 
L 337.631722 167.014089 
L 340.496167 167.965013 
L 342.176283 168.837462 
L 345.344742 168.934401 
L 349.50494 171.170917 
L 352.209447 170.199221 
L 354.523413 171.616374 
L 356.304233 173.169703 
L 358.209672 173.675169 
L 361.022283 173.968294 
L 363.119815 174.478377 
L 365.757091 174.47376 
L 368.0281 173.442055 
L 370.082565 173.70979 
L 376.078709 173.894436 
L 378.601863 174.208333 
L 380.327773 174.886904 
L 382.90619 175.223882 
L 384.706492 176.068634 
L 385.801573 175.318513 
L 386.963399 174.286807 
L 388.467442 174.03292 
L 389.78518 173.677477 
L 390.41922 173.178935 
L 390.499625 172.763483 
L 390.216072 172.020286 
L 389.989497 171.817176 
L 390.679344 171.521743 
L 391.006214 170.792394 
L 391.164983 169.966106 
L 391.566571 168.793609 
L 390.988528 168.364308 
L 391.433896 168.620504 
L 391.400973 167.644191 
L 391.524069 167.847301 
L 391.174887 168.338919 
L 391.377463 167.616495 
L 391.377463 167.616495 
" style="fill:none;stroke:#1f77b4;stroke-linecap:square;stroke-width:1.5;"/>
   </g>
   <g id="line2d_24">
    <path clip-path="url(#pe673677e8c)" d="M 74.744252 93.052095 
L 77.242101 96.391868 
L 78.42028 139.857378 
L 77.146867 215.130353 
L 80.311354 175.212342 
L 86.063481 163.831265 
L 86.76277 102.729818 
L 87.837553 295.488 
L 93.426422 143.107135 
L 95.850261 91.826512 
L 104.62212 96.567281 
L 103.471966 68.233455 
L 105.365216 95.249375 
L 106.191574 154.425894 
L 110.249899 115.285701 
L 116.68118 91.946531 
L 115.10193 116.303558 
L 119.109917 53.568 
L 119.679688 138.908762 
L 121.977002 143.508739 
L 125.27536 107.756787 
L 126.722371 148.281821 
L 130.089297 131.769912 
L 133.942461 111.629723 
L 136.326029 113.739296 
L 139.841793 105.732613 
L 141.661033 110.007152 
L 145.827108 110.531084 
L 145.926423 133.64637 
L 151.316934 89.703091 
L 153.906752 96.297237 
L 155.909929 87.785087 
L 157.04158 140.29591 
L 160.57775 140.891391 
L 163.752032 138.772586 
L 167.507785 99.073841 
L 170.284806 105.794931 
L 173.168216 114.533271 
L 177.319326 107.7891 
L 178.787017 115.745006 
L 182.808608 99.113078 
L 184.656962 134.913499 
L 188.181161 121.14819 
L 190.998996 122.653049 
L 194.735974 111.221195 
L 196.891253 132.568503 
L 199.011704 151.884713 
L 202.746778 123.03388 
L 205.707736 154.942901 
L 207.335419 153.985053 
L 210.580446 174.148323 
L 213.468482 159.282066 
L 216.456922 161.705536 
L 219.221698 151.224606 
L 223.427227 136.891512 
L 226.379206 156.881677 
L 229.117589 172.08722 
L 232.588185 139.236508 
L 234.851486 148.60495 
L 238.319905 145.168239 
L 239.461895 166.91715 
L 243.00895 167.224123 
L 246.566617 168.424318 
L 248.782573 147.896374 
L 249.422273 178.397474 
L 254.124923 162.114064 
L 256.605358 155.233717 
L 260.851702 151.240762 
L 260.840002 167.870382 
L 262.788759 186.189506 
L 268.296544 149.839766 
L 269.590637 168.043487 
L 273.004092 167.10872 
L 274.720207 168.883623 
L 277.734223 163.925896 
L 282.386263 158.31037 
L 284.453383 161.599365 
L 289.166917 144.84511 
L 287.728885 167.918851 
L 291.605993 162.734934 
L 295.189237 153.318022 
L 296.743454 164.013603 
L 298.816016 170.139211 
L 301.927988 166.972544 
L 305.395046 156.609325 
L 307.755486 158.628883 
L 310.58094 158.57349 
L 312.742205 154.97983 
L 315.989137 154.428202 
L 317.886469 164.1844 
L 319.987601 169.892248 
L 323.295754 173.358964 
L 325.045881 163.353496 
L 327.126606 163.722786 
L 330.72672 171.330174 
L 334.081674 168.327379 
L 334.789126 162.758014 
L 336.909304 176.948008 
L 340.047724 175.493926 
L 341.992944 176.687196 
L 346.374439 167.879614 
L 346.689853 181.033286 
L 349.620772 179.175292 
L 352.054216 162.017125 
L 353.381069 183.8699 
L 355.093728 186.625731 
L 357.311481 179.265307 
L 361.141679 175.713192 
L 363.298618 178.092809 
L 365.434073 174.042152 
L 367.475169 164.618316 
L 370.151704 175.177721 
L 375.44075 171.678692 
L 377.078855 172.717322 
L 378.689804 174.316812 
L 378.976622 178.039723 
L 383.019219 175.177721 
L 383.545182 180.652455 
L 383.547659 167.780367 
L 386.63925 165.93853 
L 388.541452 171.856413 
L 390.558153 170.249999 
L 390.742335 169.492953 
L 389.415836 169.956874 
L 389.495397 166.374755 
L 389.413632 170.748541 
L 392.432519 169.167515 
L 391.568503 162.912655 
L 392.587152 158.765059 
L 389.51945 164.860663 
L 392.565792 170.700072 
L 391.31733 159.385929 
L 391.836926 169.576043 
L 390.287498 172.52806 
L 391.892216 161.472421 
L 391.892216 161.472421 
" style="fill:none;stroke:#ff7f0e;stroke-linecap:square;stroke-width:1.5;"/>
   </g>
   <g id="line2d_25">
    <path clip-path="url(#pe673677e8c)" d="M 74.447666 106.081131 
L 79.293711 107.249013 
L 81.73442 107.710626 
L 91.636025 110.20103 
L 96.71308 112.047483 
L 104.417775 114.63021 
L 112.15104 117.441435 
L 120.002939 119.664103 
L 122.660509 120.328826 
L 133.469557 122.394546 
L 138.934622 123.130819 
L 144.416013 123.924794 
L 158.424648 125.321174 
L 164.175415 126.682934 
L 170.069577 128.476301 
L 175.810549 129.888838 
L 187.576289 132.586968 
L 193.547183 133.521735 
L 199.493588 134.571905 
L 202.476858 135.10276 
L 222.983165 139.864302 
L 234.470823 142.324701 
L 237.300902 143.063282 
L 240.14894 144.014206 
L 243.026636 144.79664 
L 248.669109 146.684639 
L 251.510889 147.455533 
L 257.063569 149.098876 
L 265.307288 150.862239 
L 270.820514 151.981651 
L 276.231705 153.38034 
L 284.302097 155.388358 
L 289.575335 156.528543 
L 305.356136 159.355924 
L 318.294342 161.114671 
L 328.567087 161.767854 
L 338.562538 162.427961 
L 355.963241 162.012509 
L 368.210606 162.176382 
L 373.062433 162.379491 
L 377.891472 162.515667 
L 380.293135 162.573369 
L 393.931011 162.116372 
L 398.487273 161.673223 
L 398.281295 161.527815 
L 398.324015 161.260079 
L 398.232046 160.366857 
L 398.232046 160.366857 
" style="fill:none;stroke:#2ca02c;stroke-linecap:square;stroke-width:1.5;"/>
   </g>
   <g id="line2d_26">
    <path clip-path="url(#pe673677e8c)" d="M 73.832727 107.627536 
L 90.928573 112.079796 
L 111.509163 117.18524 
L 132.590412 122.200668 
L 151.871467 126.590611 
L 171.844465 130.920544 
L 192.481924 135.160462 
L 210.121691 138.55332 
L 227.670034 141.659978 
L 242.225311 143.998049 
L 256.298433 146.001451 
L 267.409508 147.379367 
L 278.109989 148.517244 
L 291.444912 149.675893 
L 301.973428 150.391394 
L 314.994351 151.026112 
L 325.27145 151.300772 
L 335.403792 151.342317 
L 345.448847 151.157672 
L 355.374995 150.758376 
L 365.378051 150.149047 
L 384.07286 148.694965 
L 398.444826 147.497078 
L 398.444826 147.497078 
" style="fill:none;stroke:#d62728;stroke-linecap:square;stroke-width:1.5;"/>
   </g>
   <g id="patch_3">
    <path d="M 57.6 307.584 
L 57.6 41.472 
" style="fill:none;stroke:#000000;stroke-linecap:square;stroke-linejoin:miter;stroke-width:0.8;"/>
   </g>
   <g id="patch_4">
    <path d="M 414.72 307.584 
L 414.72 41.472 
" style="fill:none;stroke:#000000;stroke-linecap:square;stroke-linejoin:miter;stroke-width:0.8;"/>
   </g>
   <g id="patch_5">
    <path d="M 57.6 307.584 
L 414.72 307.584 
" style="fill:none;stroke:#000000;stroke-linecap:square;stroke-linejoin:miter;stroke-width:0.8;"/>
   </g>
   <g id="patch_6">
    <path d="M 57.6 41.472 
L 414.72 41.472 
" style="fill:none;stroke:#000000;stroke-linecap:square;stroke-linejoin:miter;stroke-width:0.8;"/>
   </g>
   <g id="legend_1">
    <g id="patch_7">
     <path d="M 350.209063 108.1845 
L 407.72 108.1845 
Q 409.72 108.1845 409.72 106.1845 
L 409.72 48.472 
Q 409.72 46.472 407.72 46.472 
L 350.209063 46.472 
Q 348.209063 46.472 348.209063 48.472 
L 348.209063 106.1845 
Q 348.209063 108.1845 350.209063 108.1845 
z
" style="fill:#ffffff;opacity:0.8;stroke:#cccccc;stroke-linejoin:miter;"/>
    </g>
    <g id="line2d_27">
     <path d="M 352.209063 54.570438 
L 372.209063 54.570438 
" style="fill:none;stroke:#1f77b4;stroke-linecap:square;stroke-width:1.5;"/>
    </g>
    <g id="line2d_28"/>
    <g id="text_12">
     <!-- y -->
     <defs>
      <path d="M 32.171875 -5.078125 
Q 28.375 -14.84375 24.75 -17.8125 
Q 21.140625 -20.796875 15.09375 -20.796875 
L 7.90625 -20.796875 
L 7.90625 -13.28125 
L 13.1875 -13.28125 
Q 16.890625 -13.28125 18.9375 -11.515625 
Q 21 -9.765625 23.484375 -3.21875 
L 25.09375 0.875 
L 2.984375 54.6875 
L 12.5 54.6875 
L 29.59375 11.921875 
L 46.6875 54.6875 
L 56.203125 54.6875 
z
" id="DejaVuSans-79"/>
     </defs>
     <g transform="translate(380.209063 58.070438)scale(0.1 -0.1)">
      <use xlink:href="#DejaVuSans-79"/>
     </g>
    </g>
    <g id="line2d_29">
     <path d="M 352.209063 69.248563 
L 372.209063 69.248563 
" style="fill:none;stroke:#ff7f0e;stroke-linecap:square;stroke-width:1.5;"/>
    </g>
    <g id="line2d_30"/>
    <g id="text_13">
     <!-- zy -->
     <defs>
      <path d="M 5.515625 54.6875 
L 48.1875 54.6875 
L 48.1875 46.484375 
L 14.40625 7.171875 
L 48.1875 7.171875 
L 48.1875 0 
L 4.296875 0 
L 4.296875 8.203125 
L 38.09375 47.515625 
L 5.515625 47.515625 
z
" id="DejaVuSans-7a"/>
     </defs>
     <g transform="translate(380.209063 72.748563)scale(0.1 -0.1)">
      <use xlink:href="#DejaVuSans-7a"/>
      <use x="52.490234" xlink:href="#DejaVuSans-79"/>
     </g>
    </g>
    <g id="line2d_31">
     <path d="M 352.209063 83.926688 
L 372.209063 83.926688 
" style="fill:none;stroke:#2ca02c;stroke-linecap:square;stroke-width:1.5;"/>
    </g>
    <g id="line2d_32"/>
    <g id="text_14">
     <!-- RTKy -->
     <defs>
      <path d="M 44.390625 34.1875 
Q 47.5625 33.109375 50.5625 29.59375 
Q 53.5625 26.078125 56.59375 19.921875 
L 66.609375 0 
L 56 0 
L 46.6875 18.703125 
Q 43.0625 26.03125 39.671875 28.421875 
Q 36.28125 30.8125 30.421875 30.8125 
L 19.671875 30.8125 
L 19.671875 0 
L 9.8125 0 
L 9.8125 72.90625 
L 32.078125 72.90625 
Q 44.578125 72.90625 50.734375 67.671875 
Q 56.890625 62.453125 56.890625 51.90625 
Q 56.890625 45.015625 53.6875 40.46875 
Q 50.484375 35.9375 44.390625 34.1875 
z
M 19.671875 64.796875 
L 19.671875 38.921875 
L 32.078125 38.921875 
Q 39.203125 38.921875 42.84375 42.21875 
Q 46.484375 45.515625 46.484375 51.90625 
Q 46.484375 58.296875 42.84375 61.546875 
Q 39.203125 64.796875 32.078125 64.796875 
z
" id="DejaVuSans-52"/>
      <path d="M -0.296875 72.90625 
L 61.375 72.90625 
L 61.375 64.59375 
L 35.5 64.59375 
L 35.5 0 
L 25.59375 0 
L 25.59375 64.59375 
L -0.296875 64.59375 
z
" id="DejaVuSans-54"/>
      <path d="M 9.8125 72.90625 
L 19.671875 72.90625 
L 19.671875 42.09375 
L 52.390625 72.90625 
L 65.09375 72.90625 
L 28.90625 38.921875 
L 67.671875 0 
L 54.6875 0 
L 19.671875 35.109375 
L 19.671875 0 
L 9.8125 0 
z
" id="DejaVuSans-4b"/>
     </defs>
     <g transform="translate(380.209063 87.426688)scale(0.1 -0.1)">
      <use xlink:href="#DejaVuSans-52"/>
      <use x="69.373047" xlink:href="#DejaVuSans-54"/>
      <use x="130.457031" xlink:href="#DejaVuSans-4b"/>
      <use x="195.923828" xlink:href="#DejaVuSans-79"/>
     </g>
    </g>
    <g id="line2d_33">
     <path d="M 352.209063 98.604813 
L 372.209063 98.604813 
" style="fill:none;stroke:#d62728;stroke-linecap:square;stroke-width:1.5;"/>
    </g>
    <g id="line2d_34"/>
    <g id="text_15">
     <!-- DRy -->
     <defs>
      <path d="M 19.671875 64.796875 
L 19.671875 8.109375 
L 31.59375 8.109375 
Q 46.6875 8.109375 53.6875 14.9375 
Q 60.6875 21.78125 60.6875 36.53125 
Q 60.6875 51.171875 53.6875 57.984375 
Q 46.6875 64.796875 31.59375 64.796875 
z
M 9.8125 72.90625 
L 30.078125 72.90625 
Q 51.265625 72.90625 61.171875 64.09375 
Q 71.09375 55.28125 71.09375 36.53125 
Q 71.09375 17.671875 61.125 8.828125 
Q 51.171875 0 30.078125 0 
L 9.8125 0 
z
" id="DejaVuSans-44"/>
     </defs>
     <g transform="translate(380.209063 102.104813)scale(0.1 -0.1)">
      <use xlink:href="#DejaVuSans-44"/>
      <use x="77.001953" xlink:href="#DejaVuSans-52"/>
      <use x="146.40625" xlink:href="#DejaVuSans-79"/>
     </g>
    </g>
   </g>
  </g>
 </g>
 <defs>
  <clipPath id="pe673677e8c">
   <rect height="266.112" width="357.12" x="57.6" y="41.472"/>
  </clipPath>
 </defs>
</svg>
