<?xml version="1.0" encoding="utf-8" standalone="no"?>
<!DOCTYPE svg PUBLIC "-//W3C//DTD SVG 1.1//EN"
  "http://www.w3.org/Graphics/SVG/1.1/DTD/svg11.dtd">
<!-- Created with matplotlib (http://matplotlib.org/) -->
<svg height="345pt" version="1.1" viewBox="0 0 460 345" width="460pt" xmlns="http://www.w3.org/2000/svg" xmlns:xlink="http://www.w3.org/1999/xlink">
 <defs>
  <style type="text/css">
*{stroke-linecap:butt;stroke-linejoin:round;}
  </style>
 </defs>
 <g id="figure_1">
  <g id="patch_1">
   <path d="M 0 345.6 
L 460.8 345.6 
L 460.8 0 
L 0 0 
z
" style="fill:#ffffff;"/>
  </g>
  <g id="axes_1">
   <g id="patch_2">
    <path d="M 57.6 307.584 
L 414.72 307.584 
L 414.72 41.472 
L 57.6 41.472 
z
" style="fill:#ffffff;"/>
   </g>
   <g id="matplotlib.axis_1">
    <g id="xtick_1">
     <g id="line2d_1">
      <path clip-path="url(#pe35bf363c1)" d="M 64.620394 307.584 
L 64.620394 41.472 
" style="fill:none;stroke:#b0b0b0;stroke-linecap:square;stroke-width:0.8;"/>
     </g>
     <g id="line2d_2">
      <defs>
       <path d="M 0 0 
L 0 3.5 
" id="mfb1be2c1ad" style="stroke:#000000;stroke-width:0.8;"/>
      </defs>
      <g>
       <use style="stroke:#000000;stroke-width:0.8;" x="64.620394" xlink:href="#mfb1be2c1ad" y="307.584"/>
      </g>
     </g>
     <g id="text_1">
      <!-- −8 -->
      <defs>
       <path d="M 10.59375 35.5 
L 73.1875 35.5 
L 73.1875 27.203125 
L 10.59375 27.203125 
z
" id="DejaVuSans-2212"/>
       <path d="M 31.78125 34.625 
Q 24.75 34.625 20.71875 30.859375 
Q 16.703125 27.09375 16.703125 20.515625 
Q 16.703125 13.921875 20.71875 10.15625 
Q 24.75 6.390625 31.78125 6.390625 
Q 38.8125 6.390625 42.859375 10.171875 
Q 46.921875 13.96875 46.921875 20.515625 
Q 46.921875 27.09375 42.890625 30.859375 
Q 38.875 34.625 31.78125 34.625 
z
M 21.921875 38.8125 
Q 15.578125 40.375 12.03125 44.71875 
Q 8.5 49.078125 8.5 55.328125 
Q 8.5 64.0625 14.71875 69.140625 
Q 20.953125 74.21875 31.78125 74.21875 
Q 42.671875 74.21875 48.875 69.140625 
Q 55.078125 64.0625 55.078125 55.328125 
Q 55.078125 49.078125 51.53125 44.71875 
Q 48 40.375 41.703125 38.8125 
Q 48.828125 37.15625 52.796875 32.3125 
Q 56.78125 27.484375 56.78125 20.515625 
Q 56.78125 9.90625 50.3125 4.234375 
Q 43.84375 -1.421875 31.78125 -1.421875 
Q 19.734375 -1.421875 13.25 4.234375 
Q 6.78125 9.90625 6.78125 20.515625 
Q 6.78125 27.484375 10.78125 32.3125 
Q 14.796875 37.15625 21.921875 38.8125 
z
M 18.3125 54.390625 
Q 18.3125 48.734375 21.84375 45.5625 
Q 25.390625 42.390625 31.78125 42.390625 
Q 38.140625 42.390625 41.71875 45.5625 
Q 45.3125 48.734375 45.3125 54.390625 
Q 45.3125 60.0625 41.71875 63.234375 
Q 38.140625 66.40625 31.78125 66.40625 
Q 25.390625 66.40625 21.84375 63.234375 
Q 18.3125 60.0625 18.3125 54.390625 
z
" id="DejaVuSans-38"/>
      </defs>
      <g transform="translate(57.2493 322.182437)scale(0.1 -0.1)">
       <use xlink:href="#DejaVuSans-2212"/>
       <use x="83.789062" xlink:href="#DejaVuSans-38"/>
      </g>
     </g>
    </g>
    <g id="xtick_2">
     <g id="line2d_3">
      <path clip-path="url(#pe35bf363c1)" d="M 109.091121 307.584 
L 109.091121 41.472 
" style="fill:none;stroke:#b0b0b0;stroke-linecap:square;stroke-width:0.8;"/>
     </g>
     <g id="line2d_4">
      <g>
       <use style="stroke:#000000;stroke-width:0.8;" x="109.091121" xlink:href="#mfb1be2c1ad" y="307.584"/>
      </g>
     </g>
     <g id="text_2">
      <!-- −6 -->
      <defs>
       <path d="M 33.015625 40.375 
Q 26.375 40.375 22.484375 35.828125 
Q 18.609375 31.296875 18.609375 23.390625 
Q 18.609375 15.53125 22.484375 10.953125 
Q 26.375 6.390625 33.015625 6.390625 
Q 39.65625 6.390625 43.53125 10.953125 
Q 47.40625 15.53125 47.40625 23.390625 
Q 47.40625 31.296875 43.53125 35.828125 
Q 39.65625 40.375 33.015625 40.375 
z
M 52.59375 71.296875 
L 52.59375 62.3125 
Q 48.875 64.0625 45.09375 64.984375 
Q 41.3125 65.921875 37.59375 65.921875 
Q 27.828125 65.921875 22.671875 59.328125 
Q 17.53125 52.734375 16.796875 39.40625 
Q 19.671875 43.65625 24.015625 45.921875 
Q 28.375 48.1875 33.59375 48.1875 
Q 44.578125 48.1875 50.953125 41.515625 
Q 57.328125 34.859375 57.328125 23.390625 
Q 57.328125 12.15625 50.6875 5.359375 
Q 44.046875 -1.421875 33.015625 -1.421875 
Q 20.359375 -1.421875 13.671875 8.265625 
Q 6.984375 17.96875 6.984375 36.375 
Q 6.984375 53.65625 15.1875 63.9375 
Q 23.390625 74.21875 37.203125 74.21875 
Q 40.921875 74.21875 44.703125 73.484375 
Q 48.484375 72.75 52.59375 71.296875 
z
" id="DejaVuSans-36"/>
      </defs>
      <g transform="translate(101.720028 322.182437)scale(0.1 -0.1)">
       <use xlink:href="#DejaVuSans-2212"/>
       <use x="83.789062" xlink:href="#DejaVuSans-36"/>
      </g>
     </g>
    </g>
    <g id="xtick_3">
     <g id="line2d_5">
      <path clip-path="url(#pe35bf363c1)" d="M 153.561849 307.584 
L 153.561849 41.472 
" style="fill:none;stroke:#b0b0b0;stroke-linecap:square;stroke-width:0.8;"/>
     </g>
     <g id="line2d_6">
      <g>
       <use style="stroke:#000000;stroke-width:0.8;" x="153.561849" xlink:href="#mfb1be2c1ad" y="307.584"/>
      </g>
     </g>
     <g id="text_3">
      <!-- −4 -->
      <defs>
       <path d="M 37.796875 64.3125 
L 12.890625 25.390625 
L 37.796875 25.390625 
z
M 35.203125 72.90625 
L 47.609375 72.90625 
L 47.609375 25.390625 
L 58.015625 25.390625 
L 58.015625 17.1875 
L 47.609375 17.1875 
L 47.609375 0 
L 37.796875 0 
L 37.796875 17.1875 
L 4.890625 17.1875 
L 4.890625 26.703125 
z
" id="DejaVuSans-34"/>
      </defs>
      <g transform="translate(146.190755 322.182437)scale(0.1 -0.1)">
       <use xlink:href="#DejaVuSans-2212"/>
       <use x="83.789062" xlink:href="#DejaVuSans-34"/>
      </g>
     </g>
    </g>
    <g id="xtick_4">
     <g id="line2d_7">
      <path clip-path="url(#pe35bf363c1)" d="M 198.032577 307.584 
L 198.032577 41.472 
" style="fill:none;stroke:#b0b0b0;stroke-linecap:square;stroke-width:0.8;"/>
     </g>
     <g id="line2d_8">
      <g>
       <use style="stroke:#000000;stroke-width:0.8;" x="198.032577" xlink:href="#mfb1be2c1ad" y="307.584"/>
      </g>
     </g>
     <g id="text_4">
      <!-- −2 -->
      <defs>
       <path d="M 19.1875 8.296875 
L 53.609375 8.296875 
L 53.609375 0 
L 7.328125 0 
L 7.328125 8.296875 
Q 12.9375 14.109375 22.625 23.890625 
Q 32.328125 33.6875 34.8125 36.53125 
Q 39.546875 41.84375 41.421875 45.53125 
Q 43.3125 49.21875 43.3125 52.78125 
Q 43.3125 58.59375 39.234375 62.25 
Q 35.15625 65.921875 28.609375 65.921875 
Q 23.96875 65.921875 18.8125 64.3125 
Q 13.671875 62.703125 7.8125 59.421875 
L 7.8125 69.390625 
Q 13.765625 71.78125 18.9375 73 
Q 24.125 74.21875 28.421875 74.21875 
Q 39.75 74.21875 46.484375 68.546875 
Q 53.21875 62.890625 53.21875 53.421875 
Q 53.21875 48.921875 51.53125 44.890625 
Q 49.859375 40.875 45.40625 35.40625 
Q 44.1875 33.984375 37.640625 27.21875 
Q 31.109375 20.453125 19.1875 8.296875 
z
" id="DejaVuSans-32"/>
      </defs>
      <g transform="translate(190.661483 322.182437)scale(0.1 -0.1)">
       <use xlink:href="#DejaVuSans-2212"/>
       <use x="83.789062" xlink:href="#DejaVuSans-32"/>
      </g>
     </g>
    </g>
    <g id="xtick_5">
     <g id="line2d_9">
      <path clip-path="url(#pe35bf363c1)" d="M 242.503305 307.584 
L 242.503305 41.472 
" style="fill:none;stroke:#b0b0b0;stroke-linecap:square;stroke-width:0.8;"/>
     </g>
     <g id="line2d_10">
      <g>
       <use style="stroke:#000000;stroke-width:0.8;" x="242.503305" xlink:href="#mfb1be2c1ad" y="307.584"/>
      </g>
     </g>
     <g id="text_5">
      <!-- 0 -->
      <defs>
       <path d="M 31.78125 66.40625 
Q 24.171875 66.40625 20.328125 58.90625 
Q 16.5 51.421875 16.5 36.375 
Q 16.5 21.390625 20.328125 13.890625 
Q 24.171875 6.390625 31.78125 6.390625 
Q 39.453125 6.390625 43.28125 13.890625 
Q 47.125 21.390625 47.125 36.375 
Q 47.125 51.421875 43.28125 58.90625 
Q 39.453125 66.40625 31.78125 66.40625 
z
M 31.78125 74.21875 
Q 44.046875 74.21875 50.515625 64.515625 
Q 56.984375 54.828125 56.984375 36.375 
Q 56.984375 17.96875 50.515625 8.265625 
Q 44.046875 -1.421875 31.78125 -1.421875 
Q 19.53125 -1.421875 13.0625 8.265625 
Q 6.59375 17.96875 6.59375 36.375 
Q 6.59375 54.828125 13.0625 64.515625 
Q 19.53125 74.21875 31.78125 74.21875 
z
" id="DejaVuSans-30"/>
      </defs>
      <g transform="translate(239.322055 322.182437)scale(0.1 -0.1)">
       <use xlink:href="#DejaVuSans-30"/>
      </g>
     </g>
    </g>
    <g id="xtick_6">
     <g id="line2d_11">
      <path clip-path="url(#pe35bf363c1)" d="M 286.974032 307.584 
L 286.974032 41.472 
" style="fill:none;stroke:#b0b0b0;stroke-linecap:square;stroke-width:0.8;"/>
     </g>
     <g id="line2d_12">
      <g>
       <use style="stroke:#000000;stroke-width:0.8;" x="286.974032" xlink:href="#mfb1be2c1ad" y="307.584"/>
      </g>
     </g>
     <g id="text_6">
      <!-- 2 -->
      <g transform="translate(283.792782 322.182437)scale(0.1 -0.1)">
       <use xlink:href="#DejaVuSans-32"/>
      </g>
     </g>
    </g>
    <g id="xtick_7">
     <g id="line2d_13">
      <path clip-path="url(#pe35bf363c1)" d="M 331.44476 307.584 
L 331.44476 41.472 
" style="fill:none;stroke:#b0b0b0;stroke-linecap:square;stroke-width:0.8;"/>
     </g>
     <g id="line2d_14">
      <g>
       <use style="stroke:#000000;stroke-width:0.8;" x="331.44476" xlink:href="#mfb1be2c1ad" y="307.584"/>
      </g>
     </g>
     <g id="text_7">
      <!-- 4 -->
      <g transform="translate(328.26351 322.182437)scale(0.1 -0.1)">
       <use xlink:href="#DejaVuSans-34"/>
      </g>
     </g>
    </g>
    <g id="xtick_8">
     <g id="line2d_15">
      <path clip-path="url(#pe35bf363c1)" d="M 375.915488 307.584 
L 375.915488 41.472 
" style="fill:none;stroke:#b0b0b0;stroke-linecap:square;stroke-width:0.8;"/>
     </g>
     <g id="line2d_16">
      <g>
       <use style="stroke:#000000;stroke-width:0.8;" x="375.915488" xlink:href="#mfb1be2c1ad" y="307.584"/>
      </g>
     </g>
     <g id="text_8">
      <!-- 6 -->
      <g transform="translate(372.734238 322.182437)scale(0.1 -0.1)">
       <use xlink:href="#DejaVuSans-36"/>
      </g>
     </g>
    </g>
   </g>
   <g id="matplotlib.axis_2">
    <g id="ytick_1">
     <g id="line2d_17">
      <path clip-path="url(#pe35bf363c1)" d="M 57.6 298.51869 
L 414.72 298.51869 
" style="fill:none;stroke:#b0b0b0;stroke-linecap:square;stroke-width:0.8;"/>
     </g>
     <g id="line2d_18">
      <defs>
       <path d="M 0 0 
L -3.5 0 
" id="mb4d4163ea5" style="stroke:#000000;stroke-width:0.8;"/>
      </defs>
      <g>
       <use style="stroke:#000000;stroke-width:0.8;" x="57.6" xlink:href="#mb4d4163ea5" y="298.51869"/>
      </g>
     </g>
     <g id="text_9">
      <!-- −3 -->
      <defs>
       <path d="M 40.578125 39.3125 
Q 47.65625 37.796875 51.625 33 
Q 55.609375 28.21875 55.609375 21.1875 
Q 55.609375 10.40625 48.1875 4.484375 
Q 40.765625 -1.421875 27.09375 -1.421875 
Q 22.515625 -1.421875 17.65625 -0.515625 
Q 12.796875 0.390625 7.625 2.203125 
L 7.625 11.71875 
Q 11.71875 9.328125 16.59375 8.109375 
Q 21.484375 6.890625 26.8125 6.890625 
Q 36.078125 6.890625 40.9375 10.546875 
Q 45.796875 14.203125 45.796875 21.1875 
Q 45.796875 27.640625 41.28125 31.265625 
Q 36.765625 34.90625 28.71875 34.90625 
L 20.21875 34.90625 
L 20.21875 43.015625 
L 29.109375 43.015625 
Q 36.375 43.015625 40.234375 45.921875 
Q 44.09375 48.828125 44.09375 54.296875 
Q 44.09375 59.90625 40.109375 62.90625 
Q 36.140625 65.921875 28.71875 65.921875 
Q 24.65625 65.921875 20.015625 65.03125 
Q 15.375 64.15625 9.8125 62.3125 
L 9.8125 71.09375 
Q 15.4375 72.65625 20.34375 73.4375 
Q 25.25 74.21875 29.59375 74.21875 
Q 40.828125 74.21875 47.359375 69.109375 
Q 53.90625 64.015625 53.90625 55.328125 
Q 53.90625 49.265625 50.4375 45.09375 
Q 46.96875 40.921875 40.578125 39.3125 
z
" id="DejaVuSans-33"/>
      </defs>
      <g transform="translate(35.857813 302.317908)scale(0.1 -0.1)">
       <use xlink:href="#DejaVuSans-2212"/>
       <use x="83.789062" xlink:href="#DejaVuSans-33"/>
      </g>
     </g>
    </g>
    <g id="ytick_2">
     <g id="line2d_19">
      <path clip-path="url(#pe35bf363c1)" d="M 57.6 260.237907 
L 414.72 260.237907 
" style="fill:none;stroke:#b0b0b0;stroke-linecap:square;stroke-width:0.8;"/>
     </g>
     <g id="line2d_20">
      <g>
       <use style="stroke:#000000;stroke-width:0.8;" x="57.6" xlink:href="#mb4d4163ea5" y="260.237907"/>
      </g>
     </g>
     <g id="text_10">
      <!-- −2 -->
      <g transform="translate(35.857813 264.037126)scale(0.1 -0.1)">
       <use xlink:href="#DejaVuSans-2212"/>
       <use x="83.789062" xlink:href="#DejaVuSans-32"/>
      </g>
     </g>
    </g>
    <g id="ytick_3">
     <g id="line2d_21">
      <path clip-path="url(#pe35bf363c1)" d="M 57.6 221.957124 
L 414.72 221.957124 
" style="fill:none;stroke:#b0b0b0;stroke-linecap:square;stroke-width:0.8;"/>
     </g>
     <g id="line2d_22">
      <g>
       <use style="stroke:#000000;stroke-width:0.8;" x="57.6" xlink:href="#mb4d4163ea5" y="221.957124"/>
      </g>
     </g>
     <g id="text_11">
      <!-- −1 -->
      <defs>
       <path d="M 12.40625 8.296875 
L 28.515625 8.296875 
L 28.515625 63.921875 
L 10.984375 60.40625 
L 10.984375 69.390625 
L 28.421875 72.90625 
L 38.28125 72.90625 
L 38.28125 8.296875 
L 54.390625 8.296875 
L 54.390625 0 
L 12.40625 0 
z
" id="DejaVuSans-31"/>
      </defs>
      <g transform="translate(35.857813 225.756343)scale(0.1 -0.1)">
       <use xlink:href="#DejaVuSans-2212"/>
       <use x="83.789062" xlink:href="#DejaVuSans-31"/>
      </g>
     </g>
    </g>
    <g id="ytick_4">
     <g id="line2d_23">
      <path clip-path="url(#pe35bf363c1)" d="M 57.6 183.676341 
L 414.72 183.676341 
" style="fill:none;stroke:#b0b0b0;stroke-linecap:square;stroke-width:0.8;"/>
     </g>
     <g id="line2d_24">
      <g>
       <use style="stroke:#000000;stroke-width:0.8;" x="57.6" xlink:href="#mb4d4163ea5" y="183.676341"/>
      </g>
     </g>
     <g id="text_12">
      <!-- 0 -->
      <g transform="translate(44.2375 187.47556)scale(0.1 -0.1)">
       <use xlink:href="#DejaVuSans-30"/>
      </g>
     </g>
    </g>
    <g id="ytick_5">
     <g id="line2d_25">
      <path clip-path="url(#pe35bf363c1)" d="M 57.6 145.395559 
L 414.72 145.395559 
" style="fill:none;stroke:#b0b0b0;stroke-linecap:square;stroke-width:0.8;"/>
     </g>
     <g id="line2d_26">
      <g>
       <use style="stroke:#000000;stroke-width:0.8;" x="57.6" xlink:href="#mb4d4163ea5" y="145.395559"/>
      </g>
     </g>
     <g id="text_13">
      <!-- 1 -->
      <g transform="translate(44.2375 149.194777)scale(0.1 -0.1)">
       <use xlink:href="#DejaVuSans-31"/>
      </g>
     </g>
    </g>
    <g id="ytick_6">
     <g id="line2d_27">
      <path clip-path="url(#pe35bf363c1)" d="M 57.6 107.114776 
L 414.72 107.114776 
" style="fill:none;stroke:#b0b0b0;stroke-linecap:square;stroke-width:0.8;"/>
     </g>
     <g id="line2d_28">
      <g>
       <use style="stroke:#000000;stroke-width:0.8;" x="57.6" xlink:href="#mb4d4163ea5" y="107.114776"/>
      </g>
     </g>
     <g id="text_14">
      <!-- 2 -->
      <g transform="translate(44.2375 110.913995)scale(0.1 -0.1)">
       <use xlink:href="#DejaVuSans-32"/>
      </g>
     </g>
    </g>
    <g id="ytick_7">
     <g id="line2d_29">
      <path clip-path="url(#pe35bf363c1)" d="M 57.6 68.833993 
L 414.72 68.833993 
" style="fill:none;stroke:#b0b0b0;stroke-linecap:square;stroke-width:0.8;"/>
     </g>
     <g id="line2d_30">
      <g>
       <use style="stroke:#000000;stroke-width:0.8;" x="57.6" xlink:href="#mb4d4163ea5" y="68.833993"/>
      </g>
     </g>
     <g id="text_15">
      <!-- 3 -->
      <g transform="translate(44.2375 72.633212)scale(0.1 -0.1)">
       <use xlink:href="#DejaVuSans-33"/>
      </g>
     </g>
    </g>
   </g>
   <g id="line2d_31">
    <path clip-path="url(#pe35bf363c1)" d="M 81.238882 53.568 
L 82.229468 58.053359 
L 84.471459 58.824334 
L 85.690624 60.82374 
L 90.58574 61.678167 
L 92.339665 62.794817 
L 93.917709 64.750582 
L 96.006722 65.765406 
L 97.806007 67.029054 
L 100.109813 68.246766 
L 104.798807 69.639038 
L 106.252332 70.884695 
L 108.236839 72.416692 
L 110.243358 72.98363 
L 111.800945 74.386621 
L 113.369428 75.413694 
L 115.282558 77.141689 
L 116.347855 78.388877 
L 118.240307 79.793781 
L 119.777437 80.626388 
L 122.370081 81.511057 
L 123.918774 82.684363 
L 125.821899 83.725983 
L 127.985622 84.218657 
L 130.723462 84.686831 
L 133.949146 84.657738 
L 136.297868 85.256832 
L 137.684243 86.007518 
L 139.883765 86.602784 
L 142.847072 87.134504 
L 145.20869 87.441516 
L 146.627306 88.035634 
L 150.196972 89.302728 
L 151.91621 89.478054 
L 153.627221 90.187014 
L 155.892115 90.740554 
L 157.71875 91.465592 
L 159.795756 91.909649 
L 161.781151 92.461658 
L 164.505206 92.56004 
L 170.242374 91.957883 
L 172.981771 91.938743 
L 178.394304 93.233781 
L 179.394005 94.073662 
L 180.877549 94.65017 
L 182.271484 94.963307 
L 186.432165 95.535605 
L 188.050233 96.097567 
L 190.065201 96.579139 
L 194.250119 96.937447 
L 197.269904 96.922135 
L 201.862618 97.364278 
L 202.72535 97.212303 
L 206.474455 96.932853 
L 211.62839 97.587455 
L 215.711025 98.071324 
L 217.069828 98.025387 
L 220.518733 98.132573 
L 221.297838 97.94538 
L 225.636047 98.40207 
L 227.654751 98.357281 
L 228.34974 97.778859 
L 232.385903 98.108456 
L 233.916963 98.643239 
L 234.684528 97.740578 
L 237.14934 97.961841 
L 239.264702 97.97256 
L 245.595043 97.208092 
L 247.149073 96.684411 
L 249.278665 96.706614 
L 251.744744 96.460469 
L 253.142482 95.777922 
L 255.188869 95.294436 
L 257.630134 95.204476 
L 261.531151 95.499238 
L 265.092878 96.196331 
L 267.116518 96.409172 
L 269.436556 96.267916 
L 273.032014 96.483437 
L 275.935731 96.254135 
L 278.710037 96.273658 
L 281.220187 95.980428 
L 283.660963 95.874773 
L 285.86849 95.210984 
L 293.103877 94.009733 
L 295.281387 93.375803 
L 296.899454 92.221638 
L 299.541682 91.572778 
L 303.028187 91.784088 
L 305.482749 89.157644 
L 307.766321 88.192968 
L 314.378896 86.599722 
L 316.137046 85.31387 
L 317.552327 83.962941 
L 319.732282 83.382222 
L 322.137037 82.865431 
L 324.668088 81.963919 
L 335.082466 79.219952 
L 337.267535 79.183969 
L 339.680072 79.562948 
L 345.229574 78.100622 
L 349.183911 77.90118 
L 382.562972 68.871509 
L 387.584162 69.026928 
L 387.911911 68.953812 
L 389.31474 69.391744 
L 390.005593 69.324753 
L 391.444221 70.073142 
L 391.311254 70.018401 
L 391.68592 70.356803 
L 391.244325 69.987011 
L 391.11158 70.03601 
L 391.420207 70.11372 
L 391.905827 70.422646 
L 392.754774 71.605522 
L 393.097643 71.869277 
L 392.469716 72.036564 
L 393.134554 72.540339 
L 392.079486 72.099344 
L 391.165167 72.48866 
L 390.837418 72.565604 
L 389.922433 72.499378 
L 388.735732 72.298021 
L 387.963497 72.402145 
L 386.178665 72.938459 
L 385.387086 73.038755 
L 379.313941 74.961598 
L 377.820391 75.82751 
L 377.041931 76.750076 
L 375.675791 77.658097 
L 373.780226 78.307339 
L 368.96538 80.606482 
L 366.695149 81.000775 
L 365.169804 81.647337 
L 357.573314 84.245071 
L 351.462591 86.058432 
L 346.305988 86.650252 
L 329.49294 90.458807 
L 326.829143 90.946122 
L 324.660306 91.622543 
L 317.98436 92.530946 
L 315.713907 93.098267 
L 313.754527 93.437052 
L 311.630383 93.932789 
L 308.919892 94.229465 
L 303.716594 95.437989 
L 296.016043 96.938978 
L 292.707643 97.519315 
L 290.668883 98.163963 
L 288.973436 98.297563 
L 287.552819 98.598068 
L 286.018579 99.155436 
L 281.344705 100.226915 
L 278.87191 100.513638 
L 277.228495 100.840939 
L 271.656757 101.505876 
L 265.950273 102.912695 
L 261.234975 104.291951 
L 257.027622 106.159288 
L 255.602113 106.65311 
L 249.259765 109.424638 
L 248.836648 109.987749 
L 247.794521 111.009463 
L 244.9777 112.634482 
L 241.579132 114.867017 
L 239.773736 115.215755 
L 237.829342 116.646308 
L 234.95531 118.929757 
L 229.588716 124.073928 
L 229.037524 124.055171 
L 228.277786 124.873997 
L 227.310859 124.525642 
L 226.462135 125.390787 
L 225.933534 125.685167 
L 225.806192 125.32571 
L 224.951887 126.300339 
L 224.874308 126.333643 
L 224.406476 126.975612 
L 223.238585 127.034947 
L 222.073386 127.720556 
L 221.636905 127.612987 
L 221.406992 127.940287 
L 220.692681 128.349126 
L 220.60554 128.21055 
L 220.145202 128.877401 
L 219.579756 128.911088 
L 218.246746 130.035777 
L 217.711319 130.605778 
L 217.661511 130.854603 
L 216.844362 131.749225 
L 216.989559 131.589594 
L 216.644021 131.630555 
L 217.520317 130.537639 
L 217.225031 130.512373 
L 216.948646 130.623388 
L 217.860518 130.258189 
L 217.136534 130.445382 
L 216.585987 130.636403 
L 216.882607 130.622622 
L 216.434564 130.935759 
L 216.783437 130.830104 
L 216.780102 130.853072 
L 216.885497 130.623388 
L 217.798259 129.438597 
L 217.7927 129.28088 
L 218.169367 128.862089 
L 219.166846 128.027568 
L 221.705279 125.881547 
L 221.665545 125.687846 
L 222.466707 124.70403 
L 223.21297 123.567856 
L 223.141417 123.168971 
L 223.702726 122.611602 
L 223.682314 122.330239 
L 224.24309 121.560795 
L 225.605985 120.673446 
L 225.306741 120.412754 
L 224.414769 119.487508 
L 223.957966 118.471536 
L 223.832069 117.426853 
L 224.172426 117.114099 
L 226.165293 116.114971 
L 225.573343 115.119288 
L 226.035372 114.543928 
L 227.916572 113.60758 
L 227.54333 111.971076 
L 228.844988 111.135024 
L 227.947613 109.823907 
L 232.825318 107.570317 
L 232.568766 106.260732 
L 233.509433 104.720696 
L 232.764104 103.621272 
L 233.614918 102.077791 
L 233.999968 100.653363 
L 234.792103 99.256114 
L 234.861121 96.734942 
L 238.642667 93.843211 
L 238.343513 92.520228 
L 238.382091 91.259641 
L 238.784396 90.457659 
L 239.726286 89.705442 
L 240.928994 89.365508 
L 240.928994 89.365508 
L 240.912962 88.978107 
L 240.066509 88.18646 
L 240.066509 88.18646 
L 240.766318 88.330779 
L 240.446162 89.081848 
L 241.27183 89.259088 
L 241.27183 89.259088 
L 241.453618 89.621607 
L 241.453618 89.621607 
L 240.812799 91.178486 
L 239.807289 92.127467 
L 239.807934 92.445197 
L 238.268557 95.976982 
L 237.724347 97.12464 
L 237.065535 98.009692 
L 237.409138 99.388948 
L 236.489172 101.116943 
L 235.331488 101.49286 
L 232.678831 104.169835 
L 232.14416 105.217198 
L 231.863327 106.44448 
L 231.068924 107.596348 
L 230.455984 108.997042 
L 229.259544 110.270644 
L 227.949881 113.527956 
L 227.911747 114.875822 
L 227.321665 117.376705 
L 228.866267 118.213141 
L 227.12715 120.224796 
L 224.884914 122.450823 
L 223.757159 124.756858 
L 222.349971 128.417649 
L 222.161237 130.318672 
L 221.783459 132.34564 
L 223.084561 136.07036 
L 221.631769 138.02536 
L 222.008614 139.839486 
L 222.002388 141.724814 
L 221.170096 145.915527 
L 221.044622 148.12739 
L 220.583661 150.004795 
L 220.627175 152.093815 
L 220.338071 155.88568 
L 219.914176 158.457842 
L 219.469246 159.940955 
L 219.591763 161.539981 
L 219.388532 163.618513 
L 217.561675 165.14094 
L 217.085171 167.208332 
L 216.94153 168.946088 
L 215.655215 171.360227 
L 215.663886 179.019637 
L 216.192866 180.324086 
L 216.269133 186.955711 
L 216.000974 189.737682 
L 215.316348 190.998192 
L 214.81961 192.247217 
L 214.264392 194.514282 
L 213.946427 194.841736 
L 213.879054 195.159887 
L 212.707917 194.295584 
L 212.936052 194.688919 
L 212.982301 194.399784 
L 213.60756 194.002583 
L 212.898474 193.215262 
L 212.967181 192.690088 
L 213.180196 192.794671 
L 213.017878 194.158347 
L 213.821686 194.238622 
L 213.986006 195.277639 
L 213.832582 195.737047 
L 213.789 196.35375 
L 213.35252 198.055752 
L 213.262689 199.781067 
L 212.890025 201.054209 
L 212.836215 201.377146 
L 212.8291 202.722983 
L 213.330507 203.828494 
L 213.698502 203.832513 
L 213.936643 207.091012 
L 213.346961 208.741641 
L 213.466365 211.092004 
L 213.117715 212.608077 
L 211.585031 214.621186 
L 209.921159 215.883725 
L 208.601935 219.940952 
L 209.291453 222.641202 
L 208.738238 223.984092 
L 210.779666 234.642993 
L 210.700064 237.132775 
L 210.993126 241.056555 
L 210.004319 242.343172 
L 210.091037 244.302765 
L 210.520624 247.561991 
L 210.803013 253.559824 
L 210.413672 259.461955 
L 210.447692 260.619566 
L 210.472818 261.68492 
L 211.093407 263.121598 
L 210.513954 264.844616 
L 210.221336 266.698555 
L 210.078808 267.035808 
L 210.006987 268.090444 
L 210.254467 268.971285 
L 209.635212 271.346224 
L 209.615645 272.032982 
L 209.460887 272.825394 
L 209.405965 272.801277 
L 209.213407 273.409176 
L 209.464667 274.345524 
L 209.158708 274.441991 
L 209.158708 274.441991 
L 209.174495 274.197377 
L 209.029965 274.447733 
L 209.029965 274.447733 
" style="fill:none;stroke:#1f77b4;stroke-linecap:square;stroke-width:1.5;"/>
   </g>
   <g id="line2d_32">
    <path clip-path="url(#pe35bf363c1)" d="M 81.238882 53.568 
L 92.691429 57.714192 
L 106.573189 62.467899 
L 123.956129 68.17097 
L 139.107973 72.884866 
L 154.099945 77.302468 
L 168.890464 81.420332 
L 183.066843 85.12438 
L 194.884272 87.985869 
L 214.221034 92.36519 
L 228.489422 95.442965 
L 240.526979 97.788046 
L 250.51624 99.481205 
L 258.487374 100.604363 
L 265.225845 101.361174 
L 273.802692 102.062096 
L 280.784596 102.396287 
L 288.167404 102.529121 
L 295.333862 102.438396 
L 302.860088 102.113392 
L 309.843104 101.602726 
L 319.04054 100.682456 
L 332.371085 99.073132 
L 354.895954 96.073833 
L 374.333219 93.295796 
L 398.487273 89.592513 
L 375.417638 93.032425 
L 359.654322 95.144375 
L 344.10402 97.004439 
L 327.080848 98.80976 
L 307.792781 100.609723 
L 293.239291 101.795661 
L 268.247409 103.641178 
L 263.424581 104.305732 
L 258.0424 105.319025 
L 253.504407 106.445245 
L 250.23125 107.455858 
L 246.923339 108.688116 
L 244.13339 109.9265 
L 240.763925 111.683205 
L 237.533879 113.637056 
L 233.855949 116.199571 
L 230.747779 118.671362 
L 227.563653 121.500694 
L 224.316823 124.732741 
L 224.316823 124.732741 
L 221.11393 128.279455 
L 218.325015 131.698312 
L 223.009183 125.8915 
L 227.569478 120.16125 
L 231.094495 115.401417 
L 234.017667 111.098274 
L 236.551409 107.046253 
L 239.769756 101.407877 
L 242.572585 95.988849 
L 245.524779 89.713863 
L 246.694648 87.048755 
L 237.322265 108.410963 
L 233.445062 117.738842 
L 230.456318 125.480747 
L 228.25604 131.72128 
L 226.395673 137.54685 
L 224.621225 143.73647 
L 222.975074 150.262042 
L 221.581539 156.662665 
L 220.259047 163.815238 
L 219.175962 171.10321 
L 218.349918 178.17057 
L 217.588357 186.847303 
L 216.885052 197.9184 
L 216.997341 195.76859 
L 216.01854 216.214433 
L 215.006609 243.372925 
L 213.195094 293.439595 
L 213.195094 293.439595 
" style="fill:none;stroke:#ff7f0e;stroke-linecap:square;stroke-width:1.5;"/>
   </g>
   <g id="line2d_33">
    <path clip-path="url(#pe35bf363c1)" d="M 73.832727 73.694504 
L 83.187145 76.355019 
L 99.446977 80.737403 
L 108.655086 83.084398 
L 113.237794 84.091182 
L 126.546549 87.298346 
L 148.018573 92.048226 
L 156.419983 93.682049 
L 166.807011 95.481246 
L 178.940849 97.533096 
L 184.906597 98.590794 
L 202.535238 101.139146 
L 224.74721 104.126961 
L 240.703703 105.761933 
L 248.670105 106.218623 
L 259.322067 106.309348 
L 266.379638 106.147038 
L 273.807806 105.761933 
L 278.786082 105.390227 
L 293.393604 103.551984 
L 303.079996 102.069752 
L 314.741999 99.987277 
L 319.197522 99.024515 
L 328.024739 97.266279 
L 330.302307 96.767863 
L 334.684675 96.077278 
L 338.898276 95.122555 
L 343.005148 94.320956 
L 358.436268 91.402812 
L 370.647485 89.434414 
L 373.904744 88.962412 
L 381.567273 87.642107 
L 393.37603 85.39426 
L 395.182653 84.922641 
L 395.037901 84.86522 
L 395.01989 84.809712 
L 394.911604 85.110982 
L 394.035531 85.48154 
L 392.517967 85.912199 
L 386.659838 87.286862 
L 377.003687 89.382352 
L 371.219601 90.515463 
L 355.294634 93.325655 
L 348.840152 94.33244 
L 332.189645 97.001759 
L 324.717228 98.217557 
L 320.162092 98.924985 
L 313.721396 100.131978 
L 297.858465 102.604534 
L 290.549256 103.31694 
L 279.537415 104.612744 
L 265.271872 105.856487 
L 262.25102 106.189147 
L 257.416363 106.976582 
L 250.728811 108.842005 
L 247.500769 109.929945 
L 243.044627 111.780438 
L 239.073211 113.783288 
L 235.600492 115.830545 
L 232.689927 117.937519 
L 230.22825 119.946112 
L 224.567593 125.318437 
L 221.130206 128.955111 
L 215.325686 135.269526 
L 215.969623 134.374139 
L 215.90892 134.282265 
L 215.93916 134.124165 
L 216.33873 133.561055 
L 221.63546 127.245491 
L 225.545793 122.037391 
L 229.889716 115.89256 
L 234.227903 109.166626 
L 237.430951 103.628545 
L 241.675184 95.632072 
L 243.630295 91.538326 
L 244.390989 89.808417 
L 242.339911 94.83277 
L 240.829513 98.449155 
L 237.488318 105.539139 
L 235.166635 110.604452 
L 227.291181 129.200874 
L 224.454326 137.047286 
L 221.127315 147.000404 
L 219.900835 151.170368 
L 218.221843 157.744748 
L 216.85459 164.197931 
L 215.792629 170.148296 
L 214.785367 177.52416 
L 213.754091 186.988395 
L 212.050195 205.904001 
L 211.618384 210.705483 
L 211.013582 219.137591 
L 208.457183 261.231293 
L 207.397445 280.94781 
L 207.118169 290.080839 
L 207.111498 293.555203 
L 207.088374 295.488 
L 207.053464 295.369712 
" style="fill:none;stroke:#2ca02c;stroke-linecap:square;stroke-width:1.5;"/>
   </g>
   <g id="patch_3">
    <path d="M 57.6 307.584 
L 57.6 41.472 
" style="fill:none;stroke:#000000;stroke-linecap:square;stroke-linejoin:miter;stroke-width:0.8;"/>
   </g>
   <g id="patch_4">
    <path d="M 414.72 307.584 
L 414.72 41.472 
" style="fill:none;stroke:#000000;stroke-linecap:square;stroke-linejoin:miter;stroke-width:0.8;"/>
   </g>
   <g id="patch_5">
    <path d="M 57.6 307.584 
L 414.72 307.584 
" style="fill:none;stroke:#000000;stroke-linecap:square;stroke-linejoin:miter;stroke-width:0.8;"/>
   </g>
   <g id="patch_6">
    <path d="M 57.6 41.472 
L 414.72 41.472 
" style="fill:none;stroke:#000000;stroke-linecap:square;stroke-linejoin:miter;stroke-width:0.8;"/>
   </g>
   <g id="legend_1">
    <g id="patch_7">
     <path d="M 64.6 302.584 
L 122.110937 302.584 
Q 124.110937 302.584 124.110937 300.584 
L 124.110937 257.2715 
Q 124.110937 255.2715 122.110937 255.2715 
L 64.6 255.2715 
Q 62.6 255.2715 62.6 257.2715 
L 62.6 300.584 
Q 62.6 302.584 64.6 302.584 
z
" style="fill:#ffffff;opacity:0.8;stroke:#cccccc;stroke-linejoin:miter;"/>
    </g>
    <g id="line2d_34">
     <path d="M 66.6 263.369937 
L 86.6 263.369937 
" style="fill:none;stroke:#1f77b4;stroke-linecap:square;stroke-width:1.5;"/>
    </g>
    <g id="line2d_35"/>
    <g id="text_16">
     <!-- y -->
     <defs>
      <path d="M 32.171875 -5.078125 
Q 28.375 -14.84375 24.75 -17.8125 
Q 21.140625 -20.796875 15.09375 -20.796875 
L 7.90625 -20.796875 
L 7.90625 -13.28125 
L 13.1875 -13.28125 
Q 16.890625 -13.28125 18.9375 -11.515625 
Q 21 -9.765625 23.484375 -3.21875 
L 25.09375 0.875 
L 2.984375 54.6875 
L 12.5 54.6875 
L 29.59375 11.921875 
L 46.6875 54.6875 
L 56.203125 54.6875 
z
" id="DejaVuSans-79"/>
     </defs>
     <g transform="translate(94.6 266.869937)scale(0.1 -0.1)">
      <use xlink:href="#DejaVuSans-79"/>
     </g>
    </g>
    <g id="line2d_36">
     <path d="M 66.6 278.048063 
L 86.6 278.048063 
" style="fill:none;stroke:#ff7f0e;stroke-linecap:square;stroke-width:1.5;"/>
    </g>
    <g id="line2d_37"/>
    <g id="text_17">
     <!-- dr_y -->
     <defs>
      <path d="M 45.40625 46.390625 
L 45.40625 75.984375 
L 54.390625 75.984375 
L 54.390625 0 
L 45.40625 0 
L 45.40625 8.203125 
Q 42.578125 3.328125 38.25 0.953125 
Q 33.9375 -1.421875 27.875 -1.421875 
Q 17.96875 -1.421875 11.734375 6.484375 
Q 5.515625 14.40625 5.515625 27.296875 
Q 5.515625 40.1875 11.734375 48.09375 
Q 17.96875 56 27.875 56 
Q 33.9375 56 38.25 53.625 
Q 42.578125 51.265625 45.40625 46.390625 
z
M 14.796875 27.296875 
Q 14.796875 17.390625 18.875 11.75 
Q 22.953125 6.109375 30.078125 6.109375 
Q 37.203125 6.109375 41.296875 11.75 
Q 45.40625 17.390625 45.40625 27.296875 
Q 45.40625 37.203125 41.296875 42.84375 
Q 37.203125 48.484375 30.078125 48.484375 
Q 22.953125 48.484375 18.875 42.84375 
Q 14.796875 37.203125 14.796875 27.296875 
z
" id="DejaVuSans-64"/>
      <path d="M 41.109375 46.296875 
Q 39.59375 47.171875 37.8125 47.578125 
Q 36.03125 48 33.890625 48 
Q 26.265625 48 22.1875 43.046875 
Q 18.109375 38.09375 18.109375 28.8125 
L 18.109375 0 
L 9.078125 0 
L 9.078125 54.6875 
L 18.109375 54.6875 
L 18.109375 46.1875 
Q 20.953125 51.171875 25.484375 53.578125 
Q 30.03125 56 36.53125 56 
Q 37.453125 56 38.578125 55.875 
Q 39.703125 55.765625 41.0625 55.515625 
z
" id="DejaVuSans-72"/>
      <path d="M 50.984375 -16.609375 
L 50.984375 -23.578125 
L -0.984375 -23.578125 
L -0.984375 -16.609375 
z
" id="DejaVuSans-5f"/>
     </defs>
     <g transform="translate(94.6 281.548063)scale(0.1 -0.1)">
      <use xlink:href="#DejaVuSans-64"/>
      <use x="63.476562" xlink:href="#DejaVuSans-72"/>
      <use x="104.589844" xlink:href="#DejaVuSans-5f"/>
      <use x="154.589844" xlink:href="#DejaVuSans-79"/>
     </g>
    </g>
    <g id="line2d_38">
     <path d="M 66.6 293.004312 
L 86.6 293.004312 
" style="fill:none;stroke:#2ca02c;stroke-linecap:square;stroke-width:1.5;"/>
    </g>
    <g id="line2d_39"/>
    <g id="text_18">
     <!-- RTKy -->
     <defs>
      <path d="M 44.390625 34.1875 
Q 47.5625 33.109375 50.5625 29.59375 
Q 53.5625 26.078125 56.59375 19.921875 
L 66.609375 0 
L 56 0 
L 46.6875 18.703125 
Q 43.0625 26.03125 39.671875 28.421875 
Q 36.28125 30.8125 30.421875 30.8125 
L 19.671875 30.8125 
L 19.671875 0 
L 9.8125 0 
L 9.8125 72.90625 
L 32.078125 72.90625 
Q 44.578125 72.90625 50.734375 67.671875 
Q 56.890625 62.453125 56.890625 51.90625 
Q 56.890625 45.015625 53.6875 40.46875 
Q 50.484375 35.9375 44.390625 34.1875 
z
M 19.671875 64.796875 
L 19.671875 38.921875 
L 32.078125 38.921875 
Q 39.203125 38.921875 42.84375 42.21875 
Q 46.484375 45.515625 46.484375 51.90625 
Q 46.484375 58.296875 42.84375 61.546875 
Q 39.203125 64.796875 32.078125 64.796875 
z
" id="DejaVuSans-52"/>
      <path d="M -0.296875 72.90625 
L 61.375 72.90625 
L 61.375 64.59375 
L 35.5 64.59375 
L 35.5 0 
L 25.59375 0 
L 25.59375 64.59375 
L -0.296875 64.59375 
z
" id="DejaVuSans-54"/>
      <path d="M 9.8125 72.90625 
L 19.671875 72.90625 
L 19.671875 42.09375 
L 52.390625 72.90625 
L 65.09375 72.90625 
L 28.90625 38.921875 
L 67.671875 0 
L 54.6875 0 
L 19.671875 35.109375 
L 19.671875 0 
L 9.8125 0 
z
" id="DejaVuSans-4b"/>
     </defs>
     <g transform="translate(94.6 296.504312)scale(0.1 -0.1)">
      <use xlink:href="#DejaVuSans-52"/>
      <use x="69.373047" xlink:href="#DejaVuSans-54"/>
      <use x="130.457031" xlink:href="#DejaVuSans-4b"/>
      <use x="195.923828" xlink:href="#DejaVuSans-79"/>
     </g>
    </g>
   </g>
  </g>
 </g>
 <defs>
  <clipPath id="pe35bf363c1">
   <rect height="266.112" width="357.12" x="57.6" y="41.472"/>
  </clipPath>
 </defs>
</svg>
