<?xml version="1.0" encoding="utf-8" standalone="no"?>
<!DOCTYPE svg PUBLIC "-//W3C//DTD SVG 1.1//EN"
  "http://www.w3.org/Graphics/SVG/1.1/DTD/svg11.dtd">
<!-- Created with matplotlib (http://matplotlib.org/) -->
<svg height="345pt" version="1.1" viewBox="0 0 460 345" width="460pt" xmlns="http://www.w3.org/2000/svg" xmlns:xlink="http://www.w3.org/1999/xlink">
 <defs>
  <style type="text/css">
*{stroke-linecap:butt;stroke-linejoin:round;}
  </style>
 </defs>
 <g id="figure_1">
  <g id="patch_1">
   <path d="M 0 345.6 
L 460.8 345.6 
L 460.8 0 
L 0 0 
z
" style="fill:#ffffff;"/>
  </g>
  <g id="axes_1">
   <g id="patch_2">
    <path d="M 57.6 307.584 
L 414.72 307.584 
L 414.72 41.472 
L 57.6 41.472 
z
" style="fill:#ffffff;"/>
   </g>
   <g id="matplotlib.axis_1">
    <g id="xtick_1">
     <g id="line2d_1">
      <path clip-path="url(#p36a6bc8f4e)" d="M 73.832727 307.584 
L 73.832727 41.472 
" style="fill:none;stroke:#b0b0b0;stroke-linecap:square;stroke-width:0.8;"/>
     </g>
     <g id="line2d_2">
      <defs>
       <path d="M 0 0 
L 0 3.5 
" id="m696a275850" style="stroke:#000000;stroke-width:0.8;"/>
      </defs>
      <g>
       <use style="stroke:#000000;stroke-width:0.8;" x="73.832727" xlink:href="#m696a275850" y="307.584"/>
      </g>
     </g>
     <g id="text_1">
      <!-- 0 -->
      <defs>
       <path d="M 31.78125 66.40625 
Q 24.171875 66.40625 20.328125 58.90625 
Q 16.5 51.421875 16.5 36.375 
Q 16.5 21.390625 20.328125 13.890625 
Q 24.171875 6.390625 31.78125 6.390625 
Q 39.453125 6.390625 43.28125 13.890625 
Q 47.125 21.390625 47.125 36.375 
Q 47.125 51.421875 43.28125 58.90625 
Q 39.453125 66.40625 31.78125 66.40625 
z
M 31.78125 74.21875 
Q 44.046875 74.21875 50.515625 64.515625 
Q 56.984375 54.828125 56.984375 36.375 
Q 56.984375 17.96875 50.515625 8.265625 
Q 44.046875 -1.421875 31.78125 -1.421875 
Q 19.53125 -1.421875 13.0625 8.265625 
Q 6.59375 17.96875 6.59375 36.375 
Q 6.59375 54.828125 13.0625 64.515625 
Q 19.53125 74.21875 31.78125 74.21875 
z
" id="DejaVuSans-30"/>
      </defs>
      <g transform="translate(70.651477 322.182437)scale(0.1 -0.1)">
       <use xlink:href="#DejaVuSans-30"/>
      </g>
     </g>
    </g>
    <g id="xtick_2">
     <g id="line2d_3">
      <path clip-path="url(#p36a6bc8f4e)" d="M 129.904324 307.584 
L 129.904324 41.472 
" style="fill:none;stroke:#b0b0b0;stroke-linecap:square;stroke-width:0.8;"/>
     </g>
     <g id="line2d_4">
      <g>
       <use style="stroke:#000000;stroke-width:0.8;" x="129.904324" xlink:href="#m696a275850" y="307.584"/>
      </g>
     </g>
     <g id="text_2">
      <!-- 100 -->
      <defs>
       <path d="M 12.40625 8.296875 
L 28.515625 8.296875 
L 28.515625 63.921875 
L 10.984375 60.40625 
L 10.984375 69.390625 
L 28.421875 72.90625 
L 38.28125 72.90625 
L 38.28125 8.296875 
L 54.390625 8.296875 
L 54.390625 0 
L 12.40625 0 
z
" id="DejaVuSans-31"/>
      </defs>
      <g transform="translate(120.360574 322.182437)scale(0.1 -0.1)">
       <use xlink:href="#DejaVuSans-31"/>
       <use x="63.623047" xlink:href="#DejaVuSans-30"/>
       <use x="127.246094" xlink:href="#DejaVuSans-30"/>
      </g>
     </g>
    </g>
    <g id="xtick_3">
     <g id="line2d_5">
      <path clip-path="url(#p36a6bc8f4e)" d="M 185.975921 307.584 
L 185.975921 41.472 
" style="fill:none;stroke:#b0b0b0;stroke-linecap:square;stroke-width:0.8;"/>
     </g>
     <g id="line2d_6">
      <g>
       <use style="stroke:#000000;stroke-width:0.8;" x="185.975921" xlink:href="#m696a275850" y="307.584"/>
      </g>
     </g>
     <g id="text_3">
      <!-- 200 -->
      <defs>
       <path d="M 19.1875 8.296875 
L 53.609375 8.296875 
L 53.609375 0 
L 7.328125 0 
L 7.328125 8.296875 
Q 12.9375 14.109375 22.625 23.890625 
Q 32.328125 33.6875 34.8125 36.53125 
Q 39.546875 41.84375 41.421875 45.53125 
Q 43.3125 49.21875 43.3125 52.78125 
Q 43.3125 58.59375 39.234375 62.25 
Q 35.15625 65.921875 28.609375 65.921875 
Q 23.96875 65.921875 18.8125 64.3125 
Q 13.671875 62.703125 7.8125 59.421875 
L 7.8125 69.390625 
Q 13.765625 71.78125 18.9375 73 
Q 24.125 74.21875 28.421875 74.21875 
Q 39.75 74.21875 46.484375 68.546875 
Q 53.21875 62.890625 53.21875 53.421875 
Q 53.21875 48.921875 51.53125 44.890625 
Q 49.859375 40.875 45.40625 35.40625 
Q 44.1875 33.984375 37.640625 27.21875 
Q 31.109375 20.453125 19.1875 8.296875 
z
" id="DejaVuSans-32"/>
      </defs>
      <g transform="translate(176.432171 322.182437)scale(0.1 -0.1)">
       <use xlink:href="#DejaVuSans-32"/>
       <use x="63.623047" xlink:href="#DejaVuSans-30"/>
       <use x="127.246094" xlink:href="#DejaVuSans-30"/>
      </g>
     </g>
    </g>
    <g id="xtick_4">
     <g id="line2d_7">
      <path clip-path="url(#p36a6bc8f4e)" d="M 242.047518 307.584 
L 242.047518 41.472 
" style="fill:none;stroke:#b0b0b0;stroke-linecap:square;stroke-width:0.8;"/>
     </g>
     <g id="line2d_8">
      <g>
       <use style="stroke:#000000;stroke-width:0.8;" x="242.047518" xlink:href="#m696a275850" y="307.584"/>
      </g>
     </g>
     <g id="text_4">
      <!-- 300 -->
      <defs>
       <path d="M 40.578125 39.3125 
Q 47.65625 37.796875 51.625 33 
Q 55.609375 28.21875 55.609375 21.1875 
Q 55.609375 10.40625 48.1875 4.484375 
Q 40.765625 -1.421875 27.09375 -1.421875 
Q 22.515625 -1.421875 17.65625 -0.515625 
Q 12.796875 0.390625 7.625 2.203125 
L 7.625 11.71875 
Q 11.71875 9.328125 16.59375 8.109375 
Q 21.484375 6.890625 26.8125 6.890625 
Q 36.078125 6.890625 40.9375 10.546875 
Q 45.796875 14.203125 45.796875 21.1875 
Q 45.796875 27.640625 41.28125 31.265625 
Q 36.765625 34.90625 28.71875 34.90625 
L 20.21875 34.90625 
L 20.21875 43.015625 
L 29.109375 43.015625 
Q 36.375 43.015625 40.234375 45.921875 
Q 44.09375 48.828125 44.09375 54.296875 
Q 44.09375 59.90625 40.109375 62.90625 
Q 36.140625 65.921875 28.71875 65.921875 
Q 24.65625 65.921875 20.015625 65.03125 
Q 15.375 64.15625 9.8125 62.3125 
L 9.8125 71.09375 
Q 15.4375 72.65625 20.34375 73.4375 
Q 25.25 74.21875 29.59375 74.21875 
Q 40.828125 74.21875 47.359375 69.109375 
Q 53.90625 64.015625 53.90625 55.328125 
Q 53.90625 49.265625 50.4375 45.09375 
Q 46.96875 40.921875 40.578125 39.3125 
z
" id="DejaVuSans-33"/>
      </defs>
      <g transform="translate(232.503768 322.182437)scale(0.1 -0.1)">
       <use xlink:href="#DejaVuSans-33"/>
       <use x="63.623047" xlink:href="#DejaVuSans-30"/>
       <use x="127.246094" xlink:href="#DejaVuSans-30"/>
      </g>
     </g>
    </g>
    <g id="xtick_5">
     <g id="line2d_9">
      <path clip-path="url(#p36a6bc8f4e)" d="M 298.119114 307.584 
L 298.119114 41.472 
" style="fill:none;stroke:#b0b0b0;stroke-linecap:square;stroke-width:0.8;"/>
     </g>
     <g id="line2d_10">
      <g>
       <use style="stroke:#000000;stroke-width:0.8;" x="298.119114" xlink:href="#m696a275850" y="307.584"/>
      </g>
     </g>
     <g id="text_5">
      <!-- 400 -->
      <defs>
       <path d="M 37.796875 64.3125 
L 12.890625 25.390625 
L 37.796875 25.390625 
z
M 35.203125 72.90625 
L 47.609375 72.90625 
L 47.609375 25.390625 
L 58.015625 25.390625 
L 58.015625 17.1875 
L 47.609375 17.1875 
L 47.609375 0 
L 37.796875 0 
L 37.796875 17.1875 
L 4.890625 17.1875 
L 4.890625 26.703125 
z
" id="DejaVuSans-34"/>
      </defs>
      <g transform="translate(288.575364 322.182437)scale(0.1 -0.1)">
       <use xlink:href="#DejaVuSans-34"/>
       <use x="63.623047" xlink:href="#DejaVuSans-30"/>
       <use x="127.246094" xlink:href="#DejaVuSans-30"/>
      </g>
     </g>
    </g>
    <g id="xtick_6">
     <g id="line2d_11">
      <path clip-path="url(#p36a6bc8f4e)" d="M 354.190711 307.584 
L 354.190711 41.472 
" style="fill:none;stroke:#b0b0b0;stroke-linecap:square;stroke-width:0.8;"/>
     </g>
     <g id="line2d_12">
      <g>
       <use style="stroke:#000000;stroke-width:0.8;" x="354.190711" xlink:href="#m696a275850" y="307.584"/>
      </g>
     </g>
     <g id="text_6">
      <!-- 500 -->
      <defs>
       <path d="M 10.796875 72.90625 
L 49.515625 72.90625 
L 49.515625 64.59375 
L 19.828125 64.59375 
L 19.828125 46.734375 
Q 21.96875 47.46875 24.109375 47.828125 
Q 26.265625 48.1875 28.421875 48.1875 
Q 40.625 48.1875 47.75 41.5 
Q 54.890625 34.8125 54.890625 23.390625 
Q 54.890625 11.625 47.5625 5.09375 
Q 40.234375 -1.421875 26.90625 -1.421875 
Q 22.3125 -1.421875 17.546875 -0.640625 
Q 12.796875 0.140625 7.71875 1.703125 
L 7.71875 11.625 
Q 12.109375 9.234375 16.796875 8.0625 
Q 21.484375 6.890625 26.703125 6.890625 
Q 35.15625 6.890625 40.078125 11.328125 
Q 45.015625 15.765625 45.015625 23.390625 
Q 45.015625 31 40.078125 35.4375 
Q 35.15625 39.890625 26.703125 39.890625 
Q 22.75 39.890625 18.8125 39.015625 
Q 14.890625 38.140625 10.796875 36.28125 
z
" id="DejaVuSans-35"/>
      </defs>
      <g transform="translate(344.646961 322.182437)scale(0.1 -0.1)">
       <use xlink:href="#DejaVuSans-35"/>
       <use x="63.623047" xlink:href="#DejaVuSans-30"/>
       <use x="127.246094" xlink:href="#DejaVuSans-30"/>
      </g>
     </g>
    </g>
    <g id="xtick_7">
     <g id="line2d_13">
      <path clip-path="url(#p36a6bc8f4e)" d="M 410.262308 307.584 
L 410.262308 41.472 
" style="fill:none;stroke:#b0b0b0;stroke-linecap:square;stroke-width:0.8;"/>
     </g>
     <g id="line2d_14">
      <g>
       <use style="stroke:#000000;stroke-width:0.8;" x="410.262308" xlink:href="#m696a275850" y="307.584"/>
      </g>
     </g>
     <g id="text_7">
      <!-- 600 -->
      <defs>
       <path d="M 33.015625 40.375 
Q 26.375 40.375 22.484375 35.828125 
Q 18.609375 31.296875 18.609375 23.390625 
Q 18.609375 15.53125 22.484375 10.953125 
Q 26.375 6.390625 33.015625 6.390625 
Q 39.65625 6.390625 43.53125 10.953125 
Q 47.40625 15.53125 47.40625 23.390625 
Q 47.40625 31.296875 43.53125 35.828125 
Q 39.65625 40.375 33.015625 40.375 
z
M 52.59375 71.296875 
L 52.59375 62.3125 
Q 48.875 64.0625 45.09375 64.984375 
Q 41.3125 65.921875 37.59375 65.921875 
Q 27.828125 65.921875 22.671875 59.328125 
Q 17.53125 52.734375 16.796875 39.40625 
Q 19.671875 43.65625 24.015625 45.921875 
Q 28.375 48.1875 33.59375 48.1875 
Q 44.578125 48.1875 50.953125 41.515625 
Q 57.328125 34.859375 57.328125 23.390625 
Q 57.328125 12.15625 50.6875 5.359375 
Q 44.046875 -1.421875 33.015625 -1.421875 
Q 20.359375 -1.421875 13.671875 8.265625 
Q 6.984375 17.96875 6.984375 36.375 
Q 6.984375 53.65625 15.1875 63.9375 
Q 23.390625 74.21875 37.203125 74.21875 
Q 40.921875 74.21875 44.703125 73.484375 
Q 48.484375 72.75 52.59375 71.296875 
z
" id="DejaVuSans-36"/>
      </defs>
      <g transform="translate(400.718558 322.182437)scale(0.1 -0.1)">
       <use xlink:href="#DejaVuSans-36"/>
       <use x="63.623047" xlink:href="#DejaVuSans-30"/>
       <use x="127.246094" xlink:href="#DejaVuSans-30"/>
      </g>
     </g>
    </g>
   </g>
   <g id="matplotlib.axis_2">
    <g id="ytick_1">
     <g id="line2d_15">
      <path clip-path="url(#p36a6bc8f4e)" d="M 57.6 295.917938 
L 414.72 295.917938 
" style="fill:none;stroke:#b0b0b0;stroke-linecap:square;stroke-width:0.8;"/>
     </g>
     <g id="line2d_16">
      <defs>
       <path d="M 0 0 
L -3.5 0 
" id="mffd8b71233" style="stroke:#000000;stroke-width:0.8;"/>
      </defs>
      <g>
       <use style="stroke:#000000;stroke-width:0.8;" x="57.6" xlink:href="#mffd8b71233" y="295.917938"/>
      </g>
     </g>
     <g id="text_8">
      <!-- 0.00 -->
      <defs>
       <path d="M 10.6875 12.40625 
L 21 12.40625 
L 21 0 
L 10.6875 0 
z
" id="DejaVuSans-2e"/>
      </defs>
      <g transform="translate(28.334375 299.717157)scale(0.1 -0.1)">
       <use xlink:href="#DejaVuSans-30"/>
       <use x="63.623047" xlink:href="#DejaVuSans-2e"/>
       <use x="95.410156" xlink:href="#DejaVuSans-30"/>
       <use x="159.033203" xlink:href="#DejaVuSans-30"/>
      </g>
     </g>
    </g>
    <g id="ytick_2">
     <g id="line2d_17">
      <path clip-path="url(#p36a6bc8f4e)" d="M 57.6 265.208077 
L 414.72 265.208077 
" style="fill:none;stroke:#b0b0b0;stroke-linecap:square;stroke-width:0.8;"/>
     </g>
     <g id="line2d_18">
      <g>
       <use style="stroke:#000000;stroke-width:0.8;" x="57.6" xlink:href="#mffd8b71233" y="265.208077"/>
      </g>
     </g>
     <g id="text_9">
      <!-- 0.05 -->
      <g transform="translate(28.334375 269.007296)scale(0.1 -0.1)">
       <use xlink:href="#DejaVuSans-30"/>
       <use x="63.623047" xlink:href="#DejaVuSans-2e"/>
       <use x="95.410156" xlink:href="#DejaVuSans-30"/>
       <use x="159.033203" xlink:href="#DejaVuSans-35"/>
      </g>
     </g>
    </g>
    <g id="ytick_3">
     <g id="line2d_19">
      <path clip-path="url(#p36a6bc8f4e)" d="M 57.6 234.498216 
L 414.72 234.498216 
" style="fill:none;stroke:#b0b0b0;stroke-linecap:square;stroke-width:0.8;"/>
     </g>
     <g id="line2d_20">
      <g>
       <use style="stroke:#000000;stroke-width:0.8;" x="57.6" xlink:href="#mffd8b71233" y="234.498216"/>
      </g>
     </g>
     <g id="text_10">
      <!-- 0.10 -->
      <g transform="translate(28.334375 238.297435)scale(0.1 -0.1)">
       <use xlink:href="#DejaVuSans-30"/>
       <use x="63.623047" xlink:href="#DejaVuSans-2e"/>
       <use x="95.410156" xlink:href="#DejaVuSans-31"/>
       <use x="159.033203" xlink:href="#DejaVuSans-30"/>
      </g>
     </g>
    </g>
    <g id="ytick_4">
     <g id="line2d_21">
      <path clip-path="url(#p36a6bc8f4e)" d="M 57.6 203.788355 
L 414.72 203.788355 
" style="fill:none;stroke:#b0b0b0;stroke-linecap:square;stroke-width:0.8;"/>
     </g>
     <g id="line2d_22">
      <g>
       <use style="stroke:#000000;stroke-width:0.8;" x="57.6" xlink:href="#mffd8b71233" y="203.788355"/>
      </g>
     </g>
     <g id="text_11">
      <!-- 0.15 -->
      <g transform="translate(28.334375 207.587574)scale(0.1 -0.1)">
       <use xlink:href="#DejaVuSans-30"/>
       <use x="63.623047" xlink:href="#DejaVuSans-2e"/>
       <use x="95.410156" xlink:href="#DejaVuSans-31"/>
       <use x="159.033203" xlink:href="#DejaVuSans-35"/>
      </g>
     </g>
    </g>
    <g id="ytick_5">
     <g id="line2d_23">
      <path clip-path="url(#p36a6bc8f4e)" d="M 57.6 173.078495 
L 414.72 173.078495 
" style="fill:none;stroke:#b0b0b0;stroke-linecap:square;stroke-width:0.8;"/>
     </g>
     <g id="line2d_24">
      <g>
       <use style="stroke:#000000;stroke-width:0.8;" x="57.6" xlink:href="#mffd8b71233" y="173.078495"/>
      </g>
     </g>
     <g id="text_12">
      <!-- 0.20 -->
      <g transform="translate(28.334375 176.877713)scale(0.1 -0.1)">
       <use xlink:href="#DejaVuSans-30"/>
       <use x="63.623047" xlink:href="#DejaVuSans-2e"/>
       <use x="95.410156" xlink:href="#DejaVuSans-32"/>
       <use x="159.033203" xlink:href="#DejaVuSans-30"/>
      </g>
     </g>
    </g>
    <g id="ytick_6">
     <g id="line2d_25">
      <path clip-path="url(#p36a6bc8f4e)" d="M 57.6 142.368634 
L 414.72 142.368634 
" style="fill:none;stroke:#b0b0b0;stroke-linecap:square;stroke-width:0.8;"/>
     </g>
     <g id="line2d_26">
      <g>
       <use style="stroke:#000000;stroke-width:0.8;" x="57.6" xlink:href="#mffd8b71233" y="142.368634"/>
      </g>
     </g>
     <g id="text_13">
      <!-- 0.25 -->
      <g transform="translate(28.334375 146.167852)scale(0.1 -0.1)">
       <use xlink:href="#DejaVuSans-30"/>
       <use x="63.623047" xlink:href="#DejaVuSans-2e"/>
       <use x="95.410156" xlink:href="#DejaVuSans-32"/>
       <use x="159.033203" xlink:href="#DejaVuSans-35"/>
      </g>
     </g>
    </g>
    <g id="ytick_7">
     <g id="line2d_27">
      <path clip-path="url(#p36a6bc8f4e)" d="M 57.6 111.658773 
L 414.72 111.658773 
" style="fill:none;stroke:#b0b0b0;stroke-linecap:square;stroke-width:0.8;"/>
     </g>
     <g id="line2d_28">
      <g>
       <use style="stroke:#000000;stroke-width:0.8;" x="57.6" xlink:href="#mffd8b71233" y="111.658773"/>
      </g>
     </g>
     <g id="text_14">
      <!-- 0.30 -->
      <g transform="translate(28.334375 115.457992)scale(0.1 -0.1)">
       <use xlink:href="#DejaVuSans-30"/>
       <use x="63.623047" xlink:href="#DejaVuSans-2e"/>
       <use x="95.410156" xlink:href="#DejaVuSans-33"/>
       <use x="159.033203" xlink:href="#DejaVuSans-30"/>
      </g>
     </g>
    </g>
    <g id="ytick_8">
     <g id="line2d_29">
      <path clip-path="url(#p36a6bc8f4e)" d="M 57.6 80.948912 
L 414.72 80.948912 
" style="fill:none;stroke:#b0b0b0;stroke-linecap:square;stroke-width:0.8;"/>
     </g>
     <g id="line2d_30">
      <g>
       <use style="stroke:#000000;stroke-width:0.8;" x="57.6" xlink:href="#mffd8b71233" y="80.948912"/>
      </g>
     </g>
     <g id="text_15">
      <!-- 0.35 -->
      <g transform="translate(28.334375 84.748131)scale(0.1 -0.1)">
       <use xlink:href="#DejaVuSans-30"/>
       <use x="63.623047" xlink:href="#DejaVuSans-2e"/>
       <use x="95.410156" xlink:href="#DejaVuSans-33"/>
       <use x="159.033203" xlink:href="#DejaVuSans-35"/>
      </g>
     </g>
    </g>
    <g id="ytick_9">
     <g id="line2d_31">
      <path clip-path="url(#p36a6bc8f4e)" d="M 57.6 50.239051 
L 414.72 50.239051 
" style="fill:none;stroke:#b0b0b0;stroke-linecap:square;stroke-width:0.8;"/>
     </g>
     <g id="line2d_32">
      <g>
       <use style="stroke:#000000;stroke-width:0.8;" x="57.6" xlink:href="#mffd8b71233" y="50.239051"/>
      </g>
     </g>
     <g id="text_16">
      <!-- 0.40 -->
      <g transform="translate(28.334375 54.03827)scale(0.1 -0.1)">
       <use xlink:href="#DejaVuSans-30"/>
       <use x="63.623047" xlink:href="#DejaVuSans-2e"/>
       <use x="95.410156" xlink:href="#DejaVuSans-34"/>
       <use x="159.033203" xlink:href="#DejaVuSans-30"/>
      </g>
     </g>
    </g>
   </g>
   <g id="line2d_33">
    <path clip-path="url(#p36a6bc8f4e)" d="M 73.832727 91.341129 
L 74.393443 129.077406 
L 74.954159 131.104257 
L 75.514875 161.132359 
L 76.075591 148.92826 
L 76.636307 155.831837 
L 77.197023 171.628989 
L 77.757739 192.161602 
L 78.318455 198.690519 
L 78.879171 214.033165 
L 79.439887 214.592084 
L 80.000603 213.683073 
L 80.561319 211.668506 
L 81.122035 235.450222 
L 82.243467 252.045831 
L 83.364899 292.281891 
L 83.925615 290.009361 
L 84.486331 256.461909 
L 85.047047 247.162963 
L 85.607763 229.062571 
L 86.168479 240.535775 
L 86.729195 223.332111 
L 87.289911 216.017022 
L 87.850626 217.091867 
L 88.411342 233.122415 
L 88.972058 261.983542 
L 89.532774 267.437613 
L 90.09349 246.481204 
L 90.654206 246.788303 
L 91.214922 270.600729 
L 91.775638 277.117361 
L 92.336354 257.487618 
L 92.89707 252.309936 
L 94.018502 229.461799 
L 94.579218 218.774768 
L 95.139934 223.442666 
L 95.70065 215.531806 
L 96.261366 215.765201 
L 96.822082 213.73835 
L 97.382798 232.336242 
L 97.943514 272.953104 
L 98.50423 277.596435 
L 99.064946 293.952507 
L 99.625662 295.008926 
L 100.186378 293.074205 
L 100.747094 280.82097 
L 101.30781 252.776726 
L 102.429242 223.129426 
L 102.989958 233.982291 
L 103.550674 230.462941 
L 104.11139 220.734057 
L 104.672106 222.257266 
L 105.232821 216.901466 
L 105.793537 229.965441 
L 106.354253 259.115241 
L 106.914969 270.901685 
L 107.475685 277.338472 
L 108.036401 247.574475 
L 108.597117 284.162203 
L 109.157833 243.981421 
L 109.718549 226.581214 
L 110.279265 223.841895 
L 110.839981 220.451526 
L 111.400697 219.782051 
L 111.961413 218.412391 
L 112.522129 197.972522 
L 113.082845 235.834709 
L 113.643561 200.637524 
L 114.204277 196.930229 
L 114.764993 208.073609 
L 115.325709 208.163282 
L 115.886425 171.947757 
L 116.447141 175.035327 
L 117.007857 174.273722 
L 117.568573 161.96521 
L 118.129289 129.653032 
L 118.690005 142.774428 
L 119.250721 146.479824 
L 119.811437 144.797784 
L 120.372153 146.415518 
L 120.932869 155.702855 
L 121.493585 141.218857 
L 122.054301 141.527798 
L 122.615016 148.785152 
L 123.175732 125.22209 
L 123.736448 118.343695 
L 124.297164 120.737222 
L 124.85788 161.990392 
L 125.418596 192.597682 
L 125.979312 180.491855 
L 126.540028 175.172907 
L 127.66146 136.975982 
L 128.222176 148.750143 
L 128.782892 158.153502 
L 129.343608 160.4506 
L 129.904324 160.475168 
L 130.46504 155.039522 
L 131.025756 157.342762 
L 131.586472 157.920107 
L 132.147188 153.639153 
L 132.707904 146.618878 
L 133.26862 125.195679 
L 133.829336 131.902713 
L 134.390052 163.269765 
L 134.950768 136.601322 
L 135.511484 103.305691 
L 136.0722 103.231987 
L 136.632916 100.560229 
L 137.193632 103.729487 
L 137.754348 101.291124 
L 138.315064 89.050173 
L 138.87578 67.669968 
L 139.436496 66.859228 
L 139.997211 70.372436 
L 140.557927 79.10632 
L 141.118643 79.671382 
L 141.679359 85.432552 
L 142.240075 86.605668 
L 142.800791 85.868632 
L 143.361507 77.073328 
L 143.922223 81.741226 
L 144.482939 93.27585 
L 145.043655 87.5761 
L 145.604371 86.126594 
L 146.165087 85.715082 
L 146.725803 87.502396 
L 147.286519 91.519246 
L 147.847235 89.28971 
L 148.407951 89.283568 
L 148.968667 94.203288 
L 149.529383 81.421844 
L 150.090099 85.782644 
L 150.650815 87.625236 
L 151.211531 77.540117 
L 151.772247 80.451412 
L 152.332963 75.728236 
L 152.893679 72.767805 
L 153.454395 66.079197 
L 154.015111 68.873795 
L 154.575827 69.518702 
L 155.136543 66.730246 
L 155.697259 68.302591 
L 156.257975 60.361021 
L 156.818691 61.01207 
L 157.379407 62.90994 
L 157.940122 63.904939 
L 158.500838 53.568 
L 159.62227 57.848955 
L 160.182986 83.890917 
L 160.743702 117.751609 
L 161.304418 112.444945 
L 161.865134 103.876894 
L 162.42585 133.831292 
L 162.986566 154.413041 
L 163.547282 191.160461 
L 164.107998 196.651384 
L 164.668714 192.71438 
L 165.22943 203.413695 
L 165.790146 192.824935 
L 166.350862 191.627251 
L 166.911578 187.985061 
L 167.472294 196.903205 
L 168.03301 210.581377 
L 168.593726 216.023164 
L 170.275874 224.535937 
L 171.397306 242.630187 
L 171.958022 226.095998 
L 172.518738 226.231122 
L 173.079454 246.831296 
L 173.64017 221.200847 
L 174.200886 220.826186 
L 175.322317 216.631219 
L 175.883033 218.952885 
L 176.443749 207.522675 
L 177.004465 191.442991 
L 177.565181 189.532838 
L 178.125897 190.460276 
L 178.686613 188.015771 
L 179.247329 194.372712 
L 179.808045 194.151601 
L 180.929477 212.473104 
L 181.490193 213.719924 
L 182.050909 213.130295 
L 182.611625 218.019305 
L 183.172341 245.449353 
L 183.733057 259.23808 
L 184.293773 260.294499 
L 185.415205 279.26091 
L 185.975921 287.257757 
L 186.536637 278.517731 
L 187.097353 290.19362 
L 187.658069 291.808959 
L 188.218785 288.713405 
L 188.779501 292.724113 
L 189.340217 291.262323 
L 189.900933 277.369182 
L 190.461649 291.09649 
L 191.022365 284.002512 
L 191.583081 294.142908 
L 192.143797 288.07464 
L 192.704512 286.361029 
L 193.265228 280.919242 
L 193.825944 279.414459 
L 194.38666 290.070781 
L 194.947376 273.819122 
L 195.508092 278.333472 
L 196.068808 291.053496 
L 196.629524 286.133776 
L 197.19024 294.345593 
L 197.750956 288.000936 
L 198.311672 292.558279 
L 198.872388 295.11334 
L 199.433104 293.553279 
L 199.99382 295.002784 
L 200.554536 295.488 
L 201.115252 278.020231 
L 201.675968 295.254605 
L 202.236684 291.268465 
L 202.7974 291.151768 
L 203.358116 288.879238 
L 203.918832 291.815101 
L 204.479548 294.075346 
L 205.040264 295.309883 
L 205.60098 282.737266 
L 206.161696 286.182912 
L 206.722412 292.613557 
L 207.283128 288.504578 
L 207.843844 277.154213 
L 208.40456 269.071378 
L 208.965276 248.937993 
L 209.525992 254.06654 
L 210.086707 245.995988 
L 210.647423 265.349343 
L 211.208139 263.770856 
L 211.768855 289.266182 
L 212.329571 263.648016 
L 212.890287 272.713567 
L 213.451003 265.834558 
L 214.011719 266.995391 
L 214.572435 274.660572 
L 215.693867 265.443929 
L 216.254583 267.852196 
L 216.815299 268.829998 
L 217.376015 284.735864 
L 217.936731 285.179928 
L 218.497447 291.514758 
L 219.058163 283.83545 
L 219.618879 293.563106 
L 220.179595 293.268291 
L 220.740311 291.391305 
L 221.301027 259.017583 
L 221.861743 245.18709 
L 222.422459 243.117799 
L 222.983175 242.521536 
L 223.543891 240.814313 
L 224.665323 226.698034 
L 225.226039 243.050298 
L 226.347471 234.351423 
L 226.908187 230.946928 
L 227.468902 238.36643 
L 228.029618 233.342297 
L 228.590334 229.700108 
L 229.15105 227.273414 
L 229.711766 227.538748 
L 230.272482 229.708706 
L 230.833198 228.463729 
L 231.393914 228.721077 
L 231.95463 229.759071 
L 232.515346 224.502157 
L 233.076062 226.494612 
L 233.636778 220.277708 
L 234.197494 220.141971 
L 234.75821 221.166452 
L 235.318926 215.606124 
L 235.879642 218.088095 
L 236.440358 210.810472 
L 237.001074 214.343949 
L 237.56179 215.962358 
L 238.122506 209.313059 
L 238.683222 213.630866 
L 239.804654 261.559746 
L 240.36537 265.204392 
L 240.926086 263.250631 
L 241.486802 274.530363 
L 242.047518 268.516758 
L 242.608234 273.026808 
L 243.16895 280.354181 
L 243.729666 292.619699 
L 244.290382 289.603991 
L 244.851098 283.523438 
L 245.411813 284.96066 
L 245.972529 284.033222 
L 246.533245 282.387173 
L 247.093961 274.421035 
L 247.654677 276.736559 
L 248.215393 264.059528 
L 248.776109 263.881411 
L 249.336825 261.142092 
L 249.897541 259.901413 
L 250.458257 251.929133 
L 251.018973 259.502185 
L 251.579689 253.003978 
L 252.140405 249.417067 
L 252.701121 249.245091 
L 253.261837 246.665463 
L 253.822553 260.177802 
L 254.383269 270.717426 
L 254.943985 262.210795 
L 255.504701 261.154376 
L 256.065417 243.809446 
L 256.626133 243.686607 
L 257.186849 252.156386 
L 258.308281 271.976531 
L 258.868997 277.215633 
L 259.429713 271.16579 
L 259.990429 268.758137 
L 260.551145 281.416742 
L 261.111861 272.59687 
L 261.672577 273.880542 
L 262.233293 272.449462 
L 262.794008 268.389619 
L 263.354724 270.858692 
L 263.91544 265.613447 
L 264.476156 267.787705 
L 265.036872 274.881683 
L 265.597588 274.445603 
L 266.158304 284.414024 
L 266.71902 283.597142 
L 267.279736 272.148506 
L 267.840452 271.202642 
L 268.401168 274.457887 
L 268.961884 275.280912 
L 269.5226 265.165083 
L 270.083316 262.812708 
L 270.644032 270.932395 
L 271.204748 267.032243 
L 272.32618 243.824801 
L 272.886896 236.450135 
L 273.447612 244.832084 
L 274.008328 238.2786 
L 274.569044 240.47067 
L 275.12976 237.959832 
L 275.690476 240.584297 
L 276.251192 254.319589 
L 276.811908 250.924921 
L 277.372624 264.017149 
L 277.93334 261.657403 
L 278.494056 237.418724 
L 279.054772 259.519383 
L 279.615488 293.463606 
L 280.176203 266.295206 
L 280.736919 248.58053 
L 281.297635 243.399162 
L 281.858351 283.903012 
L 282.419067 252.216578 
L 282.979783 248.197271 
L 283.540499 282.261263 
L 284.101215 252.085139 
L 284.661931 267.059882 
L 285.222647 219.57261 
L 285.783363 264.310735 
L 286.344079 285.876428 
L 286.904795 273.986798 
L 287.465511 276.071998 
L 288.026227 232.0316 
L 288.586943 232.433899 
L 289.147659 221.514701 
L 289.708375 223.026241 
L 290.829807 183.705335 
L 291.390523 190.925223 
L 291.951239 215.508405 
L 292.511955 227.772634 
L 293.072671 203.888715 
L 293.633387 189.674533 
L 294.194103 186.647708 
L 294.754819 199.812411 
L 295.315535 218.573065 
L 296.436967 203.9962 
L 296.997683 200.288844 
L 297.558398 201.455512 
L 298.119114 203.292453 
L 298.67983 202.928418 
L 299.240546 179.95953 
L 299.801262 180.713273 
L 300.361978 200.89782 
L 300.922694 196.346558 
L 301.48341 193.106115 
L 302.044126 217.013434 
L 302.604842 218.279172 
L 303.165558 225.825813 
L 303.726274 226.503825 
L 304.28699 228.483813 
L 304.847706 225.870649 
L 305.408422 223.953924 
L 305.969138 226.113073 
L 306.529854 222.538261 
L 307.09057 200.308683 
L 307.651286 207.443382 
L 308.772718 199.842967 
L 309.333434 195.293517 
L 309.89415 194.246187 
L 310.454866 191.947309 
L 311.015582 219.420289 
L 311.576298 213.615511 
L 312.137014 200.837752 
L 313.258446 192.194155 
L 313.819162 179.650405 
L 314.379878 180.15896 
L 314.940593 188.811156 
L 315.501309 182.728761 
L 316.062025 181.614607 
L 316.622741 165.608628 
L 317.183457 168.585028 
L 317.744173 164.875277 
L 318.304889 183.14703 
L 318.865605 186.804574 
L 319.426321 250.063202 
L 319.987037 223.538481 
L 320.547753 183.601535 
L 321.108469 175.244154 
L 321.669185 178.559591 
L 322.229901 179.880115 
L 322.790617 192.457645 
L 323.351333 202.465989 
L 324.472765 275.927661 
L 325.033481 254.978008 
L 325.594197 284.189842 
L 326.154913 289.688136 
L 326.715629 286.442103 
L 327.276345 277.390679 
L 327.837061 264.323633 
L 328.397777 260.817181 
L 328.958493 244.002304 
L 330.079925 223.710456 
L 330.640641 222.767049 
L 331.201357 223.694487 
L 331.762073 209.463538 
L 332.322789 205.145731 
L 332.883504 247.052407 
L 333.44422 252.076541 
L 334.004936 248.827437 
L 334.565652 277.682423 
L 335.126368 271.583444 
L 335.687084 266.798848 
L 336.808516 253.827003 
L 337.369232 251.210523 
L 337.929948 232.354668 
L 338.490664 227.422664 
L 339.05138 225.659918 
L 339.612096 216.655787 
L 340.172812 213.179431 
L 340.733528 213.879616 
L 341.294244 214.303412 
L 341.85496 215.157146 
L 342.415676 231.285965 
L 342.976392 242.716175 
L 343.537108 248.569475 
L 344.097824 252.598608 
L 344.65854 252.924133 
L 345.219256 260.245364 
L 345.779972 261.320209 
L 346.340688 293.18476 
L 346.901404 286.815535 
L 347.46212 286.004795 
L 348.022836 269.249495 
L 348.583552 289.41359 
L 349.144268 288.375596 
L 349.704984 283.449735 
L 350.265699 285.194055 
L 350.826415 286.232048 
L 351.387131 289.628559 
L 351.947847 276.632145 
L 352.508563 267.628014 
L 353.069279 261.848418 
L 353.629995 264.950114 
L 354.190711 265.189651 
L 354.751427 269.992674 
L 355.312143 272.609154 
L 355.872859 274.144647 
L 356.433575 274.365758 
L 356.994291 275.987238 
L 357.555007 271.804555 
L 358.115723 275.201066 
L 358.676439 274.255202 
L 359.797871 273.125079 
L 360.919303 281.496587 
L 361.480019 281.472019 
L 362.040735 278.714274 
L 362.601451 278.339614 
L 363.162167 262.640733 
L 363.722883 250.387498 
L 364.844315 242.753027 
L 365.405031 235.241395 
L 365.965747 248.170246 
L 366.526463 240.990281 
L 367.087179 246.481204 
L 367.647894 284.659703 
L 368.769326 248.495771 
L 369.330042 238.410653 
L 369.890758 261.805425 
L 370.451474 250.940276 
L 371.572906 286.784825 
L 372.133622 289.284608 
L 373.255054 264.311349 
L 373.81577 262.751288 
L 374.376486 253.691879 
L 374.937202 246.647037 
L 375.497918 270.041809 
L 376.058634 263.697152 
L 376.61935 252.082683 
L 378.301498 232.477507 
L 378.862214 227.140134 
L 379.42293 225.266832 
L 380.544362 226.562788 
L 381.105078 226.968158 
L 381.665794 226.796183 
L 382.22651 222.58279 
L 382.787226 221.526371 
L 383.347942 218.559799 
L 383.908658 199.802215 
L 384.469374 206.785638 
L 385.030089 211.674648 
L 385.590805 213.197857 
L 386.712237 219.616218 
L 387.272953 220.52523 
L 387.833669 214.813195 
L 388.394385 211.717642 
L 388.955101 215.451961 
L 389.515817 217.927175 
L 390.637249 226.390813 
L 391.197965 226.310967 
L 391.758681 230.297107 
L 392.319397 232.004576 
L 392.880113 237.587628 
L 393.440829 233.570779 
L 394.001545 231.728187 
L 394.562261 232.674051 
L 395.122977 230.911305 
L 395.683693 233.380377 
L 396.244409 239.116979 
L 396.805125 238.852875 
L 397.365841 238.730035 
L 397.926557 237.876301 
L 398.487273 241.321947 
L 398.487273 241.321947 
" style="fill:none;stroke:#1f77b4;stroke-linecap:square;stroke-width:1.5;"/>
   </g>
   <g id="patch_3">
    <path d="M 57.6 307.584 
L 57.6 41.472 
" style="fill:none;stroke:#000000;stroke-linecap:square;stroke-linejoin:miter;stroke-width:0.8;"/>
   </g>
   <g id="patch_4">
    <path d="M 414.72 307.584 
L 414.72 41.472 
" style="fill:none;stroke:#000000;stroke-linecap:square;stroke-linejoin:miter;stroke-width:0.8;"/>
   </g>
   <g id="patch_5">
    <path d="M 57.6 307.584 
L 414.72 307.584 
" style="fill:none;stroke:#000000;stroke-linecap:square;stroke-linejoin:miter;stroke-width:0.8;"/>
   </g>
   <g id="patch_6">
    <path d="M 57.6 41.472 
L 414.72 41.472 
" style="fill:none;stroke:#000000;stroke-linecap:square;stroke-linejoin:miter;stroke-width:0.8;"/>
   </g>
   <g id="legend_1">
    <g id="patch_7">
     <path d="M 403.72 54.472 
L 407.72 54.472 
Q 409.72 54.472 409.72 52.472 
L 409.72 48.472 
Q 409.72 46.472 407.72 46.472 
L 403.72 46.472 
Q 401.72 46.472 401.72 48.472 
L 401.72 52.472 
Q 401.72 54.472 403.72 54.472 
z
" style="fill:#ffffff;opacity:0.8;stroke:#cccccc;stroke-linejoin:miter;"/>
    </g>
   </g>
  </g>
 </g>
 <defs>
  <clipPath id="p36a6bc8f4e">
   <rect height="266.112" width="357.12" x="57.6" y="41.472"/>
  </clipPath>
 </defs>
</svg>
