<?xml version="1.0" encoding="utf-8" standalone="no"?>
<!DOCTYPE svg PUBLIC "-//W3C//DTD SVG 1.1//EN"
  "http://www.w3.org/Graphics/SVG/1.1/DTD/svg11.dtd">
<!-- Created with matplotlib (http://matplotlib.org/) -->
<svg height="345pt" version="1.1" viewBox="0 0 460 345" width="460pt" xmlns="http://www.w3.org/2000/svg" xmlns:xlink="http://www.w3.org/1999/xlink">
 <defs>
  <style type="text/css">
*{stroke-linecap:butt;stroke-linejoin:round;}
  </style>
 </defs>
 <g id="figure_1">
  <g id="patch_1">
   <path d="M 0 345.6 
L 460.8 345.6 
L 460.8 0 
L 0 0 
z
" style="fill:#ffffff;"/>
  </g>
  <g id="axes_1">
   <g id="patch_2">
    <path d="M 57.6 307.584 
L 414.72 307.584 
L 414.72 41.472 
L 57.6 41.472 
z
" style="fill:#ffffff;"/>
   </g>
   <g id="matplotlib.axis_1">
    <g id="xtick_1">
     <g id="line2d_1">
      <path clip-path="url(#pfaabe77d7e)" d="M 73.832727 307.584 
L 73.832727 41.472 
" style="fill:none;stroke:#b0b0b0;stroke-linecap:square;stroke-width:0.8;"/>
     </g>
     <g id="line2d_2">
      <defs>
       <path d="M 0 0 
L 0 3.5 
" id="m7b003d7d16" style="stroke:#000000;stroke-width:0.8;"/>
      </defs>
      <g>
       <use style="stroke:#000000;stroke-width:0.8;" x="73.832727" xlink:href="#m7b003d7d16" y="307.584"/>
      </g>
     </g>
     <g id="text_1">
      <!-- 0 -->
      <defs>
       <path d="M 31.78125 66.40625 
Q 24.171875 66.40625 20.328125 58.90625 
Q 16.5 51.421875 16.5 36.375 
Q 16.5 21.390625 20.328125 13.890625 
Q 24.171875 6.390625 31.78125 6.390625 
Q 39.453125 6.390625 43.28125 13.890625 
Q 47.125 21.390625 47.125 36.375 
Q 47.125 51.421875 43.28125 58.90625 
Q 39.453125 66.40625 31.78125 66.40625 
z
M 31.78125 74.21875 
Q 44.046875 74.21875 50.515625 64.515625 
Q 56.984375 54.828125 56.984375 36.375 
Q 56.984375 17.96875 50.515625 8.265625 
Q 44.046875 -1.421875 31.78125 -1.421875 
Q 19.53125 -1.421875 13.0625 8.265625 
Q 6.59375 17.96875 6.59375 36.375 
Q 6.59375 54.828125 13.0625 64.515625 
Q 19.53125 74.21875 31.78125 74.21875 
z
" id="DejaVuSans-30"/>
      </defs>
      <g transform="translate(70.651477 322.182437)scale(0.1 -0.1)">
       <use xlink:href="#DejaVuSans-30"/>
      </g>
     </g>
    </g>
    <g id="xtick_2">
     <g id="line2d_3">
      <path clip-path="url(#pfaabe77d7e)" d="M 129.904324 307.584 
L 129.904324 41.472 
" style="fill:none;stroke:#b0b0b0;stroke-linecap:square;stroke-width:0.8;"/>
     </g>
     <g id="line2d_4">
      <g>
       <use style="stroke:#000000;stroke-width:0.8;" x="129.904324" xlink:href="#m7b003d7d16" y="307.584"/>
      </g>
     </g>
     <g id="text_2">
      <!-- 100 -->
      <defs>
       <path d="M 12.40625 8.296875 
L 28.515625 8.296875 
L 28.515625 63.921875 
L 10.984375 60.40625 
L 10.984375 69.390625 
L 28.421875 72.90625 
L 38.28125 72.90625 
L 38.28125 8.296875 
L 54.390625 8.296875 
L 54.390625 0 
L 12.40625 0 
z
" id="DejaVuSans-31"/>
      </defs>
      <g transform="translate(120.360574 322.182437)scale(0.1 -0.1)">
       <use xlink:href="#DejaVuSans-31"/>
       <use x="63.623047" xlink:href="#DejaVuSans-30"/>
       <use x="127.246094" xlink:href="#DejaVuSans-30"/>
      </g>
     </g>
    </g>
    <g id="xtick_3">
     <g id="line2d_5">
      <path clip-path="url(#pfaabe77d7e)" d="M 185.975921 307.584 
L 185.975921 41.472 
" style="fill:none;stroke:#b0b0b0;stroke-linecap:square;stroke-width:0.8;"/>
     </g>
     <g id="line2d_6">
      <g>
       <use style="stroke:#000000;stroke-width:0.8;" x="185.975921" xlink:href="#m7b003d7d16" y="307.584"/>
      </g>
     </g>
     <g id="text_3">
      <!-- 200 -->
      <defs>
       <path d="M 19.1875 8.296875 
L 53.609375 8.296875 
L 53.609375 0 
L 7.328125 0 
L 7.328125 8.296875 
Q 12.9375 14.109375 22.625 23.890625 
Q 32.328125 33.6875 34.8125 36.53125 
Q 39.546875 41.84375 41.421875 45.53125 
Q 43.3125 49.21875 43.3125 52.78125 
Q 43.3125 58.59375 39.234375 62.25 
Q 35.15625 65.921875 28.609375 65.921875 
Q 23.96875 65.921875 18.8125 64.3125 
Q 13.671875 62.703125 7.8125 59.421875 
L 7.8125 69.390625 
Q 13.765625 71.78125 18.9375 73 
Q 24.125 74.21875 28.421875 74.21875 
Q 39.75 74.21875 46.484375 68.546875 
Q 53.21875 62.890625 53.21875 53.421875 
Q 53.21875 48.921875 51.53125 44.890625 
Q 49.859375 40.875 45.40625 35.40625 
Q 44.1875 33.984375 37.640625 27.21875 
Q 31.109375 20.453125 19.1875 8.296875 
z
" id="DejaVuSans-32"/>
      </defs>
      <g transform="translate(176.432171 322.182437)scale(0.1 -0.1)">
       <use xlink:href="#DejaVuSans-32"/>
       <use x="63.623047" xlink:href="#DejaVuSans-30"/>
       <use x="127.246094" xlink:href="#DejaVuSans-30"/>
      </g>
     </g>
    </g>
    <g id="xtick_4">
     <g id="line2d_7">
      <path clip-path="url(#pfaabe77d7e)" d="M 242.047518 307.584 
L 242.047518 41.472 
" style="fill:none;stroke:#b0b0b0;stroke-linecap:square;stroke-width:0.8;"/>
     </g>
     <g id="line2d_8">
      <g>
       <use style="stroke:#000000;stroke-width:0.8;" x="242.047518" xlink:href="#m7b003d7d16" y="307.584"/>
      </g>
     </g>
     <g id="text_4">
      <!-- 300 -->
      <defs>
       <path d="M 40.578125 39.3125 
Q 47.65625 37.796875 51.625 33 
Q 55.609375 28.21875 55.609375 21.1875 
Q 55.609375 10.40625 48.1875 4.484375 
Q 40.765625 -1.421875 27.09375 -1.421875 
Q 22.515625 -1.421875 17.65625 -0.515625 
Q 12.796875 0.390625 7.625 2.203125 
L 7.625 11.71875 
Q 11.71875 9.328125 16.59375 8.109375 
Q 21.484375 6.890625 26.8125 6.890625 
Q 36.078125 6.890625 40.9375 10.546875 
Q 45.796875 14.203125 45.796875 21.1875 
Q 45.796875 27.640625 41.28125 31.265625 
Q 36.765625 34.90625 28.71875 34.90625 
L 20.21875 34.90625 
L 20.21875 43.015625 
L 29.109375 43.015625 
Q 36.375 43.015625 40.234375 45.921875 
Q 44.09375 48.828125 44.09375 54.296875 
Q 44.09375 59.90625 40.109375 62.90625 
Q 36.140625 65.921875 28.71875 65.921875 
Q 24.65625 65.921875 20.015625 65.03125 
Q 15.375 64.15625 9.8125 62.3125 
L 9.8125 71.09375 
Q 15.4375 72.65625 20.34375 73.4375 
Q 25.25 74.21875 29.59375 74.21875 
Q 40.828125 74.21875 47.359375 69.109375 
Q 53.90625 64.015625 53.90625 55.328125 
Q 53.90625 49.265625 50.4375 45.09375 
Q 46.96875 40.921875 40.578125 39.3125 
z
" id="DejaVuSans-33"/>
      </defs>
      <g transform="translate(232.503768 322.182437)scale(0.1 -0.1)">
       <use xlink:href="#DejaVuSans-33"/>
       <use x="63.623047" xlink:href="#DejaVuSans-30"/>
       <use x="127.246094" xlink:href="#DejaVuSans-30"/>
      </g>
     </g>
    </g>
    <g id="xtick_5">
     <g id="line2d_9">
      <path clip-path="url(#pfaabe77d7e)" d="M 298.119114 307.584 
L 298.119114 41.472 
" style="fill:none;stroke:#b0b0b0;stroke-linecap:square;stroke-width:0.8;"/>
     </g>
     <g id="line2d_10">
      <g>
       <use style="stroke:#000000;stroke-width:0.8;" x="298.119114" xlink:href="#m7b003d7d16" y="307.584"/>
      </g>
     </g>
     <g id="text_5">
      <!-- 400 -->
      <defs>
       <path d="M 37.796875 64.3125 
L 12.890625 25.390625 
L 37.796875 25.390625 
z
M 35.203125 72.90625 
L 47.609375 72.90625 
L 47.609375 25.390625 
L 58.015625 25.390625 
L 58.015625 17.1875 
L 47.609375 17.1875 
L 47.609375 0 
L 37.796875 0 
L 37.796875 17.1875 
L 4.890625 17.1875 
L 4.890625 26.703125 
z
" id="DejaVuSans-34"/>
      </defs>
      <g transform="translate(288.575364 322.182437)scale(0.1 -0.1)">
       <use xlink:href="#DejaVuSans-34"/>
       <use x="63.623047" xlink:href="#DejaVuSans-30"/>
       <use x="127.246094" xlink:href="#DejaVuSans-30"/>
      </g>
     </g>
    </g>
    <g id="xtick_6">
     <g id="line2d_11">
      <path clip-path="url(#pfaabe77d7e)" d="M 354.190711 307.584 
L 354.190711 41.472 
" style="fill:none;stroke:#b0b0b0;stroke-linecap:square;stroke-width:0.8;"/>
     </g>
     <g id="line2d_12">
      <g>
       <use style="stroke:#000000;stroke-width:0.8;" x="354.190711" xlink:href="#m7b003d7d16" y="307.584"/>
      </g>
     </g>
     <g id="text_6">
      <!-- 500 -->
      <defs>
       <path d="M 10.796875 72.90625 
L 49.515625 72.90625 
L 49.515625 64.59375 
L 19.828125 64.59375 
L 19.828125 46.734375 
Q 21.96875 47.46875 24.109375 47.828125 
Q 26.265625 48.1875 28.421875 48.1875 
Q 40.625 48.1875 47.75 41.5 
Q 54.890625 34.8125 54.890625 23.390625 
Q 54.890625 11.625 47.5625 5.09375 
Q 40.234375 -1.421875 26.90625 -1.421875 
Q 22.3125 -1.421875 17.546875 -0.640625 
Q 12.796875 0.140625 7.71875 1.703125 
L 7.71875 11.625 
Q 12.109375 9.234375 16.796875 8.0625 
Q 21.484375 6.890625 26.703125 6.890625 
Q 35.15625 6.890625 40.078125 11.328125 
Q 45.015625 15.765625 45.015625 23.390625 
Q 45.015625 31 40.078125 35.4375 
Q 35.15625 39.890625 26.703125 39.890625 
Q 22.75 39.890625 18.8125 39.015625 
Q 14.890625 38.140625 10.796875 36.28125 
z
" id="DejaVuSans-35"/>
      </defs>
      <g transform="translate(344.646961 322.182437)scale(0.1 -0.1)">
       <use xlink:href="#DejaVuSans-35"/>
       <use x="63.623047" xlink:href="#DejaVuSans-30"/>
       <use x="127.246094" xlink:href="#DejaVuSans-30"/>
      </g>
     </g>
    </g>
    <g id="xtick_7">
     <g id="line2d_13">
      <path clip-path="url(#pfaabe77d7e)" d="M 410.262308 307.584 
L 410.262308 41.472 
" style="fill:none;stroke:#b0b0b0;stroke-linecap:square;stroke-width:0.8;"/>
     </g>
     <g id="line2d_14">
      <g>
       <use style="stroke:#000000;stroke-width:0.8;" x="410.262308" xlink:href="#m7b003d7d16" y="307.584"/>
      </g>
     </g>
     <g id="text_7">
      <!-- 600 -->
      <defs>
       <path d="M 33.015625 40.375 
Q 26.375 40.375 22.484375 35.828125 
Q 18.609375 31.296875 18.609375 23.390625 
Q 18.609375 15.53125 22.484375 10.953125 
Q 26.375 6.390625 33.015625 6.390625 
Q 39.65625 6.390625 43.53125 10.953125 
Q 47.40625 15.53125 47.40625 23.390625 
Q 47.40625 31.296875 43.53125 35.828125 
Q 39.65625 40.375 33.015625 40.375 
z
M 52.59375 71.296875 
L 52.59375 62.3125 
Q 48.875 64.0625 45.09375 64.984375 
Q 41.3125 65.921875 37.59375 65.921875 
Q 27.828125 65.921875 22.671875 59.328125 
Q 17.53125 52.734375 16.796875 39.40625 
Q 19.671875 43.65625 24.015625 45.921875 
Q 28.375 48.1875 33.59375 48.1875 
Q 44.578125 48.1875 50.953125 41.515625 
Q 57.328125 34.859375 57.328125 23.390625 
Q 57.328125 12.15625 50.6875 5.359375 
Q 44.046875 -1.421875 33.015625 -1.421875 
Q 20.359375 -1.421875 13.671875 8.265625 
Q 6.984375 17.96875 6.984375 36.375 
Q 6.984375 53.65625 15.1875 63.9375 
Q 23.390625 74.21875 37.203125 74.21875 
Q 40.921875 74.21875 44.703125 73.484375 
Q 48.484375 72.75 52.59375 71.296875 
z
" id="DejaVuSans-36"/>
      </defs>
      <g transform="translate(400.718558 322.182437)scale(0.1 -0.1)">
       <use xlink:href="#DejaVuSans-36"/>
       <use x="63.623047" xlink:href="#DejaVuSans-30"/>
       <use x="127.246094" xlink:href="#DejaVuSans-30"/>
      </g>
     </g>
    </g>
   </g>
   <g id="matplotlib.axis_2">
    <g id="ytick_1">
     <g id="line2d_15">
      <path clip-path="url(#pfaabe77d7e)" d="M 57.6 295.623197 
L 414.72 295.623197 
" style="fill:none;stroke:#b0b0b0;stroke-linecap:square;stroke-width:0.8;"/>
     </g>
     <g id="line2d_16">
      <defs>
       <path d="M 0 0 
L -3.5 0 
" id="m89e7806ea1" style="stroke:#000000;stroke-width:0.8;"/>
      </defs>
      <g>
       <use style="stroke:#000000;stroke-width:0.8;" x="57.6" xlink:href="#m89e7806ea1" y="295.623197"/>
      </g>
     </g>
     <g id="text_8">
      <!-- 0.0 -->
      <defs>
       <path d="M 10.6875 12.40625 
L 21 12.40625 
L 21 0 
L 10.6875 0 
z
" id="DejaVuSans-2e"/>
      </defs>
      <g transform="translate(34.696875 299.422416)scale(0.1 -0.1)">
       <use xlink:href="#DejaVuSans-30"/>
       <use x="63.623047" xlink:href="#DejaVuSans-2e"/>
       <use x="95.410156" xlink:href="#DejaVuSans-30"/>
      </g>
     </g>
    </g>
    <g id="ytick_2">
     <g id="line2d_17">
      <path clip-path="url(#pfaabe77d7e)" d="M 57.6 252.01122 
L 414.72 252.01122 
" style="fill:none;stroke:#b0b0b0;stroke-linecap:square;stroke-width:0.8;"/>
     </g>
     <g id="line2d_18">
      <g>
       <use style="stroke:#000000;stroke-width:0.8;" x="57.6" xlink:href="#m89e7806ea1" y="252.01122"/>
      </g>
     </g>
     <g id="text_9">
      <!-- 0.1 -->
      <g transform="translate(34.696875 255.810438)scale(0.1 -0.1)">
       <use xlink:href="#DejaVuSans-30"/>
       <use x="63.623047" xlink:href="#DejaVuSans-2e"/>
       <use x="95.410156" xlink:href="#DejaVuSans-31"/>
      </g>
     </g>
    </g>
    <g id="ytick_3">
     <g id="line2d_19">
      <path clip-path="url(#pfaabe77d7e)" d="M 57.6 208.399242 
L 414.72 208.399242 
" style="fill:none;stroke:#b0b0b0;stroke-linecap:square;stroke-width:0.8;"/>
     </g>
     <g id="line2d_20">
      <g>
       <use style="stroke:#000000;stroke-width:0.8;" x="57.6" xlink:href="#m89e7806ea1" y="208.399242"/>
      </g>
     </g>
     <g id="text_10">
      <!-- 0.2 -->
      <g transform="translate(34.696875 212.198461)scale(0.1 -0.1)">
       <use xlink:href="#DejaVuSans-30"/>
       <use x="63.623047" xlink:href="#DejaVuSans-2e"/>
       <use x="95.410156" xlink:href="#DejaVuSans-32"/>
      </g>
     </g>
    </g>
    <g id="ytick_4">
     <g id="line2d_21">
      <path clip-path="url(#pfaabe77d7e)" d="M 57.6 164.787265 
L 414.72 164.787265 
" style="fill:none;stroke:#b0b0b0;stroke-linecap:square;stroke-width:0.8;"/>
     </g>
     <g id="line2d_22">
      <g>
       <use style="stroke:#000000;stroke-width:0.8;" x="57.6" xlink:href="#m89e7806ea1" y="164.787265"/>
      </g>
     </g>
     <g id="text_11">
      <!-- 0.3 -->
      <g transform="translate(34.696875 168.586484)scale(0.1 -0.1)">
       <use xlink:href="#DejaVuSans-30"/>
       <use x="63.623047" xlink:href="#DejaVuSans-2e"/>
       <use x="95.410156" xlink:href="#DejaVuSans-33"/>
      </g>
     </g>
    </g>
    <g id="ytick_5">
     <g id="line2d_23">
      <path clip-path="url(#pfaabe77d7e)" d="M 57.6 121.175287 
L 414.72 121.175287 
" style="fill:none;stroke:#b0b0b0;stroke-linecap:square;stroke-width:0.8;"/>
     </g>
     <g id="line2d_24">
      <g>
       <use style="stroke:#000000;stroke-width:0.8;" x="57.6" xlink:href="#m89e7806ea1" y="121.175287"/>
      </g>
     </g>
     <g id="text_12">
      <!-- 0.4 -->
      <g transform="translate(34.696875 124.974506)scale(0.1 -0.1)">
       <use xlink:href="#DejaVuSans-30"/>
       <use x="63.623047" xlink:href="#DejaVuSans-2e"/>
       <use x="95.410156" xlink:href="#DejaVuSans-34"/>
      </g>
     </g>
    </g>
    <g id="ytick_6">
     <g id="line2d_25">
      <path clip-path="url(#pfaabe77d7e)" d="M 57.6 77.56331 
L 414.72 77.56331 
" style="fill:none;stroke:#b0b0b0;stroke-linecap:square;stroke-width:0.8;"/>
     </g>
     <g id="line2d_26">
      <g>
       <use style="stroke:#000000;stroke-width:0.8;" x="57.6" xlink:href="#m89e7806ea1" y="77.56331"/>
      </g>
     </g>
     <g id="text_13">
      <!-- 0.5 -->
      <g transform="translate(34.696875 81.362529)scale(0.1 -0.1)">
       <use xlink:href="#DejaVuSans-30"/>
       <use x="63.623047" xlink:href="#DejaVuSans-2e"/>
       <use x="95.410156" xlink:href="#DejaVuSans-35"/>
      </g>
     </g>
    </g>
   </g>
   <g id="line2d_27">
    <path clip-path="url(#pfaabe77d7e)" d="M 73.832727 66.328865 
L 74.393443 109.46111 
L 74.954159 110.616828 
L 75.514875 126.238638 
L 76.636307 121.101147 
L 77.197023 126.809955 
L 77.757739 142.213705 
L 78.318455 146.570542 
L 79.439887 160.426067 
L 80.000603 160.971217 
L 80.561319 162.25777 
L 81.122035 169.772114 
L 81.682751 180.474493 
L 82.243467 180.548633 
L 82.804183 190.937007 
L 83.364899 196.763567 
L 83.925615 210.052136 
L 84.486331 217.758373 
L 85.047047 227.440232 
L 86.168479 235.578227 
L 87.289911 249.346528 
L 87.850626 249.582033 
L 88.411342 249.651812 
L 88.972058 243.676971 
L 89.532774 244.754187 
L 90.09349 247.46249 
L 90.654206 248.596402 
L 91.214922 249.363973 
L 91.775638 247.942222 
L 92.336354 249.909122 
L 93.457786 254.641022 
L 94.018502 252.203112 
L 94.579218 255.805462 
L 95.139934 257.720028 
L 95.70065 261.714885 
L 96.261366 262.840074 
L 96.822082 265.094813 
L 97.382798 262.342897 
L 98.50423 247.902971 
L 99.064946 244.056395 
L 99.625662 245.408366 
L 100.186378 245.835764 
L 100.747094 246.642585 
L 101.30781 251.745187 
L 101.868526 254.279043 
L 102.429242 254.296487 
L 102.989958 254.728246 
L 103.550674 254.335738 
L 104.11139 257.40166 
L 104.672106 259.285698 
L 105.232821 257.597914 
L 105.793537 257.222851 
L 106.354253 253.799311 
L 106.914969 252.992489 
L 107.475685 252.617426 
L 109.157833 238.661593 
L 109.718549 237.396846 
L 110.279265 236.86478 
L 110.839981 236.585663 
L 111.400697 235.962012 
L 111.961413 235.124662 
L 112.522129 231.609537 
L 113.082845 229.708054 
L 113.643561 225.198576 
L 114.204277 224.941265 
L 114.764993 225.464609 
L 115.325709 222.791195 
L 115.886425 213.187837 
L 116.447141 213.035195 
L 117.007857 212.14115 
L 117.568573 216.240676 
L 118.129289 204.23866 
L 118.690005 205.198123 
L 119.250721 203.976988 
L 120.932869 192.563733 
L 121.493585 186.305415 
L 122.054301 186.021937 
L 122.615016 183.01271 
L 123.175732 175.642286 
L 123.736448 170.509156 
L 124.297164 170.12101 
L 124.85788 174.316482 
L 125.418596 183.453191 
L 125.979312 187.365186 
L 126.540028 187.461132 
L 127.66146 194.151209 
L 128.222176 194.966753 
L 128.782892 198.433905 
L 129.343608 198.381571 
L 129.904324 200.501113 
L 130.46504 196.44956 
L 131.025756 196.144277 
L 131.586472 195.559876 
L 132.147188 195.359261 
L 132.707904 191.791801 
L 133.26862 183.427024 
L 133.829336 180.82775 
L 134.390052 187.186376 
L 134.950768 175.480922 
L 136.0722 161.254695 
L 136.632916 161.289584 
L 137.193632 159.850389 
L 137.754348 158.83423 
L 138.87578 138.947168 
L 139.436496 137.446916 
L 139.997211 137.237579 
L 140.557927 130.621642 
L 141.118643 128.528267 
L 142.240075 125.77199 
L 142.800791 123.635003 
L 143.361507 123.582669 
L 143.922223 127.651666 
L 144.482939 136.199614 
L 145.043655 136.116751 
L 146.165087 132.25273 
L 146.725803 135.981554 
L 147.286519 138.26246 
L 148.407951 134.4028 
L 148.968667 131.659607 
L 149.529383 131.149347 
L 150.090099 128.371264 
L 150.650815 126.587534 
L 151.211531 125.697849 
L 151.772247 122.549065 
L 152.893679 118.911826 
L 153.454395 118.314342 
L 154.015111 115.645289 
L 154.575827 113.879004 
L 155.136543 112.609895 
L 155.697259 110.490353 
L 156.257975 110.193791 
L 157.379407 106.421355 
L 157.940122 105.043217 
L 158.500838 105.222026 
L 159.061554 103.359795 
L 159.62227 102.417776 
L 160.182986 106.268714 
L 160.743702 111.127088 
L 161.304418 111.628626 
L 161.865134 112.535755 
L 162.42585 118.685044 
L 162.986566 118.152977 
L 163.547282 124.485436 
L 164.107998 127.102155 
L 164.668714 126.862289 
L 165.22943 130.778645 
L 165.790146 127.77378 
L 166.350862 126.753259 
L 166.911578 127.163212 
L 167.472294 127.900254 
L 168.593726 134.223991 
L 170.275874 139.845575 
L 170.83659 143.343256 
L 171.397306 146.021031 
L 172.518738 147.229083 
L 173.079454 152.410186 
L 173.64017 146.579264 
L 174.761602 146.670849 
L 175.322317 147.599785 
L 175.883033 146.901993 
L 176.443749 144.608003 
L 177.004465 140.521561 
L 177.565181 139.684211 
L 178.125897 140.041829 
L 178.686613 140.896624 
L 179.247329 139.457428 
L 179.808045 140.604423 
L 180.368761 141.180101 
L 180.929477 141.498469 
L 181.490193 142.575685 
L 182.050909 144.067214 
L 183.733057 162.052794 
L 184.293773 164.774181 
L 185.975921 178.690763 
L 186.536637 179.488862 
L 187.097353 182.519895 
L 187.658069 186.170217 
L 188.218785 189.044247 
L 188.779501 193.710728 
L 189.340217 196.196611 
L 189.900933 197.483164 
L 190.461649 202.738408 
L 191.022365 204.984424 
L 191.583081 204.260466 
L 192.143797 204.112185 
L 193.265228 208.46466 
L 193.825944 210.095748 
L 194.947376 214.579059 
L 196.068808 215.983365 
L 196.629524 216.611378 
L 197.19024 220.488482 
L 197.750956 220.649847 
L 198.311672 220.536456 
L 198.872388 217.631898 
L 199.433104 219.454879 
L 199.99382 219.35021 
L 200.554536 221.212441 
L 201.115252 220.348924 
L 201.675968 220.549539 
L 202.236684 221.465391 
L 202.7974 222.821723 
L 203.358116 223.345067 
L 204.479548 226.493852 
L 205.60098 232.381469 
L 206.161696 231.517952 
L 206.722412 236.917114 
L 207.283128 235.805009 
L 207.843844 236.834252 
L 208.40456 240.68955 
L 208.965276 241.356814 
L 209.525992 244.841411 
L 210.086707 245.656955 
L 211.208139 248.491733 
L 211.768855 250.541496 
L 212.329571 253.241077 
L 212.890287 255.146921 
L 213.451003 258.648963 
L 214.011719 261.435768 
L 214.572435 263.620728 
L 215.693867 271.56683 
L 216.254583 274.009101 
L 216.815299 278.91981 
L 217.376015 281.392609 
L 217.936731 286.31204 
L 218.497447 286.878996 
L 219.058163 291.815872 
L 219.618879 291.924901 
L 220.179595 293.939775 
L 220.740311 294.733513 
L 221.301027 294.964656 
L 221.861743 290.372315 
L 222.422459 288.579863 
L 222.983175 285.893365 
L 223.543891 284.153247 
L 224.104607 283.503429 
L 224.665323 283.276646 
L 225.226039 287.009832 
L 225.786755 287.118862 
L 226.347471 286.329485 
L 226.908187 286.573712 
L 227.468902 282.203792 
L 228.029618 284.318973 
L 228.590334 284.179414 
L 229.15105 284.349501 
L 229.711766 283.568847 
L 230.272482 282.548326 
L 230.833198 282.666079 
L 231.95463 280.939044 
L 232.515346 288.893869 
L 233.076062 287.018554 
L 233.636778 295.047519 
L 234.197494 286.591157 
L 234.75821 287.964934 
L 235.318926 285.112711 
L 235.879642 283.651709 
L 236.440358 275.103762 
L 237.001074 278.108627 
L 237.56179 278.012681 
L 238.122506 274.183549 
L 238.683222 277.271277 
L 239.243938 273.747429 
L 239.804654 277.8644 
L 240.36537 273.115056 
L 240.926086 273.193557 
L 241.486802 274.392887 
L 242.047518 269.560679 
L 242.608234 273.690734 
L 243.16895 270.611728 
L 243.729666 273.324393 
L 244.851098 268.910861 
L 245.411813 268.692801 
L 246.533245 267.554528 
L 247.093961 266.451145 
L 247.654677 267.672281 
L 248.215393 261.387795 
L 248.776109 261.222069 
L 249.336825 261.47938 
L 249.897541 258.544294 
L 250.458257 254.719523 
L 251.018973 254.165651 
L 251.579689 250.698499 
L 252.140405 248.862435 
L 252.701121 249.259304 
L 253.261837 246.943508 
L 254.383269 252.347032 
L 254.943985 251.112813 
L 255.504701 250.964532 
L 256.065417 248.465566 
L 256.626133 248.731599 
L 258.868997 254.08715 
L 259.429713 254.143845 
L 259.990429 254.357544 
L 260.551145 258.522488 
L 261.111861 258.095091 
L 261.672577 259.246447 
L 262.233293 258.2739 
L 262.794008 256.23722 
L 263.354724 255.456566 
L 263.91544 255.491455 
L 264.476156 254.466574 
L 265.036872 255.953742 
L 265.597588 255.87088 
L 266.158304 260.332385 
L 266.71902 260.598418 
L 267.279736 258.53121 
L 267.840452 258.505043 
L 268.401168 260.973481 
L 268.961884 260.742338 
L 269.5226 257.702583 
L 270.083316 258.932441 
L 270.644032 259.682567 
L 271.204748 259.900626 
L 271.765464 254.767497 
L 272.886896 250.371409 
L 273.447612 251.697213 
L 274.008328 248.962742 
L 274.569044 249.407585 
L 275.12976 247.540992 
L 275.690476 247.527908 
L 276.251192 249.180802 
L 276.811908 249.276749 
L 277.372624 252.791874 
L 277.93334 251.121535 
L 278.494056 248.365258 
L 279.054772 253.188743 
L 279.615488 250.327797 
L 280.736919 243.096932 
L 281.297635 247.793941 
L 281.858351 244.771631 
L 282.419067 242.58231 
L 282.979783 245.687483 
L 283.540499 245.199029 
L 284.101215 238.28653 
L 284.661931 241.422232 
L 285.222647 240.606688 
L 285.783363 241.640291 
L 286.344079 245.229557 
L 286.904795 246.572806 
L 287.465511 244.972247 
L 288.026227 248.788295 
L 288.586943 247.192096 
L 289.708375 245.809597 
L 290.269091 248.469927 
L 290.829807 247.881165 
L 291.390523 255.14256 
L 291.951239 256.511976 
L 292.511955 261.679995 
L 293.633387 258.496321 
L 294.754819 264.161517 
L 296.436967 287.350005 
L 296.997683 290.577291 
L 298.119114 288.244051 
L 298.67983 283.856686 
L 299.240546 275.13429 
L 299.801262 274.802839 
L 300.361978 276.355426 
L 300.922694 281.841812 
L 301.48341 284.113996 
L 302.044126 284.981875 
L 302.604842 283.302814 
L 303.165558 285.1476 
L 304.28699 281.174549 
L 304.847706 284.571922 
L 305.408422 285.230463 
L 305.969138 281.968287 
L 306.529854 286.050368 
L 307.09057 291.161692 
L 307.651286 287.55062 
L 308.212002 290.799712 
L 308.772718 293.316124 
L 309.333434 294.668095 
L 309.89415 295.488 
L 310.454866 290.616542 
L 311.015582 290.09756 
L 311.576298 292.487496 
L 312.137014 279.835661 
L 312.69773 273.211002 
L 313.258446 270.306444 
L 313.819162 265.757715 
L 314.379878 262.883686 
L 314.940593 262.813907 
L 315.501309 261.352905 
L 316.062025 262.081225 
L 316.622741 261.034538 
L 317.183457 259.172306 
L 317.744173 264.043764 
L 318.304889 261.387795 
L 318.865605 270.742564 
L 319.426321 259.547369 
L 319.987037 260.64203 
L 321.108469 267.432415 
L 321.669185 264.724111 
L 322.229901 264.139711 
L 322.790617 262.691793 
L 323.912049 264.253102 
L 324.472765 262.866241 
L 325.033481 262.779017 
L 326.154913 259.095549 
L 326.715629 263.737172 
L 327.276345 259.951652 
L 327.837061 260.9556 
L 328.397777 257.690808 
L 328.958493 256.487989 
L 329.519209 261.810831 
L 330.079925 249.447272 
L 330.640641 253.85557 
L 331.201357 247.124934 
L 331.762073 241.932056 
L 332.322789 242.772458 
L 332.883504 238.576114 
L 333.44422 239.56785 
L 334.004936 238.256874 
L 334.565652 245.377838 
L 335.126368 240.760202 
L 335.687084 243.704708 
L 336.2478 245.170114 
L 336.808516 242.801373 
L 337.369232 238.605552 
L 337.929948 236.271962 
L 339.05138 242.119236 
L 339.612096 237.194574 
L 340.172812 237.408142 
L 340.733528 234.643273 
L 341.85496 238.710003 
L 342.415676 239.666413 
L 342.976392 241.493319 
L 343.537108 243.783384 
L 344.097824 239.165312 
L 344.65854 237.613598 
L 345.219256 234.79103 
L 345.779972 234.196163 
L 346.340688 223.070748 
L 346.901404 228.525734 
L 347.46212 227.921272 
L 348.022836 228.340383 
L 348.583552 224.973974 
L 349.144268 225.683541 
L 349.704984 232.804941 
L 350.265699 241.642908 
L 350.826415 248.216542 
L 351.387131 256.843427 
L 351.947847 256.508923 
L 352.508563 255.133837 
L 353.069279 263.05072 
L 353.629995 262.07512 
L 354.190711 261.61763 
L 354.751427 263.476809 
L 355.312143 263.710569 
L 355.872859 259.562634 
L 356.433575 262.609802 
L 357.555007 259.744932 
L 358.115723 263.81611 
L 358.676439 262.846179 
L 359.237155 265.699711 
L 359.797871 264.155411 
L 360.358587 266.921283 
L 360.919303 272.777935 
L 361.480019 272.118086 
L 362.601451 275.762303 
L 363.162167 280.815622 
L 363.722883 272.023448 
L 364.283599 271.955849 
L 364.844315 276.003477 
L 365.405031 272.064443 
L 365.965747 273.249817 
L 366.526463 280.396947 
L 367.087179 274.093708 
L 367.647894 271.68938 
L 368.20861 258.553016 
L 368.769326 258.805094 
L 369.330042 246.237866 
L 369.890758 247.42324 
L 370.451474 232.917896 
L 371.01219 235.19008 
L 371.572906 232.996398 
L 372.133622 233.567714 
L 372.694338 223.523876 
L 373.255054 210.13936 
L 373.81577 211.670141 
L 374.937202 205.080371 
L 375.497918 195.825909 
L 376.058634 193.217913 
L 376.61935 193.305137 
L 377.180066 183.601472 
L 377.740782 183.662529 
L 378.862214 163.631547 
L 379.42293 165.860119 
L 379.983646 166.374741 
L 380.544362 163.439655 
L 381.105078 164.172336 
L 381.665794 157.176975 
L 382.787226 137.298635 
L 383.347942 133.896901 
L 383.908658 135.357902 
L 384.469374 131.480798 
L 385.030089 126.24736 
L 385.590805 124.611911 
L 386.151521 119.295611 
L 386.712237 109.343358 
L 387.272953 108.702262 
L 387.833669 104.951632 
L 388.394385 95.356997 
L 388.955101 91.47117 
L 389.515817 90.132282 
L 390.637249 82.18618 
L 391.197965 81.728254 
L 391.758681 82.508908 
L 392.319397 73.899904 
L 392.880113 73.354754 
L 393.440829 71.802168 
L 394.001545 66.211112 
L 395.683693 58.997691 
L 396.244409 57.261934 
L 396.805125 56.106217 
L 397.365841 55.853268 
L 397.926557 53.568 
L 398.487273 57.266296 
L 398.487273 57.266296 
" style="fill:none;stroke:#1f77b4;stroke-linecap:square;stroke-width:1.5;"/>
   </g>
   <g id="patch_3">
    <path d="M 57.6 307.584 
L 57.6 41.472 
" style="fill:none;stroke:#000000;stroke-linecap:square;stroke-linejoin:miter;stroke-width:0.8;"/>
   </g>
   <g id="patch_4">
    <path d="M 414.72 307.584 
L 414.72 41.472 
" style="fill:none;stroke:#000000;stroke-linecap:square;stroke-linejoin:miter;stroke-width:0.8;"/>
   </g>
   <g id="patch_5">
    <path d="M 57.6 307.584 
L 414.72 307.584 
" style="fill:none;stroke:#000000;stroke-linecap:square;stroke-linejoin:miter;stroke-width:0.8;"/>
   </g>
   <g id="patch_6">
    <path d="M 57.6 41.472 
L 414.72 41.472 
" style="fill:none;stroke:#000000;stroke-linecap:square;stroke-linejoin:miter;stroke-width:0.8;"/>
   </g>
   <g id="legend_1">
    <g id="patch_7">
     <path d="M 403.72 54.472 
L 407.72 54.472 
Q 409.72 54.472 409.72 52.472 
L 409.72 48.472 
Q 409.72 46.472 407.72 46.472 
L 403.72 46.472 
Q 401.72 46.472 401.72 48.472 
L 401.72 52.472 
Q 401.72 54.472 403.72 54.472 
z
" style="fill:#ffffff;opacity:0.8;stroke:#cccccc;stroke-linejoin:miter;"/>
    </g>
   </g>
  </g>
 </g>
 <defs>
  <clipPath id="pfaabe77d7e">
   <rect height="266.112" width="357.12" x="57.6" y="41.472"/>
  </clipPath>
 </defs>
</svg>
