<?xml version="1.0" encoding="utf-8" standalone="no"?>
<!DOCTYPE svg PUBLIC "-//W3C//DTD SVG 1.1//EN"
  "http://www.w3.org/Graphics/SVG/1.1/DTD/svg11.dtd">
<!-- Created with matplotlib (http://matplotlib.org/) -->
<svg height="345pt" version="1.1" viewBox="0 0 460 345" width="460pt" xmlns="http://www.w3.org/2000/svg" xmlns:xlink="http://www.w3.org/1999/xlink">
 <defs>
  <style type="text/css">
*{stroke-linecap:butt;stroke-linejoin:round;}
  </style>
 </defs>
 <g id="figure_1">
  <g id="patch_1">
   <path d="M 0 345.6 
L 460.8 345.6 
L 460.8 0 
L 0 0 
z
" style="fill:#ffffff;"/>
  </g>
  <g id="axes_1">
   <g id="patch_2">
    <path d="M 57.6 307.584 
L 414.72 307.584 
L 414.72 41.472 
L 57.6 41.472 
z
" style="fill:#ffffff;"/>
   </g>
   <g id="matplotlib.axis_1">
    <g id="xtick_1">
     <g id="line2d_1">
      <path clip-path="url(#p36cd639866)" d="M 73.832727 307.584 
L 73.832727 41.472 
" style="fill:none;stroke:#b0b0b0;stroke-linecap:square;stroke-width:0.8;"/>
     </g>
     <g id="line2d_2">
      <defs>
       <path d="M 0 0 
L 0 3.5 
" id="m7c1085d81d" style="stroke:#000000;stroke-width:0.8;"/>
      </defs>
      <g>
       <use style="stroke:#000000;stroke-width:0.8;" x="73.832727" xlink:href="#m7c1085d81d" y="307.584"/>
      </g>
     </g>
     <g id="text_1">
      <!-- 0 -->
      <defs>
       <path d="M 31.78125 66.40625 
Q 24.171875 66.40625 20.328125 58.90625 
Q 16.5 51.421875 16.5 36.375 
Q 16.5 21.390625 20.328125 13.890625 
Q 24.171875 6.390625 31.78125 6.390625 
Q 39.453125 6.390625 43.28125 13.890625 
Q 47.125 21.390625 47.125 36.375 
Q 47.125 51.421875 43.28125 58.90625 
Q 39.453125 66.40625 31.78125 66.40625 
z
M 31.78125 74.21875 
Q 44.046875 74.21875 50.515625 64.515625 
Q 56.984375 54.828125 56.984375 36.375 
Q 56.984375 17.96875 50.515625 8.265625 
Q 44.046875 -1.421875 31.78125 -1.421875 
Q 19.53125 -1.421875 13.0625 8.265625 
Q 6.59375 17.96875 6.59375 36.375 
Q 6.59375 54.828125 13.0625 64.515625 
Q 19.53125 74.21875 31.78125 74.21875 
z
" id="DejaVuSans-30"/>
      </defs>
      <g transform="translate(70.651477 322.182437)scale(0.1 -0.1)">
       <use xlink:href="#DejaVuSans-30"/>
      </g>
     </g>
    </g>
    <g id="xtick_2">
     <g id="line2d_3">
      <path clip-path="url(#p36cd639866)" d="M 119.687889 307.584 
L 119.687889 41.472 
" style="fill:none;stroke:#b0b0b0;stroke-linecap:square;stroke-width:0.8;"/>
     </g>
     <g id="line2d_4">
      <g>
       <use style="stroke:#000000;stroke-width:0.8;" x="119.687889" xlink:href="#m7c1085d81d" y="307.584"/>
      </g>
     </g>
     <g id="text_2">
      <!-- 50 -->
      <defs>
       <path d="M 10.796875 72.90625 
L 49.515625 72.90625 
L 49.515625 64.59375 
L 19.828125 64.59375 
L 19.828125 46.734375 
Q 21.96875 47.46875 24.109375 47.828125 
Q 26.265625 48.1875 28.421875 48.1875 
Q 40.625 48.1875 47.75 41.5 
Q 54.890625 34.8125 54.890625 23.390625 
Q 54.890625 11.625 47.5625 5.09375 
Q 40.234375 -1.421875 26.90625 -1.421875 
Q 22.3125 -1.421875 17.546875 -0.640625 
Q 12.796875 0.140625 7.71875 1.703125 
L 7.71875 11.625 
Q 12.109375 9.234375 16.796875 8.0625 
Q 21.484375 6.890625 26.703125 6.890625 
Q 35.15625 6.890625 40.078125 11.328125 
Q 45.015625 15.765625 45.015625 23.390625 
Q 45.015625 31 40.078125 35.4375 
Q 35.15625 39.890625 26.703125 39.890625 
Q 22.75 39.890625 18.8125 39.015625 
Q 14.890625 38.140625 10.796875 36.28125 
z
" id="DejaVuSans-35"/>
      </defs>
      <g transform="translate(113.325389 322.182437)scale(0.1 -0.1)">
       <use xlink:href="#DejaVuSans-35"/>
       <use x="63.623047" xlink:href="#DejaVuSans-30"/>
      </g>
     </g>
    </g>
    <g id="xtick_3">
     <g id="line2d_5">
      <path clip-path="url(#p36cd639866)" d="M 165.543051 307.584 
L 165.543051 41.472 
" style="fill:none;stroke:#b0b0b0;stroke-linecap:square;stroke-width:0.8;"/>
     </g>
     <g id="line2d_6">
      <g>
       <use style="stroke:#000000;stroke-width:0.8;" x="165.543051" xlink:href="#m7c1085d81d" y="307.584"/>
      </g>
     </g>
     <g id="text_3">
      <!-- 100 -->
      <defs>
       <path d="M 12.40625 8.296875 
L 28.515625 8.296875 
L 28.515625 63.921875 
L 10.984375 60.40625 
L 10.984375 69.390625 
L 28.421875 72.90625 
L 38.28125 72.90625 
L 38.28125 8.296875 
L 54.390625 8.296875 
L 54.390625 0 
L 12.40625 0 
z
" id="DejaVuSans-31"/>
      </defs>
      <g transform="translate(155.999301 322.182437)scale(0.1 -0.1)">
       <use xlink:href="#DejaVuSans-31"/>
       <use x="63.623047" xlink:href="#DejaVuSans-30"/>
       <use x="127.246094" xlink:href="#DejaVuSans-30"/>
      </g>
     </g>
    </g>
    <g id="xtick_4">
     <g id="line2d_7">
      <path clip-path="url(#p36cd639866)" d="M 211.398213 307.584 
L 211.398213 41.472 
" style="fill:none;stroke:#b0b0b0;stroke-linecap:square;stroke-width:0.8;"/>
     </g>
     <g id="line2d_8">
      <g>
       <use style="stroke:#000000;stroke-width:0.8;" x="211.398213" xlink:href="#m7c1085d81d" y="307.584"/>
      </g>
     </g>
     <g id="text_4">
      <!-- 150 -->
      <g transform="translate(201.854463 322.182437)scale(0.1 -0.1)">
       <use xlink:href="#DejaVuSans-31"/>
       <use x="63.623047" xlink:href="#DejaVuSans-35"/>
       <use x="127.246094" xlink:href="#DejaVuSans-30"/>
      </g>
     </g>
    </g>
    <g id="xtick_5">
     <g id="line2d_9">
      <path clip-path="url(#p36cd639866)" d="M 257.253374 307.584 
L 257.253374 41.472 
" style="fill:none;stroke:#b0b0b0;stroke-linecap:square;stroke-width:0.8;"/>
     </g>
     <g id="line2d_10">
      <g>
       <use style="stroke:#000000;stroke-width:0.8;" x="257.253374" xlink:href="#m7c1085d81d" y="307.584"/>
      </g>
     </g>
     <g id="text_5">
      <!-- 200 -->
      <defs>
       <path d="M 19.1875 8.296875 
L 53.609375 8.296875 
L 53.609375 0 
L 7.328125 0 
L 7.328125 8.296875 
Q 12.9375 14.109375 22.625 23.890625 
Q 32.328125 33.6875 34.8125 36.53125 
Q 39.546875 41.84375 41.421875 45.53125 
Q 43.3125 49.21875 43.3125 52.78125 
Q 43.3125 58.59375 39.234375 62.25 
Q 35.15625 65.921875 28.609375 65.921875 
Q 23.96875 65.921875 18.8125 64.3125 
Q 13.671875 62.703125 7.8125 59.421875 
L 7.8125 69.390625 
Q 13.765625 71.78125 18.9375 73 
Q 24.125 74.21875 28.421875 74.21875 
Q 39.75 74.21875 46.484375 68.546875 
Q 53.21875 62.890625 53.21875 53.421875 
Q 53.21875 48.921875 51.53125 44.890625 
Q 49.859375 40.875 45.40625 35.40625 
Q 44.1875 33.984375 37.640625 27.21875 
Q 31.109375 20.453125 19.1875 8.296875 
z
" id="DejaVuSans-32"/>
      </defs>
      <g transform="translate(247.709624 322.182437)scale(0.1 -0.1)">
       <use xlink:href="#DejaVuSans-32"/>
       <use x="63.623047" xlink:href="#DejaVuSans-30"/>
       <use x="127.246094" xlink:href="#DejaVuSans-30"/>
      </g>
     </g>
    </g>
    <g id="xtick_6">
     <g id="line2d_11">
      <path clip-path="url(#p36cd639866)" d="M 303.108536 307.584 
L 303.108536 41.472 
" style="fill:none;stroke:#b0b0b0;stroke-linecap:square;stroke-width:0.8;"/>
     </g>
     <g id="line2d_12">
      <g>
       <use style="stroke:#000000;stroke-width:0.8;" x="303.108536" xlink:href="#m7c1085d81d" y="307.584"/>
      </g>
     </g>
     <g id="text_6">
      <!-- 250 -->
      <g transform="translate(293.564786 322.182437)scale(0.1 -0.1)">
       <use xlink:href="#DejaVuSans-32"/>
       <use x="63.623047" xlink:href="#DejaVuSans-35"/>
       <use x="127.246094" xlink:href="#DejaVuSans-30"/>
      </g>
     </g>
    </g>
    <g id="xtick_7">
     <g id="line2d_13">
      <path clip-path="url(#p36cd639866)" d="M 348.963698 307.584 
L 348.963698 41.472 
" style="fill:none;stroke:#b0b0b0;stroke-linecap:square;stroke-width:0.8;"/>
     </g>
     <g id="line2d_14">
      <g>
       <use style="stroke:#000000;stroke-width:0.8;" x="348.963698" xlink:href="#m7c1085d81d" y="307.584"/>
      </g>
     </g>
     <g id="text_7">
      <!-- 300 -->
      <defs>
       <path d="M 40.578125 39.3125 
Q 47.65625 37.796875 51.625 33 
Q 55.609375 28.21875 55.609375 21.1875 
Q 55.609375 10.40625 48.1875 4.484375 
Q 40.765625 -1.421875 27.09375 -1.421875 
Q 22.515625 -1.421875 17.65625 -0.515625 
Q 12.796875 0.390625 7.625 2.203125 
L 7.625 11.71875 
Q 11.71875 9.328125 16.59375 8.109375 
Q 21.484375 6.890625 26.8125 6.890625 
Q 36.078125 6.890625 40.9375 10.546875 
Q 45.796875 14.203125 45.796875 21.1875 
Q 45.796875 27.640625 41.28125 31.265625 
Q 36.765625 34.90625 28.71875 34.90625 
L 20.21875 34.90625 
L 20.21875 43.015625 
L 29.109375 43.015625 
Q 36.375 43.015625 40.234375 45.921875 
Q 44.09375 48.828125 44.09375 54.296875 
Q 44.09375 59.90625 40.109375 62.90625 
Q 36.140625 65.921875 28.71875 65.921875 
Q 24.65625 65.921875 20.015625 65.03125 
Q 15.375 64.15625 9.8125 62.3125 
L 9.8125 71.09375 
Q 15.4375 72.65625 20.34375 73.4375 
Q 25.25 74.21875 29.59375 74.21875 
Q 40.828125 74.21875 47.359375 69.109375 
Q 53.90625 64.015625 53.90625 55.328125 
Q 53.90625 49.265625 50.4375 45.09375 
Q 46.96875 40.921875 40.578125 39.3125 
z
" id="DejaVuSans-33"/>
      </defs>
      <g transform="translate(339.419948 322.182437)scale(0.1 -0.1)">
       <use xlink:href="#DejaVuSans-33"/>
       <use x="63.623047" xlink:href="#DejaVuSans-30"/>
       <use x="127.246094" xlink:href="#DejaVuSans-30"/>
      </g>
     </g>
    </g>
    <g id="xtick_8">
     <g id="line2d_15">
      <path clip-path="url(#p36cd639866)" d="M 394.81886 307.584 
L 394.81886 41.472 
" style="fill:none;stroke:#b0b0b0;stroke-linecap:square;stroke-width:0.8;"/>
     </g>
     <g id="line2d_16">
      <g>
       <use style="stroke:#000000;stroke-width:0.8;" x="394.81886" xlink:href="#m7c1085d81d" y="307.584"/>
      </g>
     </g>
     <g id="text_8">
      <!-- 350 -->
      <g transform="translate(385.27511 322.182437)scale(0.1 -0.1)">
       <use xlink:href="#DejaVuSans-33"/>
       <use x="63.623047" xlink:href="#DejaVuSans-35"/>
       <use x="127.246094" xlink:href="#DejaVuSans-30"/>
      </g>
     </g>
    </g>
   </g>
   <g id="matplotlib.axis_2">
    <g id="ytick_1">
     <g id="line2d_17">
      <path clip-path="url(#p36cd639866)" d="M 57.6 284.918572 
L 414.72 284.918572 
" style="fill:none;stroke:#b0b0b0;stroke-linecap:square;stroke-width:0.8;"/>
     </g>
     <g id="line2d_18">
      <defs>
       <path d="M 0 0 
L -3.5 0 
" id="m4627a8681e" style="stroke:#000000;stroke-width:0.8;"/>
      </defs>
      <g>
       <use style="stroke:#000000;stroke-width:0.8;" x="57.6" xlink:href="#m4627a8681e" y="284.918572"/>
      </g>
     </g>
     <g id="text_9">
      <!-- 0 -->
      <g transform="translate(44.2375 288.717791)scale(0.1 -0.1)">
       <use xlink:href="#DejaVuSans-30"/>
      </g>
     </g>
    </g>
    <g id="ytick_2">
     <g id="line2d_19">
      <path clip-path="url(#p36cd639866)" d="M 57.6 226.199855 
L 414.72 226.199855 
" style="fill:none;stroke:#b0b0b0;stroke-linecap:square;stroke-width:0.8;"/>
     </g>
     <g id="line2d_20">
      <g>
       <use style="stroke:#000000;stroke-width:0.8;" x="57.6" xlink:href="#m4627a8681e" y="226.199855"/>
      </g>
     </g>
     <g id="text_10">
      <!-- 10 -->
      <g transform="translate(37.875 229.999074)scale(0.1 -0.1)">
       <use xlink:href="#DejaVuSans-31"/>
       <use x="63.623047" xlink:href="#DejaVuSans-30"/>
      </g>
     </g>
    </g>
    <g id="ytick_3">
     <g id="line2d_21">
      <path clip-path="url(#p36cd639866)" d="M 57.6 167.481137 
L 414.72 167.481137 
" style="fill:none;stroke:#b0b0b0;stroke-linecap:square;stroke-width:0.8;"/>
     </g>
     <g id="line2d_22">
      <g>
       <use style="stroke:#000000;stroke-width:0.8;" x="57.6" xlink:href="#m4627a8681e" y="167.481137"/>
      </g>
     </g>
     <g id="text_11">
      <!-- 20 -->
      <g transform="translate(37.875 171.280356)scale(0.1 -0.1)">
       <use xlink:href="#DejaVuSans-32"/>
       <use x="63.623047" xlink:href="#DejaVuSans-30"/>
      </g>
     </g>
    </g>
    <g id="ytick_4">
     <g id="line2d_23">
      <path clip-path="url(#p36cd639866)" d="M 57.6 108.76242 
L 414.72 108.76242 
" style="fill:none;stroke:#b0b0b0;stroke-linecap:square;stroke-width:0.8;"/>
     </g>
     <g id="line2d_24">
      <g>
       <use style="stroke:#000000;stroke-width:0.8;" x="57.6" xlink:href="#m4627a8681e" y="108.76242"/>
      </g>
     </g>
     <g id="text_12">
      <!-- 30 -->
      <g transform="translate(37.875 112.561639)scale(0.1 -0.1)">
       <use xlink:href="#DejaVuSans-33"/>
       <use x="63.623047" xlink:href="#DejaVuSans-30"/>
      </g>
     </g>
    </g>
    <g id="ytick_5">
     <g id="line2d_25">
      <path clip-path="url(#p36cd639866)" d="M 57.6 50.043703 
L 414.72 50.043703 
" style="fill:none;stroke:#b0b0b0;stroke-linecap:square;stroke-width:0.8;"/>
     </g>
     <g id="line2d_26">
      <g>
       <use style="stroke:#000000;stroke-width:0.8;" x="57.6" xlink:href="#m4627a8681e" y="50.043703"/>
      </g>
     </g>
     <g id="text_13">
      <!-- 40 -->
      <defs>
       <path d="M 37.796875 64.3125 
L 12.890625 25.390625 
L 37.796875 25.390625 
z
M 35.203125 72.90625 
L 47.609375 72.90625 
L 47.609375 25.390625 
L 58.015625 25.390625 
L 58.015625 17.1875 
L 47.609375 17.1875 
L 47.609375 0 
L 37.796875 0 
L 37.796875 17.1875 
L 4.890625 17.1875 
L 4.890625 26.703125 
z
" id="DejaVuSans-34"/>
      </defs>
      <g transform="translate(37.875 53.842921)scale(0.1 -0.1)">
       <use xlink:href="#DejaVuSans-34"/>
       <use x="63.623047" xlink:href="#DejaVuSans-30"/>
      </g>
     </g>
    </g>
   </g>
   <g id="line2d_27">
    <path clip-path="url(#p36cd639866)" d="M 74.749831 291.909681 
L 84.837966 290.870008 
L 94.008998 289.585107 
L 117.853683 285.107503 
L 127.941818 282.641542 
L 131.610231 281.834342 
L 133.444438 281.393776 
L 136.195747 280.891202 
L 142.61547 280.643215 
L 149.952296 280.4902 
L 174.714083 280.353826 
L 175.631186 280.153748 
L 176.54829 279.544923 
L 178.382496 278.906069 
L 179.299599 277.670099 
L 180.216703 276.86759 
L 181.133806 275.499033 
L 182.050909 275.004621 
L 182.968012 272.499035 
L 183.885116 271.307397 
L 184.802219 268.300529 
L 185.719322 266.94125 
L 186.636425 263.456587 
L 188.470632 257.213731 
L 191.221941 247.698245 
L 192.139045 245.34474 
L 193.056148 241.365549 
L 193.973251 238.092802 
L 194.890354 236.49947 
L 195.807458 232.519046 
L 196.724561 230.872397 
L 197.641664 228.571797 
L 198.558767 225.29911 
L 200.392974 220.644477 
L 202.22718 214.098514 
L 204.061387 209.443294 
L 205.895593 202.896157 
L 206.812696 201.513919 
L 208.646903 194.967956 
L 209.564006 194.967956 
L 210.481109 191.695562 
L 212.315316 187.040342 
L 213.232419 183.767948 
L 214.149522 183.092683 
L 215.983729 178.194367 
L 216.900832 175.839747 
L 218.735039 172.567353 
L 219.652142 170.266753 
L 220.569245 168.619693 
L 221.486348 166.319094 
L 222.403451 164.639739 
L 223.320555 161.367932 
L 224.237658 159.067332 
L 225.154761 155.794351 
L 226.988968 151.139131 
L 227.906071 147.192059 
L 229.740277 140.646096 
L 231.574484 132.717308 
L 233.40869 126.174281 
L 235.242897 119.2167 
L 236.16 116.86208 
L 237.994206 110.316117 
L 238.91131 108.020803 
L 239.828413 104.76485 
L 241.662619 100.140164 
L 243.496826 93.925374 
L 245.331032 89.963035 
L 247.165239 85.412335 
L 248.082342 84.047712 
L 248.999445 81.952041 
L 249.916549 80.801741 
L 251.750755 78.186409 
L 252.667858 77.391945 
L 255.419168 74.475974 
L 260.004684 71.063829 
L 260.921787 70.234134 
L 261.838891 69.56474 
L 262.755994 68.219494 
L 263.673097 67.547752 
L 264.5902 66.392168 
L 265.507304 65.719839 
L 266.424407 64.5484 
L 267.34151 63.58189 
L 269.175716 62.218441 
L 270.09282 61.623621 
L 271.009923 61.219636 
L 272.844129 60.946594 
L 274.678336 61.165615 
L 275.595439 61.459208 
L 277.429646 62.509099 
L 279.263852 64.042832 
L 280.180955 65.122082 
L 282.932265 69.33104 
L 283.849368 71.047388 
L 284.766471 73.168895 
L 285.683575 74.946311 
L 287.517781 79.883968 
L 288.434884 83.680133 
L 289.351988 86.719413 
L 290.269091 91.266004 
L 291.186194 94.230125 
L 292.103297 98.497801 
L 293.020401 103.394355 
L 293.937504 106.970325 
L 294.854607 111.994885 
L 295.77171 115.608435 
L 296.688814 120.056378 
L 298.52302 126.17252 
L 300.357227 131.194144 
L 301.27433 132.295708 
L 302.191433 134.807107 
L 303.108536 135.494703 
L 304.025639 137.316745 
L 304.942743 139.82697 
L 305.859846 140.928533 
L 306.776949 142.862141 
L 307.694052 145.385284 
L 308.611156 145.965425 
L 309.528259 148.492679 
L 310.445362 149.714028 
L 311.362465 151.546639 
L 312.279569 154.072718 
L 313.196672 155.873034 
L 314.113775 156.599385 
L 315.030878 159.662153 
L 315.947982 160.976278 
L 316.865085 162.94864 
L 317.782188 165.962671 
L 318.699291 168.238609 
L 319.616394 169.820491 
L 320.533498 172.168065 
L 321.450601 175.432826 
L 323.284807 180.067494 
L 324.201911 181.681085 
L 325.119014 184.927643 
L 326.036117 186.564133 
L 326.95322 188.85475 
L 327.870324 192.114226 
L 328.787427 193.493529 
L 329.70453 196.090071 
L 330.621633 196.763575 
L 332.45584 203.297793 
L 333.372943 203.297793 
L 334.290046 206.564903 
L 335.207149 207.944793 
L 336.124253 211.209553 
L 337.041356 211.883057 
L 337.958459 214.477837 
L 338.875562 215.857727 
L 339.792666 219.124836 
L 340.709769 220.041436 
L 342.543975 224.687261 
L 344.378182 227.954311 
L 345.295285 230.303823 
L 346.212388 231.894279 
L 347.129492 232.600665 
L 350.797904 239.133709 
L 351.715008 239.807565 
L 352.632111 241.48328 
L 353.549214 242.157136 
L 354.466317 243.074029 
L 356.300524 244.453977 
L 357.217627 245.423306 
L 358.13473 247.04588 
L 359.051834 247.04588 
L 359.968937 247.720265 
L 361.803143 247.720265 
L 362.720247 248.690239 
L 363.63735 249.396684 
L 364.554453 250.313577 
L 365.471556 250.987081 
L 367.305763 250.987081 
L 368.222866 251.693525 
L 369.139969 251.693525 
L 370.057072 254.254307 
L 371.891279 254.254307 
L 372.808382 254.960987 
L 373.725485 254.960987 
L 374.642589 255.632025 
L 375.559692 255.632025 
L 376.476795 257.516837 
L 377.393898 257.516837 
L 379.228105 258.897138 
L 381.979414 258.897138 
L 382.896518 259.604052 
L 383.813621 261.491389 
L 384.730724 262.165245 
L 384.730724 262.165245 
" style="fill:none;stroke:#1f77b4;stroke-linecap:square;stroke-width:1.5;"/>
   </g>
   <g id="line2d_28">
    <path clip-path="url(#p36cd639866)" d="M 74.749831 295.488 
L 75.666934 289.616093 
L 76.584037 291.96476 
L 78.418243 291.96476 
L 79.335347 288.444919 
L 80.25245 282.573118 
L 81.169553 291.96476 
L 82.086656 288.441707 
L 83.00376 286.092941 
L 83.920863 287.267286 
L 84.837966 283.747421 
L 85.755069 281.398573 
L 86.672173 284.918557 
L 87.589276 289.616093 
L 89.423482 280.22431 
L 90.340586 288.441707 
L 91.257689 280.22431 
L 92.174792 288.444919 
L 93.091895 282.573118 
L 94.008998 284.918557 
L 94.926102 281.398614 
L 95.843205 288.441666 
L 96.760308 277.875556 
L 97.677411 282.573118 
L 98.594515 286.092941 
L 99.511618 288.441666 
L 100.428721 286.096111 
L 101.345824 274.352315 
L 102.262928 286.0929 
L 103.180031 277.875556 
L 104.097134 275.526748 
L 105.014237 282.573118 
L 105.931341 282.573118 
L 106.848444 281.398655 
L 107.765547 288.441666 
L 108.68265 288.441666 
L 109.599753 273.177999 
L 110.516857 276.701064 
L 111.43396 289.619381 
L 112.351063 279.04993 
L 113.268166 282.573076 
L 114.18527 275.526748 
L 115.102373 283.74738 
L 116.019476 282.573076 
L 116.936579 286.0929 
L 117.853683 284.918557 
L 118.770786 281.398614 
L 119.687889 279.049848 
L 120.604992 283.74738 
L 121.522096 282.573076 
L 122.439199 282.573076 
L 123.356302 274.352315 
L 124.273405 275.523519 
L 125.190508 284.918532 
L 126.107612 277.875556 
L 127.024715 275.526748 
L 127.941818 279.049848 
L 128.858921 273.177999 
L 129.776025 282.569724 
L 130.693128 275.526748 
L 131.610231 279.049848 
L 132.527334 280.22431 
L 134.361541 277.875556 
L 135.278644 279.049848 
L 136.195747 279.049848 
L 137.112851 277.875556 
L 138.029954 279.049848 
L 138.947057 275.526748 
L 139.86416 280.22431 
L 141.698367 282.57256 
L 142.61547 281.398614 
L 143.532573 284.918557 
L 144.449676 280.22431 
L 145.36678 286.092941 
L 146.283883 287.267297 
L 147.200986 276.701064 
L 148.118089 276.701064 
L 149.035193 277.875497 
L 149.952296 273.177999 
L 150.869399 275.526748 
L 151.786502 275.52622 
L 152.703606 287.270509 
L 153.620709 288.441525 
L 154.537812 279.04993 
L 155.454915 277.875497 
L 156.372018 280.22431 
L 157.289122 284.9217 
L 158.206225 276.701181 
L 159.123328 275.526748 
L 160.040431 277.875497 
L 160.957535 276.701064 
L 161.874638 279.04993 
L 162.791741 273.177999 
L 163.708844 272.003566 
L 164.625948 289.616028 
L 165.543051 276.701181 
L 166.460154 288.441525 
L 167.377257 290.790373 
L 168.294361 290.793673 
L 169.211464 289.616028 
L 170.128567 284.9217 
L 171.04567 277.875497 
L 171.962773 276.701181 
L 172.879877 273.177999 
L 173.79698 287.267221 
L 174.714083 289.616028 
L 175.631186 281.398655 
L 176.54829 280.22431 
L 178.382496 275.526748 
L 179.299599 274.352315 
L 180.216703 277.875497 
L 181.133806 273.177999 
L 182.050909 270.829251 
L 182.968012 277.875321 
L 183.885116 275.526689 
L 185.719322 275.526748 
L 186.636425 273.177999 
L 188.470632 270.829075 
L 189.387735 261.434197 
L 190.304838 266.131695 
L 191.221941 261.434139 
L 192.139045 252.039085 
L 193.056148 253.213401 
L 193.973251 250.864652 
L 194.890354 241.46954 
L 195.807458 244.99278 
L 196.724561 236.772042 
L 197.641664 237.946475 
L 198.558767 234.423294 
L 199.475871 233.248919 
L 200.392974 233.248919 
L 201.310077 227.376989 
L 202.22718 222.679668 
L 203.144284 213.284086 
L 204.061387 215.632834 
L 204.97849 213.284086 
L 205.895593 214.459047 
L 206.812696 210.935337 
L 207.7298 212.110299 
L 208.646903 202.714717 
L 209.564006 196.842845 
L 210.481109 192.145347 
L 211.398213 195.66847 
L 212.315316 188.622224 
L 213.232419 185.099101 
L 214.149522 193.319722 
L 215.066626 188.622224 
L 215.983729 186.273476 
L 216.900832 174.529732 
L 217.817935 175.704107 
L 218.735039 181.575978 
L 219.652142 175.704107 
L 220.569245 176.878481 
L 221.486348 169.832235 
L 223.320555 176.878481 
L 224.237658 171.006609 
L 225.154761 162.785989 
L 226.071864 158.088491 
L 226.988968 158.088491 
L 227.906071 155.739743 
L 228.823174 151.042245 
L 229.740277 155.739743 
L 230.657381 151.042245 
L 231.574484 145.169786 
L 232.491587 141.64725 
L 233.40869 128.728545 
L 234.325794 126.379797 
L 235.242897 134.600417 
L 236.16 119.333551 
L 237.077103 116.984802 
L 237.994206 119.333551 
L 238.91131 122.856674 
L 239.828413 109.938556 
L 240.745516 111.11293 
L 241.662619 104.066684 
L 242.579723 104.066684 
L 243.496826 108.764182 
L 244.413929 104.066684 
L 245.331032 88.799818 
L 246.248136 89.974192 
L 247.165239 89.974192 
L 248.082342 85.276695 
L 248.999445 82.927946 
L 250.833652 80.579197 
L 252.667858 80.57861 
L 253.584961 71.184202 
L 254.502065 75.8817 
L 255.419168 82.927946 
L 257.253374 78.230448 
L 258.170478 71.184202 
L 259.087581 78.230448 
L 260.004684 77.055487 
L 260.921787 65.311743 
L 261.838891 68.834867 
L 262.755994 68.834867 
L 263.673097 66.486705 
L 264.5902 65.311743 
L 265.507304 62.962995 
L 266.424407 71.183615 
L 267.34151 59.440459 
L 268.258613 62.962995 
L 269.175716 58.265497 
L 270.09282 62.962995 
L 271.927026 65.311743 
L 272.844129 65.311743 
L 273.761233 60.614246 
L 274.678336 60.614246 
L 275.595439 58.265497 
L 276.512542 58.265497 
L 277.429646 55.916749 
L 278.346749 55.916749 
L 279.263852 53.568 
L 280.180955 53.568 
L 281.098059 59.440459 
L 282.015162 67.660492 
L 283.849368 67.660492 
L 284.766471 79.404823 
L 285.683575 81.753572 
L 286.600678 65.311743 
L 287.517781 66.486705 
L 288.434884 66.486705 
L 289.351988 70.009241 
L 290.269091 74.706738 
L 291.186194 91.148566 
L 292.103297 93.497315 
L 293.020401 93.497315 
L 293.937504 99.369187 
L 294.854607 98.194812 
L 295.77171 107.589807 
L 296.688814 102.89231 
L 297.605917 118.159176 
L 298.52302 120.507925 
L 299.440123 131.077294 
L 300.357227 122.856674 
L 301.27433 99.369187 
L 302.191433 105.241058 
L 303.108536 125.205422 
L 304.025639 127.554758 
L 304.942743 121.682299 
L 305.859846 127.554758 
L 306.776949 125.205422 
L 307.694052 126.379797 
L 308.611156 128.728545 
L 309.528259 146.344748 
L 310.445362 146.344748 
L 311.362465 148.693497 
L 312.279569 149.867871 
L 313.196672 154.565368 
L 314.113775 173.355358 
L 315.030878 149.867284 
L 315.947982 147.519122 
L 316.865085 148.693497 
L 317.782188 151.042245 
L 318.699291 151.042245 
L 319.616394 193.319722 
L 320.533498 164.54755 
L 321.450601 160.143646 
L 322.367704 193.319722 
L 323.284807 161.611614 
L 324.201911 212.109711 
L 325.119014 188.622224 
L 326.036117 219.156545 
L 326.95322 216.807796 
L 327.870324 220.330919 
L 328.787427 220.330919 
L 329.70453 229.725679 
L 330.621633 226.202497 
L 331.538737 215.632834 
L 332.45584 184.218908 
L 333.372943 212.109711 
L 334.290046 212.109711 
L 335.207149 173.942545 
L 336.124253 184.218321 
L 337.041356 184.218321 
L 337.958459 200.365968 
L 338.875562 198.017219 
L 339.792666 198.017219 
L 340.709769 212.696899 
L 341.626872 244.992722 
L 342.543975 255.562149 
L 343.461079 262.608454 
L 344.378182 213.284673 
L 345.295285 208.587175 
L 346.212388 267.30601 
L 347.129492 202.714717 
L 348.046595 225.028416 
L 348.963698 227.377048 
L 349.880801 294.313508 
L 350.797904 209.76155 
L 351.715008 215.632834 
L 352.632111 213.284086 
L 353.549214 229.43185 
L 354.466317 227.963941 
L 356.300524 227.963941 
L 357.217627 239.707626 
L 358.13473 227.377106 
L 359.051834 240.295107 
L 359.968937 221.504706 
L 361.803143 244.992722 
L 362.720247 221.505293 
L 363.63735 222.679668 
L 364.554453 234.423352 
L 365.471556 232.661556 
L 366.388659 232.661556 
L 368.222866 235.597492 
L 369.139969 231.193647 
L 370.057072 217.98217 
L 370.974176 232.661556 
L 371.891279 253.213459 
L 372.808382 259.08539 
L 373.725485 244.992722 
L 374.642589 236.772042 
L 375.559692 290.790373 
L 376.476795 236.772042 
L 377.393898 243.818406 
L 378.311002 281.398591 
L 379.228105 247.34147 
L 380.145208 246.167155 
L 381.062311 242.643973 
L 381.979414 283.747357 
L 382.896518 294.313508 
L 383.813621 293.139134 
L 384.730724 218.569357 
L 384.730724 218.569357 
" style="fill:none;stroke:#ff7f0e;stroke-linecap:square;stroke-width:1.5;"/>
   </g>
   <g id="line2d_29">
    <path clip-path="url(#p36cd639866)" d="M 73.832727 291.968518 
L 80.25245 291.502056 
L 81.169553 291.32725 
L 85.755069 290.973822 
L 89.423482 290.601957 
L 94.926102 289.900033 
L 112.351063 286.977485 
L 114.18527 286.69863 
L 115.102373 286.522768 
L 116.936579 286.330992 
L 118.770786 285.978797 
L 122.439199 285.168185 
L 124.273405 284.757683 
L 126.107612 284.390339 
L 127.941818 283.934916 
L 129.776025 283.583661 
L 134.361541 282.643222 
L 135.278644 282.408541 
L 137.112851 282.115288 
L 138.029954 281.939143 
L 139.86416 281.941686 
L 140.781263 281.825458 
L 142.61547 281.886091 
L 143.532573 281.769658 
L 145.36678 281.891094 
L 148.118089 281.792294 
L 160.040431 281.773979 
L 167.377257 281.658204 
L 168.294361 281.715701 
L 169.211464 281.600659 
L 171.04567 281.639437 
L 171.962773 281.48149 
L 173.79698 281.658409 
L 175.631186 281.599884 
L 176.54829 281.599479 
L 178.382496 281.170128 
L 180.216703 280.230493 
L 181.133806 279.534459 
L 182.050909 278.65322 
L 183.885116 276.396032 
L 184.802219 274.938739 
L 185.719322 273.259636 
L 187.553529 269.010673 
L 189.387735 263.587648 
L 192.139045 254.58231 
L 194.890354 245.949249 
L 196.724561 240.741193 
L 201.310077 227.91908 
L 208.646903 206.169961 
L 210.481109 201.515328 
L 213.232419 194.723921 
L 215.983729 188.145663 
L 218.735039 182.276727 
L 220.569245 178.327307 
L 222.403451 174.05552 
L 225.154761 166.756783 
L 226.988968 161.122135 
L 228.823174 154.820442 
L 231.574484 144.427229 
L 234.325794 133.864907 
L 237.077103 124.357172 
L 239.828413 115.669738 
L 246.248136 96.432899 
L 248.082342 91.579797 
L 249.916549 87.529967 
L 251.750755 84.161861 
L 253.584961 81.2271 
L 255.419168 78.860735 
L 257.253374 76.99759 
L 260.921787 73.939519 
L 270.09282 64.893901 
L 271.927026 63.602089 
L 272.844129 63.097696 
L 273.761233 62.803515 
L 274.678336 62.627946 
L 275.595439 62.569814 
L 276.512542 62.647323 
L 277.429646 62.866931 
L 278.346749 63.219243 
L 280.180955 64.297319 
L 281.098059 65.064185 
L 282.015162 66.047724 
L 282.932265 67.236778 
L 284.766471 70.230845 
L 286.600678 73.62009 
L 287.517781 75.521402 
L 288.434884 77.750951 
L 289.351988 80.392707 
L 291.186194 86.738438 
L 293.020401 94.458188 
L 297.605917 115.214668 
L 299.440123 121.47878 
L 300.357227 123.91502 
L 301.27433 125.713574 
L 303.108536 129.70997 
L 304.025639 131.208472 
L 305.859846 134.854317 
L 307.694052 138.201284 
L 315.947982 154.293736 
L 319.616394 161.79329 
L 322.367704 168.501904 
L 326.036117 178.007877 
L 330.621633 189.098668 
L 340.709769 211.934964 
L 344.378182 219.694408 
L 347.129492 224.884262 
L 349.880801 229.501961 
L 351.715008 232.242304 
L 354.466317 235.591326 
L 356.300524 237.456644 
L 359.051834 239.793649 
L 361.803143 241.621915 
L 365.471556 243.554113 
L 368.222866 245.080741 
L 370.974176 246.791511 
L 381.979414 253.017926 
L 388.399137 256.463188 
L 394.81886 259.999229 
L 397.570169 261.473774 
L 398.487273 261.925379 
L 398.487273 261.925379 
" style="fill:none;stroke:#2ca02c;stroke-linecap:square;stroke-width:1.5;"/>
   </g>
   <g id="line2d_30">
    <path clip-path="url(#p36cd639866)" d="M 73.832727 291.976856 
L 80.25245 291.406638 
L 90.340586 290.212417 
L 99.511618 288.691661 
L 112.351063 286.289126 
L 117.853683 285.249364 
L 121.522096 284.376957 
L 127.024715 283.039984 
L 137.112851 280.844656 
L 139.86416 280.683414 
L 149.952296 280.417178 
L 166.460154 280.407072 
L 172.879877 280.393003 
L 173.79698 280.273334 
L 175.631186 280.217563 
L 176.54829 280.073257 
L 177.465393 279.464442 
L 178.382496 279.320722 
L 180.216703 277.906888 
L 182.968012 274.738038 
L 184.802219 271.054496 
L 185.719322 269.232219 
L 186.636425 266.757049 
L 187.553529 263.772377 
L 189.387735 256.934054 
L 190.304838 253.756549 
L 191.221941 251.318783 
L 193.056148 245.091839 
L 195.807458 235.71628 
L 196.724561 233.838044 
L 197.641664 230.731765 
L 198.558767 228.378437 
L 199.475871 225.633102 
L 200.392974 223.446475 
L 201.310077 220.856099 
L 203.144284 214.717292 
L 204.061387 211.577015 
L 204.97849 209.272893 
L 206.812696 202.774492 
L 207.7298 201.273055 
L 208.646903 198.095198 
L 209.564006 195.363603 
L 210.481109 194.888568 
L 211.398213 190.913311 
L 212.315316 189.444756 
L 214.149522 184.441334 
L 215.066626 183.076124 
L 215.983729 180.239423 
L 216.900832 178.329303 
L 217.817935 175.925359 
L 218.735039 174.317053 
L 222.403451 166.399421 
L 223.320555 163.750033 
L 224.237658 162.011959 
L 226.071864 156.122471 
L 226.988968 153.85769 
L 228.823174 147.518418 
L 230.657381 140.24082 
L 231.574484 136.977821 
L 232.491587 132.491711 
L 233.40869 129.143569 
L 234.325794 126.605746 
L 237.077103 116.602426 
L 237.994206 113.394622 
L 238.91131 110.84212 
L 239.828413 107.742946 
L 240.745516 105.272062 
L 241.662619 102.162319 
L 242.579723 99.866417 
L 243.496826 96.784859 
L 244.413929 94.364473 
L 245.331032 92.397396 
L 247.165239 87.395736 
L 248.999445 84.31359 
L 249.916549 82.186211 
L 250.833652 80.979541 
L 251.750755 79.572641 
L 252.667858 78.582643 
L 254.502065 76.375994 
L 256.336271 74.538685 
L 257.253374 74.003171 
L 261.838891 70.179408 
L 264.5902 67.225269 
L 269.175716 62.669284 
L 271.009923 61.434429 
L 271.927026 60.985231 
L 273.761233 60.720997 
L 274.678336 60.778541 
L 276.512542 61.206601 
L 277.429646 61.624091 
L 278.346749 62.355139 
L 279.263852 62.944087 
L 280.180955 63.761452 
L 281.098059 64.810755 
L 282.932265 67.494788 
L 286.600678 74.558062 
L 287.517781 76.791722 
L 288.434884 79.459314 
L 290.269091 85.974156 
L 294.854607 106.38713 
L 298.52302 122.740293 
L 299.440123 126.137758 
L 300.357227 128.739585 
L 302.191433 132.117085 
L 303.108536 134.140532 
L 304.025639 135.159302 
L 305.859846 139.627796 
L 306.776949 140.465712 
L 307.694052 142.672949 
L 308.611156 144.01291 
L 310.445362 147.761513 
L 311.362465 149.27763 
L 312.279569 151.60113 
L 313.196672 153.235859 
L 314.113775 154.615749 
L 315.947982 158.859938 
L 316.865085 160.660254 
L 321.450601 172.156791 
L 323.284807 177.337544 
L 327.870324 189.128849 
L 328.787427 191.956156 
L 329.70453 192.876865 
L 330.621633 195.653673 
L 333.372943 202.202572 
L 334.290046 203.069847 
L 335.207149 205.887171 
L 336.124253 207.717434 
L 337.041356 210.981607 
L 337.958459 211.273439 
L 338.875562 214.345603 
L 339.792666 216.065474 
L 340.709769 218.481749 
L 341.626872 219.706034 
L 342.543975 222.360766 
L 343.461079 223.961791 
L 346.212388 229.628558 
L 347.129492 231.4607 
L 349.880801 235.639358 
L 350.797904 237.371384 
L 351.715008 238.714223 
L 352.632111 239.579326 
L 355.383421 242.845789 
L 356.300524 243.552175 
L 357.217627 243.962854 
L 359.051834 246.395747 
L 360.88604 247.360671 
L 361.803143 247.491908 
L 362.720247 247.491908 
L 363.63735 248.739328 
L 364.554453 249.750699 
L 365.471556 250.08522 
L 366.388659 250.758723 
L 368.222866 250.758723 
L 369.139969 251.465168 
L 370.057072 251.847251 
L 370.974176 253.929652 
L 372.808382 254.025892 
L 373.725485 254.670917 
L 374.642589 254.732571 
L 375.559692 255.403609 
L 376.476795 255.627092 
L 377.393898 257.075977 
L 378.311002 257.288421 
L 380.145208 258.668663 
L 382.896518 258.668663 
L 383.813621 259.195605 
L 384.730724 261.679113 
L 385.647827 261.936712 
L 388.399137 261.936712 
L 390.233344 263.593519 
L 391.150447 264.720743 
L 392.06755 265.203822 
L 393.901757 265.203822 
L 394.81886 266.449187 
L 395.735963 266.585943 
L 396.653066 266.585943 
L 397.570169 267.502835 
L 398.487273 267.502835 
L 398.487273 267.502835 
" style="fill:none;stroke:#d62728;stroke-linecap:square;stroke-width:1.5;"/>
   </g>
   <g id="patch_3">
    <path d="M 57.6 307.584 
L 57.6 41.472 
" style="fill:none;stroke:#000000;stroke-linecap:square;stroke-linejoin:miter;stroke-width:0.8;"/>
   </g>
   <g id="patch_4">
    <path d="M 414.72 307.584 
L 414.72 41.472 
" style="fill:none;stroke:#000000;stroke-linecap:square;stroke-linejoin:miter;stroke-width:0.8;"/>
   </g>
   <g id="patch_5">
    <path d="M 57.6 307.584 
L 414.72 307.584 
" style="fill:none;stroke:#000000;stroke-linecap:square;stroke-linejoin:miter;stroke-width:0.8;"/>
   </g>
   <g id="patch_6">
    <path d="M 57.6 41.472 
L 414.72 41.472 
" style="fill:none;stroke:#000000;stroke-linecap:square;stroke-linejoin:miter;stroke-width:0.8;"/>
   </g>
   <g id="legend_1">
    <g id="patch_7">
     <path d="M 329.6575 108.1845 
L 407.72 108.1845 
Q 409.72 108.1845 409.72 106.1845 
L 409.72 48.472 
Q 409.72 46.472 407.72 46.472 
L 329.6575 46.472 
Q 327.6575 46.472 327.6575 48.472 
L 327.6575 106.1845 
Q 327.6575 108.1845 329.6575 108.1845 
z
" style="fill:#ffffff;opacity:0.8;stroke:#cccccc;stroke-linejoin:miter;"/>
    </g>
    <g id="line2d_31">
     <path d="M 331.6575 54.570438 
L 351.6575 54.570438 
" style="fill:none;stroke:#1f77b4;stroke-linecap:square;stroke-width:1.5;"/>
    </g>
    <g id="line2d_32"/>
    <g id="text_14">
     <!-- angle -->
     <defs>
      <path d="M 34.28125 27.484375 
Q 23.390625 27.484375 19.1875 25 
Q 14.984375 22.515625 14.984375 16.5 
Q 14.984375 11.71875 18.140625 8.90625 
Q 21.296875 6.109375 26.703125 6.109375 
Q 34.1875 6.109375 38.703125 11.40625 
Q 43.21875 16.703125 43.21875 25.484375 
L 43.21875 27.484375 
z
M 52.203125 31.203125 
L 52.203125 0 
L 43.21875 0 
L 43.21875 8.296875 
Q 40.140625 3.328125 35.546875 0.953125 
Q 30.953125 -1.421875 24.3125 -1.421875 
Q 15.921875 -1.421875 10.953125 3.296875 
Q 6 8.015625 6 15.921875 
Q 6 25.140625 12.171875 29.828125 
Q 18.359375 34.515625 30.609375 34.515625 
L 43.21875 34.515625 
L 43.21875 35.40625 
Q 43.21875 41.609375 39.140625 45 
Q 35.0625 48.390625 27.6875 48.390625 
Q 23 48.390625 18.546875 47.265625 
Q 14.109375 46.140625 10.015625 43.890625 
L 10.015625 52.203125 
Q 14.9375 54.109375 19.578125 55.046875 
Q 24.21875 56 28.609375 56 
Q 40.484375 56 46.34375 49.84375 
Q 52.203125 43.703125 52.203125 31.203125 
z
" id="DejaVuSans-61"/>
      <path d="M 54.890625 33.015625 
L 54.890625 0 
L 45.90625 0 
L 45.90625 32.71875 
Q 45.90625 40.484375 42.875 44.328125 
Q 39.84375 48.1875 33.796875 48.1875 
Q 26.515625 48.1875 22.3125 43.546875 
Q 18.109375 38.921875 18.109375 30.90625 
L 18.109375 0 
L 9.078125 0 
L 9.078125 54.6875 
L 18.109375 54.6875 
L 18.109375 46.1875 
Q 21.34375 51.125 25.703125 53.5625 
Q 30.078125 56 35.796875 56 
Q 45.21875 56 50.046875 50.171875 
Q 54.890625 44.34375 54.890625 33.015625 
z
" id="DejaVuSans-6e"/>
      <path d="M 45.40625 27.984375 
Q 45.40625 37.75 41.375 43.109375 
Q 37.359375 48.484375 30.078125 48.484375 
Q 22.859375 48.484375 18.828125 43.109375 
Q 14.796875 37.75 14.796875 27.984375 
Q 14.796875 18.265625 18.828125 12.890625 
Q 22.859375 7.515625 30.078125 7.515625 
Q 37.359375 7.515625 41.375 12.890625 
Q 45.40625 18.265625 45.40625 27.984375 
z
M 54.390625 6.78125 
Q 54.390625 -7.171875 48.1875 -13.984375 
Q 42 -20.796875 29.203125 -20.796875 
Q 24.46875 -20.796875 20.265625 -20.09375 
Q 16.0625 -19.390625 12.109375 -17.921875 
L 12.109375 -9.1875 
Q 16.0625 -11.328125 19.921875 -12.34375 
Q 23.78125 -13.375 27.78125 -13.375 
Q 36.625 -13.375 41.015625 -8.765625 
Q 45.40625 -4.15625 45.40625 5.171875 
L 45.40625 9.625 
Q 42.625 4.78125 38.28125 2.390625 
Q 33.9375 0 27.875 0 
Q 17.828125 0 11.671875 7.65625 
Q 5.515625 15.328125 5.515625 27.984375 
Q 5.515625 40.671875 11.671875 48.328125 
Q 17.828125 56 27.875 56 
Q 33.9375 56 38.28125 53.609375 
Q 42.625 51.21875 45.40625 46.390625 
L 45.40625 54.6875 
L 54.390625 54.6875 
z
" id="DejaVuSans-67"/>
      <path d="M 9.421875 75.984375 
L 18.40625 75.984375 
L 18.40625 0 
L 9.421875 0 
z
" id="DejaVuSans-6c"/>
      <path d="M 56.203125 29.59375 
L 56.203125 25.203125 
L 14.890625 25.203125 
Q 15.484375 15.921875 20.484375 11.0625 
Q 25.484375 6.203125 34.421875 6.203125 
Q 39.59375 6.203125 44.453125 7.46875 
Q 49.3125 8.734375 54.109375 11.28125 
L 54.109375 2.78125 
Q 49.265625 0.734375 44.1875 -0.34375 
Q 39.109375 -1.421875 33.890625 -1.421875 
Q 20.796875 -1.421875 13.15625 6.1875 
Q 5.515625 13.8125 5.515625 26.8125 
Q 5.515625 40.234375 12.765625 48.109375 
Q 20.015625 56 32.328125 56 
Q 43.359375 56 49.78125 48.890625 
Q 56.203125 41.796875 56.203125 29.59375 
z
M 47.21875 32.234375 
Q 47.125 39.59375 43.09375 43.984375 
Q 39.0625 48.390625 32.421875 48.390625 
Q 24.90625 48.390625 20.390625 44.140625 
Q 15.875 39.890625 15.1875 32.171875 
z
" id="DejaVuSans-65"/>
     </defs>
     <g transform="translate(359.6575 58.070438)scale(0.1 -0.1)">
      <use xlink:href="#DejaVuSans-61"/>
      <use x="61.279297" xlink:href="#DejaVuSans-6e"/>
      <use x="124.658203" xlink:href="#DejaVuSans-67"/>
      <use x="188.134766" xlink:href="#DejaVuSans-6c"/>
      <use x="215.917969" xlink:href="#DejaVuSans-65"/>
     </g>
    </g>
    <g id="line2d_33">
     <path d="M 331.6575 69.248563 
L 351.6575 69.248563 
" style="fill:none;stroke:#ff7f0e;stroke-linecap:square;stroke-width:1.5;"/>
    </g>
    <g id="line2d_34"/>
    <g id="text_15">
     <!-- ztheta -->
     <defs>
      <path d="M 5.515625 54.6875 
L 48.1875 54.6875 
L 48.1875 46.484375 
L 14.40625 7.171875 
L 48.1875 7.171875 
L 48.1875 0 
L 4.296875 0 
L 4.296875 8.203125 
L 38.09375 47.515625 
L 5.515625 47.515625 
z
" id="DejaVuSans-7a"/>
      <path d="M 18.3125 70.21875 
L 18.3125 54.6875 
L 36.8125 54.6875 
L 36.8125 47.703125 
L 18.3125 47.703125 
L 18.3125 18.015625 
Q 18.3125 11.328125 20.140625 9.421875 
Q 21.96875 7.515625 27.59375 7.515625 
L 36.8125 7.515625 
L 36.8125 0 
L 27.59375 0 
Q 17.1875 0 13.234375 3.875 
Q 9.28125 7.765625 9.28125 18.015625 
L 9.28125 47.703125 
L 2.6875 47.703125 
L 2.6875 54.6875 
L 9.28125 54.6875 
L 9.28125 70.21875 
z
" id="DejaVuSans-74"/>
      <path d="M 54.890625 33.015625 
L 54.890625 0 
L 45.90625 0 
L 45.90625 32.71875 
Q 45.90625 40.484375 42.875 44.328125 
Q 39.84375 48.1875 33.796875 48.1875 
Q 26.515625 48.1875 22.3125 43.546875 
Q 18.109375 38.921875 18.109375 30.90625 
L 18.109375 0 
L 9.078125 0 
L 9.078125 75.984375 
L 18.109375 75.984375 
L 18.109375 46.1875 
Q 21.34375 51.125 25.703125 53.5625 
Q 30.078125 56 35.796875 56 
Q 45.21875 56 50.046875 50.171875 
Q 54.890625 44.34375 54.890625 33.015625 
z
" id="DejaVuSans-68"/>
     </defs>
     <g transform="translate(359.6575 72.748563)scale(0.1 -0.1)">
      <use xlink:href="#DejaVuSans-7a"/>
      <use x="52.490234" xlink:href="#DejaVuSans-74"/>
      <use x="91.699219" xlink:href="#DejaVuSans-68"/>
      <use x="155.078125" xlink:href="#DejaVuSans-65"/>
      <use x="216.601562" xlink:href="#DejaVuSans-74"/>
      <use x="255.810547" xlink:href="#DejaVuSans-61"/>
     </g>
    </g>
    <g id="line2d_35">
     <path d="M 331.6575 83.926688 
L 351.6575 83.926688 
" style="fill:none;stroke:#2ca02c;stroke-linecap:square;stroke-width:1.5;"/>
    </g>
    <g id="line2d_36"/>
    <g id="text_16">
     <!-- RTKtheta -->
     <defs>
      <path d="M 44.390625 34.1875 
Q 47.5625 33.109375 50.5625 29.59375 
Q 53.5625 26.078125 56.59375 19.921875 
L 66.609375 0 
L 56 0 
L 46.6875 18.703125 
Q 43.0625 26.03125 39.671875 28.421875 
Q 36.28125 30.8125 30.421875 30.8125 
L 19.671875 30.8125 
L 19.671875 0 
L 9.8125 0 
L 9.8125 72.90625 
L 32.078125 72.90625 
Q 44.578125 72.90625 50.734375 67.671875 
Q 56.890625 62.453125 56.890625 51.90625 
Q 56.890625 45.015625 53.6875 40.46875 
Q 50.484375 35.9375 44.390625 34.1875 
z
M 19.671875 64.796875 
L 19.671875 38.921875 
L 32.078125 38.921875 
Q 39.203125 38.921875 42.84375 42.21875 
Q 46.484375 45.515625 46.484375 51.90625 
Q 46.484375 58.296875 42.84375 61.546875 
Q 39.203125 64.796875 32.078125 64.796875 
z
" id="DejaVuSans-52"/>
      <path d="M -0.296875 72.90625 
L 61.375 72.90625 
L 61.375 64.59375 
L 35.5 64.59375 
L 35.5 0 
L 25.59375 0 
L 25.59375 64.59375 
L -0.296875 64.59375 
z
" id="DejaVuSans-54"/>
      <path d="M 9.8125 72.90625 
L 19.671875 72.90625 
L 19.671875 42.09375 
L 52.390625 72.90625 
L 65.09375 72.90625 
L 28.90625 38.921875 
L 67.671875 0 
L 54.6875 0 
L 19.671875 35.109375 
L 19.671875 0 
L 9.8125 0 
z
" id="DejaVuSans-4b"/>
     </defs>
     <g transform="translate(359.6575 87.426688)scale(0.1 -0.1)">
      <use xlink:href="#DejaVuSans-52"/>
      <use x="69.373047" xlink:href="#DejaVuSans-54"/>
      <use x="130.457031" xlink:href="#DejaVuSans-4b"/>
      <use x="196.033203" xlink:href="#DejaVuSans-74"/>
      <use x="235.242188" xlink:href="#DejaVuSans-68"/>
      <use x="298.621094" xlink:href="#DejaVuSans-65"/>
      <use x="360.144531" xlink:href="#DejaVuSans-74"/>
      <use x="399.353516" xlink:href="#DejaVuSans-61"/>
     </g>
    </g>
    <g id="line2d_37">
     <path d="M 331.6575 98.604813 
L 351.6575 98.604813 
" style="fill:none;stroke:#d62728;stroke-linecap:square;stroke-width:1.5;"/>
    </g>
    <g id="line2d_38"/>
    <g id="text_17">
     <!-- DRtheta -->
     <defs>
      <path d="M 19.671875 64.796875 
L 19.671875 8.109375 
L 31.59375 8.109375 
Q 46.6875 8.109375 53.6875 14.9375 
Q 60.6875 21.78125 60.6875 36.53125 
Q 60.6875 51.171875 53.6875 57.984375 
Q 46.6875 64.796875 31.59375 64.796875 
z
M 9.8125 72.90625 
L 30.078125 72.90625 
Q 51.265625 72.90625 61.171875 64.09375 
Q 71.09375 55.28125 71.09375 36.53125 
Q 71.09375 17.671875 61.125 8.828125 
Q 51.171875 0 30.078125 0 
L 9.8125 0 
z
" id="DejaVuSans-44"/>
     </defs>
     <g transform="translate(359.6575 102.104813)scale(0.1 -0.1)">
      <use xlink:href="#DejaVuSans-44"/>
      <use x="77.001953" xlink:href="#DejaVuSans-52"/>
      <use x="146.484375" xlink:href="#DejaVuSans-74"/>
      <use x="185.693359" xlink:href="#DejaVuSans-68"/>
      <use x="249.072266" xlink:href="#DejaVuSans-65"/>
      <use x="310.595703" xlink:href="#DejaVuSans-74"/>
      <use x="349.804688" xlink:href="#DejaVuSans-61"/>
     </g>
    </g>
   </g>
  </g>
 </g>
 <defs>
  <clipPath id="p36cd639866">
   <rect height="266.112" width="357.12" x="57.6" y="41.472"/>
  </clipPath>
 </defs>
</svg>
