<?xml version="1.0" encoding="utf-8" standalone="no"?>
<!DOCTYPE svg PUBLIC "-//W3C//DTD SVG 1.1//EN"
  "http://www.w3.org/Graphics/SVG/1.1/DTD/svg11.dtd">
<!-- Created with matplotlib (http://matplotlib.org/) -->
<svg height="345pt" version="1.1" viewBox="0 0 460 345" width="460pt" xmlns="http://www.w3.org/2000/svg" xmlns:xlink="http://www.w3.org/1999/xlink">
 <defs>
  <style type="text/css">
*{stroke-linecap:butt;stroke-linejoin:round;}
  </style>
 </defs>
 <g id="figure_1">
  <g id="patch_1">
   <path d="M 0 345.6 
L 460.8 345.6 
L 460.8 0 
L 0 0 
z
" style="fill:#ffffff;"/>
  </g>
  <g id="axes_1">
   <g id="patch_2">
    <path d="M 57.6 307.584 
L 414.72 307.584 
L 414.72 41.472 
L 57.6 41.472 
z
" style="fill:#ffffff;"/>
   </g>
   <g id="matplotlib.axis_1">
    <g id="xtick_1">
     <g id="line2d_1">
      <path clip-path="url(#p0581561527)" d="M 73.832727 307.584 
L 73.832727 41.472 
" style="fill:none;stroke:#b0b0b0;stroke-linecap:square;stroke-width:0.8;"/>
     </g>
     <g id="line2d_2">
      <defs>
       <path d="M 0 0 
L 0 3.5 
" id="m80a36f435b" style="stroke:#000000;stroke-width:0.8;"/>
      </defs>
      <g>
       <use style="stroke:#000000;stroke-width:0.8;" x="73.832727" xlink:href="#m80a36f435b" y="307.584"/>
      </g>
     </g>
     <g id="text_1">
      <!-- 0 -->
      <defs>
       <path d="M 31.78125 66.40625 
Q 24.171875 66.40625 20.328125 58.90625 
Q 16.5 51.421875 16.5 36.375 
Q 16.5 21.390625 20.328125 13.890625 
Q 24.171875 6.390625 31.78125 6.390625 
Q 39.453125 6.390625 43.28125 13.890625 
Q 47.125 21.390625 47.125 36.375 
Q 47.125 51.421875 43.28125 58.90625 
Q 39.453125 66.40625 31.78125 66.40625 
z
M 31.78125 74.21875 
Q 44.046875 74.21875 50.515625 64.515625 
Q 56.984375 54.828125 56.984375 36.375 
Q 56.984375 17.96875 50.515625 8.265625 
Q 44.046875 -1.421875 31.78125 -1.421875 
Q 19.53125 -1.421875 13.0625 8.265625 
Q 6.59375 17.96875 6.59375 36.375 
Q 6.59375 54.828125 13.0625 64.515625 
Q 19.53125 74.21875 31.78125 74.21875 
z
" id="DejaVuSans-30"/>
      </defs>
      <g transform="translate(70.651477 322.182437)scale(0.1 -0.1)">
       <use xlink:href="#DejaVuSans-30"/>
      </g>
     </g>
    </g>
    <g id="xtick_2">
     <g id="line2d_3">
      <path clip-path="url(#p0581561527)" d="M 129.904324 307.584 
L 129.904324 41.472 
" style="fill:none;stroke:#b0b0b0;stroke-linecap:square;stroke-width:0.8;"/>
     </g>
     <g id="line2d_4">
      <g>
       <use style="stroke:#000000;stroke-width:0.8;" x="129.904324" xlink:href="#m80a36f435b" y="307.584"/>
      </g>
     </g>
     <g id="text_2">
      <!-- 100 -->
      <defs>
       <path d="M 12.40625 8.296875 
L 28.515625 8.296875 
L 28.515625 63.921875 
L 10.984375 60.40625 
L 10.984375 69.390625 
L 28.421875 72.90625 
L 38.28125 72.90625 
L 38.28125 8.296875 
L 54.390625 8.296875 
L 54.390625 0 
L 12.40625 0 
z
" id="DejaVuSans-31"/>
      </defs>
      <g transform="translate(120.360574 322.182437)scale(0.1 -0.1)">
       <use xlink:href="#DejaVuSans-31"/>
       <use x="63.623047" xlink:href="#DejaVuSans-30"/>
       <use x="127.246094" xlink:href="#DejaVuSans-30"/>
      </g>
     </g>
    </g>
    <g id="xtick_3">
     <g id="line2d_5">
      <path clip-path="url(#p0581561527)" d="M 185.975921 307.584 
L 185.975921 41.472 
" style="fill:none;stroke:#b0b0b0;stroke-linecap:square;stroke-width:0.8;"/>
     </g>
     <g id="line2d_6">
      <g>
       <use style="stroke:#000000;stroke-width:0.8;" x="185.975921" xlink:href="#m80a36f435b" y="307.584"/>
      </g>
     </g>
     <g id="text_3">
      <!-- 200 -->
      <defs>
       <path d="M 19.1875 8.296875 
L 53.609375 8.296875 
L 53.609375 0 
L 7.328125 0 
L 7.328125 8.296875 
Q 12.9375 14.109375 22.625 23.890625 
Q 32.328125 33.6875 34.8125 36.53125 
Q 39.546875 41.84375 41.421875 45.53125 
Q 43.3125 49.21875 43.3125 52.78125 
Q 43.3125 58.59375 39.234375 62.25 
Q 35.15625 65.921875 28.609375 65.921875 
Q 23.96875 65.921875 18.8125 64.3125 
Q 13.671875 62.703125 7.8125 59.421875 
L 7.8125 69.390625 
Q 13.765625 71.78125 18.9375 73 
Q 24.125 74.21875 28.421875 74.21875 
Q 39.75 74.21875 46.484375 68.546875 
Q 53.21875 62.890625 53.21875 53.421875 
Q 53.21875 48.921875 51.53125 44.890625 
Q 49.859375 40.875 45.40625 35.40625 
Q 44.1875 33.984375 37.640625 27.21875 
Q 31.109375 20.453125 19.1875 8.296875 
z
" id="DejaVuSans-32"/>
      </defs>
      <g transform="translate(176.432171 322.182437)scale(0.1 -0.1)">
       <use xlink:href="#DejaVuSans-32"/>
       <use x="63.623047" xlink:href="#DejaVuSans-30"/>
       <use x="127.246094" xlink:href="#DejaVuSans-30"/>
      </g>
     </g>
    </g>
    <g id="xtick_4">
     <g id="line2d_7">
      <path clip-path="url(#p0581561527)" d="M 242.047518 307.584 
L 242.047518 41.472 
" style="fill:none;stroke:#b0b0b0;stroke-linecap:square;stroke-width:0.8;"/>
     </g>
     <g id="line2d_8">
      <g>
       <use style="stroke:#000000;stroke-width:0.8;" x="242.047518" xlink:href="#m80a36f435b" y="307.584"/>
      </g>
     </g>
     <g id="text_4">
      <!-- 300 -->
      <defs>
       <path d="M 40.578125 39.3125 
Q 47.65625 37.796875 51.625 33 
Q 55.609375 28.21875 55.609375 21.1875 
Q 55.609375 10.40625 48.1875 4.484375 
Q 40.765625 -1.421875 27.09375 -1.421875 
Q 22.515625 -1.421875 17.65625 -0.515625 
Q 12.796875 0.390625 7.625 2.203125 
L 7.625 11.71875 
Q 11.71875 9.328125 16.59375 8.109375 
Q 21.484375 6.890625 26.8125 6.890625 
Q 36.078125 6.890625 40.9375 10.546875 
Q 45.796875 14.203125 45.796875 21.1875 
Q 45.796875 27.640625 41.28125 31.265625 
Q 36.765625 34.90625 28.71875 34.90625 
L 20.21875 34.90625 
L 20.21875 43.015625 
L 29.109375 43.015625 
Q 36.375 43.015625 40.234375 45.921875 
Q 44.09375 48.828125 44.09375 54.296875 
Q 44.09375 59.90625 40.109375 62.90625 
Q 36.140625 65.921875 28.71875 65.921875 
Q 24.65625 65.921875 20.015625 65.03125 
Q 15.375 64.15625 9.8125 62.3125 
L 9.8125 71.09375 
Q 15.4375 72.65625 20.34375 73.4375 
Q 25.25 74.21875 29.59375 74.21875 
Q 40.828125 74.21875 47.359375 69.109375 
Q 53.90625 64.015625 53.90625 55.328125 
Q 53.90625 49.265625 50.4375 45.09375 
Q 46.96875 40.921875 40.578125 39.3125 
z
" id="DejaVuSans-33"/>
      </defs>
      <g transform="translate(232.503768 322.182437)scale(0.1 -0.1)">
       <use xlink:href="#DejaVuSans-33"/>
       <use x="63.623047" xlink:href="#DejaVuSans-30"/>
       <use x="127.246094" xlink:href="#DejaVuSans-30"/>
      </g>
     </g>
    </g>
    <g id="xtick_5">
     <g id="line2d_9">
      <path clip-path="url(#p0581561527)" d="M 298.119114 307.584 
L 298.119114 41.472 
" style="fill:none;stroke:#b0b0b0;stroke-linecap:square;stroke-width:0.8;"/>
     </g>
     <g id="line2d_10">
      <g>
       <use style="stroke:#000000;stroke-width:0.8;" x="298.119114" xlink:href="#m80a36f435b" y="307.584"/>
      </g>
     </g>
     <g id="text_5">
      <!-- 400 -->
      <defs>
       <path d="M 37.796875 64.3125 
L 12.890625 25.390625 
L 37.796875 25.390625 
z
M 35.203125 72.90625 
L 47.609375 72.90625 
L 47.609375 25.390625 
L 58.015625 25.390625 
L 58.015625 17.1875 
L 47.609375 17.1875 
L 47.609375 0 
L 37.796875 0 
L 37.796875 17.1875 
L 4.890625 17.1875 
L 4.890625 26.703125 
z
" id="DejaVuSans-34"/>
      </defs>
      <g transform="translate(288.575364 322.182437)scale(0.1 -0.1)">
       <use xlink:href="#DejaVuSans-34"/>
       <use x="63.623047" xlink:href="#DejaVuSans-30"/>
       <use x="127.246094" xlink:href="#DejaVuSans-30"/>
      </g>
     </g>
    </g>
    <g id="xtick_6">
     <g id="line2d_11">
      <path clip-path="url(#p0581561527)" d="M 354.190711 307.584 
L 354.190711 41.472 
" style="fill:none;stroke:#b0b0b0;stroke-linecap:square;stroke-width:0.8;"/>
     </g>
     <g id="line2d_12">
      <g>
       <use style="stroke:#000000;stroke-width:0.8;" x="354.190711" xlink:href="#m80a36f435b" y="307.584"/>
      </g>
     </g>
     <g id="text_6">
      <!-- 500 -->
      <defs>
       <path d="M 10.796875 72.90625 
L 49.515625 72.90625 
L 49.515625 64.59375 
L 19.828125 64.59375 
L 19.828125 46.734375 
Q 21.96875 47.46875 24.109375 47.828125 
Q 26.265625 48.1875 28.421875 48.1875 
Q 40.625 48.1875 47.75 41.5 
Q 54.890625 34.8125 54.890625 23.390625 
Q 54.890625 11.625 47.5625 5.09375 
Q 40.234375 -1.421875 26.90625 -1.421875 
Q 22.3125 -1.421875 17.546875 -0.640625 
Q 12.796875 0.140625 7.71875 1.703125 
L 7.71875 11.625 
Q 12.109375 9.234375 16.796875 8.0625 
Q 21.484375 6.890625 26.703125 6.890625 
Q 35.15625 6.890625 40.078125 11.328125 
Q 45.015625 15.765625 45.015625 23.390625 
Q 45.015625 31 40.078125 35.4375 
Q 35.15625 39.890625 26.703125 39.890625 
Q 22.75 39.890625 18.8125 39.015625 
Q 14.890625 38.140625 10.796875 36.28125 
z
" id="DejaVuSans-35"/>
      </defs>
      <g transform="translate(344.646961 322.182437)scale(0.1 -0.1)">
       <use xlink:href="#DejaVuSans-35"/>
       <use x="63.623047" xlink:href="#DejaVuSans-30"/>
       <use x="127.246094" xlink:href="#DejaVuSans-30"/>
      </g>
     </g>
    </g>
    <g id="xtick_7">
     <g id="line2d_13">
      <path clip-path="url(#p0581561527)" d="M 410.262308 307.584 
L 410.262308 41.472 
" style="fill:none;stroke:#b0b0b0;stroke-linecap:square;stroke-width:0.8;"/>
     </g>
     <g id="line2d_14">
      <g>
       <use style="stroke:#000000;stroke-width:0.8;" x="410.262308" xlink:href="#m80a36f435b" y="307.584"/>
      </g>
     </g>
     <g id="text_7">
      <!-- 600 -->
      <defs>
       <path d="M 33.015625 40.375 
Q 26.375 40.375 22.484375 35.828125 
Q 18.609375 31.296875 18.609375 23.390625 
Q 18.609375 15.53125 22.484375 10.953125 
Q 26.375 6.390625 33.015625 6.390625 
Q 39.65625 6.390625 43.53125 10.953125 
Q 47.40625 15.53125 47.40625 23.390625 
Q 47.40625 31.296875 43.53125 35.828125 
Q 39.65625 40.375 33.015625 40.375 
z
M 52.59375 71.296875 
L 52.59375 62.3125 
Q 48.875 64.0625 45.09375 64.984375 
Q 41.3125 65.921875 37.59375 65.921875 
Q 27.828125 65.921875 22.671875 59.328125 
Q 17.53125 52.734375 16.796875 39.40625 
Q 19.671875 43.65625 24.015625 45.921875 
Q 28.375 48.1875 33.59375 48.1875 
Q 44.578125 48.1875 50.953125 41.515625 
Q 57.328125 34.859375 57.328125 23.390625 
Q 57.328125 12.15625 50.6875 5.359375 
Q 44.046875 -1.421875 33.015625 -1.421875 
Q 20.359375 -1.421875 13.671875 8.265625 
Q 6.984375 17.96875 6.984375 36.375 
Q 6.984375 53.65625 15.1875 63.9375 
Q 23.390625 74.21875 37.203125 74.21875 
Q 40.921875 74.21875 44.703125 73.484375 
Q 48.484375 72.75 52.59375 71.296875 
z
" id="DejaVuSans-36"/>
      </defs>
      <g transform="translate(400.718558 322.182437)scale(0.1 -0.1)">
       <use xlink:href="#DejaVuSans-36"/>
       <use x="63.623047" xlink:href="#DejaVuSans-30"/>
       <use x="127.246094" xlink:href="#DejaVuSans-30"/>
      </g>
     </g>
    </g>
   </g>
   <g id="matplotlib.axis_2">
    <g id="ytick_1">
     <g id="line2d_15">
      <path clip-path="url(#p0581561527)" d="M 57.6 295.564669 
L 414.72 295.564669 
" style="fill:none;stroke:#b0b0b0;stroke-linecap:square;stroke-width:0.8;"/>
     </g>
     <g id="line2d_16">
      <defs>
       <path d="M 0 0 
L -3.5 0 
" id="m5349e270c6" style="stroke:#000000;stroke-width:0.8;"/>
      </defs>
      <g>
       <use style="stroke:#000000;stroke-width:0.8;" x="57.6" xlink:href="#m5349e270c6" y="295.564669"/>
      </g>
     </g>
     <g id="text_8">
      <!-- 0.0 -->
      <defs>
       <path d="M 10.6875 12.40625 
L 21 12.40625 
L 21 0 
L 10.6875 0 
z
" id="DejaVuSans-2e"/>
      </defs>
      <g transform="translate(34.696875 299.363888)scale(0.1 -0.1)">
       <use xlink:href="#DejaVuSans-30"/>
       <use x="63.623047" xlink:href="#DejaVuSans-2e"/>
       <use x="95.410156" xlink:href="#DejaVuSans-30"/>
      </g>
     </g>
    </g>
    <g id="ytick_2">
     <g id="line2d_17">
      <path clip-path="url(#p0581561527)" d="M 57.6 247.646434 
L 414.72 247.646434 
" style="fill:none;stroke:#b0b0b0;stroke-linecap:square;stroke-width:0.8;"/>
     </g>
     <g id="line2d_18">
      <g>
       <use style="stroke:#000000;stroke-width:0.8;" x="57.6" xlink:href="#m5349e270c6" y="247.646434"/>
      </g>
     </g>
     <g id="text_9">
      <!-- 0.1 -->
      <g transform="translate(34.696875 251.445653)scale(0.1 -0.1)">
       <use xlink:href="#DejaVuSans-30"/>
       <use x="63.623047" xlink:href="#DejaVuSans-2e"/>
       <use x="95.410156" xlink:href="#DejaVuSans-31"/>
      </g>
     </g>
    </g>
    <g id="ytick_3">
     <g id="line2d_19">
      <path clip-path="url(#p0581561527)" d="M 57.6 199.7282 
L 414.72 199.7282 
" style="fill:none;stroke:#b0b0b0;stroke-linecap:square;stroke-width:0.8;"/>
     </g>
     <g id="line2d_20">
      <g>
       <use style="stroke:#000000;stroke-width:0.8;" x="57.6" xlink:href="#m5349e270c6" y="199.7282"/>
      </g>
     </g>
     <g id="text_10">
      <!-- 0.2 -->
      <g transform="translate(34.696875 203.527418)scale(0.1 -0.1)">
       <use xlink:href="#DejaVuSans-30"/>
       <use x="63.623047" xlink:href="#DejaVuSans-2e"/>
       <use x="95.410156" xlink:href="#DejaVuSans-32"/>
      </g>
     </g>
    </g>
    <g id="ytick_4">
     <g id="line2d_21">
      <path clip-path="url(#p0581561527)" d="M 57.6 151.809965 
L 414.72 151.809965 
" style="fill:none;stroke:#b0b0b0;stroke-linecap:square;stroke-width:0.8;"/>
     </g>
     <g id="line2d_22">
      <g>
       <use style="stroke:#000000;stroke-width:0.8;" x="57.6" xlink:href="#m5349e270c6" y="151.809965"/>
      </g>
     </g>
     <g id="text_11">
      <!-- 0.3 -->
      <g transform="translate(34.696875 155.609184)scale(0.1 -0.1)">
       <use xlink:href="#DejaVuSans-30"/>
       <use x="63.623047" xlink:href="#DejaVuSans-2e"/>
       <use x="95.410156" xlink:href="#DejaVuSans-33"/>
      </g>
     </g>
    </g>
    <g id="ytick_5">
     <g id="line2d_23">
      <path clip-path="url(#p0581561527)" d="M 57.6 103.89173 
L 414.72 103.89173 
" style="fill:none;stroke:#b0b0b0;stroke-linecap:square;stroke-width:0.8;"/>
     </g>
     <g id="line2d_24">
      <g>
       <use style="stroke:#000000;stroke-width:0.8;" x="57.6" xlink:href="#m5349e270c6" y="103.89173"/>
      </g>
     </g>
     <g id="text_12">
      <!-- 0.4 -->
      <g transform="translate(34.696875 107.690949)scale(0.1 -0.1)">
       <use xlink:href="#DejaVuSans-30"/>
       <use x="63.623047" xlink:href="#DejaVuSans-2e"/>
       <use x="95.410156" xlink:href="#DejaVuSans-34"/>
      </g>
     </g>
    </g>
    <g id="ytick_6">
     <g id="line2d_25">
      <path clip-path="url(#p0581561527)" d="M 57.6 55.973495 
L 414.72 55.973495 
" style="fill:none;stroke:#b0b0b0;stroke-linecap:square;stroke-width:0.8;"/>
     </g>
     <g id="line2d_26">
      <g>
       <use style="stroke:#000000;stroke-width:0.8;" x="57.6" xlink:href="#m5349e270c6" y="55.973495"/>
      </g>
     </g>
     <g id="text_13">
      <!-- 0.5 -->
      <g transform="translate(34.696875 59.772714)scale(0.1 -0.1)">
       <use xlink:href="#DejaVuSans-30"/>
       <use x="63.623047" xlink:href="#DejaVuSans-2e"/>
       <use x="95.410156" xlink:href="#DejaVuSans-35"/>
      </g>
     </g>
    </g>
   </g>
   <g id="line2d_27">
    <path clip-path="url(#p0581561527)" d="M 73.832727 67.588875 
L 74.393443 114.98001 
L 74.954159 116.249843 
L 75.514875 133.414155 
L 76.636307 127.769387 
L 77.197023 134.041883 
L 77.757739 150.966604 
L 78.318455 155.753636 
L 79.439887 170.977259 
L 80.000603 171.576237 
L 80.561319 172.989825 
L 81.122035 181.246137 
L 81.682751 193.005271 
L 82.243467 193.086732 
L 82.804183 204.500856 
L 83.364899 210.902732 
L 83.925615 225.503418 
L 84.486331 233.97057 
L 85.047047 244.608418 
L 86.168479 253.549961 
L 87.289911 268.677748 
L 87.850626 268.936506 
L 88.411342 269.013175 
L 88.972058 262.448377 
L 89.532774 263.631958 
L 90.09349 266.60768 
L 90.654206 267.853554 
L 91.214922 268.696915 
L 91.775638 267.13478 
L 92.336354 269.295893 
L 93.457786 274.495021 
L 94.018502 271.816392 
L 94.579218 275.774438 
L 95.139934 277.878049 
L 95.70065 282.267359 
L 96.261366 283.503649 
L 96.822082 285.981022 
L 97.382798 282.957382 
L 98.50423 267.091654 
L 99.064946 262.865266 
L 99.625662 264.350731 
L 100.186378 264.82033 
L 100.747094 265.706817 
L 101.30781 271.313251 
L 101.868526 274.0973 
L 102.429242 274.116467 
L 102.989958 274.590858 
L 103.550674 274.159594 
L 104.11139 277.528246 
L 104.672106 279.598313 
L 105.232821 277.743878 
L 105.793537 277.331781 
L 106.354253 273.570199 
L 106.914969 272.683712 
L 107.475685 272.271615 
L 109.157833 256.93778 
L 109.718549 255.548151 
L 110.279265 254.963549 
L 110.839981 254.656872 
L 111.400697 253.971641 
L 111.961413 253.051611 
L 112.522129 249.189402 
L 113.082845 247.100167 
L 113.643561 242.145421 
L 114.204277 241.862703 
L 114.764993 242.437722 
L 115.325709 239.500335 
L 115.886425 228.948739 
L 116.447141 228.781025 
L 117.007857 227.798702 
L 117.568573 232.303016 
L 118.129289 219.115917 
L 118.690005 220.170119 
L 119.250721 218.828408 
L 120.932869 206.288206 
L 121.493585 199.411939 
L 122.054301 199.100471 
L 122.615016 195.794113 
L 123.175732 187.695931 
L 123.736448 182.055955 
L 124.297164 181.629482 
L 124.85788 186.239217 
L 125.418596 196.278087 
L 125.979312 200.576352 
L 126.540028 200.681773 
L 127.66146 208.03243 
L 128.222176 208.928501 
L 128.782892 212.738 
L 129.343608 212.680499 
L 129.904324 215.009325 
L 130.46504 210.557721 
L 131.025756 210.222293 
L 131.586472 209.580189 
L 132.147188 209.359765 
L 132.707904 205.440053 
L 133.26862 196.249336 
L 133.829336 193.393409 
L 134.390052 200.379888 
L 134.950768 187.518633 
L 136.0722 171.887705 
L 136.632916 171.92604 
L 137.193632 170.344738 
L 137.754348 169.228243 
L 138.87578 147.377528 
L 139.436496 145.729141 
L 139.997211 145.499133 
L 140.557927 138.229937 
L 141.118643 135.929862 
L 142.240075 132.901429 
L 142.800791 130.553436 
L 143.361507 130.495934 
L 143.922223 134.966705 
L 144.482939 144.358679 
L 145.043655 144.267635 
L 146.165087 140.022079 
L 146.725803 144.119088 
L 147.286519 146.625212 
L 148.407951 142.384448 
L 148.968667 139.370391 
L 149.529383 138.809748 
L 150.090099 135.757356 
L 150.650815 133.7975 
L 151.211531 132.819968 
L 151.772247 129.360272 
L 152.893679 125.363891 
L 153.454395 124.707411 
L 154.015111 121.774815 
L 154.575827 119.834127 
L 155.136543 118.439706 
L 155.697259 116.11088 
L 156.257975 115.785036 
L 157.379407 111.640109 
L 157.940122 110.125892 
L 158.500838 110.322357 
L 159.061554 108.276249 
L 159.62227 107.241215 
L 160.182986 111.472395 
L 160.743702 116.810486 
L 161.304418 117.361546 
L 161.865134 118.358245 
L 162.42585 125.114716 
L 162.986566 124.530114 
L 163.547282 131.487842 
L 164.107998 134.362936 
L 164.668714 134.099385 
L 165.22943 138.402443 
L 165.790146 135.100876 
L 166.350862 133.97959 
L 166.911578 134.430021 
L 167.472294 135.239839 
L 168.593726 142.187983 
L 170.275874 148.364644 
L 170.83659 152.207686 
L 171.397306 155.149866 
L 172.518738 156.477201 
L 173.079454 162.169887 
L 173.64017 155.763219 
L 174.761602 155.863848 
L 175.322317 156.884506 
L 175.883033 156.117814 
L 176.443749 153.597315 
L 177.004465 149.107376 
L 177.565181 148.187346 
L 178.125897 148.580276 
L 178.686613 149.519473 
L 179.247329 147.938172 
L 179.808045 149.198421 
L 180.368761 149.830942 
L 180.929477 150.180745 
L 181.490193 151.364325 
L 182.050909 153.003129 
L 183.733057 172.764609 
L 184.293773 175.754707 
L 185.975921 191.045416 
L 186.536637 191.922319 
L 187.097353 195.252637 
L 187.658069 199.263393 
L 188.218785 202.421204 
L 188.779501 207.548456 
L 189.340217 210.279795 
L 189.900933 211.693383 
L 190.461649 217.46753 
L 191.022365 219.935319 
L 191.583081 219.139877 
L 192.143797 218.976955 
L 193.265228 223.759194 
L 193.825944 225.551336 
L 194.947376 230.477331 
L 196.068808 232.020298 
L 196.629524 232.710321 
L 197.19024 236.970252 
L 197.750956 237.147549 
L 198.311672 237.022962 
L 198.872388 233.831607 
L 199.433104 235.83459 
L 199.99382 235.719586 
L 200.554536 237.765694 
L 201.115252 236.816913 
L 201.675968 237.037337 
L 202.236684 238.04362 
L 202.7974 239.533877 
L 203.358116 240.108896 
L 204.479548 243.568593 
L 205.60098 250.037554 
L 206.161696 249.088773 
L 206.722412 255.021051 
L 207.283128 253.799136 
L 207.843844 254.930006 
L 208.40456 259.165978 
L 208.965276 259.899127 
L 209.525992 263.727794 
L 210.086707 264.623865 
L 211.208139 267.73855 
L 211.768855 269.990707 
L 212.329571 272.956846 
L 212.890287 275.050873 
L 213.451003 278.898707 
L 214.011719 281.960682 
L 214.572435 284.361386 
L 215.693867 293.092088 
L 216.254583 295.353829 
L 216.815299 289.958236 
L 217.376015 287.241272 
L 217.936731 281.836095 
L 218.497447 281.213158 
L 219.058163 275.788814 
L 219.618879 275.669018 
L 220.179595 273.455196 
L 220.740311 270.62802 
L 221.301027 270.881986 
L 221.861743 265.836196 
L 222.422459 263.866757 
L 222.983175 260.914994 
L 223.543891 259.003056 
L 224.104607 258.289074 
L 224.665323 258.0399 
L 225.226039 262.1417 
L 225.786755 262.261496 
L 226.347471 261.394176 
L 226.908187 261.662518 
L 227.468902 256.861111 
L 228.029618 259.185145 
L 228.590334 259.031807 
L 229.15105 259.218688 
L 229.711766 258.360952 
L 230.272482 257.239665 
L 230.833198 257.369044 
L 231.95463 255.471482 
L 232.515346 264.211768 
L 233.076062 262.151284 
L 234.197494 281.529418 
L 234.75821 280.019994 
L 235.318926 283.153846 
L 235.879642 284.759107 
L 236.440358 294.151081 
L 237.001074 290.849515 
L 237.56179 290.954935 
L 238.122506 295.162156 
L 238.683222 291.769545 
L 239.243938 295.488 
L 239.804654 291.117857 
L 240.36537 294.793186 
L 241.486802 294.932148 
L 242.047518 290.887849 
L 242.608234 295.425706 
L 243.16895 292.042679 
L 243.729666 295.023193 
L 244.851098 290.173868 
L 245.411813 289.934277 
L 246.533245 288.683611 
L 247.093961 287.471279 
L 247.654677 288.81299 
L 248.215393 281.907972 
L 248.776109 281.725883 
L 249.336825 282.008601 
L 249.897541 278.783703 
L 250.458257 274.581274 
L 251.018973 273.972713 
L 251.579689 270.163213 
L 252.140405 268.145855 
L 252.701121 268.581911 
L 253.261837 266.037453 
L 254.383269 271.974522 
L 254.943985 270.618436 
L 255.504701 270.455514 
L 256.065417 267.709799 
L 256.626133 268.002101 
L 258.868997 273.88646 
L 259.429713 273.948753 
L 259.990429 274.183553 
L 260.551145 278.759744 
L 261.111861 278.290146 
L 261.672577 279.555187 
L 262.233293 278.48661 
L 262.794008 276.248829 
L 263.354724 275.391092 
L 263.91544 275.429427 
L 264.476156 274.303348 
L 265.036872 275.93736 
L 265.597588 275.846316 
L 266.158304 280.748351 
L 266.71902 281.040652 
L 267.279736 278.769328 
L 267.840452 278.740577 
L 268.401168 281.452749 
L 268.961884 281.198782 
L 269.5226 277.858881 
L 270.083316 279.210176 
L 270.644032 280.034369 
L 271.204748 280.27396 
L 271.765464 274.633984 
L 272.886896 269.803826 
L 273.447612 271.260541 
L 274.008328 268.256067 
L 274.569044 268.744833 
L 275.12976 266.693933 
L 275.690476 266.679557 
L 276.251192 268.495658 
L 276.811908 268.601078 
L 277.372624 272.463288 
L 277.93334 270.62802 
L 278.494056 267.599587 
L 279.054772 272.899344 
L 279.615488 269.755908 
L 280.736919 261.811065 
L 281.297635 266.971858 
L 281.858351 263.651125 
L 282.419067 261.245629 
L 282.979783 264.657408 
L 283.540499 264.120724 
L 284.101215 256.525683 
L 284.661931 259.971004 
L 285.222647 259.074933 
L 285.783363 260.210596 
L 286.344079 264.154266 
L 286.904795 265.630148 
L 287.465511 263.871549 
L 288.026227 268.064394 
L 288.586943 266.310587 
L 289.708375 264.791579 
L 290.269091 267.714591 
L 290.829807 267.067695 
L 291.390523 275.046081 
L 291.951239 276.550714 
L 292.511955 282.229024 
L 293.633387 278.730993 
L 294.754819 284.955572 
L 295.315535 293.355639 
L 295.876251 288.329016 
L 296.436967 280.695641 
L 296.997683 277.149692 
L 298.119114 279.713317 
L 298.67983 284.533892 
L 299.240546 294.117538 
L 299.801262 294.481717 
L 300.361978 292.775828 
L 300.922694 286.747714 
L 301.48341 284.251174 
L 302.044126 283.297601 
L 302.604842 285.142453 
L 303.165558 283.115512 
L 304.28699 287.480863 
L 304.847706 283.748032 
L 305.408422 283.024467 
L 305.969138 286.608751 
L 306.529854 282.123604 
L 307.09057 276.507587 
L 307.651286 280.475217 
L 308.212002 276.905309 
L 308.772718 274.140426 
L 309.333434 270.556142 
L 309.89415 271.457005 
L 310.454866 277.106565 
L 311.015582 277.676792 
L 311.576298 275.050873 
L 312.137014 288.951953 
L 312.69773 294.898606 
L 313.258446 291.707251 
L 313.819162 286.709379 
L 314.379878 283.551568 
L 314.940593 283.474899 
L 315.501309 281.869638 
L 316.062025 282.669872 
L 316.622741 281.519835 
L 317.183457 279.473726 
L 317.744173 284.826193 
L 318.304889 281.907972 
L 318.865605 292.186434 
L 319.426321 279.885823 
L 319.987037 281.08857 
L 321.108469 288.54944 
L 321.669185 285.573717 
L 322.229901 284.931613 
L 322.790617 283.340727 
L 323.912049 285.0562 
L 324.472765 283.5324 
L 325.033481 283.436564 
L 326.154913 279.38939 
L 326.715629 284.489328 
L 327.276345 280.330025 
L 327.837061 281.433103 
L 328.397777 277.845944 
L 328.958493 276.524359 
L 329.519209 282.372779 
L 330.079925 268.788439 
L 330.640641 273.632014 
L 331.201357 266.236793 
L 331.762073 260.531169 
L 332.322789 261.454553 
L 332.883504 256.84386 
L 333.44422 257.933521 
L 334.004936 256.493099 
L 334.565652 264.317188 
L 335.126368 259.243606 
L 335.687084 262.478853 
L 336.2478 264.088954 
L 336.808516 261.486323 
L 337.369232 256.876205 
L 337.929948 254.312196 
L 339.05138 260.736831 
L 339.612096 255.325907 
L 340.172812 255.560562 
L 340.733528 252.52269 
L 341.85496 256.990969 
L 342.415676 258.041816 
L 342.976392 260.049111 
L 343.537108 262.565298 
L 344.097824 257.491236 
L 344.65854 255.786305 
L 345.219256 252.685037 
L 345.779972 252.031432 
L 346.340688 239.80749 
L 346.901404 245.801103 
L 347.46212 245.136956 
L 348.022836 245.597451 
L 348.583552 241.898642 
L 349.144268 242.678272 
L 349.704984 250.50284 
L 350.265699 260.213471 
L 350.826415 267.436186 
L 351.387131 276.914892 
L 351.947847 276.547359 
L 352.508563 275.036497 
L 353.069279 283.735095 
L 353.629995 282.663164 
L 354.190711 282.160501 
L 354.751427 284.203256 
L 355.312143 284.460097 
L 355.872859 279.902594 
L 356.433575 283.250641 
L 357.555007 280.102892 
L 358.115723 284.57606 
L 358.676439 283.510358 
L 359.237155 286.645648 
L 359.797871 284.948863 
L 360.358587 287.987838 
L 360.919303 294.422778 
L 361.480019 293.697775 
L 362.040735 295.273326 
L 362.601451 293.427516 
L 363.162167 287.87523 
L 363.722883 293.593792 
L 364.283599 293.519519 
L 364.844315 293.162528 
L 365.405031 293.638835 
L 365.965747 294.941253 
L 366.526463 288.335245 
L 367.087179 295.260868 
L 367.647894 293.226739 
L 368.20861 278.793287 
L 368.769326 279.070254 
L 369.330042 265.262136 
L 369.890758 266.564553 
L 370.451474 250.626949 
L 371.01219 253.123489 
L 371.572906 250.713201 
L 372.133622 251.34093 
L 372.694338 240.305361 
L 373.255054 225.599255 
L 373.81577 227.281185 
L 374.937202 220.040739 
L 375.497918 209.87249 
L 376.058634 207.00698 
L 376.61935 207.102816 
L 377.180066 196.441009 
L 377.740782 196.508094 
L 378.862214 174.499249 
L 379.42293 176.947871 
L 379.983646 177.513306 
L 380.544362 174.288409 
L 381.105078 175.093435 
L 381.665794 167.40735 
L 382.787226 145.566219 
L 383.347942 141.828597 
L 383.908658 143.433857 
L 384.469374 139.173926 
L 385.030089 133.423738 
L 385.590805 131.626804 
L 386.151521 125.785572 
L 386.712237 114.85063 
L 387.272953 114.146232 
L 387.833669 110.025264 
L 388.394385 99.483253 
L 388.955101 95.213738 
L 389.515817 93.742648 
L 390.637249 85.011946 
L 391.197965 84.508804 
L 391.758681 85.366541 
L 392.319397 75.907481 
L 392.880113 75.308503 
L 393.440829 73.602614 
L 394.001545 67.459496 
L 395.683693 59.53382 
L 396.244409 57.626674 
L 396.805125 56.356841 
L 397.365841 56.078916 
L 397.926557 53.568 
L 398.487273 57.631466 
L 398.487273 57.631466 
" style="fill:none;stroke:#1f77b4;stroke-linecap:square;stroke-width:1.5;"/>
   </g>
   <g id="patch_3">
    <path d="M 57.6 307.584 
L 57.6 41.472 
" style="fill:none;stroke:#000000;stroke-linecap:square;stroke-linejoin:miter;stroke-width:0.8;"/>
   </g>
   <g id="patch_4">
    <path d="M 414.72 307.584 
L 414.72 41.472 
" style="fill:none;stroke:#000000;stroke-linecap:square;stroke-linejoin:miter;stroke-width:0.8;"/>
   </g>
   <g id="patch_5">
    <path d="M 57.6 307.584 
L 414.72 307.584 
" style="fill:none;stroke:#000000;stroke-linecap:square;stroke-linejoin:miter;stroke-width:0.8;"/>
   </g>
   <g id="patch_6">
    <path d="M 57.6 41.472 
L 414.72 41.472 
" style="fill:none;stroke:#000000;stroke-linecap:square;stroke-linejoin:miter;stroke-width:0.8;"/>
   </g>
   <g id="legend_1">
    <g id="patch_7">
     <path d="M 403.72 54.472 
L 407.72 54.472 
Q 409.72 54.472 409.72 52.472 
L 409.72 48.472 
Q 409.72 46.472 407.72 46.472 
L 403.72 46.472 
Q 401.72 46.472 401.72 48.472 
L 401.72 52.472 
Q 401.72 54.472 403.72 54.472 
z
" style="fill:#ffffff;opacity:0.8;stroke:#cccccc;stroke-linejoin:miter;"/>
    </g>
   </g>
  </g>
 </g>
 <defs>
  <clipPath id="p0581561527">
   <rect height="266.112" width="357.12" x="57.6" y="41.472"/>
  </clipPath>
 </defs>
</svg>
