<?xml version="1.0" encoding="utf-8" standalone="no"?>
<!DOCTYPE svg PUBLIC "-//W3C//DTD SVG 1.1//EN"
  "http://www.w3.org/Graphics/SVG/1.1/DTD/svg11.dtd">
<!-- Created with matplotlib (http://matplotlib.org/) -->
<svg height="345pt" version="1.1" viewBox="0 0 460 345" width="460pt" xmlns="http://www.w3.org/2000/svg" xmlns:xlink="http://www.w3.org/1999/xlink">
 <defs>
  <style type="text/css">
*{stroke-linecap:butt;stroke-linejoin:round;}
  </style>
 </defs>
 <g id="figure_1">
  <g id="patch_1">
   <path d="M 0 345.6 
L 460.8 345.6 
L 460.8 0 
L 0 0 
z
" style="fill:#ffffff;"/>
  </g>
  <g id="axes_1">
   <g id="patch_2">
    <path d="M 57.6 307.584 
L 414.72 307.584 
L 414.72 41.472 
L 57.6 41.472 
z
" style="fill:#ffffff;"/>
   </g>
   <g id="matplotlib.axis_1">
    <g id="xtick_1">
     <g id="line2d_1">
      <path clip-path="url(#p532c408bf0)" d="M 94.058203 307.584 
L 94.058203 41.472 
" style="fill:none;stroke:#b0b0b0;stroke-linecap:square;stroke-width:0.8;"/>
     </g>
     <g id="line2d_2">
      <defs>
       <path d="M 0 0 
L 0 3.5 
" id="m2b8c985b4f" style="stroke:#000000;stroke-width:0.8;"/>
      </defs>
      <g>
       <use style="stroke:#000000;stroke-width:0.8;" x="94.058203" xlink:href="#m2b8c985b4f" y="307.584"/>
      </g>
     </g>
     <g id="text_1">
      <!-- −10 -->
      <defs>
       <path d="M 10.59375 35.5 
L 73.1875 35.5 
L 73.1875 27.203125 
L 10.59375 27.203125 
z
" id="DejaVuSans-2212"/>
       <path d="M 12.40625 8.296875 
L 28.515625 8.296875 
L 28.515625 63.921875 
L 10.984375 60.40625 
L 10.984375 69.390625 
L 28.421875 72.90625 
L 38.28125 72.90625 
L 38.28125 8.296875 
L 54.390625 8.296875 
L 54.390625 0 
L 12.40625 0 
z
" id="DejaVuSans-31"/>
       <path d="M 31.78125 66.40625 
Q 24.171875 66.40625 20.328125 58.90625 
Q 16.5 51.421875 16.5 36.375 
Q 16.5 21.390625 20.328125 13.890625 
Q 24.171875 6.390625 31.78125 6.390625 
Q 39.453125 6.390625 43.28125 13.890625 
Q 47.125 21.390625 47.125 36.375 
Q 47.125 51.421875 43.28125 58.90625 
Q 39.453125 66.40625 31.78125 66.40625 
z
M 31.78125 74.21875 
Q 44.046875 74.21875 50.515625 64.515625 
Q 56.984375 54.828125 56.984375 36.375 
Q 56.984375 17.96875 50.515625 8.265625 
Q 44.046875 -1.421875 31.78125 -1.421875 
Q 19.53125 -1.421875 13.0625 8.265625 
Q 6.59375 17.96875 6.59375 36.375 
Q 6.59375 54.828125 13.0625 64.515625 
Q 19.53125 74.21875 31.78125 74.21875 
z
" id="DejaVuSans-30"/>
      </defs>
      <g transform="translate(83.505859 322.182437)scale(0.1 -0.1)">
       <use xlink:href="#DejaVuSans-2212"/>
       <use x="83.789062" xlink:href="#DejaVuSans-31"/>
       <use x="147.412109" xlink:href="#DejaVuSans-30"/>
      </g>
     </g>
    </g>
    <g id="xtick_2">
     <g id="line2d_3">
      <path clip-path="url(#p532c408bf0)" d="M 149.599809 307.584 
L 149.599809 41.472 
" style="fill:none;stroke:#b0b0b0;stroke-linecap:square;stroke-width:0.8;"/>
     </g>
     <g id="line2d_4">
      <g>
       <use style="stroke:#000000;stroke-width:0.8;" x="149.599809" xlink:href="#m2b8c985b4f" y="307.584"/>
      </g>
     </g>
     <g id="text_2">
      <!-- −8 -->
      <defs>
       <path d="M 31.78125 34.625 
Q 24.75 34.625 20.71875 30.859375 
Q 16.703125 27.09375 16.703125 20.515625 
Q 16.703125 13.921875 20.71875 10.15625 
Q 24.75 6.390625 31.78125 6.390625 
Q 38.8125 6.390625 42.859375 10.171875 
Q 46.921875 13.96875 46.921875 20.515625 
Q 46.921875 27.09375 42.890625 30.859375 
Q 38.875 34.625 31.78125 34.625 
z
M 21.921875 38.8125 
Q 15.578125 40.375 12.03125 44.71875 
Q 8.5 49.078125 8.5 55.328125 
Q 8.5 64.0625 14.71875 69.140625 
Q 20.953125 74.21875 31.78125 74.21875 
Q 42.671875 74.21875 48.875 69.140625 
Q 55.078125 64.0625 55.078125 55.328125 
Q 55.078125 49.078125 51.53125 44.71875 
Q 48 40.375 41.703125 38.8125 
Q 48.828125 37.15625 52.796875 32.3125 
Q 56.78125 27.484375 56.78125 20.515625 
Q 56.78125 9.90625 50.3125 4.234375 
Q 43.84375 -1.421875 31.78125 -1.421875 
Q 19.734375 -1.421875 13.25 4.234375 
Q 6.78125 9.90625 6.78125 20.515625 
Q 6.78125 27.484375 10.78125 32.3125 
Q 14.796875 37.15625 21.921875 38.8125 
z
M 18.3125 54.390625 
Q 18.3125 48.734375 21.84375 45.5625 
Q 25.390625 42.390625 31.78125 42.390625 
Q 38.140625 42.390625 41.71875 45.5625 
Q 45.3125 48.734375 45.3125 54.390625 
Q 45.3125 60.0625 41.71875 63.234375 
Q 38.140625 66.40625 31.78125 66.40625 
Q 25.390625 66.40625 21.84375 63.234375 
Q 18.3125 60.0625 18.3125 54.390625 
z
" id="DejaVuSans-38"/>
      </defs>
      <g transform="translate(142.228716 322.182437)scale(0.1 -0.1)">
       <use xlink:href="#DejaVuSans-2212"/>
       <use x="83.789062" xlink:href="#DejaVuSans-38"/>
      </g>
     </g>
    </g>
    <g id="xtick_3">
     <g id="line2d_5">
      <path clip-path="url(#p532c408bf0)" d="M 205.141415 307.584 
L 205.141415 41.472 
" style="fill:none;stroke:#b0b0b0;stroke-linecap:square;stroke-width:0.8;"/>
     </g>
     <g id="line2d_6">
      <g>
       <use style="stroke:#000000;stroke-width:0.8;" x="205.141415" xlink:href="#m2b8c985b4f" y="307.584"/>
      </g>
     </g>
     <g id="text_3">
      <!-- −6 -->
      <defs>
       <path d="M 33.015625 40.375 
Q 26.375 40.375 22.484375 35.828125 
Q 18.609375 31.296875 18.609375 23.390625 
Q 18.609375 15.53125 22.484375 10.953125 
Q 26.375 6.390625 33.015625 6.390625 
Q 39.65625 6.390625 43.53125 10.953125 
Q 47.40625 15.53125 47.40625 23.390625 
Q 47.40625 31.296875 43.53125 35.828125 
Q 39.65625 40.375 33.015625 40.375 
z
M 52.59375 71.296875 
L 52.59375 62.3125 
Q 48.875 64.0625 45.09375 64.984375 
Q 41.3125 65.921875 37.59375 65.921875 
Q 27.828125 65.921875 22.671875 59.328125 
Q 17.53125 52.734375 16.796875 39.40625 
Q 19.671875 43.65625 24.015625 45.921875 
Q 28.375 48.1875 33.59375 48.1875 
Q 44.578125 48.1875 50.953125 41.515625 
Q 57.328125 34.859375 57.328125 23.390625 
Q 57.328125 12.15625 50.6875 5.359375 
Q 44.046875 -1.421875 33.015625 -1.421875 
Q 20.359375 -1.421875 13.671875 8.265625 
Q 6.984375 17.96875 6.984375 36.375 
Q 6.984375 53.65625 15.1875 63.9375 
Q 23.390625 74.21875 37.203125 74.21875 
Q 40.921875 74.21875 44.703125 73.484375 
Q 48.484375 72.75 52.59375 71.296875 
z
" id="DejaVuSans-36"/>
      </defs>
      <g transform="translate(197.770322 322.182437)scale(0.1 -0.1)">
       <use xlink:href="#DejaVuSans-2212"/>
       <use x="83.789062" xlink:href="#DejaVuSans-36"/>
      </g>
     </g>
    </g>
    <g id="xtick_4">
     <g id="line2d_7">
      <path clip-path="url(#p532c408bf0)" d="M 260.683022 307.584 
L 260.683022 41.472 
" style="fill:none;stroke:#b0b0b0;stroke-linecap:square;stroke-width:0.8;"/>
     </g>
     <g id="line2d_8">
      <g>
       <use style="stroke:#000000;stroke-width:0.8;" x="260.683022" xlink:href="#m2b8c985b4f" y="307.584"/>
      </g>
     </g>
     <g id="text_4">
      <!-- −4 -->
      <defs>
       <path d="M 37.796875 64.3125 
L 12.890625 25.390625 
L 37.796875 25.390625 
z
M 35.203125 72.90625 
L 47.609375 72.90625 
L 47.609375 25.390625 
L 58.015625 25.390625 
L 58.015625 17.1875 
L 47.609375 17.1875 
L 47.609375 0 
L 37.796875 0 
L 37.796875 17.1875 
L 4.890625 17.1875 
L 4.890625 26.703125 
z
" id="DejaVuSans-34"/>
      </defs>
      <g transform="translate(253.311928 322.182437)scale(0.1 -0.1)">
       <use xlink:href="#DejaVuSans-2212"/>
       <use x="83.789062" xlink:href="#DejaVuSans-34"/>
      </g>
     </g>
    </g>
    <g id="xtick_5">
     <g id="line2d_9">
      <path clip-path="url(#p532c408bf0)" d="M 316.224628 307.584 
L 316.224628 41.472 
" style="fill:none;stroke:#b0b0b0;stroke-linecap:square;stroke-width:0.8;"/>
     </g>
     <g id="line2d_10">
      <g>
       <use style="stroke:#000000;stroke-width:0.8;" x="316.224628" xlink:href="#m2b8c985b4f" y="307.584"/>
      </g>
     </g>
     <g id="text_5">
      <!-- −2 -->
      <defs>
       <path d="M 19.1875 8.296875 
L 53.609375 8.296875 
L 53.609375 0 
L 7.328125 0 
L 7.328125 8.296875 
Q 12.9375 14.109375 22.625 23.890625 
Q 32.328125 33.6875 34.8125 36.53125 
Q 39.546875 41.84375 41.421875 45.53125 
Q 43.3125 49.21875 43.3125 52.78125 
Q 43.3125 58.59375 39.234375 62.25 
Q 35.15625 65.921875 28.609375 65.921875 
Q 23.96875 65.921875 18.8125 64.3125 
Q 13.671875 62.703125 7.8125 59.421875 
L 7.8125 69.390625 
Q 13.765625 71.78125 18.9375 73 
Q 24.125 74.21875 28.421875 74.21875 
Q 39.75 74.21875 46.484375 68.546875 
Q 53.21875 62.890625 53.21875 53.421875 
Q 53.21875 48.921875 51.53125 44.890625 
Q 49.859375 40.875 45.40625 35.40625 
Q 44.1875 33.984375 37.640625 27.21875 
Q 31.109375 20.453125 19.1875 8.296875 
z
" id="DejaVuSans-32"/>
      </defs>
      <g transform="translate(308.853534 322.182437)scale(0.1 -0.1)">
       <use xlink:href="#DejaVuSans-2212"/>
       <use x="83.789062" xlink:href="#DejaVuSans-32"/>
      </g>
     </g>
    </g>
    <g id="xtick_6">
     <g id="line2d_11">
      <path clip-path="url(#p532c408bf0)" d="M 371.766234 307.584 
L 371.766234 41.472 
" style="fill:none;stroke:#b0b0b0;stroke-linecap:square;stroke-width:0.8;"/>
     </g>
     <g id="line2d_12">
      <g>
       <use style="stroke:#000000;stroke-width:0.8;" x="371.766234" xlink:href="#m2b8c985b4f" y="307.584"/>
      </g>
     </g>
     <g id="text_6">
      <!-- 0 -->
      <g transform="translate(368.584984 322.182437)scale(0.1 -0.1)">
       <use xlink:href="#DejaVuSans-30"/>
      </g>
     </g>
    </g>
   </g>
   <g id="matplotlib.axis_2">
    <g id="ytick_1">
     <g id="line2d_13">
      <path clip-path="url(#p532c408bf0)" d="M 57.6 266.681021 
L 414.72 266.681021 
" style="fill:none;stroke:#b0b0b0;stroke-linecap:square;stroke-width:0.8;"/>
     </g>
     <g id="line2d_14">
      <defs>
       <path d="M 0 0 
L -3.5 0 
" id="m8702096b3a" style="stroke:#000000;stroke-width:0.8;"/>
      </defs>
      <g>
       <use style="stroke:#000000;stroke-width:0.8;" x="57.6" xlink:href="#m8702096b3a" y="266.681021"/>
      </g>
     </g>
     <g id="text_7">
      <!-- 1.4 -->
      <defs>
       <path d="M 10.6875 12.40625 
L 21 12.40625 
L 21 0 
L 10.6875 0 
z
" id="DejaVuSans-2e"/>
      </defs>
      <g transform="translate(34.696875 270.48024)scale(0.1 -0.1)">
       <use xlink:href="#DejaVuSans-31"/>
       <use x="63.623047" xlink:href="#DejaVuSans-2e"/>
       <use x="95.410156" xlink:href="#DejaVuSans-34"/>
      </g>
     </g>
    </g>
    <g id="ytick_2">
     <g id="line2d_15">
      <path clip-path="url(#p532c408bf0)" d="M 57.6 220.519689 
L 414.72 220.519689 
" style="fill:none;stroke:#b0b0b0;stroke-linecap:square;stroke-width:0.8;"/>
     </g>
     <g id="line2d_16">
      <g>
       <use style="stroke:#000000;stroke-width:0.8;" x="57.6" xlink:href="#m8702096b3a" y="220.519689"/>
      </g>
     </g>
     <g id="text_8">
      <!-- 1.6 -->
      <g transform="translate(34.696875 224.318908)scale(0.1 -0.1)">
       <use xlink:href="#DejaVuSans-31"/>
       <use x="63.623047" xlink:href="#DejaVuSans-2e"/>
       <use x="95.410156" xlink:href="#DejaVuSans-36"/>
      </g>
     </g>
    </g>
    <g id="ytick_3">
     <g id="line2d_17">
      <path clip-path="url(#p532c408bf0)" d="M 57.6 174.358357 
L 414.72 174.358357 
" style="fill:none;stroke:#b0b0b0;stroke-linecap:square;stroke-width:0.8;"/>
     </g>
     <g id="line2d_18">
      <g>
       <use style="stroke:#000000;stroke-width:0.8;" x="57.6" xlink:href="#m8702096b3a" y="174.358357"/>
      </g>
     </g>
     <g id="text_9">
      <!-- 1.8 -->
      <g transform="translate(34.696875 178.157576)scale(0.1 -0.1)">
       <use xlink:href="#DejaVuSans-31"/>
       <use x="63.623047" xlink:href="#DejaVuSans-2e"/>
       <use x="95.410156" xlink:href="#DejaVuSans-38"/>
      </g>
     </g>
    </g>
    <g id="ytick_4">
     <g id="line2d_19">
      <path clip-path="url(#p532c408bf0)" d="M 57.6 128.197025 
L 414.72 128.197025 
" style="fill:none;stroke:#b0b0b0;stroke-linecap:square;stroke-width:0.8;"/>
     </g>
     <g id="line2d_20">
      <g>
       <use style="stroke:#000000;stroke-width:0.8;" x="57.6" xlink:href="#m8702096b3a" y="128.197025"/>
      </g>
     </g>
     <g id="text_10">
      <!-- 2.0 -->
      <g transform="translate(34.696875 131.996244)scale(0.1 -0.1)">
       <use xlink:href="#DejaVuSans-32"/>
       <use x="63.623047" xlink:href="#DejaVuSans-2e"/>
       <use x="95.410156" xlink:href="#DejaVuSans-30"/>
      </g>
     </g>
    </g>
    <g id="ytick_5">
     <g id="line2d_21">
      <path clip-path="url(#p532c408bf0)" d="M 57.6 82.035693 
L 414.72 82.035693 
" style="fill:none;stroke:#b0b0b0;stroke-linecap:square;stroke-width:0.8;"/>
     </g>
     <g id="line2d_22">
      <g>
       <use style="stroke:#000000;stroke-width:0.8;" x="57.6" xlink:href="#m8702096b3a" y="82.035693"/>
      </g>
     </g>
     <g id="text_11">
      <!-- 2.2 -->
      <g transform="translate(34.696875 85.834912)scale(0.1 -0.1)">
       <use xlink:href="#DejaVuSans-32"/>
       <use x="63.623047" xlink:href="#DejaVuSans-2e"/>
       <use x="95.410156" xlink:href="#DejaVuSans-32"/>
      </g>
     </g>
    </g>
   </g>
   <g id="line2d_23">
    <path clip-path="url(#p532c408bf0)" d="M 74.763049 93.052095 
L 77.179109 94.928553 
L 79.30913 109.178557 
L 81.094792 109.71172 
L 83.22759 123.661674 
L 85.760287 131.225209 
L 87.765339 127.234561 
L 90.070316 127.850815 
L 93.158429 130.523556 
L 96.069365 126.212088 
L 99.785654 122.95079 
L 103.185911 120.471926 
L 105.260667 115.11952 
L 107.328759 113.580039 
L 109.219395 118.909365 
L 111.543812 119.220954 
L 115.300646 117.060604 
L 117.306531 117.646853 
L 120.100829 111.632031 
L 122.852638 116.365876 
L 124.538881 119.816435 
L 127.288746 119.382519 
L 129.341564 122.131426 
L 131.904531 123.818623 
L 134.853513 123.283151 
L 137.733901 122.971562 
L 140.246047 121.875231 
L 143.064506 121.392845 
L 146.287308 121.053559 
L 148.82306 123.163132 
L 151.954496 121.194351 
L 155.366139 119.5487 
L 157.650287 116.894423 
L 160.047463 121.018938 
L 162.659307 124.534124 
L 165.720483 126.334415 
L 168.625031 124.206378 
L 171.392669 123.659366 
L 174.784873 122.980795 
L 178.292881 122.267602 
L 181.033581 122.364541 
L 184.394959 120.87353 
L 187.340053 123.204677 
L 190.164621 123.790926 
L 193.476567 124.63337 
L 196.761853 124.104823 
L 199.538934 125.759707 
L 202.512631 127.559999 
L 205.892893 128.028536 
L 208.313397 130.401229 
L 210.838318 133.505578 
L 213.788133 138.375599 
L 216.534665 141.112966 
L 219.70498 143.864181 
L 222.979713 145.242097 
L 225.784564 144.9282 
L 228.069546 146.610781 
L 232.03605 149.987482 
L 234.886723 149.403541 
L 237.868474 150.906092 
L 240.617783 151.748537 
L 243.482619 153.816564 
L 246.156114 155.651477 
L 249.239507 156.410831 
L 251.66362 156.274655 
L 254.596495 159.021255 
L 257.571025 159.699826 
L 260.114831 160.235298 
L 263.638668 159.930633 
L 265.839504 160.678446 
L 268.659907 161.084666 
L 271.70803 160.479953 
L 274.009397 161.537047 
L 276.945326 162.444117 
L 280.365856 163.517368 
L 282.57058 163.346571 
L 285.555386 163.138845 
L 288.178338 163.337339 
L 291.742443 161.827864 
L 293.528939 162.61953 
L 296.645656 162.019433 
L 299.345811 161.419336 
L 301.764926 161.92711 
L 304.571166 161.996352 
L 306.906412 162.852645 
L 309.440776 162.462582 
L 312.363375 161.814015 
L 315.171281 160.67383 
L 317.732305 160.369165 
L 320.614636 160.39917 
L 322.918224 160.94849 
L 325.909418 161.453957 
L 328.672612 161.377791 
L 331.00536 161.908646 
L 333.230634 162.162533 
L 335.991885 161.78401 
L 338.993909 161.493194 
L 341.32138 161.463189 
L 343.430295 163.374268 
L 346.191518 164.249025 
L 348.05219 165.52077 
L 350.835018 166.137024 
L 353.076039 167.683429 
L 355.127274 168.957481 
L 357.905215 168.202744 
L 360.220467 170.035348 
L 362.120795 171.616374 
L 364.104269 172.050291 
L 366.919895 172.523444 
L 368.96266 171.355562 
L 371.629637 170.852404 
L 373.921129 170.402331 
L 376.06707 170.983964 
L 379.400677 171.503279 
L 382.131214 171.944119 
L 384.757193 172.424197 
L 386.493952 173.437439 
L 388.980771 174.17602 
L 391.021676 174.831511 
L 391.624996 174.148323 
" style="fill:none;stroke:#1f77b4;stroke-linecap:square;stroke-width:1.5;"/>
   </g>
   <g id="line2d_24">
    <path clip-path="url(#p532c408bf0)" d="M 74.763049 93.052095 
L 77.312409 96.391868 
L 78.514885 139.857378 
L 77.215211 215.130353 
L 80.444955 175.212342 
L 86.315703 163.831265 
L 87.029413 102.729818 
L 88.12636 295.488 
L 93.830483 143.107135 
L 96.304306 91.826512 
L 102.058138 94.123038 
L 105.257057 96.567281 
L 104.083185 68.233455 
L 106.015478 95.249375 
L 106.858877 154.425894 
L 111.000892 115.285701 
L 117.564799 91.946531 
L 115.952982 116.303558 
L 120.035845 53.568 
L 122.680181 149.313526 
L 122.969831 143.508739 
L 126.395082 107.756787 
L 128.107152 139.693505 
L 131.249418 131.769912 
L 135.182041 111.629723 
L 137.886362 113.739296 
L 140.063316 105.732613 
L 143.059785 110.007152 
L 147.311773 110.531084 
L 147.501447 133.64637 
L 152.747074 96.696532 
L 155.558035 96.297237 
L 157.602522 87.785087 
L 158.255969 149.004246 
L 161.531535 147.787894 
L 165.018437 134.131064 
L 169.439549 99.073841 
L 171.975856 112.405234 
L 174.924838 108.299183 
L 179.325121 107.7891 
L 180.95138 115.745006 
L 185.055904 99.113078 
L 186.942375 134.913499 
L 190.293756 121.14819 
L 193.415194 122.653049 
L 197.229236 111.290437 
L 199.428961 132.568503 
L 202.305183 135.047367 
L 206.004254 123.03388 
L 207.296707 143.963428 
L 210.088506 153.985053 
L 213.400452 174.148323 
L 216.344713 159.282066 
L 219.398113 161.705536 
L 223.417103 151.224606 
L 226.461339 136.891512 
L 227.902088 156.881677 
L 232.319867 172.08722 
L 235.679857 139.236508 
L 237.561051 158.446546 
L 241.151538 154.548222 
L 242.877493 166.91715 
L 246.497695 167.224123 
L 248.593002 157.784131 
L 251.967988 151.162288 
L 252.967737 178.397474 
L 257.842902 162.114064 
L 260.125939 161.297008 
L 264.708399 152.632526 
L 264.978887 164.152087 
L 264.084945 257.453371 
L 272.282608 151.466953 
L 273.404271 168.043487 
L 277.116394 167.10872 
L 279.975398 168.883623 
L 282.916604 159.321303 
L 286.687046 158.31037 
L 287.67652 161.599365 
L 293.627247 144.84511 
L 292.21538 167.858842 
L 296.68037 153.39188 
L 299.754042 153.345719 
L 301.34031 164.013603 
L 304.529509 159.942173 
L 306.386265 168.652816 
L 309.314419 156.676259 
L 312.618033 153.968897 
L 315.852499 148.353371 
L 317.668987 154.97983 
L 320.766265 158.185734 
L 322.919335 164.1844 
L 326.343475 163.07422 
L 328.521262 158.437314 
L 331.075342 164.766032 
L 332.319474 163.171158 
L 336.555633 156.426988 
L 339.44935 156.355438 
L 341.265561 159.653665 
L 342.334459 179.574588 
L 346.034835 170.388483 
L 347.522906 176.514091 
L 350.739765 170.665451 
L 352.316702 181.033286 
L 355.081785 179.636905 
L 357.791688 161.853252 
L 358.936567 186.09026 
L 361.095664 185.040089 
L 363.28603 176.772595 
L 366.901955 175.713192 
L 368.896066 161.174681 
L 371.237247 166.54786 
L 373.289837 166.801747 
L 376.262382 175.177721 
L 381.41781 173.631316 
L 383.095222 173.7698 
L 384.975944 174.058308 
L 385.051925 179.780006 
L 388.727974 178.478256 
L 390.353538 177.455782 
L 389.930561 167.780367 
" style="fill:none;stroke:#ff7f0e;stroke-linecap:square;stroke-width:1.5;"/>
   </g>
   <g id="line2d_25">
    <path clip-path="url(#p532c408bf0)" d="M 74.454793 106.048818 
L 76.929172 106.648916 
L 79.40355 107.2167 
L 81.894591 107.678313 
L 84.405072 108.317648 
L 86.932215 108.996219 
L 89.476021 109.594008 
L 92.000387 110.166409 
L 94.589736 111.131181 
L 97.18103 112.012862 
L 99.783154 112.85069 
L 102.39361 113.725448 
L 105.044333 114.593281 
L 107.668118 115.54882 
L 110.293848 116.462815 
L 112.937073 117.402198 
L 115.605014 118.161552 
L 118.24324 118.85628 
L 120.950893 119.622558 
L 123.663545 120.289589 
L 126.389527 120.806596 
L 129.131339 121.418234 
L 131.921749 121.861382 
L 134.695219 122.350693 
L 137.477021 122.673822 
L 140.272985 123.086966 
L 143.080613 123.479337 
L 145.867413 123.878633 
L 148.693093 124.146368 
L 151.54682 124.485654 
L 154.413323 124.74185 
L 157.279547 125.000353 
L 160.164934 125.275013 
L 163.11336 125.951276 
L 166.034571 126.634464 
L 168.989939 127.525378 
L 172.050004 128.427832 
L 174.939001 129.154873 
L 177.909366 129.838061 
L 180.855293 130.509708 
L 183.857594 131.176739 
L 186.905162 131.836846 
L 189.918017 132.533882 
L 192.934481 132.993188 
L 196.011764 133.468649 
L 199.022119 134.038742 
L 202.081073 134.516512 
L 205.125586 135.045059 
L 208.15427 135.749019 
L 211.11186 136.427591 
L 214.098055 137.069233 
L 217.114519 137.793966 
L 220.082663 138.407912 
L 223.054417 139.0911 
L 226.055052 139.804292 
L 228.974319 140.388233 
L 231.913303 141.004487 
L 234.845622 141.618432 
L 237.779607 142.262383 
L 240.668048 142.998656 
L 243.574541 143.94958 
L 246.511581 144.729706 
L 249.397245 145.719867 
L 252.270412 146.617705 
L 255.171073 147.388599 
L 258.032576 148.277205 
L 260.83826 149.031942 
L 263.658385 149.645888 
L 266.475178 150.151355 
L 269.251981 150.792997 
L 272.053777 151.344625 
L 274.878623 151.912409 
L 277.649316 152.565592 
L 280.40168 153.30879 
L 283.182093 154.021982 
L 285.918628 154.695938 
L 288.6385 155.3145 
L 291.314217 155.900749 
L 294.020204 156.452376 
L 296.681203 156.934762 
L 299.401908 157.34329 
L 302.084012 157.936463 
L 304.762784 158.395769 
L 307.463772 158.850458 
L 310.126437 159.27745 
L 312.78688 159.651357 
L 315.428994 159.983718 
L 318.03695 160.299923 
L 320.689895 160.685371 
L 323.331454 161.033889 
L 325.962737 161.220842 
L 328.588467 161.400871 
L 331.199478 161.537047 
L 333.816321 161.684763 
L 336.376511 161.846328 
L 338.943089 162.042514 
L 341.498836 162.25024 
L 344.017731 162.342562 
L 346.575394 162.271012 
L 349.122254 162.17869 
L 351.657784 162.123296 
L 354.185066 162.070211 
L 356.698463 161.961731 
L 359.254543 161.938651 
L 361.777243 161.924802 
L 364.293472 161.952499 
L 366.800898 161.943267 
L 369.265659 161.970964 
L 371.777002 162.012509 
L 374.277167 162.084059 
L 376.76109 162.227159 
L 379.229054 162.289477 
L 381.674468 162.312558 
L 384.157677 162.421037 
L 386.608867 162.481046 
L 389.042673 162.409496 
L 391.473201 162.411804 
L 393.854686 162.340254 
L 396.206734 162.229467 
L 398.487273 162.167149 
" style="fill:none;stroke:#2ca02c;stroke-linecap:square;stroke-width:1.5;"/>
   </g>
   <g id="line2d_26">
    <path clip-path="url(#p532c408bf0)" d="M 73.832727 107.627536 
L 76.196023 108.24379 
L 78.725943 108.89928 
L 81.075353 109.503994 
L 83.458088 110.111015 
L 86.193512 110.803435 
L 88.731763 111.44277 
L 91.281123 112.079796 
L 93.599985 112.654505 
L 96.396782 113.344617 
L 98.971691 113.974719 
L 101.764879 114.655599 
L 104.377 115.288009 
L 107.024391 115.925035 
L 109.473221 116.513592 
L 112.286125 117.18524 
L 114.951845 117.81765 
L 117.495095 118.420055 
L 120.185808 119.052465 
L 123.006488 119.710264 
L 125.540852 120.301129 
L 128.282108 120.935848 
L 131.128893 121.589031 
L 133.80211 122.200668 
L 136.62168 122.842311 
L 139.435695 123.477029 
L 142.25221 124.109439 
L 144.934037 124.709537 
L 147.751385 125.335023 
L 150.572065 125.955893 
L 153.480779 126.590611 
L 156.299793 127.202249 
L 159.217671 127.832351 
L 162.12222 128.453221 
L 164.900133 129.044086 
L 167.971862 129.692652 
L 170.91279 130.306598 
L 173.865659 130.920544 
L 176.731884 131.511409 
L 179.858321 132.150743 
L 182.758981 132.7393 
L 185.794608 133.353246 
L 188.708876 133.934879 
L 191.775883 134.5419 
L 194.928703 135.160462 
L 197.897957 135.737479 
L 201.145752 136.358349 
L 203.9656 136.89382 
L 207.218394 137.50315 
L 209.892167 137.997076 
L 212.932236 138.55332 
L 216.004798 139.104948 
L 219.031538 139.642727 
L 222.068831 140.173583 
L 225.246644 140.720595 
L 227.869874 141.163743 
L 230.842461 141.659978 
L 233.72868 142.133131 
L 237.005635 142.659371 
L 240.030153 143.134832 
L 242.571181 143.527204 
L 245.697896 143.998049 
L 248.238369 144.371956 
L 251.331759 144.815105 
L 254.180488 145.212092 
L 257.110308 145.611388 
L 260.061233 146.001451 
L 262.864418 146.359201 
L 265.731476 146.714644 
L 268.598811 147.056237 
L 271.401441 147.379367 
L 274.108539 147.679415 
L 276.915056 147.977156 
L 279.579942 148.249508 
L 282.322587 148.517244 
L 284.997193 148.766515 
L 287.84731 149.02271 
L 290.618836 149.258133 
L 293.287888 149.475091 
L 295.932502 149.675893 
L 298.562675 149.867462 
L 301.364749 150.059032 
L 304.20709 150.243677 
L 306.678136 150.391394 
L 309.495762 150.548342 
L 312.165925 150.686826 
L 314.617254 150.804538 
L 317.403498 150.926865 
L 319.967576 151.026112 
L 322.519713 151.113818 
L 325.340394 151.194601 
L 327.800054 151.252302 
L 330.456609 151.300772 
L 333.184813 151.333085 
L 335.604205 151.349241 
L 338.189667 151.353857 
L 340.7979 151.342317 
L 343.361423 151.316928 
L 345.998733 151.277691 
L 348.382412 151.226914 
L 351.050103 151.157672 
L 353.419897 151.083814 
L 356.239689 150.979951 
L 358.50723 150.88532 
L 361.180948 150.758376 
L 363.680181 150.629124 
L 366.347789 150.474484 
L 368.601362 150.336 
L 371.390287 150.149047 
L 373.535387 149.996714 
L 375.955765 149.818993 
L 378.377629 149.636656 
L 380.939347 149.44047 
L 383.399868 149.251209 
L 385.796321 149.064255 
L 388.288945 148.86807 
L 390.470619 148.694965 
L 392.921615 148.498779 
L 395.271775 148.309518 
L 397.571864 148.122564 
" style="fill:none;stroke:#d62728;stroke-linecap:square;stroke-width:1.5;"/>
   </g>
   <g id="patch_3">
    <path d="M 57.6 307.584 
L 57.6 41.472 
" style="fill:none;stroke:#000000;stroke-linecap:square;stroke-linejoin:miter;stroke-width:0.8;"/>
   </g>
   <g id="patch_4">
    <path d="M 414.72 307.584 
L 414.72 41.472 
" style="fill:none;stroke:#000000;stroke-linecap:square;stroke-linejoin:miter;stroke-width:0.8;"/>
   </g>
   <g id="patch_5">
    <path d="M 57.6 307.584 
L 414.72 307.584 
" style="fill:none;stroke:#000000;stroke-linecap:square;stroke-linejoin:miter;stroke-width:0.8;"/>
   </g>
   <g id="patch_6">
    <path d="M 57.6 41.472 
L 414.72 41.472 
" style="fill:none;stroke:#000000;stroke-linecap:square;stroke-linejoin:miter;stroke-width:0.8;"/>
   </g>
   <g id="legend_1">
    <g id="patch_7">
     <path d="M 350.209063 108.1845 
L 407.72 108.1845 
Q 409.72 108.1845 409.72 106.1845 
L 409.72 48.472 
Q 409.72 46.472 407.72 46.472 
L 350.209063 46.472 
Q 348.209063 46.472 348.209063 48.472 
L 348.209063 106.1845 
Q 348.209063 108.1845 350.209063 108.1845 
z
" style="fill:#ffffff;opacity:0.8;stroke:#cccccc;stroke-linejoin:miter;"/>
    </g>
    <g id="line2d_27">
     <path d="M 352.209063 54.570438 
L 372.209063 54.570438 
" style="fill:none;stroke:#1f77b4;stroke-linecap:square;stroke-width:1.5;"/>
    </g>
    <g id="line2d_28"/>
    <g id="text_12">
     <!-- y -->
     <defs>
      <path d="M 32.171875 -5.078125 
Q 28.375 -14.84375 24.75 -17.8125 
Q 21.140625 -20.796875 15.09375 -20.796875 
L 7.90625 -20.796875 
L 7.90625 -13.28125 
L 13.1875 -13.28125 
Q 16.890625 -13.28125 18.9375 -11.515625 
Q 21 -9.765625 23.484375 -3.21875 
L 25.09375 0.875 
L 2.984375 54.6875 
L 12.5 54.6875 
L 29.59375 11.921875 
L 46.6875 54.6875 
L 56.203125 54.6875 
z
" id="DejaVuSans-79"/>
     </defs>
     <g transform="translate(380.209063 58.070438)scale(0.1 -0.1)">
      <use xlink:href="#DejaVuSans-79"/>
     </g>
    </g>
    <g id="line2d_29">
     <path d="M 352.209063 69.248563 
L 372.209063 69.248563 
" style="fill:none;stroke:#ff7f0e;stroke-linecap:square;stroke-width:1.5;"/>
    </g>
    <g id="line2d_30"/>
    <g id="text_13">
     <!-- zy -->
     <defs>
      <path d="M 5.515625 54.6875 
L 48.1875 54.6875 
L 48.1875 46.484375 
L 14.40625 7.171875 
L 48.1875 7.171875 
L 48.1875 0 
L 4.296875 0 
L 4.296875 8.203125 
L 38.09375 47.515625 
L 5.515625 47.515625 
z
" id="DejaVuSans-7a"/>
     </defs>
     <g transform="translate(380.209063 72.748563)scale(0.1 -0.1)">
      <use xlink:href="#DejaVuSans-7a"/>
      <use x="52.490234" xlink:href="#DejaVuSans-79"/>
     </g>
    </g>
    <g id="line2d_31">
     <path d="M 352.209063 83.926688 
L 372.209063 83.926688 
" style="fill:none;stroke:#2ca02c;stroke-linecap:square;stroke-width:1.5;"/>
    </g>
    <g id="line2d_32"/>
    <g id="text_14">
     <!-- RTKy -->
     <defs>
      <path d="M 44.390625 34.1875 
Q 47.5625 33.109375 50.5625 29.59375 
Q 53.5625 26.078125 56.59375 19.921875 
L 66.609375 0 
L 56 0 
L 46.6875 18.703125 
Q 43.0625 26.03125 39.671875 28.421875 
Q 36.28125 30.8125 30.421875 30.8125 
L 19.671875 30.8125 
L 19.671875 0 
L 9.8125 0 
L 9.8125 72.90625 
L 32.078125 72.90625 
Q 44.578125 72.90625 50.734375 67.671875 
Q 56.890625 62.453125 56.890625 51.90625 
Q 56.890625 45.015625 53.6875 40.46875 
Q 50.484375 35.9375 44.390625 34.1875 
z
M 19.671875 64.796875 
L 19.671875 38.921875 
L 32.078125 38.921875 
Q 39.203125 38.921875 42.84375 42.21875 
Q 46.484375 45.515625 46.484375 51.90625 
Q 46.484375 58.296875 42.84375 61.546875 
Q 39.203125 64.796875 32.078125 64.796875 
z
" id="DejaVuSans-52"/>
      <path d="M -0.296875 72.90625 
L 61.375 72.90625 
L 61.375 64.59375 
L 35.5 64.59375 
L 35.5 0 
L 25.59375 0 
L 25.59375 64.59375 
L -0.296875 64.59375 
z
" id="DejaVuSans-54"/>
      <path d="M 9.8125 72.90625 
L 19.671875 72.90625 
L 19.671875 42.09375 
L 52.390625 72.90625 
L 65.09375 72.90625 
L 28.90625 38.921875 
L 67.671875 0 
L 54.6875 0 
L 19.671875 35.109375 
L 19.671875 0 
L 9.8125 0 
z
" id="DejaVuSans-4b"/>
     </defs>
     <g transform="translate(380.209063 87.426688)scale(0.1 -0.1)">
      <use xlink:href="#DejaVuSans-52"/>
      <use x="69.373047" xlink:href="#DejaVuSans-54"/>
      <use x="130.457031" xlink:href="#DejaVuSans-4b"/>
      <use x="195.923828" xlink:href="#DejaVuSans-79"/>
     </g>
    </g>
    <g id="line2d_33">
     <path d="M 352.209063 98.604813 
L 372.209063 98.604813 
" style="fill:none;stroke:#d62728;stroke-linecap:square;stroke-width:1.5;"/>
    </g>
    <g id="line2d_34"/>
    <g id="text_15">
     <!-- DRy -->
     <defs>
      <path d="M 19.671875 64.796875 
L 19.671875 8.109375 
L 31.59375 8.109375 
Q 46.6875 8.109375 53.6875 14.9375 
Q 60.6875 21.78125 60.6875 36.53125 
Q 60.6875 51.171875 53.6875 57.984375 
Q 46.6875 64.796875 31.59375 64.796875 
z
M 9.8125 72.90625 
L 30.078125 72.90625 
Q 51.265625 72.90625 61.171875 64.09375 
Q 71.09375 55.28125 71.09375 36.53125 
Q 71.09375 17.671875 61.125 8.828125 
Q 51.171875 0 30.078125 0 
L 9.8125 0 
z
" id="DejaVuSans-44"/>
     </defs>
     <g transform="translate(380.209063 102.104813)scale(0.1 -0.1)">
      <use xlink:href="#DejaVuSans-44"/>
      <use x="77.001953" xlink:href="#DejaVuSans-52"/>
      <use x="146.40625" xlink:href="#DejaVuSans-79"/>
     </g>
    </g>
   </g>
  </g>
 </g>
 <defs>
  <clipPath id="p532c408bf0">
   <rect height="266.112" width="357.12" x="57.6" y="41.472"/>
  </clipPath>
 </defs>
</svg>
