<?xml version="1.0" encoding="utf-8" standalone="no"?>
<!DOCTYPE svg PUBLIC "-//W3C//DTD SVG 1.1//EN"
  "http://www.w3.org/Graphics/SVG/1.1/DTD/svg11.dtd">
<!-- Created with matplotlib (http://matplotlib.org/) -->
<svg height="345pt" version="1.1" viewBox="0 0 460 345" width="460pt" xmlns="http://www.w3.org/2000/svg" xmlns:xlink="http://www.w3.org/1999/xlink">
 <defs>
  <style type="text/css">
*{stroke-linecap:butt;stroke-linejoin:round;}
  </style>
 </defs>
 <g id="figure_1">
  <g id="patch_1">
   <path d="M 0 345.6 
L 460.8 345.6 
L 460.8 0 
L 0 0 
z
" style="fill:#ffffff;"/>
  </g>
  <g id="axes_1">
   <g id="patch_2">
    <path d="M 57.6 307.584 
L 414.72 307.584 
L 414.72 41.472 
L 57.6 41.472 
z
" style="fill:#ffffff;"/>
   </g>
   <g id="matplotlib.axis_1">
    <g id="xtick_1">
     <g id="line2d_1">
      <path clip-path="url(#p3aad7c3f87)" d="M 93.649791 307.584 
L 93.649791 41.472 
" style="fill:none;stroke:#b0b0b0;stroke-linecap:square;stroke-width:0.8;"/>
     </g>
     <g id="line2d_2">
      <defs>
       <path d="M 0 0 
L 0 3.5 
" id="m84ca42b1b3" style="stroke:#000000;stroke-width:0.8;"/>
      </defs>
      <g>
       <use style="stroke:#000000;stroke-width:0.8;" x="93.649791" xlink:href="#m84ca42b1b3" y="307.584"/>
      </g>
     </g>
     <g id="text_1">
      <!-- −10 -->
      <defs>
       <path d="M 10.59375 35.5 
L 73.1875 35.5 
L 73.1875 27.203125 
L 10.59375 27.203125 
z
" id="DejaVuSans-2212"/>
       <path d="M 12.40625 8.296875 
L 28.515625 8.296875 
L 28.515625 63.921875 
L 10.984375 60.40625 
L 10.984375 69.390625 
L 28.421875 72.90625 
L 38.28125 72.90625 
L 38.28125 8.296875 
L 54.390625 8.296875 
L 54.390625 0 
L 12.40625 0 
z
" id="DejaVuSans-31"/>
       <path d="M 31.78125 66.40625 
Q 24.171875 66.40625 20.328125 58.90625 
Q 16.5 51.421875 16.5 36.375 
Q 16.5 21.390625 20.328125 13.890625 
Q 24.171875 6.390625 31.78125 6.390625 
Q 39.453125 6.390625 43.28125 13.890625 
Q 47.125 21.390625 47.125 36.375 
Q 47.125 51.421875 43.28125 58.90625 
Q 39.453125 66.40625 31.78125 66.40625 
z
M 31.78125 74.21875 
Q 44.046875 74.21875 50.515625 64.515625 
Q 56.984375 54.828125 56.984375 36.375 
Q 56.984375 17.96875 50.515625 8.265625 
Q 44.046875 -1.421875 31.78125 -1.421875 
Q 19.53125 -1.421875 13.0625 8.265625 
Q 6.59375 17.96875 6.59375 36.375 
Q 6.59375 54.828125 13.0625 64.515625 
Q 19.53125 74.21875 31.78125 74.21875 
z
" id="DejaVuSans-30"/>
      </defs>
      <g transform="translate(83.097447 322.182437)scale(0.1 -0.1)">
       <use xlink:href="#DejaVuSans-2212"/>
       <use x="83.789062" xlink:href="#DejaVuSans-31"/>
       <use x="147.412109" xlink:href="#DejaVuSans-30"/>
      </g>
     </g>
    </g>
    <g id="xtick_2">
     <g id="line2d_3">
      <path clip-path="url(#p3aad7c3f87)" d="M 148.069847 307.584 
L 148.069847 41.472 
" style="fill:none;stroke:#b0b0b0;stroke-linecap:square;stroke-width:0.8;"/>
     </g>
     <g id="line2d_4">
      <g>
       <use style="stroke:#000000;stroke-width:0.8;" x="148.069847" xlink:href="#m84ca42b1b3" y="307.584"/>
      </g>
     </g>
     <g id="text_2">
      <!-- −8 -->
      <defs>
       <path d="M 31.78125 34.625 
Q 24.75 34.625 20.71875 30.859375 
Q 16.703125 27.09375 16.703125 20.515625 
Q 16.703125 13.921875 20.71875 10.15625 
Q 24.75 6.390625 31.78125 6.390625 
Q 38.8125 6.390625 42.859375 10.171875 
Q 46.921875 13.96875 46.921875 20.515625 
Q 46.921875 27.09375 42.890625 30.859375 
Q 38.875 34.625 31.78125 34.625 
z
M 21.921875 38.8125 
Q 15.578125 40.375 12.03125 44.71875 
Q 8.5 49.078125 8.5 55.328125 
Q 8.5 64.0625 14.71875 69.140625 
Q 20.953125 74.21875 31.78125 74.21875 
Q 42.671875 74.21875 48.875 69.140625 
Q 55.078125 64.0625 55.078125 55.328125 
Q 55.078125 49.078125 51.53125 44.71875 
Q 48 40.375 41.703125 38.8125 
Q 48.828125 37.15625 52.796875 32.3125 
Q 56.78125 27.484375 56.78125 20.515625 
Q 56.78125 9.90625 50.3125 4.234375 
Q 43.84375 -1.421875 31.78125 -1.421875 
Q 19.734375 -1.421875 13.25 4.234375 
Q 6.78125 9.90625 6.78125 20.515625 
Q 6.78125 27.484375 10.78125 32.3125 
Q 14.796875 37.15625 21.921875 38.8125 
z
M 18.3125 54.390625 
Q 18.3125 48.734375 21.84375 45.5625 
Q 25.390625 42.390625 31.78125 42.390625 
Q 38.140625 42.390625 41.71875 45.5625 
Q 45.3125 48.734375 45.3125 54.390625 
Q 45.3125 60.0625 41.71875 63.234375 
Q 38.140625 66.40625 31.78125 66.40625 
Q 25.390625 66.40625 21.84375 63.234375 
Q 18.3125 60.0625 18.3125 54.390625 
z
" id="DejaVuSans-38"/>
      </defs>
      <g transform="translate(140.698753 322.182437)scale(0.1 -0.1)">
       <use xlink:href="#DejaVuSans-2212"/>
       <use x="83.789062" xlink:href="#DejaVuSans-38"/>
      </g>
     </g>
    </g>
    <g id="xtick_3">
     <g id="line2d_5">
      <path clip-path="url(#p3aad7c3f87)" d="M 202.489903 307.584 
L 202.489903 41.472 
" style="fill:none;stroke:#b0b0b0;stroke-linecap:square;stroke-width:0.8;"/>
     </g>
     <g id="line2d_6">
      <g>
       <use style="stroke:#000000;stroke-width:0.8;" x="202.489903" xlink:href="#m84ca42b1b3" y="307.584"/>
      </g>
     </g>
     <g id="text_3">
      <!-- −6 -->
      <defs>
       <path d="M 33.015625 40.375 
Q 26.375 40.375 22.484375 35.828125 
Q 18.609375 31.296875 18.609375 23.390625 
Q 18.609375 15.53125 22.484375 10.953125 
Q 26.375 6.390625 33.015625 6.390625 
Q 39.65625 6.390625 43.53125 10.953125 
Q 47.40625 15.53125 47.40625 23.390625 
Q 47.40625 31.296875 43.53125 35.828125 
Q 39.65625 40.375 33.015625 40.375 
z
M 52.59375 71.296875 
L 52.59375 62.3125 
Q 48.875 64.0625 45.09375 64.984375 
Q 41.3125 65.921875 37.59375 65.921875 
Q 27.828125 65.921875 22.671875 59.328125 
Q 17.53125 52.734375 16.796875 39.40625 
Q 19.671875 43.65625 24.015625 45.921875 
Q 28.375 48.1875 33.59375 48.1875 
Q 44.578125 48.1875 50.953125 41.515625 
Q 57.328125 34.859375 57.328125 23.390625 
Q 57.328125 12.15625 50.6875 5.359375 
Q 44.046875 -1.421875 33.015625 -1.421875 
Q 20.359375 -1.421875 13.671875 8.265625 
Q 6.984375 17.96875 6.984375 36.375 
Q 6.984375 53.65625 15.1875 63.9375 
Q 23.390625 74.21875 37.203125 74.21875 
Q 40.921875 74.21875 44.703125 73.484375 
Q 48.484375 72.75 52.59375 71.296875 
z
" id="DejaVuSans-36"/>
      </defs>
      <g transform="translate(195.118809 322.182437)scale(0.1 -0.1)">
       <use xlink:href="#DejaVuSans-2212"/>
       <use x="83.789062" xlink:href="#DejaVuSans-36"/>
      </g>
     </g>
    </g>
    <g id="xtick_4">
     <g id="line2d_7">
      <path clip-path="url(#p3aad7c3f87)" d="M 256.909959 307.584 
L 256.909959 41.472 
" style="fill:none;stroke:#b0b0b0;stroke-linecap:square;stroke-width:0.8;"/>
     </g>
     <g id="line2d_8">
      <g>
       <use style="stroke:#000000;stroke-width:0.8;" x="256.909959" xlink:href="#m84ca42b1b3" y="307.584"/>
      </g>
     </g>
     <g id="text_4">
      <!-- −4 -->
      <defs>
       <path d="M 37.796875 64.3125 
L 12.890625 25.390625 
L 37.796875 25.390625 
z
M 35.203125 72.90625 
L 47.609375 72.90625 
L 47.609375 25.390625 
L 58.015625 25.390625 
L 58.015625 17.1875 
L 47.609375 17.1875 
L 47.609375 0 
L 37.796875 0 
L 37.796875 17.1875 
L 4.890625 17.1875 
L 4.890625 26.703125 
z
" id="DejaVuSans-34"/>
      </defs>
      <g transform="translate(249.538866 322.182437)scale(0.1 -0.1)">
       <use xlink:href="#DejaVuSans-2212"/>
       <use x="83.789062" xlink:href="#DejaVuSans-34"/>
      </g>
     </g>
    </g>
    <g id="xtick_5">
     <g id="line2d_9">
      <path clip-path="url(#p3aad7c3f87)" d="M 311.330015 307.584 
L 311.330015 41.472 
" style="fill:none;stroke:#b0b0b0;stroke-linecap:square;stroke-width:0.8;"/>
     </g>
     <g id="line2d_10">
      <g>
       <use style="stroke:#000000;stroke-width:0.8;" x="311.330015" xlink:href="#m84ca42b1b3" y="307.584"/>
      </g>
     </g>
     <g id="text_5">
      <!-- −2 -->
      <defs>
       <path d="M 19.1875 8.296875 
L 53.609375 8.296875 
L 53.609375 0 
L 7.328125 0 
L 7.328125 8.296875 
Q 12.9375 14.109375 22.625 23.890625 
Q 32.328125 33.6875 34.8125 36.53125 
Q 39.546875 41.84375 41.421875 45.53125 
Q 43.3125 49.21875 43.3125 52.78125 
Q 43.3125 58.59375 39.234375 62.25 
Q 35.15625 65.921875 28.609375 65.921875 
Q 23.96875 65.921875 18.8125 64.3125 
Q 13.671875 62.703125 7.8125 59.421875 
L 7.8125 69.390625 
Q 13.765625 71.78125 18.9375 73 
Q 24.125 74.21875 28.421875 74.21875 
Q 39.75 74.21875 46.484375 68.546875 
Q 53.21875 62.890625 53.21875 53.421875 
Q 53.21875 48.921875 51.53125 44.890625 
Q 49.859375 40.875 45.40625 35.40625 
Q 44.1875 33.984375 37.640625 27.21875 
Q 31.109375 20.453125 19.1875 8.296875 
z
" id="DejaVuSans-32"/>
      </defs>
      <g transform="translate(303.958922 322.182437)scale(0.1 -0.1)">
       <use xlink:href="#DejaVuSans-2212"/>
       <use x="83.789062" xlink:href="#DejaVuSans-32"/>
      </g>
     </g>
    </g>
    <g id="xtick_6">
     <g id="line2d_11">
      <path clip-path="url(#p3aad7c3f87)" d="M 365.750072 307.584 
L 365.750072 41.472 
" style="fill:none;stroke:#b0b0b0;stroke-linecap:square;stroke-width:0.8;"/>
     </g>
     <g id="line2d_12">
      <g>
       <use style="stroke:#000000;stroke-width:0.8;" x="365.750072" xlink:href="#m84ca42b1b3" y="307.584"/>
      </g>
     </g>
     <g id="text_6">
      <!-- 0 -->
      <g transform="translate(362.568822 322.182437)scale(0.1 -0.1)">
       <use xlink:href="#DejaVuSans-30"/>
      </g>
     </g>
    </g>
   </g>
   <g id="matplotlib.axis_2">
    <g id="ytick_1">
     <g id="line2d_13">
      <path clip-path="url(#p3aad7c3f87)" d="M 57.6 304.595898 
L 414.72 304.595898 
" style="fill:none;stroke:#b0b0b0;stroke-linecap:square;stroke-width:0.8;"/>
     </g>
     <g id="line2d_14">
      <defs>
       <path d="M 0 0 
L -3.5 0 
" id="m03300fe339" style="stroke:#000000;stroke-width:0.8;"/>
      </defs>
      <g>
       <use style="stroke:#000000;stroke-width:0.8;" x="57.6" xlink:href="#m03300fe339" y="304.595898"/>
      </g>
     </g>
     <g id="text_7">
      <!-- −1.5 -->
      <defs>
       <path d="M 10.6875 12.40625 
L 21 12.40625 
L 21 0 
L 10.6875 0 
z
" id="DejaVuSans-2e"/>
       <path d="M 10.796875 72.90625 
L 49.515625 72.90625 
L 49.515625 64.59375 
L 19.828125 64.59375 
L 19.828125 46.734375 
Q 21.96875 47.46875 24.109375 47.828125 
Q 26.265625 48.1875 28.421875 48.1875 
Q 40.625 48.1875 47.75 41.5 
Q 54.890625 34.8125 54.890625 23.390625 
Q 54.890625 11.625 47.5625 5.09375 
Q 40.234375 -1.421875 26.90625 -1.421875 
Q 22.3125 -1.421875 17.546875 -0.640625 
Q 12.796875 0.140625 7.71875 1.703125 
L 7.71875 11.625 
Q 12.109375 9.234375 16.796875 8.0625 
Q 21.484375 6.890625 26.703125 6.890625 
Q 35.15625 6.890625 40.078125 11.328125 
Q 45.015625 15.765625 45.015625 23.390625 
Q 45.015625 31 40.078125 35.4375 
Q 35.15625 39.890625 26.703125 39.890625 
Q 22.75 39.890625 18.8125 39.015625 
Q 14.890625 38.140625 10.796875 36.28125 
z
" id="DejaVuSans-35"/>
      </defs>
      <g transform="translate(26.317187 308.395117)scale(0.1 -0.1)">
       <use xlink:href="#DejaVuSans-2212"/>
       <use x="83.789062" xlink:href="#DejaVuSans-31"/>
       <use x="147.412109" xlink:href="#DejaVuSans-2e"/>
       <use x="179.199219" xlink:href="#DejaVuSans-35"/>
      </g>
     </g>
    </g>
    <g id="ytick_2">
     <g id="line2d_15">
      <path clip-path="url(#p3aad7c3f87)" d="M 57.6 271.767546 
L 414.72 271.767546 
" style="fill:none;stroke:#b0b0b0;stroke-linecap:square;stroke-width:0.8;"/>
     </g>
     <g id="line2d_16">
      <g>
       <use style="stroke:#000000;stroke-width:0.8;" x="57.6" xlink:href="#m03300fe339" y="271.767546"/>
      </g>
     </g>
     <g id="text_8">
      <!-- −1.0 -->
      <g transform="translate(26.317187 275.566765)scale(0.1 -0.1)">
       <use xlink:href="#DejaVuSans-2212"/>
       <use x="83.789062" xlink:href="#DejaVuSans-31"/>
       <use x="147.412109" xlink:href="#DejaVuSans-2e"/>
       <use x="179.199219" xlink:href="#DejaVuSans-30"/>
      </g>
     </g>
    </g>
    <g id="ytick_3">
     <g id="line2d_17">
      <path clip-path="url(#p3aad7c3f87)" d="M 57.6 238.939195 
L 414.72 238.939195 
" style="fill:none;stroke:#b0b0b0;stroke-linecap:square;stroke-width:0.8;"/>
     </g>
     <g id="line2d_18">
      <g>
       <use style="stroke:#000000;stroke-width:0.8;" x="57.6" xlink:href="#m03300fe339" y="238.939195"/>
      </g>
     </g>
     <g id="text_9">
      <!-- −0.5 -->
      <g transform="translate(26.317187 242.738414)scale(0.1 -0.1)">
       <use xlink:href="#DejaVuSans-2212"/>
       <use x="83.789062" xlink:href="#DejaVuSans-30"/>
       <use x="147.412109" xlink:href="#DejaVuSans-2e"/>
       <use x="179.199219" xlink:href="#DejaVuSans-35"/>
      </g>
     </g>
    </g>
    <g id="ytick_4">
     <g id="line2d_19">
      <path clip-path="url(#p3aad7c3f87)" d="M 57.6 206.110844 
L 414.72 206.110844 
" style="fill:none;stroke:#b0b0b0;stroke-linecap:square;stroke-width:0.8;"/>
     </g>
     <g id="line2d_20">
      <g>
       <use style="stroke:#000000;stroke-width:0.8;" x="57.6" xlink:href="#m03300fe339" y="206.110844"/>
      </g>
     </g>
     <g id="text_10">
      <!-- 0.0 -->
      <g transform="translate(34.696875 209.910062)scale(0.1 -0.1)">
       <use xlink:href="#DejaVuSans-30"/>
       <use x="63.623047" xlink:href="#DejaVuSans-2e"/>
       <use x="95.410156" xlink:href="#DejaVuSans-30"/>
      </g>
     </g>
    </g>
    <g id="ytick_5">
     <g id="line2d_21">
      <path clip-path="url(#p3aad7c3f87)" d="M 57.6 173.282492 
L 414.72 173.282492 
" style="fill:none;stroke:#b0b0b0;stroke-linecap:square;stroke-width:0.8;"/>
     </g>
     <g id="line2d_22">
      <g>
       <use style="stroke:#000000;stroke-width:0.8;" x="57.6" xlink:href="#m03300fe339" y="173.282492"/>
      </g>
     </g>
     <g id="text_11">
      <!-- 0.5 -->
      <g transform="translate(34.696875 177.081711)scale(0.1 -0.1)">
       <use xlink:href="#DejaVuSans-30"/>
       <use x="63.623047" xlink:href="#DejaVuSans-2e"/>
       <use x="95.410156" xlink:href="#DejaVuSans-35"/>
      </g>
     </g>
    </g>
    <g id="ytick_6">
     <g id="line2d_23">
      <path clip-path="url(#p3aad7c3f87)" d="M 57.6 140.454141 
L 414.72 140.454141 
" style="fill:none;stroke:#b0b0b0;stroke-linecap:square;stroke-width:0.8;"/>
     </g>
     <g id="line2d_24">
      <g>
       <use style="stroke:#000000;stroke-width:0.8;" x="57.6" xlink:href="#m03300fe339" y="140.454141"/>
      </g>
     </g>
     <g id="text_12">
      <!-- 1.0 -->
      <g transform="translate(34.696875 144.25336)scale(0.1 -0.1)">
       <use xlink:href="#DejaVuSans-31"/>
       <use x="63.623047" xlink:href="#DejaVuSans-2e"/>
       <use x="95.410156" xlink:href="#DejaVuSans-30"/>
      </g>
     </g>
    </g>
    <g id="ytick_7">
     <g id="line2d_25">
      <path clip-path="url(#p3aad7c3f87)" d="M 57.6 107.62579 
L 414.72 107.62579 
" style="fill:none;stroke:#b0b0b0;stroke-linecap:square;stroke-width:0.8;"/>
     </g>
     <g id="line2d_26">
      <g>
       <use style="stroke:#000000;stroke-width:0.8;" x="57.6" xlink:href="#m03300fe339" y="107.62579"/>
      </g>
     </g>
     <g id="text_13">
      <!-- 1.5 -->
      <g transform="translate(34.696875 111.425008)scale(0.1 -0.1)">
       <use xlink:href="#DejaVuSans-31"/>
       <use x="63.623047" xlink:href="#DejaVuSans-2e"/>
       <use x="95.410156" xlink:href="#DejaVuSans-35"/>
      </g>
     </g>
    </g>
    <g id="ytick_8">
     <g id="line2d_27">
      <path clip-path="url(#p3aad7c3f87)" d="M 57.6 74.797438 
L 414.72 74.797438 
" style="fill:none;stroke:#b0b0b0;stroke-linecap:square;stroke-width:0.8;"/>
     </g>
     <g id="line2d_28">
      <g>
       <use style="stroke:#000000;stroke-width:0.8;" x="57.6" xlink:href="#m03300fe339" y="74.797438"/>
      </g>
     </g>
     <g id="text_14">
      <!-- 2.0 -->
      <g transform="translate(34.696875 78.596657)scale(0.1 -0.1)">
       <use xlink:href="#DejaVuSans-32"/>
       <use x="63.623047" xlink:href="#DejaVuSans-2e"/>
       <use x="95.410156" xlink:href="#DejaVuSans-30"/>
      </g>
     </g>
    </g>
    <g id="ytick_9">
     <g id="line2d_29">
      <path clip-path="url(#p3aad7c3f87)" d="M 57.6 41.969087 
L 414.72 41.969087 
" style="fill:none;stroke:#b0b0b0;stroke-linecap:square;stroke-width:0.8;"/>
     </g>
     <g id="line2d_30">
      <g>
       <use style="stroke:#000000;stroke-width:0.8;" x="57.6" xlink:href="#m03300fe339" y="41.969087"/>
      </g>
     </g>
     <g id="text_15">
      <!-- 2.5 -->
      <g transform="translate(34.696875 45.768306)scale(0.1 -0.1)">
       <use xlink:href="#DejaVuSans-32"/>
       <use x="63.623047" xlink:href="#DejaVuSans-2e"/>
       <use x="95.410156" xlink:href="#DejaVuSans-35"/>
      </g>
     </g>
    </g>
   </g>
   <g id="line2d_31">
    <path clip-path="url(#p3aad7c3f87)" d="M 74.744263 64.799892 
L 77.111536 65.333681 
L 79.198545 69.387326 
L 80.94815 69.538993 
L 83.03788 73.507284 
L 85.519434 75.658854 
L 87.483998 74.52365 
L 89.742431 74.698953 
L 92.768186 75.459258 
L 95.620341 74.232791 
L 99.261587 73.305061 
L 102.593183 72.599908 
L 104.626044 71.077329 
L 106.652375 70.639399 
L 108.504833 72.155413 
L 110.782313 72.244049 
L 114.463285 71.629502 
L 116.428666 71.79627 
L 119.166539 70.085257 
L 121.86278 71.431876 
L 123.514973 72.413443 
L 126.20931 72.290009 
L 128.220676 73.07198 
L 130.731889 73.551931 
L 136.443546 73.310971 
L 138.904965 72.999101 
L 144.824235 72.765363 
L 147.308782 73.365466 
L 150.376985 72.805414 
L 153.719737 72.337282 
L 155.957762 71.58223 
L 158.306532 72.755515 
L 160.865635 73.755466 
L 163.864996 74.267589 
L 166.710893 73.662234 
L 176.18352 73.110718 
L 178.868878 73.138293 
L 182.16238 72.714151 
L 185.048003 73.377284 
L 191.060603 73.783699 
L 194.279549 73.633345 
L 199.914202 74.616226 
L 203.226206 74.749509 
L 205.597832 75.42446 
L 208.071768 76.307542 
L 210.962017 77.692899 
L 213.653089 78.471587 
L 216.759386 79.254215 
L 219.967993 79.646186 
L 222.716205 79.556893 
L 224.955046 80.03553 
L 228.841455 80.996088 
L 231.634564 80.829976 
L 234.556105 81.257401 
L 237.249898 81.497048 
L 242.676394 82.607303 
L 245.697523 82.823314 
L 248.072686 82.784576 
L 250.946337 83.565891 
L 256.353242 83.911245 
L 259.805923 83.824578 
L 261.962317 84.037306 
L 264.725768 84.152862 
L 267.71234 83.980841 
L 269.967235 84.281549 
L 276.195339 84.844883 
L 281.280077 84.737206 
L 283.850064 84.793671 
L 287.342199 84.364276 
L 289.09262 84.589479 
L 294.792032 84.248064 
L 297.162298 84.392509 
L 299.911871 84.412206 
L 302.199963 84.655792 
L 307.546733 84.360337 
L 310.297939 84.035993 
L 315.631377 83.957861 
L 320.819241 84.257913 
L 323.526638 84.236246 
L 327.99262 84.459479 
L 333.639517 84.269074 
L 335.91999 84.260539 
L 337.986319 84.804176 
L 340.691785 85.053015 
L 342.514884 85.414784 
L 345.24152 85.590087 
L 349.447102 86.392412 
L 352.168948 86.177715 
L 356.299403 87.148777 
L 361.001595 87.406808 
L 363.00311 87.074585 
L 367.861453 86.803423 
L 373.230353 87.116605 
L 378.478705 87.378576 
L 380.180393 87.666809 
L 384.616689 88.063375 
L 385.207827 87.869031 
L 387.292115 87.87691 
L 388.382529 87.515142 
L 389.618681 87.289283 
L 390.247206 86.973474 
L 390.977468 86.918322 
L 390.539142 86.851352 
L 390.329217 86.700342 
L 390.868574 86.682615 
L 391.292479 86.271604 
L 391.769198 86.316907 
L 391.202468 86.291301 
L 391.588551 86.353018 
L 391.335579 86.530948 
L 391.535328 86.498776 
L 391.001876 86.372058 
L 391.254412 86.180341 
L 390.785311 86.233523 
L 390.848057 86.143573 
L 391.189706 85.755542 
L 390.874832 85.800189 
L 391.07752 85.534935 
L 390.351964 85.052359 
L 390.697205 85.444986 
L 390.850044 85.609127 
L 390.645887 85.367511 
L 391.090825 85.506703 
L 391.221733 85.664279 
L 391.022446 85.810037 
L 390.560202 85.513925 
L 389.907352 85.492259 
L 388.708234 85.620946 
L 388.764776 85.585491 
L 387.380711 85.469279 
L 386.829599 85.760138 
L 387.444464 85.962361 
L 385.65984 85.908522 
L 384.699489 86.123876 
L 383.83821 86.101553 
L 381.814083 86.36418 
L 381.582335 86.662918 
L 381.29448 86.614988 
L 381.026162 86.875645 
L 378.775158 87.282717 
L 376.052305 87.640546 
L 374.5908 88.394285 
L 374.166242 88.874892 
L 373.900482 88.908377 
L 371.622703 90.138783 
L 369.551721 90.617421 
L 368.853103 91.012674 
L 369.031084 91.235907 
L 366.958072 92.101919 
L 365.96694 92.305455 
L 363.696719 93.383538 
L 362.958649 94.026973 
L 361.860235 94.827985 
L 360.926278 95.113592 
L 358.288864 97.632839 
L 358.109605 97.524506 
L 357.218095 98.480468 
L 356.775252 98.681377 
L 356.692506 98.527084 
L 353.181651 101.080473 
L 352.596771 101.748858 
L 351.817585 102.395577 
L 350.818732 103.995631 
L 350.180167 104.547803 
L 348.95226 105.834018 
L 344.679741 112.695144 
L 344.2797 112.988629 
L 342.705055 114.758077 
L 340.867617 117.227426 
L 338.423313 120.784706 
L 335.742036 124.981482 
L 334.598943 127.008305 
L 334.197323 127.583458 
L 332.675194 129.433007 
L 332.165822 130.576747 
L 331.00858 132.022507 
L 330.010788 133.076954 
L 328.5341 135.050594 
L 327.503112 136.74979 
L 327.267473 138.034035 
L 325.991051 141.095673 
L 323.591398 144.561624 
L 322.196884 147.02664 
L 321.39827 148.154359 
L 319.34745 151.552028 
L 317.851171 154.286498 
L 316.599509 156.277735 
L 315.827561 157.954016 
L 314.938065 159.361564 
L 312.745209 163.347123 
L 311.957207 164.65507 
L 309.358377 169.542687 
L 308.403849 170.999674 
L 306.00855 175.074855 
L 304.705734 177.218349 
L 303.550124 179.714683 
L 302.234791 181.999667 
L 299.685212 186.908294 
L 299.171214 188.464554 
L 297.583237 190.915519 
L 294.933797 195.567099 
L 294.188242 198.066519 
L 291.533087 202.173135 
L 290.399518 203.681756 
L 289.226221 205.959806 
L 287.906263 208.192739 
L 286.808338 209.795636 
L 285.321038 211.741687 
L 284.103661 213.148257 
L 282.620987 214.68574 
L 281.140217 216.603901 
L 279.396871 218.336187 
L 277.757194 220.889971 
L 276.883208 221.562886 
L 274.01636 224.709484 
L 273.383999 225.470576 
L 272.219137 225.954466 
L 271.608544 226.729872 
L 269.329977 230.661329 
L 268.472861 230.110667 
L 267.836962 229.856575 
L 266.813049 230.609001 
L 266.55537 230.366925 
L 264.728489 231.690958 
L 264.686313 230.07298 
L 264.061027 229.225286 
L 263.248807 229.51516 
L 262.285845 231.183037 
L 261.598247 232.73293 
L 260.060336 234.090054 
L 260.060336 234.090054 
" style="fill:none;stroke:#1f77b4;stroke-linecap:square;stroke-width:1.5;"/>
   </g>
   <g id="line2d_32">
    <path clip-path="url(#p3aad7c3f87)" d="M 74.744263 64.799892 
L 77.242144 65.749945 
L 78.420338 78.114415 
L 77.146909 99.527035 
L 80.311435 88.171709 
L 86.063635 84.934177 
L 86.762933 67.552878 
L 87.837729 122.386073 
L 93.426669 79.038861 
L 95.850538 64.451255 
L 101.488184 65.104539 
L 104.622507 65.799844 
L 103.472339 57.739827 
L 105.365613 65.424944 
L 106.191981 82.258666 
L 110.250357 71.124602 
L 116.681719 64.485397 
L 115.102449 71.414148 
L 119.102867 53.568 
L 121.693806 80.80437 
L 121.977607 79.153104 
L 125.333692 68.982881 
L 127.01119 78.067799 
L 130.090005 75.813804 
L 133.943217 70.0846 
L 136.592929 70.684702 
L 138.725923 68.407071 
L 141.661885 69.623034 
L 145.828013 69.772074 
L 146.013857 76.347593 
L 151.153559 65.836611 
L 153.907758 65.723025 
L 155.910961 63.301606 
L 156.551213 80.71639 
L 159.760635 80.370379 
L 163.177127 76.485472 
L 167.508963 66.512876 
L 169.994055 70.305207 
L 172.883488 69.137174 
L 177.194917 68.992073 
L 178.788336 71.255259 
L 182.809978 66.524037 
L 184.658355 76.708048 
L 187.942062 72.792283 
L 191.000469 73.220364 
L 194.737494 69.988085 
L 196.8928 76.040976 
L 199.710943 76.746129 
L 203.335319 73.328698 
L 204.601673 79.282448 
L 207.337097 82.133262 
L 210.582165 87.869031 
L 213.466973 83.640083 
L 216.458715 84.329478 
L 220.39655 81.348007 
L 223.379314 77.270726 
L 224.79097 82.957253 
L 229.119541 87.282717 
L 232.411683 77.937798 
L 234.25489 83.402406 
L 237.772874 82.293464 
L 239.463978 85.812007 
L 243.011077 85.89933 
L 245.064074 83.213971 
L 248.370908 81.33028 
L 249.350469 89.077771 
L 254.12719 84.445691 
L 256.364126 84.213266 
L 260.854053 81.748513 
L 261.119079 85.025439 
L 260.243188 111.566505 
L 268.275316 81.416947 
L 269.374329 86.132411 
L 273.011493 85.866502 
L 275.812766 86.371402 
L 278.69458 83.651245 
L 282.388885 83.363668 
L 283.358379 84.299276 
L 289.188943 79.533256 
L 287.805586 86.079886 
L 292.180414 81.964524 
L 295.19202 81.951393 
L 296.746257 84.986045 
L 299.871056 83.827861 
L 301.690319 86.305745 
L 304.559344 82.898819 
L 307.796249 82.128666 
L 310.965401 80.531238 
L 312.745209 82.416242 
L 315.779943 83.328214 
L 317.889537 85.034631 
L 321.244533 84.718823 
L 323.378344 83.399779 
L 325.88085 85.200086 
L 327.099859 84.746398 
L 331.250477 82.82791 
L 334.085762 82.807556 
L 335.865298 83.74579 
L 336.912612 89.41262 
L 340.538266 86.799484 
L 341.996289 88.542012 
L 345.148189 86.878272 
L 346.693284 89.827571 
L 349.402532 89.430348 
L 352.057713 84.371499 
L 353.179474 91.266109 
L 355.294972 90.967371 
L 357.441109 88.615548 
L 360.984018 88.314184 
L 362.937861 84.178468 
L 365.231767 85.706956 
L 367.242909 85.779178 
L 370.15543 88.16186 
L 375.206754 87.72196 
L 378.693038 87.843425 
L 378.767485 89.471055 
L 382.369304 89.100751 
L 383.962043 88.809892 
L 383.547607 86.057563 
L 386.852047 87.792869 
L 387.990977 84.634782 
L 390.184133 85.386551 
L 390.556311 84.496246 
L 391.545233 86.567715 
L 389.425191 86.491554 
L 389.79571 85.539531 
L 392.239279 86.589382 
L 391.840924 84.466701 
L 391.672004 84.763469 
L 392.980779 86.658322 
L 389.762187 86.102866 
L 392.569799 86.845443 
L 390.692634 88.030547 
L 392.043013 86.228927 
L 389.646109 85.30645 
L 391.896215 84.546802 
L 389.593185 86.692463 
L 391.007508 85.386551 
L 391.773117 83.613164 
L 390.661369 86.159331 
L 391.592605 83.274375 
L 389.429299 83.120082 
L 389.690842 83.103011 
L 391.565749 87.397616 
L 391.795837 86.649786 
L 391.23844 87.003676 
L 390.810399 83.279628 
L 392.221565 86.708877 
L 391.554402 87.008928 
L 391.075533 87.049636 
L 391.016623 84.030084 
L 390.998937 84.571752 
L 388.7937 85.299228 
L 387.027062 86.617614 
L 390.068354 85.232915 
L 386.378865 84.246094 
L 386.241264 88.199941 
L 389.227537 85.434481 
L 390.834942 87.623475 
L 386.237753 85.025439 
L 385.512252 85.760794 
L 385.203364 87.458677 
L 384.076461 85.404935 
L 382.671444 87.067363 
L 381.646524 86.326755 
L 383.398496 88.348325 
L 382.748421 85.217814 
L 382.072823 88.271507 
L 378.528037 88.551204 
L 379.342814 86.148169 
L 376.584969 87.384485 
L 379.28121 86.307715 
L 373.939691 87.509232 
L 374.831446 89.967419 
L 374.185452 90.063278 
L 375.969015 90.086258 
L 374.902518 87.400899 
L 369.990782 94.8595 
L 371.567984 90.939139 
L 369.599882 89.410651 
L 369.463016 89.491408 
L 369.446853 90.95424 
L 371.49487 89.629287 
L 370.28484 89.754035 
L 367.301149 92.653435 
L 364.439016 92.09404 
L 363.204065 93.905508 
L 363.238126 93.828034 
L 362.763009 96.06824 
L 361.398453 96.658494 
L 360.817819 95.206824 
L 361.487974 92.147222 
L 360.211688 97.175212 
L 358.978366 99.198095 
L 357.883462 99.51653 
L 358.479987 99.001782 
L 358.773556 93.813589 
L 356.601326 102.273455 
L 357.259182 96.162786 
L 357.65653 94.156974 
L 355.2356 100.099562 
L 355.688783 97.930264 
L 354.880645 97.471981 
L 353.458214 101.960929 
L 353.648194 98.118043 
L 353.827562 99.201378 
L 352.079699 100.826381 
L 350.505898 110.080037 
L 350.782298 101.876232 
L 348.981701 105.93119 
L 347.518373 113.672772 
L 348.080206 110.08135 
L 347.384201 109.372914 
L 346.802967 110.045896 
L 345.398875 113.574943 
L 344.839301 113.176407 
L 344.767875 109.259328 
L 343.37015 112.60979 
L 343.007223 112.808073 
L 342.394126 114.374642 
L 341.260366 118.027781 
L 341.345289 114.632673 
L 339.450899 120.561473 
L 339.732686 117.19985 
L 337.601025 126.202041 
L 338.293521 119.63834 
L 337.676941 122.258042 
L 336.790167 121.728193 
L 336.196988 122.781326 
L 335.523268 125.882949 
L 335.127634 124.613148 
L 334.157052 127.115325 
L 331.466797 130.614171 
L 332.993824 128.661541 
L 330.182211 132.474882 
L 329.030683 133.203671 
L 327.342573 137.137821 
L 327.473725 136.32893 
L 328.762664 136.903427 
L 327.989899 136.379486 
L 326.540149 140.499707 
L 324.401441 142.525479 
L 323.013185 144.343184 
L 322.805573 143.600541 
L 320.490271 146.829932 
L 319.407584 150.502046 
L 317.624239 155.91137 
L 316.464004 154.703746 
L 316.40659 156.879084 
L 314.727187 158.796194 
L 313.246146 159.573635 
L 312.007817 163.227103 
L 309.930332 171.102952 
L 309.977405 166.547296 
L 308.497996 167.951693 
L 307.461294 171.384882 
L 305.900799 173.468826 
L 304.372411 177.019803 
L 304.13514 179.194419 
L 301.959426 182.454996 
L 300.653345 186.689131 
L 299.963026 185.905716 
L 300.363014 186.540419 
L 297.656704 187.120496 
L 296.513611 191.806087 
L 294.512313 197.552821 
L 295.911997 197.886291 
L 291.823418 198.342343 
L 290.083337 202.069116 
L 289.881439 205.007818 
L 288.092379 207.737167 
L 287.608585 204.457588 
L 285.546065 207.602446 
L 284.210597 209.137276 
L 281.995973 212.477981 
L 281.050696 215.310004 
L 279.588157 211.840363 
L 277.404008 225.049257 
L 277.346051 215.821864 
L 276.214386 219.88109 
L 273.499097 226.525942 
L 272.405254 265.568109 
L 271.997376 264.482213 
L 271.483922 221.455669 
L 270.665445 230.88338 
L 270.851289 231.489983 
L 268.90033 237.920663 
L 268.770538 235.504299 
L 269.922883 219.556286 
L 268.622516 224.053967 
L 267.866893 222.012044 
L 266.47891 229.105134 
L 266.377144 226.727311 
L 265.39323 229.887105 
L 264.840866 228.862927 
L 265.112694 214.893675 
L 264.250681 216.600093 
L 262.830317 226.913907 
L 262.146257 238.083163 
L 261.500291 240.725911 
L 260.315294 270.88105 
L 272.382125 295.488 
L 272.382125 295.488 
" style="fill:none;stroke:#ff7f0e;stroke-linecap:square;stroke-width:1.5;"/>
   </g>
   <g id="line2d_33">
    <path clip-path="url(#p3aad7c3f87)" d="M 74.442232 68.497021 
L 94.170591 69.942782 
L 117.34646 72.140312 
L 125.32825 72.695111 
L 133.466225 73.134354 
L 161.310519 74.158599 
L 170.066706 74.863095 
L 187.57391 76.031128 
L 202.474393 76.745473 
L 245.852076 79.782095 
L 257.062063 80.724269 
L 302.746068 83.517305 
L 318.293334 84.138417 
L 338.561893 84.510691 
L 363.299991 84.404984 
L 391.931533 84.460792 
L 398.487273 84.292711 
L 398.281293 84.251347 
L 398.305782 84.11872 
L 398.178711 83.906649 
L 397.648115 83.806194 
L 396.968681 83.953265 
L 395.393765 84.140387 
L 390.973223 84.509378 
L 385.184154 85.265086 
L 381.643912 86.051654 
L 377.948463 87.233474 
L 373.9518 88.786255 
L 368.20954 91.664645 
L 363.948575 94.294853 
L 359.861767 97.286829 
L 355.946543 100.559159 
L 353.110986 103.177548 
L 349.393988 106.961344 
L 344.776255 112.202062 
L 340.634563 117.48874 
L 337.676669 121.673041 
L 330.887223 132.39675 
L 328.098739 137.297367 
L 322.528575 147.313822 
L 315.581854 159.690964 
L 310.088694 169.948773 
L 306.628667 176.492514 
L 300.103702 188.637166 
L 296.117161 195.888883 
L 292.085451 202.754289 
L 286.696505 211.606073 
L 282.537996 217.873308 
L 279.716316 221.806341 
L 275.707735 227.165963 
L 266.251706 238.580578 
L 263.721174 241.178286 
L 260.977586 243.518225 
L 258.863639 245.249132 
L 256.748604 247.171035 
L 254.810706 248.793675 
L 253.055115 250.146991 
L 248.607363 253.307245 
L 248.607363 253.307245 
" style="fill:none;stroke:#2ca02c;stroke-linecap:square;stroke-width:1.5;"/>
   </g>
   <g id="line2d_34">
    <path clip-path="url(#p3aad7c3f87)" d="M 73.832727 68.946113 
L 106.354153 71.306471 
L 146.258747 73.983295 
L 183.533765 76.264209 
L 216.099543 78.053354 
L 244.716601 79.39866 
L 267.411942 80.254167 
L 288.856437 80.85033 
L 312.485081 81.26331 
L 332.851515 81.384775 
L 352.758807 81.251492 
L 374.737952 80.840481 
L 398.448907 80.287652 
L 393.054519 80.515481 
L 389.588886 80.881188 
L 385.880703 81.558766 
L 383.156708 82.276393 
L 379.967992 83.357759 
L 377.150829 84.532358 
L 373.866905 86.158674 
L 370.721262 87.98393 
L 367.578248 90.078379 
L 364.123456 92.703334 
L 360.767861 95.587633 
L 357.72861 98.493599 
L 354.945786 101.403504 
L 351.382932 105.503765 
L 348.000807 109.804936 
L 344.595581 114.565047 
L 341.008728 120.05329 
L 336.694115 127.136992 
L 330.561519 137.693277 
L 322.994682 151.197285 
L 316.349721 163.489992 
L 300.694976 192.689366 
L 295.272562 202.305309 
L 291.250375 209.1158 
L 287.213223 215.553656 
L 282.940705 221.84672 
L 278.64669 227.647161 
L 274.751303 232.478379 
L 271.220529 236.514165 
L 267.284055 240.648173 
L 264.062931 243.761614 
L 260.709568 246.726343 
L 257.279199 249.425884 
L 254.17644 251.581065 
L 250.783077 253.637892 
L 249.776306 254.190262 
L 249.776306 254.190262 
" style="fill:none;stroke:#d62728;stroke-linecap:square;stroke-width:1.5;"/>
   </g>
   <g id="patch_3">
    <path d="M 57.6 307.584 
L 57.6 41.472 
" style="fill:none;stroke:#000000;stroke-linecap:square;stroke-linejoin:miter;stroke-width:0.8;"/>
   </g>
   <g id="patch_4">
    <path d="M 414.72 307.584 
L 414.72 41.472 
" style="fill:none;stroke:#000000;stroke-linecap:square;stroke-linejoin:miter;stroke-width:0.8;"/>
   </g>
   <g id="patch_5">
    <path d="M 57.6 307.584 
L 414.72 307.584 
" style="fill:none;stroke:#000000;stroke-linecap:square;stroke-linejoin:miter;stroke-width:0.8;"/>
   </g>
   <g id="patch_6">
    <path d="M 57.6 41.472 
L 414.72 41.472 
" style="fill:none;stroke:#000000;stroke-linecap:square;stroke-linejoin:miter;stroke-width:0.8;"/>
   </g>
   <g id="legend_1">
    <g id="patch_7">
     <path d="M 64.6 302.584 
L 122.110937 302.584 
Q 124.110937 302.584 124.110937 300.584 
L 124.110937 242.8715 
Q 124.110937 240.8715 122.110937 240.8715 
L 64.6 240.8715 
Q 62.6 240.8715 62.6 242.8715 
L 62.6 300.584 
Q 62.6 302.584 64.6 302.584 
z
" style="fill:#ffffff;opacity:0.8;stroke:#cccccc;stroke-linejoin:miter;"/>
    </g>
    <g id="line2d_35">
     <path d="M 66.6 248.969937 
L 86.6 248.969937 
" style="fill:none;stroke:#1f77b4;stroke-linecap:square;stroke-width:1.5;"/>
    </g>
    <g id="line2d_36"/>
    <g id="text_16">
     <!-- y -->
     <defs>
      <path d="M 32.171875 -5.078125 
Q 28.375 -14.84375 24.75 -17.8125 
Q 21.140625 -20.796875 15.09375 -20.796875 
L 7.90625 -20.796875 
L 7.90625 -13.28125 
L 13.1875 -13.28125 
Q 16.890625 -13.28125 18.9375 -11.515625 
Q 21 -9.765625 23.484375 -3.21875 
L 25.09375 0.875 
L 2.984375 54.6875 
L 12.5 54.6875 
L 29.59375 11.921875 
L 46.6875 54.6875 
L 56.203125 54.6875 
z
" id="DejaVuSans-79"/>
     </defs>
     <g transform="translate(94.6 252.469937)scale(0.1 -0.1)">
      <use xlink:href="#DejaVuSans-79"/>
     </g>
    </g>
    <g id="line2d_37">
     <path d="M 66.6 263.648062 
L 86.6 263.648062 
" style="fill:none;stroke:#ff7f0e;stroke-linecap:square;stroke-width:1.5;"/>
    </g>
    <g id="line2d_38"/>
    <g id="text_17">
     <!-- zy -->
     <defs>
      <path d="M 5.515625 54.6875 
L 48.1875 54.6875 
L 48.1875 46.484375 
L 14.40625 7.171875 
L 48.1875 7.171875 
L 48.1875 0 
L 4.296875 0 
L 4.296875 8.203125 
L 38.09375 47.515625 
L 5.515625 47.515625 
z
" id="DejaVuSans-7a"/>
     </defs>
     <g transform="translate(94.6 267.148062)scale(0.1 -0.1)">
      <use xlink:href="#DejaVuSans-7a"/>
      <use x="52.490234" xlink:href="#DejaVuSans-79"/>
     </g>
    </g>
    <g id="line2d_39">
     <path d="M 66.6 278.326187 
L 86.6 278.326187 
" style="fill:none;stroke:#2ca02c;stroke-linecap:square;stroke-width:1.5;"/>
    </g>
    <g id="line2d_40"/>
    <g id="text_18">
     <!-- RTKy -->
     <defs>
      <path d="M 44.390625 34.1875 
Q 47.5625 33.109375 50.5625 29.59375 
Q 53.5625 26.078125 56.59375 19.921875 
L 66.609375 0 
L 56 0 
L 46.6875 18.703125 
Q 43.0625 26.03125 39.671875 28.421875 
Q 36.28125 30.8125 30.421875 30.8125 
L 19.671875 30.8125 
L 19.671875 0 
L 9.8125 0 
L 9.8125 72.90625 
L 32.078125 72.90625 
Q 44.578125 72.90625 50.734375 67.671875 
Q 56.890625 62.453125 56.890625 51.90625 
Q 56.890625 45.015625 53.6875 40.46875 
Q 50.484375 35.9375 44.390625 34.1875 
z
M 19.671875 64.796875 
L 19.671875 38.921875 
L 32.078125 38.921875 
Q 39.203125 38.921875 42.84375 42.21875 
Q 46.484375 45.515625 46.484375 51.90625 
Q 46.484375 58.296875 42.84375 61.546875 
Q 39.203125 64.796875 32.078125 64.796875 
z
" id="DejaVuSans-52"/>
      <path d="M -0.296875 72.90625 
L 61.375 72.90625 
L 61.375 64.59375 
L 35.5 64.59375 
L 35.5 0 
L 25.59375 0 
L 25.59375 64.59375 
L -0.296875 64.59375 
z
" id="DejaVuSans-54"/>
      <path d="M 9.8125 72.90625 
L 19.671875 72.90625 
L 19.671875 42.09375 
L 52.390625 72.90625 
L 65.09375 72.90625 
L 28.90625 38.921875 
L 67.671875 0 
L 54.6875 0 
L 19.671875 35.109375 
L 19.671875 0 
L 9.8125 0 
z
" id="DejaVuSans-4b"/>
     </defs>
     <g transform="translate(94.6 281.826187)scale(0.1 -0.1)">
      <use xlink:href="#DejaVuSans-52"/>
      <use x="69.373047" xlink:href="#DejaVuSans-54"/>
      <use x="130.457031" xlink:href="#DejaVuSans-4b"/>
      <use x="195.923828" xlink:href="#DejaVuSans-79"/>
     </g>
    </g>
    <g id="line2d_41">
     <path d="M 66.6 293.004312 
L 86.6 293.004312 
" style="fill:none;stroke:#d62728;stroke-linecap:square;stroke-width:1.5;"/>
    </g>
    <g id="line2d_42"/>
    <g id="text_19">
     <!-- DRy -->
     <defs>
      <path d="M 19.671875 64.796875 
L 19.671875 8.109375 
L 31.59375 8.109375 
Q 46.6875 8.109375 53.6875 14.9375 
Q 60.6875 21.78125 60.6875 36.53125 
Q 60.6875 51.171875 53.6875 57.984375 
Q 46.6875 64.796875 31.59375 64.796875 
z
M 9.8125 72.90625 
L 30.078125 72.90625 
Q 51.265625 72.90625 61.171875 64.09375 
Q 71.09375 55.28125 71.09375 36.53125 
Q 71.09375 17.671875 61.125 8.828125 
Q 51.171875 0 30.078125 0 
L 9.8125 0 
z
" id="DejaVuSans-44"/>
     </defs>
     <g transform="translate(94.6 296.504312)scale(0.1 -0.1)">
      <use xlink:href="#DejaVuSans-44"/>
      <use x="77.001953" xlink:href="#DejaVuSans-52"/>
      <use x="146.40625" xlink:href="#DejaVuSans-79"/>
     </g>
    </g>
   </g>
  </g>
 </g>
 <defs>
  <clipPath id="p3aad7c3f87">
   <rect height="266.112" width="357.12" x="57.6" y="41.472"/>
  </clipPath>
 </defs>
</svg>
