<?xml version="1.0" encoding="utf-8" standalone="no"?>
<!DOCTYPE svg PUBLIC "-//W3C//DTD SVG 1.1//EN"
  "http://www.w3.org/Graphics/SVG/1.1/DTD/svg11.dtd">
<!-- Created with matplotlib (http://matplotlib.org/) -->
<svg height="345pt" version="1.1" viewBox="0 0 460 345" width="460pt" xmlns="http://www.w3.org/2000/svg" xmlns:xlink="http://www.w3.org/1999/xlink">
 <defs>
  <style type="text/css">
*{stroke-linecap:butt;stroke-linejoin:round;}
  </style>
 </defs>
 <g id="figure_1">
  <g id="patch_1">
   <path d="M 0 345.6 
L 460.8 345.6 
L 460.8 0 
L 0 0 
z
" style="fill:#ffffff;"/>
  </g>
  <g id="axes_1">
   <g id="patch_2">
    <path d="M 57.6 307.584 
L 414.72 307.584 
L 414.72 41.472 
L 57.6 41.472 
z
" style="fill:#ffffff;"/>
   </g>
   <g id="matplotlib.axis_1">
    <g id="xtick_1">
     <g id="line2d_1">
      <path clip-path="url(#p63f81500c9)" d="M 87.032304 307.584 
L 87.032304 41.472 
" style="fill:none;stroke:#b0b0b0;stroke-linecap:square;stroke-width:0.8;"/>
     </g>
     <g id="line2d_2">
      <defs>
       <path d="M 0 0 
L 0 3.5 
" id="m283d1ca12b" style="stroke:#000000;stroke-width:0.8;"/>
      </defs>
      <g>
       <use style="stroke:#000000;stroke-width:0.8;" x="87.032304" xlink:href="#m283d1ca12b" y="307.584"/>
      </g>
     </g>
     <g id="text_1">
      <!-- −15.0 -->
      <defs>
       <path d="M 10.59375 35.5 
L 73.1875 35.5 
L 73.1875 27.203125 
L 10.59375 27.203125 
z
" id="DejaVuSans-2212"/>
       <path d="M 12.40625 8.296875 
L 28.515625 8.296875 
L 28.515625 63.921875 
L 10.984375 60.40625 
L 10.984375 69.390625 
L 28.421875 72.90625 
L 38.28125 72.90625 
L 38.28125 8.296875 
L 54.390625 8.296875 
L 54.390625 0 
L 12.40625 0 
z
" id="DejaVuSans-31"/>
       <path d="M 10.796875 72.90625 
L 49.515625 72.90625 
L 49.515625 64.59375 
L 19.828125 64.59375 
L 19.828125 46.734375 
Q 21.96875 47.46875 24.109375 47.828125 
Q 26.265625 48.1875 28.421875 48.1875 
Q 40.625 48.1875 47.75 41.5 
Q 54.890625 34.8125 54.890625 23.390625 
Q 54.890625 11.625 47.5625 5.09375 
Q 40.234375 -1.421875 26.90625 -1.421875 
Q 22.3125 -1.421875 17.546875 -0.640625 
Q 12.796875 0.140625 7.71875 1.703125 
L 7.71875 11.625 
Q 12.109375 9.234375 16.796875 8.0625 
Q 21.484375 6.890625 26.703125 6.890625 
Q 35.15625 6.890625 40.078125 11.328125 
Q 45.015625 15.765625 45.015625 23.390625 
Q 45.015625 31 40.078125 35.4375 
Q 35.15625 39.890625 26.703125 39.890625 
Q 22.75 39.890625 18.8125 39.015625 
Q 14.890625 38.140625 10.796875 36.28125 
z
" id="DejaVuSans-35"/>
       <path d="M 10.6875 12.40625 
L 21 12.40625 
L 21 0 
L 10.6875 0 
z
" id="DejaVuSans-2e"/>
       <path d="M 31.78125 66.40625 
Q 24.171875 66.40625 20.328125 58.90625 
Q 16.5 51.421875 16.5 36.375 
Q 16.5 21.390625 20.328125 13.890625 
Q 24.171875 6.390625 31.78125 6.390625 
Q 39.453125 6.390625 43.28125 13.890625 
Q 47.125 21.390625 47.125 36.375 
Q 47.125 51.421875 43.28125 58.90625 
Q 39.453125 66.40625 31.78125 66.40625 
z
M 31.78125 74.21875 
Q 44.046875 74.21875 50.515625 64.515625 
Q 56.984375 54.828125 56.984375 36.375 
Q 56.984375 17.96875 50.515625 8.265625 
Q 44.046875 -1.421875 31.78125 -1.421875 
Q 19.53125 -1.421875 13.0625 8.265625 
Q 6.59375 17.96875 6.59375 36.375 
Q 6.59375 54.828125 13.0625 64.515625 
Q 19.53125 74.21875 31.78125 74.21875 
z
" id="DejaVuSans-30"/>
      </defs>
      <g transform="translate(71.709648 322.182437)scale(0.1 -0.1)">
       <use xlink:href="#DejaVuSans-2212"/>
       <use x="83.789062" xlink:href="#DejaVuSans-31"/>
       <use x="147.412109" xlink:href="#DejaVuSans-35"/>
       <use x="211.035156" xlink:href="#DejaVuSans-2e"/>
       <use x="242.822266" xlink:href="#DejaVuSans-30"/>
      </g>
     </g>
    </g>
    <g id="xtick_2">
     <g id="line2d_3">
      <path clip-path="url(#p63f81500c9)" d="M 130.716368 307.584 
L 130.716368 41.472 
" style="fill:none;stroke:#b0b0b0;stroke-linecap:square;stroke-width:0.8;"/>
     </g>
     <g id="line2d_4">
      <g>
       <use style="stroke:#000000;stroke-width:0.8;" x="130.716368" xlink:href="#m283d1ca12b" y="307.584"/>
      </g>
     </g>
     <g id="text_2">
      <!-- −12.5 -->
      <defs>
       <path d="M 19.1875 8.296875 
L 53.609375 8.296875 
L 53.609375 0 
L 7.328125 0 
L 7.328125 8.296875 
Q 12.9375 14.109375 22.625 23.890625 
Q 32.328125 33.6875 34.8125 36.53125 
Q 39.546875 41.84375 41.421875 45.53125 
Q 43.3125 49.21875 43.3125 52.78125 
Q 43.3125 58.59375 39.234375 62.25 
Q 35.15625 65.921875 28.609375 65.921875 
Q 23.96875 65.921875 18.8125 64.3125 
Q 13.671875 62.703125 7.8125 59.421875 
L 7.8125 69.390625 
Q 13.765625 71.78125 18.9375 73 
Q 24.125 74.21875 28.421875 74.21875 
Q 39.75 74.21875 46.484375 68.546875 
Q 53.21875 62.890625 53.21875 53.421875 
Q 53.21875 48.921875 51.53125 44.890625 
Q 49.859375 40.875 45.40625 35.40625 
Q 44.1875 33.984375 37.640625 27.21875 
Q 31.109375 20.453125 19.1875 8.296875 
z
" id="DejaVuSans-32"/>
      </defs>
      <g transform="translate(115.393712 322.182437)scale(0.1 -0.1)">
       <use xlink:href="#DejaVuSans-2212"/>
       <use x="83.789062" xlink:href="#DejaVuSans-31"/>
       <use x="147.412109" xlink:href="#DejaVuSans-32"/>
       <use x="211.035156" xlink:href="#DejaVuSans-2e"/>
       <use x="242.822266" xlink:href="#DejaVuSans-35"/>
      </g>
     </g>
    </g>
    <g id="xtick_3">
     <g id="line2d_5">
      <path clip-path="url(#p63f81500c9)" d="M 174.400432 307.584 
L 174.400432 41.472 
" style="fill:none;stroke:#b0b0b0;stroke-linecap:square;stroke-width:0.8;"/>
     </g>
     <g id="line2d_6">
      <g>
       <use style="stroke:#000000;stroke-width:0.8;" x="174.400432" xlink:href="#m283d1ca12b" y="307.584"/>
      </g>
     </g>
     <g id="text_3">
      <!-- −10.0 -->
      <g transform="translate(159.077775 322.182437)scale(0.1 -0.1)">
       <use xlink:href="#DejaVuSans-2212"/>
       <use x="83.789062" xlink:href="#DejaVuSans-31"/>
       <use x="147.412109" xlink:href="#DejaVuSans-30"/>
       <use x="211.035156" xlink:href="#DejaVuSans-2e"/>
       <use x="242.822266" xlink:href="#DejaVuSans-30"/>
      </g>
     </g>
    </g>
    <g id="xtick_4">
     <g id="line2d_7">
      <path clip-path="url(#p63f81500c9)" d="M 218.084495 307.584 
L 218.084495 41.472 
" style="fill:none;stroke:#b0b0b0;stroke-linecap:square;stroke-width:0.8;"/>
     </g>
     <g id="line2d_8">
      <g>
       <use style="stroke:#000000;stroke-width:0.8;" x="218.084495" xlink:href="#m283d1ca12b" y="307.584"/>
      </g>
     </g>
     <g id="text_4">
      <!-- −7.5 -->
      <defs>
       <path d="M 8.203125 72.90625 
L 55.078125 72.90625 
L 55.078125 68.703125 
L 28.609375 0 
L 18.3125 0 
L 43.21875 64.59375 
L 8.203125 64.59375 
z
" id="DejaVuSans-37"/>
      </defs>
      <g transform="translate(205.943089 322.182437)scale(0.1 -0.1)">
       <use xlink:href="#DejaVuSans-2212"/>
       <use x="83.789062" xlink:href="#DejaVuSans-37"/>
       <use x="147.412109" xlink:href="#DejaVuSans-2e"/>
       <use x="179.199219" xlink:href="#DejaVuSans-35"/>
      </g>
     </g>
    </g>
    <g id="xtick_5">
     <g id="line2d_9">
      <path clip-path="url(#p63f81500c9)" d="M 261.768559 307.584 
L 261.768559 41.472 
" style="fill:none;stroke:#b0b0b0;stroke-linecap:square;stroke-width:0.8;"/>
     </g>
     <g id="line2d_10">
      <g>
       <use style="stroke:#000000;stroke-width:0.8;" x="261.768559" xlink:href="#m283d1ca12b" y="307.584"/>
      </g>
     </g>
     <g id="text_5">
      <!-- −5.0 -->
      <g transform="translate(249.627153 322.182437)scale(0.1 -0.1)">
       <use xlink:href="#DejaVuSans-2212"/>
       <use x="83.789062" xlink:href="#DejaVuSans-35"/>
       <use x="147.412109" xlink:href="#DejaVuSans-2e"/>
       <use x="179.199219" xlink:href="#DejaVuSans-30"/>
      </g>
     </g>
    </g>
    <g id="xtick_6">
     <g id="line2d_11">
      <path clip-path="url(#p63f81500c9)" d="M 305.452623 307.584 
L 305.452623 41.472 
" style="fill:none;stroke:#b0b0b0;stroke-linecap:square;stroke-width:0.8;"/>
     </g>
     <g id="line2d_12">
      <g>
       <use style="stroke:#000000;stroke-width:0.8;" x="305.452623" xlink:href="#m283d1ca12b" y="307.584"/>
      </g>
     </g>
     <g id="text_6">
      <!-- −2.5 -->
      <g transform="translate(293.311217 322.182437)scale(0.1 -0.1)">
       <use xlink:href="#DejaVuSans-2212"/>
       <use x="83.789062" xlink:href="#DejaVuSans-32"/>
       <use x="147.412109" xlink:href="#DejaVuSans-2e"/>
       <use x="179.199219" xlink:href="#DejaVuSans-35"/>
      </g>
     </g>
    </g>
    <g id="xtick_7">
     <g id="line2d_13">
      <path clip-path="url(#p63f81500c9)" d="M 349.136687 307.584 
L 349.136687 41.472 
" style="fill:none;stroke:#b0b0b0;stroke-linecap:square;stroke-width:0.8;"/>
     </g>
     <g id="line2d_14">
      <g>
       <use style="stroke:#000000;stroke-width:0.8;" x="349.136687" xlink:href="#m283d1ca12b" y="307.584"/>
      </g>
     </g>
     <g id="text_7">
      <!-- 0.0 -->
      <g transform="translate(341.185124 322.182437)scale(0.1 -0.1)">
       <use xlink:href="#DejaVuSans-30"/>
       <use x="63.623047" xlink:href="#DejaVuSans-2e"/>
       <use x="95.410156" xlink:href="#DejaVuSans-30"/>
      </g>
     </g>
    </g>
    <g id="xtick_8">
     <g id="line2d_15">
      <path clip-path="url(#p63f81500c9)" d="M 392.820751 307.584 
L 392.820751 41.472 
" style="fill:none;stroke:#b0b0b0;stroke-linecap:square;stroke-width:0.8;"/>
     </g>
     <g id="line2d_16">
      <g>
       <use style="stroke:#000000;stroke-width:0.8;" x="392.820751" xlink:href="#m283d1ca12b" y="307.584"/>
      </g>
     </g>
     <g id="text_8">
      <!-- 2.5 -->
      <g transform="translate(384.869188 322.182437)scale(0.1 -0.1)">
       <use xlink:href="#DejaVuSans-32"/>
       <use x="63.623047" xlink:href="#DejaVuSans-2e"/>
       <use x="95.410156" xlink:href="#DejaVuSans-35"/>
      </g>
     </g>
    </g>
   </g>
   <g id="matplotlib.axis_2">
    <g id="ytick_1">
     <g id="line2d_17">
      <path clip-path="url(#p63f81500c9)" d="M 57.6 303.391039 
L 414.72 303.391039 
" style="fill:none;stroke:#b0b0b0;stroke-linecap:square;stroke-width:0.8;"/>
     </g>
     <g id="line2d_18">
      <defs>
       <path d="M 0 0 
L -3.5 0 
" id="m471e2ee4c1" style="stroke:#000000;stroke-width:0.8;"/>
      </defs>
      <g>
       <use style="stroke:#000000;stroke-width:0.8;" x="57.6" xlink:href="#m471e2ee4c1" y="303.391039"/>
      </g>
     </g>
     <g id="text_9">
      <!-- 1.25 -->
      <g transform="translate(28.334375 307.190257)scale(0.1 -0.1)">
       <use xlink:href="#DejaVuSans-31"/>
       <use x="63.623047" xlink:href="#DejaVuSans-2e"/>
       <use x="95.410156" xlink:href="#DejaVuSans-32"/>
       <use x="159.033203" xlink:href="#DejaVuSans-35"/>
      </g>
     </g>
    </g>
    <g id="ytick_2">
     <g id="line2d_19">
      <path clip-path="url(#p63f81500c9)" d="M 57.6 273.75168 
L 414.72 273.75168 
" style="fill:none;stroke:#b0b0b0;stroke-linecap:square;stroke-width:0.8;"/>
     </g>
     <g id="line2d_20">
      <g>
       <use style="stroke:#000000;stroke-width:0.8;" x="57.6" xlink:href="#m471e2ee4c1" y="273.75168"/>
      </g>
     </g>
     <g id="text_10">
      <!-- 1.50 -->
      <g transform="translate(28.334375 277.550899)scale(0.1 -0.1)">
       <use xlink:href="#DejaVuSans-31"/>
       <use x="63.623047" xlink:href="#DejaVuSans-2e"/>
       <use x="95.410156" xlink:href="#DejaVuSans-35"/>
       <use x="159.033203" xlink:href="#DejaVuSans-30"/>
      </g>
     </g>
    </g>
    <g id="ytick_3">
     <g id="line2d_21">
      <path clip-path="url(#p63f81500c9)" d="M 57.6 244.112322 
L 414.72 244.112322 
" style="fill:none;stroke:#b0b0b0;stroke-linecap:square;stroke-width:0.8;"/>
     </g>
     <g id="line2d_22">
      <g>
       <use style="stroke:#000000;stroke-width:0.8;" x="57.6" xlink:href="#m471e2ee4c1" y="244.112322"/>
      </g>
     </g>
     <g id="text_11">
      <!-- 1.75 -->
      <g transform="translate(28.334375 247.91154)scale(0.1 -0.1)">
       <use xlink:href="#DejaVuSans-31"/>
       <use x="63.623047" xlink:href="#DejaVuSans-2e"/>
       <use x="95.410156" xlink:href="#DejaVuSans-37"/>
       <use x="159.033203" xlink:href="#DejaVuSans-35"/>
      </g>
     </g>
    </g>
    <g id="ytick_4">
     <g id="line2d_23">
      <path clip-path="url(#p63f81500c9)" d="M 57.6 214.472963 
L 414.72 214.472963 
" style="fill:none;stroke:#b0b0b0;stroke-linecap:square;stroke-width:0.8;"/>
     </g>
     <g id="line2d_24">
      <g>
       <use style="stroke:#000000;stroke-width:0.8;" x="57.6" xlink:href="#m471e2ee4c1" y="214.472963"/>
      </g>
     </g>
     <g id="text_12">
      <!-- 2.00 -->
      <g transform="translate(28.334375 218.272182)scale(0.1 -0.1)">
       <use xlink:href="#DejaVuSans-32"/>
       <use x="63.623047" xlink:href="#DejaVuSans-2e"/>
       <use x="95.410156" xlink:href="#DejaVuSans-30"/>
       <use x="159.033203" xlink:href="#DejaVuSans-30"/>
      </g>
     </g>
    </g>
    <g id="ytick_5">
     <g id="line2d_25">
      <path clip-path="url(#p63f81500c9)" d="M 57.6 184.833605 
L 414.72 184.833605 
" style="fill:none;stroke:#b0b0b0;stroke-linecap:square;stroke-width:0.8;"/>
     </g>
     <g id="line2d_26">
      <g>
       <use style="stroke:#000000;stroke-width:0.8;" x="57.6" xlink:href="#m471e2ee4c1" y="184.833605"/>
      </g>
     </g>
     <g id="text_13">
      <!-- 2.25 -->
      <g transform="translate(28.334375 188.632824)scale(0.1 -0.1)">
       <use xlink:href="#DejaVuSans-32"/>
       <use x="63.623047" xlink:href="#DejaVuSans-2e"/>
       <use x="95.410156" xlink:href="#DejaVuSans-32"/>
       <use x="159.033203" xlink:href="#DejaVuSans-35"/>
      </g>
     </g>
    </g>
    <g id="ytick_6">
     <g id="line2d_27">
      <path clip-path="url(#p63f81500c9)" d="M 57.6 155.194247 
L 414.72 155.194247 
" style="fill:none;stroke:#b0b0b0;stroke-linecap:square;stroke-width:0.8;"/>
     </g>
     <g id="line2d_28">
      <g>
       <use style="stroke:#000000;stroke-width:0.8;" x="57.6" xlink:href="#m471e2ee4c1" y="155.194247"/>
      </g>
     </g>
     <g id="text_14">
      <!-- 2.50 -->
      <g transform="translate(28.334375 158.993465)scale(0.1 -0.1)">
       <use xlink:href="#DejaVuSans-32"/>
       <use x="63.623047" xlink:href="#DejaVuSans-2e"/>
       <use x="95.410156" xlink:href="#DejaVuSans-35"/>
       <use x="159.033203" xlink:href="#DejaVuSans-30"/>
      </g>
     </g>
    </g>
    <g id="ytick_7">
     <g id="line2d_29">
      <path clip-path="url(#p63f81500c9)" d="M 57.6 125.554888 
L 414.72 125.554888 
" style="fill:none;stroke:#b0b0b0;stroke-linecap:square;stroke-width:0.8;"/>
     </g>
     <g id="line2d_30">
      <g>
       <use style="stroke:#000000;stroke-width:0.8;" x="57.6" xlink:href="#m471e2ee4c1" y="125.554888"/>
      </g>
     </g>
     <g id="text_15">
      <!-- 2.75 -->
      <g transform="translate(28.334375 129.354107)scale(0.1 -0.1)">
       <use xlink:href="#DejaVuSans-32"/>
       <use x="63.623047" xlink:href="#DejaVuSans-2e"/>
       <use x="95.410156" xlink:href="#DejaVuSans-37"/>
       <use x="159.033203" xlink:href="#DejaVuSans-35"/>
      </g>
     </g>
    </g>
    <g id="ytick_8">
     <g id="line2d_31">
      <path clip-path="url(#p63f81500c9)" d="M 57.6 95.91553 
L 414.72 95.91553 
" style="fill:none;stroke:#b0b0b0;stroke-linecap:square;stroke-width:0.8;"/>
     </g>
     <g id="line2d_32">
      <g>
       <use style="stroke:#000000;stroke-width:0.8;" x="57.6" xlink:href="#m471e2ee4c1" y="95.91553"/>
      </g>
     </g>
     <g id="text_16">
      <!-- 3.00 -->
      <defs>
       <path d="M 40.578125 39.3125 
Q 47.65625 37.796875 51.625 33 
Q 55.609375 28.21875 55.609375 21.1875 
Q 55.609375 10.40625 48.1875 4.484375 
Q 40.765625 -1.421875 27.09375 -1.421875 
Q 22.515625 -1.421875 17.65625 -0.515625 
Q 12.796875 0.390625 7.625 2.203125 
L 7.625 11.71875 
Q 11.71875 9.328125 16.59375 8.109375 
Q 21.484375 6.890625 26.8125 6.890625 
Q 36.078125 6.890625 40.9375 10.546875 
Q 45.796875 14.203125 45.796875 21.1875 
Q 45.796875 27.640625 41.28125 31.265625 
Q 36.765625 34.90625 28.71875 34.90625 
L 20.21875 34.90625 
L 20.21875 43.015625 
L 29.109375 43.015625 
Q 36.375 43.015625 40.234375 45.921875 
Q 44.09375 48.828125 44.09375 54.296875 
Q 44.09375 59.90625 40.109375 62.90625 
Q 36.140625 65.921875 28.71875 65.921875 
Q 24.65625 65.921875 20.015625 65.03125 
Q 15.375 64.15625 9.8125 62.3125 
L 9.8125 71.09375 
Q 15.4375 72.65625 20.34375 73.4375 
Q 25.25 74.21875 29.59375 74.21875 
Q 40.828125 74.21875 47.359375 69.109375 
Q 53.90625 64.015625 53.90625 55.328125 
Q 53.90625 49.265625 50.4375 45.09375 
Q 46.96875 40.921875 40.578125 39.3125 
z
" id="DejaVuSans-33"/>
      </defs>
      <g transform="translate(28.334375 99.714748)scale(0.1 -0.1)">
       <use xlink:href="#DejaVuSans-33"/>
       <use x="63.623047" xlink:href="#DejaVuSans-2e"/>
       <use x="95.410156" xlink:href="#DejaVuSans-30"/>
       <use x="159.033203" xlink:href="#DejaVuSans-30"/>
      </g>
     </g>
    </g>
    <g id="ytick_9">
     <g id="line2d_33">
      <path clip-path="url(#p63f81500c9)" d="M 57.6 66.276171 
L 414.72 66.276171 
" style="fill:none;stroke:#b0b0b0;stroke-linecap:square;stroke-width:0.8;"/>
     </g>
     <g id="line2d_34">
      <g>
       <use style="stroke:#000000;stroke-width:0.8;" x="57.6" xlink:href="#m471e2ee4c1" y="66.276171"/>
      </g>
     </g>
     <g id="text_17">
      <!-- 3.25 -->
      <g transform="translate(28.334375 70.07539)scale(0.1 -0.1)">
       <use xlink:href="#DejaVuSans-33"/>
       <use x="63.623047" xlink:href="#DejaVuSans-2e"/>
       <use x="95.410156" xlink:href="#DejaVuSans-32"/>
       <use x="159.033203" xlink:href="#DejaVuSans-35"/>
      </g>
     </g>
    </g>
   </g>
   <g id="line2d_35">
    <path clip-path="url(#p63f81500c9)" d="M 102.456273 128.522381 
L 103.403344 128.776094 
L 104.004436 133.536175 
L 105.127991 133.81597 
L 105.587547 137.063258 
L 106.237566 137.215012 
L 107.368109 136.158665 
L 108.018128 136.313975 
L 109.014125 137.506663 
L 111.439464 138.074553 
L 112.113946 140.43266 
L 114.686064 140.999365 
L 116.174817 142.825149 
L 117.595422 145.153617 
L 119.192512 145.473723 
L 120.773875 144.150622 
L 122.304564 144.957998 
L 124.078137 145.345681 
L 125.135292 146.814607 
L 126.43533 147.084918 
L 128.086587 149.170343 
L 130.850915 151.801133 
L 132.1527 152.041804 
L 134.073051 151.325717 
L 136.49839 151.78572 
L 138.02908 153.100522 
L 139.316886 154.516098 
L 151.740634 156.634719 
L 164.489391 158.581432 
L 173.040984 159.765821 
L 174.300832 161.738617 
L 177.052054 162.089547 
L 178.127556 164.082497 
L 179.62225 165.614259 
L 181.10943 166.700245 
L 182.347262 168.646959 
L 188.323591 169.329849 
L 191.192236 172.399301 
L 192.819905 172.560539 
L 194.533193 174.04725 
L 202.759427 174.838028 
L 203.870575 176.747988 
L 206.09322 178.246554 
L 207.237393 179.841151 
L 208.545643 181.005385 
L 210.132773 182.70787 
L 211.634107 184.692522 
L 213.123558 186.19583 
L 215.295355 186.760163 
L 216.510646 188.123574 
L 218.400069 188.874042 
L 219.942117 190.733023 
L 221.392253 190.812456 
L 223.431425 192.274269 
L 224.881561 192.345404 
L 226.527926 194.301602 
L 230.219229 196.870741 
L 231.544953 197.96147 
L 233.414282 199.048641 
L 235.172653 199.735089 
L 237.048097 201.230098 
L 240.865909 202.339796 
L 242.403938 203.064181 
L 247.688312 207.287197 
L 249.661783 207.636942 
L 251.284209 208.234471 
L 255.42441 209.324014 
L 257.21301 209.928657 
L 259.290974 210.207267 
L 261.183018 211.204335 
L 262.931779 211.590832 
L 265.013412 212.274908 
L 267.018685 212.591457 
L 268.706288 213.377493 
L 270.629959 213.378678 
L 272.74584 213.966723 
L 274.439734 214.62116 
L 276.056219 215.65261 
L 278.088576 216.224057 
L 281.745631 218.426854 
L 283.499808 219.171394 
L 285.117342 219.330261 
L 287.005542 219.864955 
L 288.978664 220.94857 
L 290.609827 221.231923 
L 292.650921 222.263372 
L 295.937011 223.530751 
L 297.746754 223.983641 
L 299.704324 224.662975 
L 301.884683 225.03406 
L 303.274885 225.874632 
L 305.026092 226.297882 
L 307.173076 226.301438 
L 308.662353 226.507728 
L 310.245639 227.000927 
L 312.020085 226.736544 
L 313.806589 226.978401 
L 317.293625 227.951758 
L 318.720347 228.516091 
L 320.667783 228.58604 
L 324.193086 229.139703 
L 326.549754 229.117178 
L 327.510629 229.458623 
L 329.284202 229.686253 
L 331.079268 229.724192 
L 332.652069 229.985018 
L 334.459331 229.941152 
L 335.835361 230.161669 
L 337.55073 230.217391 
L 339.439995 230.111874 
L 341.130307 230.529197 
L 344.588127 230.997498 
L 345.915179 231.406522 
L 349.642821 231.268995 
L 351.056619 231.277294 
L 353.002063 231.14451 
L 354.057819 229.674397 
L 355.948815 229.81311 
L 357.437585 230.371515 
L 360.676881 230.807807 
L 364.070591 229.853419 
L 366.628485 228.644133 
L 368.72899 228.491194 
L 374.440943 228.881248 
L 375.562051 227.040051 
L 378.65995 227.407579 
L 381.735133 228.195986 
L 384.948533 229.041301 
L 386.242455 229.587851 
L 389.339655 230.471103 
L 390.917523 231.746781 
L 392.538901 232.181887 
L 393.814651 232.817355 
L 393.6988 232.939469 
L 394.343927 233.133903 
L 394.968609 234.357416 
L 395.508369 235.834642 
L 395.009497 235.739796 
L 394.917586 235.737425 
L 395.995883 237.143516 
L 395.679436 236.944339 
L 395.01404 237.074752 
L 394.229474 236.582739 
L 394.153814 236.394233 
L 395.201008 239.259766 
L 395.95814 242.885252 
L 395.469403 242.886438 
L 395.083061 242.555663 
L 394.866912 242.131227 
L 394.476377 241.845504 
L 394.476377 241.845504 
" style="fill:none;stroke:#1f77b4;stroke-linecap:square;stroke-width:1.5;"/>
   </g>
   <g id="line2d_36">
    <path clip-path="url(#p63f81500c9)" d="M 102.117285 184.287055 
L 102.487726 196.256614 
L 102.140001 208.22143 
L 102.3724 208.750196 
L 103.815721 159.170663 
L 103.63749 171.481667 
L 104.212373 185.016183 
L 104.656203 162.146454 
L 106.826427 173.230389 
L 107.399562 123.405442 
L 107.140952 179.938368 
L 108.330906 147.569818 
L 108.925009 215.122658 
L 109.681617 216.625966 
L 111.434222 167.883449 
L 113.950424 192.919222 
L 121.803071 53.568 
L 115.570229 163.324915 
L 117.280897 174.098229 
L 118.322325 192.380971 
L 122.322038 119.155158 
L 121.930629 151.652936 
L 121.759387 192.976129 
L 124.761356 166.248542 
L 130.408832 71.401409 
L 127.399874 176.906855 
L 128.925321 169.952276 
L 130.751315 166.217717 
L 129.561361 233.10545 
L 134.873343 133.418803 
L 134.30545 191.91504 
L 134.660165 295.488 
L 137.662134 170.150267 
L 139.236508 174.2239 
L 137.912007 212.158722 
L 141.137638 216.846483 
L 141.936183 210.260618 
L 143.437167 234.927677 
L 146.500294 197.06399 
L 146.60863 228.486452 
L 148.876707 223.569875 
L 149.893672 193.27608 
L 151.73015 198.434514 
L 153.393639 228.961867 
L 152.921851 234.622985 
L 156.85167 203.915424 
L 157.538383 245.385629 
L 159.374861 202.078969 
L 160.966708 231.810802 
L 162.301693 237.043928 
L 163.545815 232.143949 
L 165.539556 216.784833 
L 167.127909 224.47684 
L 168.606177 200.535351 
L 170.416445 218.2751 
L 172.251176 206.906628 
L 173.252414 192.468704 
L 174.56381 198.523432 
L 176.700834 206.287758 
L 177.855841 195.988674 
L 179.873521 188.3844 
L 181.313872 181.94436 
L 181.995168 199.800295 
L 182.251856 225.260504 
L 183.051099 229.221508 
L 185.410214 218.827578 
L 185.192667 212.970841 
L 189.423381 194.965523 
L 190.625916 196.174809 
L 191.093336 212.010525 
L 194.19106 196.047953 
L 193.319301 229.540428 
L 196.533749 217.202155 
L 197.975148 212.400579 
L 199.420916 215.285082 
L 201.013113 214.352035 
L 203.798933 208.125398 
L 206.766828 200.872055 
L 206.366333 205.653476 
L 206.945933 197.994666 
L 209.909285 209.884791 
L 210.121939 217.642004 
L 212.524213 210.223865 
L 215.688512 192.806592 
L 216.031344 210.078039 
L 219.02912 198.798485 
L 218.65431 222.499302 
L 220.609085 230.693991 
L 223.091213 215.645496 
L 223.660854 234.95376 
L 225.814303 227.963614 
L 228.2676 217.63489 
L 229.504383 217.393033 
L 231.676879 216.360398 
L 233.931501 216.801431 
L 235.078819 209.955925 
L 236.779877 226.95469 
L 238.909737 208.353029 
L 240.47153 211.084592 
L 242.889705 214.376932 
L 243.122803 229.707594 
L 245.23187 234.679892 
L 247.431974 228.925114 
L 249.775711 212.512023 
L 251.418407 218.033243 
L 253.453385 219.127528 
L 256.117239 216.32483 
L 257.447856 219.748769 
L 259.982056 213.193729 
L 260.846826 228.269492 
L 262.94436 217.739221 
L 264.908395 223.297193 
L 267.308048 217.538859 
L 268.219997 227.067319 
L 269.01592 250.312875 
L 272.829364 223.492813 
L 273.987167 227.132526 
L 275.180441 235.412577 
L 278.527514 227.693303 
L 279.369393 237.47192 
L 281.116056 242.782107 
L 282.402989 234.504427 
L 285.225853 222.781468 
L 286.648381 232.16766 
L 289.092417 244.303199 
L 290.792251 227.783406 
L 291.50535 245.922694 
L 294.58927 232.875448 
L 295.57321 240.728693 
L 298.91539 233.519215 
L 298.918186 242.025711 
L 302.321699 234.275611 
L 302.130013 246.388624 
L 304.734807 238.312492 
L 307.427143 230.736672 
L 308.88322 232.730808 
L 310.16526 239.202858 
L 310.791689 266.174675 
L 313.866349 234.644325 
L 315.450507 239.589356 
L 316.088469 245.002688 
L 319.412477 241.739987 
L 320.640873 235.545362 
L 322.367792 237.476662 
L 324.953014 239.322601 
L 327.966516 232.708282 
L 326.606893 240.197555 
L 328.301311 241.969989 
L 332.167577 233.174213 
L 332.356415 240.937354 
L 333.820338 236.120365 
L 335.430026 241.307253 
L 338.046788 235.60464 
L 340.068731 234.052723 
L 341.642843 242.549735 
L 343.825107 240.792714 
L 344.266263 239.087858 
L 345.24552 244.815367 
L 348.265006 235.69593 
L 350.140174 236.081241 
L 352.154382 237.157743 
L 353.690663 212.413621 
L 356.58814 238.971671 
L 357.500927 246.309191 
L 358.175426 241.215964 
L 360.67246 243.033449 
L 364.695378 282.093381 
L 364.203286 229.902028 
L 365.239017 225.729992 
L 366.501836 225.982519 
L 367.921359 235.974539 
L 369.496606 235.382938 
L 370.301441 236.217582 
L 371.656695 236.286346 
L 374.263061 240.329154 
L 375.55244 204.284137 
L 376.533934 238.547236 
L 377.834496 238.9693 
L 380.238342 238.963372 
L 382.477238 241.175654 
L 383.995347 240.668228 
L 385.045162 242.08499 
L 385.3845 243.363039 
L 387.837797 242.740612 
L 388.664824 242.678962 
L 393.42062 256.44348 
L 390.728634 240.985962 
L 391.704186 240.122864 
L 396.98524 243.479225 
L 392.269108 237.910582 
L 392.081616 236.977535 
L 397.905401 236.441656 
L 398.487273 260.687837 
L 393.658087 234.249529 
L 393.822164 236.08954 
L 394.410326 235.691187 
L 397.725772 244.75846 
L 397.606253 244.009177 
L 397.659372 245.511299 
L 393.932423 233.559525 
L 392.428817 240.291216 
L 394.092831 236.215211 
L 391.532595 231.131468 
L 393.400351 236.246036 
L 393.759259 234.255457 
L 393.736718 233.106635 
L 398.046413 259.271075 
L 398.378936 266.902617 
L 397.749886 271.443367 
L 397.980538 275.750558 
L 393.749474 242.264011 
L 393.673638 234.668037 
L 393.273143 236.084798 
L 393.273143 236.084798 
" style="fill:none;stroke:#ff7f0e;stroke-linecap:square;stroke-width:1.5;"/>
   </g>
   <g id="line2d_37">
    <path clip-path="url(#p63f81500c9)" d="M 102.456273 128.522381 
L 115.171831 131.840803 
L 126.940317 134.722934 
L 140.012337 137.702283 
L 152.434337 140.316474 
L 165.183094 142.772984 
L 180.506765 145.453568 
L 195.683133 147.869768 
L 211.659618 150.186381 
L 230.860686 152.756706 
L 248.612841 154.920379 
L 265.389269 156.765133 
L 280.745266 158.242358 
L 293.646393 159.280921 
L 304.949732 159.993451 
L 315.275946 160.446341 
L 325.604082 160.684641 
L 335.782661 160.711909 
L 346.110098 160.525774 
L 356.111302 160.091854 
L 365.165121 159.458757 
L 374.838817 158.538752 
L 388.716196 156.9157 
L 397.591575 155.827343 
L 396.944701 155.907962 
" style="fill:none;stroke:#2ca02c;stroke-linecap:square;stroke-width:1.5;"/>
   </g>
   <g id="line2d_38">
    <path clip-path="url(#p63f81500c9)" d="M 73.832727 175.206741 
L 75.232365 175.411846 
L 78.437028 176.203809 
L 81.267755 177.159382 
L 86.039802 178.799032 
L 91.78513 180.655641 
L 100.55689 183.225966 
L 103.454017 184.002517 
L 110.756245 186.344027 
L 113.768698 187.272331 
L 129.432056 191.400501 
L 152.663241 196.139242 
L 156.87788 197.190846 
L 166.021828 198.876733 
L 172.380481 200.178494 
L 177.277289 201.576286 
L 188.892358 204.705016 
L 192.30286 205.453114 
L 199.243908 206.5391 
L 204.51972 207.149671 
L 209.847079 207.676066 
L 215.269669 208.101687 
L 218.96272 208.814217 
L 224.565463 210.130205 
L 233.990213 211.901453 
L 243.558945 213.22811 
L 258.564421 216.029622 
L 265.92204 217.397775 
L 273.222346 219.284024 
L 280.387581 220.866766 
L 285.669858 221.759503 
L 289.190619 222.399713 
L 294.39374 223.514153 
L 301.165469 224.689057 
L 304.564963 225.216638 
L 311.299123 226.123602 
L 319.589485 226.960618 
L 330.949788 227.579488 
L 343.707492 227.426549 
L 349.989309 227.519023 
L 354.643745 227.654179 
L 357.748493 227.751396 
L 367.58936 227.473971 
L 369.432478 227.331703 
L 369.300202 227.255826 
L 369.315929 227.017525 
L 369.201127 226.60376 
L 369.113759 226.431852 
L 369.022022 226.328707 
L 368.893591 226.452006 
L 368.893591 226.452006 
" style="fill:none;stroke:#d62728;stroke-linecap:square;stroke-width:1.5;"/>
   </g>
   <g id="line2d_39">
    <path clip-path="url(#p63f81500c9)" d="M 74.010958 175.264834 
L 85.77595 179.046817 
L 98.947569 183.062357 
L 111.8134 186.754235 
L 125.816763 190.513692 
L 137.974912 193.551133 
L 152.123306 196.858885 
L 167.003846 200.115658 
L 183.372439 203.464906 
L 203.996734 207.442508 
L 222.03004 210.690981 
L 239.009162 213.542287 
L 254.217507 215.876683 
L 267.117586 217.647931 
L 278.122475 218.959177 
L 288.726869 220.011967 
L 299.028794 220.818157 
L 309.226926 221.408573 
L 319.196328 221.776101 
L 327.2812 221.887545 
L 336.864173 221.7844 
L 346.416515 221.434656 
L 360.176908 220.642692 
L 369.406442 220.061761 
L 368.932208 220.092586 
" style="fill:none;stroke:#9467bd;stroke-linecap:square;stroke-width:1.5;"/>
   </g>
   <g id="patch_3">
    <path d="M 57.6 307.584 
L 57.6 41.472 
" style="fill:none;stroke:#000000;stroke-linecap:square;stroke-linejoin:miter;stroke-width:0.8;"/>
   </g>
   <g id="patch_4">
    <path d="M 414.72 307.584 
L 414.72 41.472 
" style="fill:none;stroke:#000000;stroke-linecap:square;stroke-linejoin:miter;stroke-width:0.8;"/>
   </g>
   <g id="patch_5">
    <path d="M 57.6 307.584 
L 414.72 307.584 
" style="fill:none;stroke:#000000;stroke-linecap:square;stroke-linejoin:miter;stroke-width:0.8;"/>
   </g>
   <g id="patch_6">
    <path d="M 57.6 41.472 
L 414.72 41.472 
" style="fill:none;stroke:#000000;stroke-linecap:square;stroke-linejoin:miter;stroke-width:0.8;"/>
   </g>
   <g id="legend_1">
    <g id="patch_7">
     <path d="M 350.209063 123.14075 
L 407.72 123.14075 
Q 409.72 123.14075 409.72 121.14075 
L 409.72 48.472 
Q 409.72 46.472 407.72 46.472 
L 350.209063 46.472 
Q 348.209063 46.472 348.209063 48.472 
L 348.209063 121.14075 
Q 348.209063 123.14075 350.209063 123.14075 
z
" style="fill:#ffffff;opacity:0.8;stroke:#cccccc;stroke-linejoin:miter;"/>
    </g>
    <g id="line2d_40">
     <path d="M 352.209063 54.570437 
L 372.209063 54.570437 
" style="fill:none;stroke:#1f77b4;stroke-linecap:square;stroke-width:1.5;"/>
    </g>
    <g id="line2d_41"/>
    <g id="text_18">
     <!-- y -->
     <defs>
      <path d="M 32.171875 -5.078125 
Q 28.375 -14.84375 24.75 -17.8125 
Q 21.140625 -20.796875 15.09375 -20.796875 
L 7.90625 -20.796875 
L 7.90625 -13.28125 
L 13.1875 -13.28125 
Q 16.890625 -13.28125 18.9375 -11.515625 
Q 21 -9.765625 23.484375 -3.21875 
L 25.09375 0.875 
L 2.984375 54.6875 
L 12.5 54.6875 
L 29.59375 11.921875 
L 46.6875 54.6875 
L 56.203125 54.6875 
z
" id="DejaVuSans-79"/>
     </defs>
     <g transform="translate(380.209063 58.070437)scale(0.1 -0.1)">
      <use xlink:href="#DejaVuSans-79"/>
     </g>
    </g>
    <g id="line2d_42">
     <path d="M 352.209063 69.248562 
L 372.209063 69.248562 
" style="fill:none;stroke:#ff7f0e;stroke-linecap:square;stroke-width:1.5;"/>
    </g>
    <g id="line2d_43"/>
    <g id="text_19">
     <!-- zy -->
     <defs>
      <path d="M 5.515625 54.6875 
L 48.1875 54.6875 
L 48.1875 46.484375 
L 14.40625 7.171875 
L 48.1875 7.171875 
L 48.1875 0 
L 4.296875 0 
L 4.296875 8.203125 
L 38.09375 47.515625 
L 5.515625 47.515625 
z
" id="DejaVuSans-7a"/>
     </defs>
     <g transform="translate(380.209063 72.748562)scale(0.1 -0.1)">
      <use xlink:href="#DejaVuSans-7a"/>
      <use x="52.490234" xlink:href="#DejaVuSans-79"/>
     </g>
    </g>
    <g id="line2d_44">
     <path d="M 352.209063 83.926687 
L 372.209063 83.926687 
" style="fill:none;stroke:#2ca02c;stroke-linecap:square;stroke-width:1.5;"/>
    </g>
    <g id="line2d_45"/>
    <g id="text_20">
     <!-- dr_y -->
     <defs>
      <path d="M 45.40625 46.390625 
L 45.40625 75.984375 
L 54.390625 75.984375 
L 54.390625 0 
L 45.40625 0 
L 45.40625 8.203125 
Q 42.578125 3.328125 38.25 0.953125 
Q 33.9375 -1.421875 27.875 -1.421875 
Q 17.96875 -1.421875 11.734375 6.484375 
Q 5.515625 14.40625 5.515625 27.296875 
Q 5.515625 40.1875 11.734375 48.09375 
Q 17.96875 56 27.875 56 
Q 33.9375 56 38.25 53.625 
Q 42.578125 51.265625 45.40625 46.390625 
z
M 14.796875 27.296875 
Q 14.796875 17.390625 18.875 11.75 
Q 22.953125 6.109375 30.078125 6.109375 
Q 37.203125 6.109375 41.296875 11.75 
Q 45.40625 17.390625 45.40625 27.296875 
Q 45.40625 37.203125 41.296875 42.84375 
Q 37.203125 48.484375 30.078125 48.484375 
Q 22.953125 48.484375 18.875 42.84375 
Q 14.796875 37.203125 14.796875 27.296875 
z
" id="DejaVuSans-64"/>
      <path d="M 41.109375 46.296875 
Q 39.59375 47.171875 37.8125 47.578125 
Q 36.03125 48 33.890625 48 
Q 26.265625 48 22.1875 43.046875 
Q 18.109375 38.09375 18.109375 28.8125 
L 18.109375 0 
L 9.078125 0 
L 9.078125 54.6875 
L 18.109375 54.6875 
L 18.109375 46.1875 
Q 20.953125 51.171875 25.484375 53.578125 
Q 30.03125 56 36.53125 56 
Q 37.453125 56 38.578125 55.875 
Q 39.703125 55.765625 41.0625 55.515625 
z
" id="DejaVuSans-72"/>
      <path d="M 50.984375 -16.609375 
L 50.984375 -23.578125 
L -0.984375 -23.578125 
L -0.984375 -16.609375 
z
" id="DejaVuSans-5f"/>
     </defs>
     <g transform="translate(380.209063 87.426687)scale(0.1 -0.1)">
      <use xlink:href="#DejaVuSans-64"/>
      <use x="63.476562" xlink:href="#DejaVuSans-72"/>
      <use x="104.589844" xlink:href="#DejaVuSans-5f"/>
      <use x="154.589844" xlink:href="#DejaVuSans-79"/>
     </g>
    </g>
    <g id="line2d_46">
     <path d="M 352.209063 98.882937 
L 372.209063 98.882937 
" style="fill:none;stroke:#d62728;stroke-linecap:square;stroke-width:1.5;"/>
    </g>
    <g id="line2d_47"/>
    <g id="text_21">
     <!-- RTKy -->
     <defs>
      <path d="M 44.390625 34.1875 
Q 47.5625 33.109375 50.5625 29.59375 
Q 53.5625 26.078125 56.59375 19.921875 
L 66.609375 0 
L 56 0 
L 46.6875 18.703125 
Q 43.0625 26.03125 39.671875 28.421875 
Q 36.28125 30.8125 30.421875 30.8125 
L 19.671875 30.8125 
L 19.671875 0 
L 9.8125 0 
L 9.8125 72.90625 
L 32.078125 72.90625 
Q 44.578125 72.90625 50.734375 67.671875 
Q 56.890625 62.453125 56.890625 51.90625 
Q 56.890625 45.015625 53.6875 40.46875 
Q 50.484375 35.9375 44.390625 34.1875 
z
M 19.671875 64.796875 
L 19.671875 38.921875 
L 32.078125 38.921875 
Q 39.203125 38.921875 42.84375 42.21875 
Q 46.484375 45.515625 46.484375 51.90625 
Q 46.484375 58.296875 42.84375 61.546875 
Q 39.203125 64.796875 32.078125 64.796875 
z
" id="DejaVuSans-52"/>
      <path d="M -0.296875 72.90625 
L 61.375 72.90625 
L 61.375 64.59375 
L 35.5 64.59375 
L 35.5 0 
L 25.59375 0 
L 25.59375 64.59375 
L -0.296875 64.59375 
z
" id="DejaVuSans-54"/>
      <path d="M 9.8125 72.90625 
L 19.671875 72.90625 
L 19.671875 42.09375 
L 52.390625 72.90625 
L 65.09375 72.90625 
L 28.90625 38.921875 
L 67.671875 0 
L 54.6875 0 
L 19.671875 35.109375 
L 19.671875 0 
L 9.8125 0 
z
" id="DejaVuSans-4b"/>
     </defs>
     <g transform="translate(380.209063 102.382937)scale(0.1 -0.1)">
      <use xlink:href="#DejaVuSans-52"/>
      <use x="69.373047" xlink:href="#DejaVuSans-54"/>
      <use x="130.457031" xlink:href="#DejaVuSans-4b"/>
      <use x="195.923828" xlink:href="#DejaVuSans-79"/>
     </g>
    </g>
    <g id="line2d_48">
     <path d="M 352.209063 113.561062 
L 372.209063 113.561062 
" style="fill:none;stroke:#9467bd;stroke-linecap:square;stroke-width:1.5;"/>
    </g>
    <g id="line2d_49"/>
    <g id="text_22">
     <!-- DRy -->
     <defs>
      <path d="M 19.671875 64.796875 
L 19.671875 8.109375 
L 31.59375 8.109375 
Q 46.6875 8.109375 53.6875 14.9375 
Q 60.6875 21.78125 60.6875 36.53125 
Q 60.6875 51.171875 53.6875 57.984375 
Q 46.6875 64.796875 31.59375 64.796875 
z
M 9.8125 72.90625 
L 30.078125 72.90625 
Q 51.265625 72.90625 61.171875 64.09375 
Q 71.09375 55.28125 71.09375 36.53125 
Q 71.09375 17.671875 61.125 8.828125 
Q 51.171875 0 30.078125 0 
L 9.8125 0 
z
" id="DejaVuSans-44"/>
     </defs>
     <g transform="translate(380.209063 117.061062)scale(0.1 -0.1)">
      <use xlink:href="#DejaVuSans-44"/>
      <use x="77.001953" xlink:href="#DejaVuSans-52"/>
      <use x="146.40625" xlink:href="#DejaVuSans-79"/>
     </g>
    </g>
   </g>
  </g>
 </g>
 <defs>
  <clipPath id="p63f81500c9">
   <rect height="266.112" width="357.12" x="57.6" y="41.472"/>
  </clipPath>
 </defs>
</svg>
