<?xml version="1.0" encoding="utf-8" standalone="no"?>
<!DOCTYPE svg PUBLIC "-//W3C//DTD SVG 1.1//EN"
  "http://www.w3.org/Graphics/SVG/1.1/DTD/svg11.dtd">
<!-- Created with matplotlib (http://matplotlib.org/) -->
<svg height="345pt" version="1.1" viewBox="0 0 460 345" width="460pt" xmlns="http://www.w3.org/2000/svg" xmlns:xlink="http://www.w3.org/1999/xlink">
 <defs>
  <style type="text/css">
*{stroke-linecap:butt;stroke-linejoin:round;}
  </style>
 </defs>
 <g id="figure_1">
  <g id="patch_1">
   <path d="M 0 345.6 
L 460.8 345.6 
L 460.8 0 
L 0 0 
z
" style="fill:#ffffff;"/>
  </g>
  <g id="axes_1">
   <g id="patch_2">
    <path d="M 57.6 307.584 
L 414.72 307.584 
L 414.72 41.472 
L 57.6 41.472 
z
" style="fill:#ffffff;"/>
   </g>
   <g id="matplotlib.axis_1">
    <g id="xtick_1">
     <g id="line2d_1">
      <path clip-path="url(#p815d130567)" d="M 73.832727 307.584 
L 73.832727 41.472 
" style="fill:none;stroke:#b0b0b0;stroke-linecap:square;stroke-width:0.8;"/>
     </g>
     <g id="line2d_2">
      <defs>
       <path d="M 0 0 
L 0 3.5 
" id="m7ddf99fd72" style="stroke:#000000;stroke-width:0.8;"/>
      </defs>
      <g>
       <use style="stroke:#000000;stroke-width:0.8;" x="73.832727" xlink:href="#m7ddf99fd72" y="307.584"/>
      </g>
     </g>
     <g id="text_1">
      <!-- 0 -->
      <defs>
       <path d="M 31.78125 66.40625 
Q 24.171875 66.40625 20.328125 58.90625 
Q 16.5 51.421875 16.5 36.375 
Q 16.5 21.390625 20.328125 13.890625 
Q 24.171875 6.390625 31.78125 6.390625 
Q 39.453125 6.390625 43.28125 13.890625 
Q 47.125 21.390625 47.125 36.375 
Q 47.125 51.421875 43.28125 58.90625 
Q 39.453125 66.40625 31.78125 66.40625 
z
M 31.78125 74.21875 
Q 44.046875 74.21875 50.515625 64.515625 
Q 56.984375 54.828125 56.984375 36.375 
Q 56.984375 17.96875 50.515625 8.265625 
Q 44.046875 -1.421875 31.78125 -1.421875 
Q 19.53125 -1.421875 13.0625 8.265625 
Q 6.59375 17.96875 6.59375 36.375 
Q 6.59375 54.828125 13.0625 64.515625 
Q 19.53125 74.21875 31.78125 74.21875 
z
" id="DejaVuSans-30"/>
      </defs>
      <g transform="translate(70.651477 322.182437)scale(0.1 -0.1)">
       <use xlink:href="#DejaVuSans-30"/>
      </g>
     </g>
    </g>
    <g id="xtick_2">
     <g id="line2d_3">
      <path clip-path="url(#p815d130567)" d="M 129.904324 307.584 
L 129.904324 41.472 
" style="fill:none;stroke:#b0b0b0;stroke-linecap:square;stroke-width:0.8;"/>
     </g>
     <g id="line2d_4">
      <g>
       <use style="stroke:#000000;stroke-width:0.8;" x="129.904324" xlink:href="#m7ddf99fd72" y="307.584"/>
      </g>
     </g>
     <g id="text_2">
      <!-- 100 -->
      <defs>
       <path d="M 12.40625 8.296875 
L 28.515625 8.296875 
L 28.515625 63.921875 
L 10.984375 60.40625 
L 10.984375 69.390625 
L 28.421875 72.90625 
L 38.28125 72.90625 
L 38.28125 8.296875 
L 54.390625 8.296875 
L 54.390625 0 
L 12.40625 0 
z
" id="DejaVuSans-31"/>
      </defs>
      <g transform="translate(120.360574 322.182437)scale(0.1 -0.1)">
       <use xlink:href="#DejaVuSans-31"/>
       <use x="63.623047" xlink:href="#DejaVuSans-30"/>
       <use x="127.246094" xlink:href="#DejaVuSans-30"/>
      </g>
     </g>
    </g>
    <g id="xtick_3">
     <g id="line2d_5">
      <path clip-path="url(#p815d130567)" d="M 185.975921 307.584 
L 185.975921 41.472 
" style="fill:none;stroke:#b0b0b0;stroke-linecap:square;stroke-width:0.8;"/>
     </g>
     <g id="line2d_6">
      <g>
       <use style="stroke:#000000;stroke-width:0.8;" x="185.975921" xlink:href="#m7ddf99fd72" y="307.584"/>
      </g>
     </g>
     <g id="text_3">
      <!-- 200 -->
      <defs>
       <path d="M 19.1875 8.296875 
L 53.609375 8.296875 
L 53.609375 0 
L 7.328125 0 
L 7.328125 8.296875 
Q 12.9375 14.109375 22.625 23.890625 
Q 32.328125 33.6875 34.8125 36.53125 
Q 39.546875 41.84375 41.421875 45.53125 
Q 43.3125 49.21875 43.3125 52.78125 
Q 43.3125 58.59375 39.234375 62.25 
Q 35.15625 65.921875 28.609375 65.921875 
Q 23.96875 65.921875 18.8125 64.3125 
Q 13.671875 62.703125 7.8125 59.421875 
L 7.8125 69.390625 
Q 13.765625 71.78125 18.9375 73 
Q 24.125 74.21875 28.421875 74.21875 
Q 39.75 74.21875 46.484375 68.546875 
Q 53.21875 62.890625 53.21875 53.421875 
Q 53.21875 48.921875 51.53125 44.890625 
Q 49.859375 40.875 45.40625 35.40625 
Q 44.1875 33.984375 37.640625 27.21875 
Q 31.109375 20.453125 19.1875 8.296875 
z
" id="DejaVuSans-32"/>
      </defs>
      <g transform="translate(176.432171 322.182437)scale(0.1 -0.1)">
       <use xlink:href="#DejaVuSans-32"/>
       <use x="63.623047" xlink:href="#DejaVuSans-30"/>
       <use x="127.246094" xlink:href="#DejaVuSans-30"/>
      </g>
     </g>
    </g>
    <g id="xtick_4">
     <g id="line2d_7">
      <path clip-path="url(#p815d130567)" d="M 242.047518 307.584 
L 242.047518 41.472 
" style="fill:none;stroke:#b0b0b0;stroke-linecap:square;stroke-width:0.8;"/>
     </g>
     <g id="line2d_8">
      <g>
       <use style="stroke:#000000;stroke-width:0.8;" x="242.047518" xlink:href="#m7ddf99fd72" y="307.584"/>
      </g>
     </g>
     <g id="text_4">
      <!-- 300 -->
      <defs>
       <path d="M 40.578125 39.3125 
Q 47.65625 37.796875 51.625 33 
Q 55.609375 28.21875 55.609375 21.1875 
Q 55.609375 10.40625 48.1875 4.484375 
Q 40.765625 -1.421875 27.09375 -1.421875 
Q 22.515625 -1.421875 17.65625 -0.515625 
Q 12.796875 0.390625 7.625 2.203125 
L 7.625 11.71875 
Q 11.71875 9.328125 16.59375 8.109375 
Q 21.484375 6.890625 26.8125 6.890625 
Q 36.078125 6.890625 40.9375 10.546875 
Q 45.796875 14.203125 45.796875 21.1875 
Q 45.796875 27.640625 41.28125 31.265625 
Q 36.765625 34.90625 28.71875 34.90625 
L 20.21875 34.90625 
L 20.21875 43.015625 
L 29.109375 43.015625 
Q 36.375 43.015625 40.234375 45.921875 
Q 44.09375 48.828125 44.09375 54.296875 
Q 44.09375 59.90625 40.109375 62.90625 
Q 36.140625 65.921875 28.71875 65.921875 
Q 24.65625 65.921875 20.015625 65.03125 
Q 15.375 64.15625 9.8125 62.3125 
L 9.8125 71.09375 
Q 15.4375 72.65625 20.34375 73.4375 
Q 25.25 74.21875 29.59375 74.21875 
Q 40.828125 74.21875 47.359375 69.109375 
Q 53.90625 64.015625 53.90625 55.328125 
Q 53.90625 49.265625 50.4375 45.09375 
Q 46.96875 40.921875 40.578125 39.3125 
z
" id="DejaVuSans-33"/>
      </defs>
      <g transform="translate(232.503768 322.182437)scale(0.1 -0.1)">
       <use xlink:href="#DejaVuSans-33"/>
       <use x="63.623047" xlink:href="#DejaVuSans-30"/>
       <use x="127.246094" xlink:href="#DejaVuSans-30"/>
      </g>
     </g>
    </g>
    <g id="xtick_5">
     <g id="line2d_9">
      <path clip-path="url(#p815d130567)" d="M 298.119114 307.584 
L 298.119114 41.472 
" style="fill:none;stroke:#b0b0b0;stroke-linecap:square;stroke-width:0.8;"/>
     </g>
     <g id="line2d_10">
      <g>
       <use style="stroke:#000000;stroke-width:0.8;" x="298.119114" xlink:href="#m7ddf99fd72" y="307.584"/>
      </g>
     </g>
     <g id="text_5">
      <!-- 400 -->
      <defs>
       <path d="M 37.796875 64.3125 
L 12.890625 25.390625 
L 37.796875 25.390625 
z
M 35.203125 72.90625 
L 47.609375 72.90625 
L 47.609375 25.390625 
L 58.015625 25.390625 
L 58.015625 17.1875 
L 47.609375 17.1875 
L 47.609375 0 
L 37.796875 0 
L 37.796875 17.1875 
L 4.890625 17.1875 
L 4.890625 26.703125 
z
" id="DejaVuSans-34"/>
      </defs>
      <g transform="translate(288.575364 322.182437)scale(0.1 -0.1)">
       <use xlink:href="#DejaVuSans-34"/>
       <use x="63.623047" xlink:href="#DejaVuSans-30"/>
       <use x="127.246094" xlink:href="#DejaVuSans-30"/>
      </g>
     </g>
    </g>
    <g id="xtick_6">
     <g id="line2d_11">
      <path clip-path="url(#p815d130567)" d="M 354.190711 307.584 
L 354.190711 41.472 
" style="fill:none;stroke:#b0b0b0;stroke-linecap:square;stroke-width:0.8;"/>
     </g>
     <g id="line2d_12">
      <g>
       <use style="stroke:#000000;stroke-width:0.8;" x="354.190711" xlink:href="#m7ddf99fd72" y="307.584"/>
      </g>
     </g>
     <g id="text_6">
      <!-- 500 -->
      <defs>
       <path d="M 10.796875 72.90625 
L 49.515625 72.90625 
L 49.515625 64.59375 
L 19.828125 64.59375 
L 19.828125 46.734375 
Q 21.96875 47.46875 24.109375 47.828125 
Q 26.265625 48.1875 28.421875 48.1875 
Q 40.625 48.1875 47.75 41.5 
Q 54.890625 34.8125 54.890625 23.390625 
Q 54.890625 11.625 47.5625 5.09375 
Q 40.234375 -1.421875 26.90625 -1.421875 
Q 22.3125 -1.421875 17.546875 -0.640625 
Q 12.796875 0.140625 7.71875 1.703125 
L 7.71875 11.625 
Q 12.109375 9.234375 16.796875 8.0625 
Q 21.484375 6.890625 26.703125 6.890625 
Q 35.15625 6.890625 40.078125 11.328125 
Q 45.015625 15.765625 45.015625 23.390625 
Q 45.015625 31 40.078125 35.4375 
Q 35.15625 39.890625 26.703125 39.890625 
Q 22.75 39.890625 18.8125 39.015625 
Q 14.890625 38.140625 10.796875 36.28125 
z
" id="DejaVuSans-35"/>
      </defs>
      <g transform="translate(344.646961 322.182437)scale(0.1 -0.1)">
       <use xlink:href="#DejaVuSans-35"/>
       <use x="63.623047" xlink:href="#DejaVuSans-30"/>
       <use x="127.246094" xlink:href="#DejaVuSans-30"/>
      </g>
     </g>
    </g>
    <g id="xtick_7">
     <g id="line2d_13">
      <path clip-path="url(#p815d130567)" d="M 410.262308 307.584 
L 410.262308 41.472 
" style="fill:none;stroke:#b0b0b0;stroke-linecap:square;stroke-width:0.8;"/>
     </g>
     <g id="line2d_14">
      <g>
       <use style="stroke:#000000;stroke-width:0.8;" x="410.262308" xlink:href="#m7ddf99fd72" y="307.584"/>
      </g>
     </g>
     <g id="text_7">
      <!-- 600 -->
      <defs>
       <path d="M 33.015625 40.375 
Q 26.375 40.375 22.484375 35.828125 
Q 18.609375 31.296875 18.609375 23.390625 
Q 18.609375 15.53125 22.484375 10.953125 
Q 26.375 6.390625 33.015625 6.390625 
Q 39.65625 6.390625 43.53125 10.953125 
Q 47.40625 15.53125 47.40625 23.390625 
Q 47.40625 31.296875 43.53125 35.828125 
Q 39.65625 40.375 33.015625 40.375 
z
M 52.59375 71.296875 
L 52.59375 62.3125 
Q 48.875 64.0625 45.09375 64.984375 
Q 41.3125 65.921875 37.59375 65.921875 
Q 27.828125 65.921875 22.671875 59.328125 
Q 17.53125 52.734375 16.796875 39.40625 
Q 19.671875 43.65625 24.015625 45.921875 
Q 28.375 48.1875 33.59375 48.1875 
Q 44.578125 48.1875 50.953125 41.515625 
Q 57.328125 34.859375 57.328125 23.390625 
Q 57.328125 12.15625 50.6875 5.359375 
Q 44.046875 -1.421875 33.015625 -1.421875 
Q 20.359375 -1.421875 13.671875 8.265625 
Q 6.984375 17.96875 6.984375 36.375 
Q 6.984375 53.65625 15.1875 63.9375 
Q 23.390625 74.21875 37.203125 74.21875 
Q 40.921875 74.21875 44.703125 73.484375 
Q 48.484375 72.75 52.59375 71.296875 
z
" id="DejaVuSans-36"/>
      </defs>
      <g transform="translate(400.718558 322.182437)scale(0.1 -0.1)">
       <use xlink:href="#DejaVuSans-36"/>
       <use x="63.623047" xlink:href="#DejaVuSans-30"/>
       <use x="127.246094" xlink:href="#DejaVuSans-30"/>
      </g>
     </g>
    </g>
   </g>
   <g id="matplotlib.axis_2">
    <g id="ytick_1">
     <g id="line2d_15">
      <path clip-path="url(#p815d130567)" d="M 57.6 265.310341 
L 414.72 265.310341 
" style="fill:none;stroke:#b0b0b0;stroke-linecap:square;stroke-width:0.8;"/>
     </g>
     <g id="line2d_16">
      <defs>
       <path d="M 0 0 
L -3.5 0 
" id="m150f1194ba" style="stroke:#000000;stroke-width:0.8;"/>
      </defs>
      <g>
       <use style="stroke:#000000;stroke-width:0.8;" x="57.6" xlink:href="#m150f1194ba" y="265.310341"/>
      </g>
     </g>
     <g id="text_8">
      <!-- 0 -->
      <g transform="translate(44.2375 269.10956)scale(0.1 -0.1)">
       <use xlink:href="#DejaVuSans-30"/>
      </g>
     </g>
    </g>
    <g id="ytick_2">
     <g id="line2d_17">
      <path clip-path="url(#p815d130567)" d="M 57.6 215.58689 
L 414.72 215.58689 
" style="fill:none;stroke:#b0b0b0;stroke-linecap:square;stroke-width:0.8;"/>
     </g>
     <g id="line2d_18">
      <g>
       <use style="stroke:#000000;stroke-width:0.8;" x="57.6" xlink:href="#m150f1194ba" y="215.58689"/>
      </g>
     </g>
     <g id="text_9">
      <!-- 20 -->
      <g transform="translate(37.875 219.386109)scale(0.1 -0.1)">
       <use xlink:href="#DejaVuSans-32"/>
       <use x="63.623047" xlink:href="#DejaVuSans-30"/>
      </g>
     </g>
    </g>
    <g id="ytick_3">
     <g id="line2d_19">
      <path clip-path="url(#p815d130567)" d="M 57.6 165.86344 
L 414.72 165.86344 
" style="fill:none;stroke:#b0b0b0;stroke-linecap:square;stroke-width:0.8;"/>
     </g>
     <g id="line2d_20">
      <g>
       <use style="stroke:#000000;stroke-width:0.8;" x="57.6" xlink:href="#m150f1194ba" y="165.86344"/>
      </g>
     </g>
     <g id="text_10">
      <!-- 40 -->
      <g transform="translate(37.875 169.662659)scale(0.1 -0.1)">
       <use xlink:href="#DejaVuSans-34"/>
       <use x="63.623047" xlink:href="#DejaVuSans-30"/>
      </g>
     </g>
    </g>
    <g id="ytick_4">
     <g id="line2d_21">
      <path clip-path="url(#p815d130567)" d="M 57.6 116.13999 
L 414.72 116.13999 
" style="fill:none;stroke:#b0b0b0;stroke-linecap:square;stroke-width:0.8;"/>
     </g>
     <g id="line2d_22">
      <g>
       <use style="stroke:#000000;stroke-width:0.8;" x="57.6" xlink:href="#m150f1194ba" y="116.13999"/>
      </g>
     </g>
     <g id="text_11">
      <!-- 60 -->
      <g transform="translate(37.875 119.939209)scale(0.1 -0.1)">
       <use xlink:href="#DejaVuSans-36"/>
       <use x="63.623047" xlink:href="#DejaVuSans-30"/>
      </g>
     </g>
    </g>
    <g id="ytick_5">
     <g id="line2d_23">
      <path clip-path="url(#p815d130567)" d="M 57.6 66.41654 
L 414.72 66.41654 
" style="fill:none;stroke:#b0b0b0;stroke-linecap:square;stroke-width:0.8;"/>
     </g>
     <g id="line2d_24">
      <g>
       <use style="stroke:#000000;stroke-width:0.8;" x="57.6" xlink:href="#m150f1194ba" y="66.41654"/>
      </g>
     </g>
     <g id="text_12">
      <!-- 80 -->
      <defs>
       <path d="M 31.78125 34.625 
Q 24.75 34.625 20.71875 30.859375 
Q 16.703125 27.09375 16.703125 20.515625 
Q 16.703125 13.921875 20.71875 10.15625 
Q 24.75 6.390625 31.78125 6.390625 
Q 38.8125 6.390625 42.859375 10.171875 
Q 46.921875 13.96875 46.921875 20.515625 
Q 46.921875 27.09375 42.890625 30.859375 
Q 38.875 34.625 31.78125 34.625 
z
M 21.921875 38.8125 
Q 15.578125 40.375 12.03125 44.71875 
Q 8.5 49.078125 8.5 55.328125 
Q 8.5 64.0625 14.71875 69.140625 
Q 20.953125 74.21875 31.78125 74.21875 
Q 42.671875 74.21875 48.875 69.140625 
Q 55.078125 64.0625 55.078125 55.328125 
Q 55.078125 49.078125 51.53125 44.71875 
Q 48 40.375 41.703125 38.8125 
Q 48.828125 37.15625 52.796875 32.3125 
Q 56.78125 27.484375 56.78125 20.515625 
Q 56.78125 9.90625 50.3125 4.234375 
Q 43.84375 -1.421875 31.78125 -1.421875 
Q 19.734375 -1.421875 13.25 4.234375 
Q 6.78125 9.90625 6.78125 20.515625 
Q 6.78125 27.484375 10.78125 32.3125 
Q 14.796875 37.15625 21.921875 38.8125 
z
M 18.3125 54.390625 
Q 18.3125 48.734375 21.84375 45.5625 
Q 25.390625 42.390625 31.78125 42.390625 
Q 38.140625 42.390625 41.71875 45.5625 
Q 45.3125 48.734375 45.3125 54.390625 
Q 45.3125 60.0625 41.71875 63.234375 
Q 38.140625 66.40625 31.78125 66.40625 
Q 25.390625 66.40625 21.84375 63.234375 
Q 18.3125 60.0625 18.3125 54.390625 
z
" id="DejaVuSans-38"/>
      </defs>
      <g transform="translate(37.875 70.215758)scale(0.1 -0.1)">
       <use xlink:href="#DejaVuSans-38"/>
       <use x="63.623047" xlink:href="#DejaVuSans-30"/>
      </g>
     </g>
    </g>
   </g>
   <g id="line2d_25">
    <path clip-path="url(#p815d130567)" d="M 73.832727 295.488 
L 74.393443 293.856325 
L 74.954159 293.532128 
L 75.514875 292.696774 
L 76.636307 292.199291 
L 78.318455 290.710322 
L 79.439887 289.877554 
L 80.561319 289.578865 
L 81.682751 288.483607 
L 82.243467 288.329315 
L 85.607763 284.737069 
L 86.168479 284.370831 
L 87.289911 283.276144 
L 88.411342 282.7672 
L 88.972058 282.851755 
L 91.214922 281.724052 
L 91.775638 281.641561 
L 93.457786 280.568777 
L 94.018502 280.484968 
L 94.579218 280.039197 
L 95.139934 279.810296 
L 96.261366 279.003383 
L 96.822082 278.703899 
L 97.382798 278.661734 
L 99.064946 279.23333 
L 100.747094 278.380547 
L 101.30781 277.674002 
L 101.868526 277.1484 
L 104.11139 275.912972 
L 105.232821 275.380483 
L 105.793537 275.374641 
L 106.354253 275.767829 
L 107.475685 276.061073 
L 108.036401 275.584896 
L 108.597117 276.142942 
L 109.718549 275.505911 
L 110.839981 275.185517 
L 111.961413 274.69957 
L 112.522129 274.317172 
L 113.082845 274.574018 
L 113.643561 273.92908 
L 115.325709 273.085025 
L 115.886425 272.174937 
L 117.007857 271.364047 
L 117.568573 271.122739 
L 118.129289 269.445169 
L 118.690005 269.435597 
L 119.250721 269.087085 
L 119.811437 268.557854 
L 122.054301 265.337808 
L 125.418596 259.738157 
L 125.979312 259.589782 
L 126.540028 258.889005 
L 127.66146 255.288082 
L 128.222176 254.917642 
L 128.782892 253.975259 
L 129.904324 253.18478 
L 132.147188 249.907408 
L 133.829336 247.938708 
L 134.390052 247.624008 
L 135.511484 245.907355 
L 136.0722 245.502607 
L 137.754348 244.903613 
L 138.87578 243.780609 
L 141.118643 243.351993 
L 143.361507 243.101362 
L 143.922223 243.281883 
L 144.482939 243.639817 
L 146.165087 243.445025 
L 147.286519 243.759029 
L 152.893679 242.880888 
L 156.257975 242.738455 
L 159.62227 242.704022 
L 160.182986 242.468506 
L 161.304418 242.355659 
L 162.42585 242.307601 
L 162.986566 241.974877 
L 163.547282 242.077481 
L 164.107998 241.935322 
L 164.668714 241.637205 
L 165.22943 241.657144 
L 165.790146 241.276834 
L 166.350862 241.053153 
L 170.275874 241.191012 
L 171.397306 241.424513 
L 172.518738 241.359698 
L 173.079454 241.631288 
L 173.64017 241.266094 
L 175.883033 241.316936 
L 177.565181 240.756777 
L 179.247329 240.76513 
L 182.050909 241.109067 
L 182.611625 241.272832 
L 183.733057 241.90601 
L 184.854489 242.290571 
L 185.975921 242.862615 
L 186.536637 242.84996 
L 190.461649 244.611189 
L 191.022365 244.814956 
L 193.825944 244.98695 
L 194.38666 245.189274 
L 196.068808 245.476875 
L 196.629524 245.379864 
L 197.19024 245.698691 
L 198.872388 245.778522 
L 199.433104 246.158757 
L 200.554536 246.450435 
L 201.115252 246.329309 
L 201.675968 246.619097 
L 205.60098 247.34128 
L 206.161696 247.657944 
L 206.722412 248.127159 
L 207.283128 247.977144 
L 209.525992 249.51504 
L 210.086707 249.489035 
L 210.647423 248.836763 
L 211.208139 248.536682 
L 212.329571 245.982786 
L 212.890287 245.399505 
L 213.451003 244.324484 
L 214.572435 242.676052 
L 217.936731 234.639176 
L 218.497447 233.28819 
L 219.058163 230.606107 
L 219.618879 229.194956 
L 222.422459 217.30409 
L 223.543891 212.17437 
L 224.665323 208.188538 
L 225.226039 207.590117 
L 226.908187 202.172747 
L 227.468902 199.517763 
L 228.029618 198.348516 
L 231.95463 187.248999 
L 232.515346 187.532174 
L 233.076062 185.890803 
L 234.197494 186.990686 
L 234.75821 185.680473 
L 235.879642 184.983101 
L 236.440358 185.90398 
L 237.001074 184.670092 
L 237.56179 183.996091 
L 238.122506 183.930953 
L 238.683222 182.697314 
L 239.243938 182.651071 
L 239.804654 181.488289 
L 240.36537 181.624531 
L 240.926086 181.012435 
L 241.486802 180.204429 
L 242.047518 180.42371 
L 242.608234 179.190319 
L 243.16895 179.02474 
L 243.729666 177.954692 
L 244.851098 177.368452 
L 246.533245 175.711418 
L 247.093961 175.350426 
L 247.654677 174.464603 
L 248.215393 174.766921 
L 249.336825 173.687674 
L 249.897541 173.631238 
L 250.458257 173.915904 
L 251.018973 173.776927 
L 252.140405 174.710485 
L 252.701121 174.874075 
L 253.261837 175.632358 
L 253.822553 175.60501 
L 254.383269 175.32805 
L 254.943985 175.478464 
L 255.504701 175.442166 
L 256.065417 175.972715 
L 256.626133 175.972715 
L 257.747565 175.536889 
L 258.868997 175.137858 
L 259.990429 175.085897 
L 260.551145 174.521785 
L 261.111861 174.705015 
L 261.672577 174.643856 
L 264.476156 176.333707 
L 265.597588 176.502767 
L 266.158304 176.293928 
L 266.71902 176.503761 
L 267.279736 176.897322 
L 268.401168 177.001493 
L 268.961884 177.00199 
L 270.083316 177.509418 
L 270.644032 177.248867 
L 271.765464 177.593948 
L 272.32618 178.059857 
L 272.886896 178.352231 
L 275.12976 178.150353 
L 275.690476 177.834361 
L 276.251192 177.244889 
L 277.372624 176.591772 
L 277.93334 175.902356 
L 278.494056 176.346635 
L 279.054772 175.856362 
L 280.176203 173.791596 
L 280.736919 172.468703 
L 281.858351 171.634592 
L 282.419067 170.137917 
L 283.540499 168.56939 
L 284.101215 166.314432 
L 284.661931 165.185958 
L 285.222647 162.395727 
L 285.783363 161.550677 
L 286.344079 161.032061 
L 289.708375 149.472105 
L 290.269091 148.078356 
L 290.829807 145.936767 
L 291.390523 144.938569 
L 291.951239 143.334988 
L 292.511955 142.083449 
L 293.633387 138.769132 
L 294.194103 137.961623 
L 294.754819 136.94279 
L 295.315535 136.558427 
L 296.436967 136.47713 
L 298.119114 136.47713 
L 298.67983 136.015696 
L 299.240546 135.266115 
L 300.361978 135.337717 
L 300.922694 135.792438 
L 301.48341 136.032851 
L 304.28699 136.156165 
L 305.408422 136.479616 
L 305.969138 136.492295 
L 306.529854 136.709338 
L 307.09057 135.865531 
L 307.651286 135.920227 
L 308.772718 136.29912 
L 309.89415 136.490058 
L 310.454866 136.378429 
L 311.015582 136.390611 
L 311.576298 136.226026 
L 312.69773 135.472467 
L 313.258446 134.98294 
L 314.379878 134.370596 
L 314.940593 134.244795 
L 315.501309 133.782616 
L 316.062025 133.173504 
L 316.622741 132.270774 
L 317.183457 131.714866 
L 317.744173 130.629403 
L 318.304889 130.087915 
L 318.865605 129.088722 
L 319.426321 129.259025 
L 320.547753 126.071006 
L 321.108469 123.909776 
L 326.154913 108.35653 
L 326.715629 105.700054 
L 327.276345 103.973159 
L 328.397777 99.971913 
L 328.958493 98.159493 
L 329.519209 95.496554 
L 330.079925 94.546338 
L 330.640641 91.994282 
L 331.762073 89.13419 
L 333.44422 83.216104 
L 334.004936 81.702274 
L 334.565652 78.924971 
L 335.126368 77.80321 
L 336.2478 74.81135 
L 336.808516 73.743787 
L 339.05138 70.353394 
L 339.612096 69.996628 
L 341.85496 67.670814 
L 342.976392 65.922537 
L 343.537108 65.201796 
L 344.097824 64.80003 
L 344.65854 64.681937 
L 346.901404 62.443884 
L 347.46212 61.909606 
L 348.022836 61.961318 
L 348.583552 61.707977 
L 349.144268 61.260964 
L 350.826415 60.358483 
L 351.387131 60.018375 
L 352.508563 60.232931 
L 353.069279 60.273953 
L 353.629995 60.101661 
L 354.190711 60.068844 
L 356.994291 59.170838 
L 357.555007 59.296141 
L 358.115723 59.091529 
L 358.676439 59.171087 
L 360.358587 58.884431 
L 360.919303 58.500318 
L 362.601451 58.257419 
L 363.162167 58.419517 
L 363.722883 58.794183 
L 364.844315 58.873989 
L 365.405031 59.097248 
L 365.965747 58.638549 
L 366.526463 58.452583 
L 367.087179 58.122668 
L 367.647894 58.022227 
L 368.20861 57.798968 
L 369.330042 57.683859 
L 369.890758 57.171458 
L 370.451474 57.100603 
L 371.01219 56.544446 
L 371.572906 56.195884 
L 372.133622 56.017377 
L 374.376486 56.082515 
L 374.937202 56.218011 
L 375.497918 56.204835 
L 376.058634 56.043731 
L 377.180066 56.15163 
L 377.740782 56.481794 
L 378.862214 56.897731 
L 379.42293 57.160768 
L 381.105078 57.170215 
L 381.665794 57.748499 
L 382.22651 58.138331 
L 382.787226 58.326783 
L 383.347942 58.65272 
L 383.908658 58.460539 
L 385.030089 58.885426 
L 386.712237 59.408765 
L 387.272953 59.304594 
L 388.394385 60.175749 
L 388.955101 60.283401 
L 390.637249 60.201854 
L 391.197965 60.40572 
L 392.319397 60.370914 
L 392.880113 60.217766 
L 393.440829 59.947519 
L 394.001545 60.097683 
L 395.122977 59.942298 
L 395.683693 60.054921 
L 397.365841 60.028071 
L 397.926557 60.170777 
L 398.487273 60.016634 
L 398.487273 60.016634 
" style="fill:none;stroke:#1f77b4;stroke-linecap:square;stroke-width:1.5;"/>
   </g>
   <g id="line2d_26">
    <path clip-path="url(#p815d130567)" d="M 73.832727 288.234567 
L 77.757739 286.166668 
L 79.439887 285.471012 
L 81.122035 285.00115 
L 82.243467 284.760315 
L 83.364899 284.737989 
L 86.729195 283.709783 
L 100.186378 279.463201 
L 106.354253 277.294364 
L 108.597117 277.185792 
L 109.718549 277.086718 
L 111.400697 276.720456 
L 112.522129 276.355908 
L 114.764993 275.377873 
L 115.325709 275.195785 
L 118.129289 273.502752 
L 120.372153 271.649086 
L 122.054301 269.861528 
L 125.418596 265.188291 
L 131.025756 256.489898 
L 132.147188 255.24343 
L 132.707904 254.14218 
L 133.829336 252.791443 
L 134.390052 251.931277 
L 136.0722 250.437361 
L 137.193632 249.878842 
L 138.315064 249.435632 
L 141.118643 248.528875 
L 141.679359 248.655247 
L 144.482939 248.278542 
L 145.043655 248.303479 
L 146.165087 248.128353 
L 147.286519 248.068113 
L 150.650815 247.57319 
L 156.257975 247.027898 
L 160.743702 247.003608 
L 162.42585 247.063351 
L 171.958022 247.051567 
L 177.565181 247.080506 
L 181.490193 247.444481 
L 184.293773 248.008072 
L 190.461649 249.806072 
L 197.19024 252.356959 
L 197.750956 252.563834 
L 198.311672 252.889995 
L 200.554536 253.462784 
L 201.115252 253.495577 
L 206.722412 255.116561 
L 208.965276 255.948186 
L 210.647423 255.860001 
L 211.768855 255.412615 
L 212.329571 255.352623 
L 212.890287 254.915852 
L 214.572435 253.040706 
L 215.693867 251.261154 
L 217.936731 246.659696 
L 219.618879 242.012642 
L 221.301027 236.296956 
L 223.543891 226.913644 
L 225.226039 219.952858 
L 226.908187 213.823697 
L 228.590334 208.484393 
L 232.515346 197.534295 
L 233.636778 194.828096 
L 234.75821 192.484878 
L 235.879642 190.532736 
L 237.56179 188.184048 
L 240.926086 184.182802 
L 246.533245 177.833864 
L 248.776109 175.260924 
L 249.897541 174.331095 
L 250.458257 174.033003 
L 251.018973 173.891043 
L 251.579689 173.890794 
L 252.140405 174.025296 
L 254.383269 175.221145 
L 256.626133 175.219902 
L 258.308281 175.263907 
L 259.990429 175.263161 
L 261.111861 175.490397 
L 261.672577 175.563988 
L 263.91544 176.506247 
L 265.597588 177.399281 
L 267.279736 178.036238 
L 268.401168 178.318419 
L 272.32618 178.679908 
L 274.008328 178.594632 
L 275.690476 178.146375 
L 276.811908 177.590965 
L 277.93334 176.798621 
L 279.054772 175.802412 
L 280.736919 173.820435 
L 281.858351 172.148236 
L 282.979783 170.093911 
L 284.101215 167.447629 
L 285.222647 164.15544 
L 291.390523 144.300369 
L 292.511955 141.219255 
L 294.194103 137.528283 
L 295.315535 135.600257 
L 296.436967 134.29427 
L 296.997683 133.967339 
L 297.558398 134.094631 
L 298.67983 133.986731 
L 299.240546 134.077227 
L 299.801262 133.998416 
L 300.922694 134.012338 
L 302.604842 134.138387 
L 304.847706 134.750483 
L 308.212002 136.064674 
L 310.454866 137.13522 
L 311.576298 137.47309 
L 312.137014 137.489748 
L 312.69773 137.381848 
L 313.258446 137.535493 
L 313.819162 137.373643 
L 314.379878 136.91221 
L 314.940593 136.698896 
L 315.501309 136.308319 
L 316.622741 135.311612 
L 317.183457 134.778825 
L 318.865605 132.58254 
L 319.987037 130.44841 
L 321.108469 127.703675 
L 322.229901 124.454248 
L 323.351333 120.505212 
L 323.912049 118.785526 
L 327.276345 105.894722 
L 331.762073 86.826524 
L 334.004936 78.691768 
L 335.687084 73.241332 
L 336.808516 70.313615 
L 337.929948 67.770509 
L 339.612096 64.679699 
L 341.294244 62.350902 
L 342.976392 60.635691 
L 345.779972 58.621146 
L 346.340688 58.371037 
L 347.46212 58.280789 
L 350.826415 58.504296 
L 351.947847 58.544572 
L 354.190711 58.369296 
L 355.312143 58.181342 
L 359.797871 58.04684 
L 364.283599 57.779328 
L 365.965747 57.246292 
L 368.20861 55.99525 
L 370.451474 54.733269 
L 371.572906 54.428464 
L 373.255054 54.317581 
L 375.497918 54.520204 
L 378.301498 54.714623 
L 379.42293 54.739484 
L 386.712237 54.654457 
L 390.076533 54.311863 
L 392.880113 53.942666 
L 396.805125 53.617226 
L 398.487273 53.568 
L 398.487273 53.568 
" style="fill:none;stroke:#ff7f0e;stroke-linecap:square;stroke-width:1.5;"/>
   </g>
   <g id="patch_3">
    <path d="M 57.6 307.584 
L 57.6 41.472 
" style="fill:none;stroke:#000000;stroke-linecap:square;stroke-linejoin:miter;stroke-width:0.8;"/>
   </g>
   <g id="patch_4">
    <path d="M 414.72 307.584 
L 414.72 41.472 
" style="fill:none;stroke:#000000;stroke-linecap:square;stroke-linejoin:miter;stroke-width:0.8;"/>
   </g>
   <g id="patch_5">
    <path d="M 57.6 307.584 
L 414.72 307.584 
" style="fill:none;stroke:#000000;stroke-linecap:square;stroke-linejoin:miter;stroke-width:0.8;"/>
   </g>
   <g id="patch_6">
    <path d="M 57.6 41.472 
L 414.72 41.472 
" style="fill:none;stroke:#000000;stroke-linecap:square;stroke-linejoin:miter;stroke-width:0.8;"/>
   </g>
   <g id="legend_1">
    <g id="patch_7">
     <path d="M 64.6 78.82825 
L 142.6625 78.82825 
Q 144.6625 78.82825 144.6625 76.82825 
L 144.6625 48.472 
Q 144.6625 46.472 142.6625 46.472 
L 64.6 46.472 
Q 62.6 46.472 62.6 48.472 
L 62.6 76.82825 
Q 62.6 78.82825 64.6 78.82825 
z
" style="fill:#ffffff;opacity:0.8;stroke:#cccccc;stroke-linejoin:miter;"/>
    </g>
    <g id="line2d_27">
     <path d="M 66.6 54.570437 
L 86.6 54.570437 
" style="fill:none;stroke:#1f77b4;stroke-linecap:square;stroke-width:1.5;"/>
    </g>
    <g id="line2d_28"/>
    <g id="text_13">
     <!-- angle -->
     <defs>
      <path d="M 34.28125 27.484375 
Q 23.390625 27.484375 19.1875 25 
Q 14.984375 22.515625 14.984375 16.5 
Q 14.984375 11.71875 18.140625 8.90625 
Q 21.296875 6.109375 26.703125 6.109375 
Q 34.1875 6.109375 38.703125 11.40625 
Q 43.21875 16.703125 43.21875 25.484375 
L 43.21875 27.484375 
z
M 52.203125 31.203125 
L 52.203125 0 
L 43.21875 0 
L 43.21875 8.296875 
Q 40.140625 3.328125 35.546875 0.953125 
Q 30.953125 -1.421875 24.3125 -1.421875 
Q 15.921875 -1.421875 10.953125 3.296875 
Q 6 8.015625 6 15.921875 
Q 6 25.140625 12.171875 29.828125 
Q 18.359375 34.515625 30.609375 34.515625 
L 43.21875 34.515625 
L 43.21875 35.40625 
Q 43.21875 41.609375 39.140625 45 
Q 35.0625 48.390625 27.6875 48.390625 
Q 23 48.390625 18.546875 47.265625 
Q 14.109375 46.140625 10.015625 43.890625 
L 10.015625 52.203125 
Q 14.9375 54.109375 19.578125 55.046875 
Q 24.21875 56 28.609375 56 
Q 40.484375 56 46.34375 49.84375 
Q 52.203125 43.703125 52.203125 31.203125 
z
" id="DejaVuSans-61"/>
      <path d="M 54.890625 33.015625 
L 54.890625 0 
L 45.90625 0 
L 45.90625 32.71875 
Q 45.90625 40.484375 42.875 44.328125 
Q 39.84375 48.1875 33.796875 48.1875 
Q 26.515625 48.1875 22.3125 43.546875 
Q 18.109375 38.921875 18.109375 30.90625 
L 18.109375 0 
L 9.078125 0 
L 9.078125 54.6875 
L 18.109375 54.6875 
L 18.109375 46.1875 
Q 21.34375 51.125 25.703125 53.5625 
Q 30.078125 56 35.796875 56 
Q 45.21875 56 50.046875 50.171875 
Q 54.890625 44.34375 54.890625 33.015625 
z
" id="DejaVuSans-6e"/>
      <path d="M 45.40625 27.984375 
Q 45.40625 37.75 41.375 43.109375 
Q 37.359375 48.484375 30.078125 48.484375 
Q 22.859375 48.484375 18.828125 43.109375 
Q 14.796875 37.75 14.796875 27.984375 
Q 14.796875 18.265625 18.828125 12.890625 
Q 22.859375 7.515625 30.078125 7.515625 
Q 37.359375 7.515625 41.375 12.890625 
Q 45.40625 18.265625 45.40625 27.984375 
z
M 54.390625 6.78125 
Q 54.390625 -7.171875 48.1875 -13.984375 
Q 42 -20.796875 29.203125 -20.796875 
Q 24.46875 -20.796875 20.265625 -20.09375 
Q 16.0625 -19.390625 12.109375 -17.921875 
L 12.109375 -9.1875 
Q 16.0625 -11.328125 19.921875 -12.34375 
Q 23.78125 -13.375 27.78125 -13.375 
Q 36.625 -13.375 41.015625 -8.765625 
Q 45.40625 -4.15625 45.40625 5.171875 
L 45.40625 9.625 
Q 42.625 4.78125 38.28125 2.390625 
Q 33.9375 0 27.875 0 
Q 17.828125 0 11.671875 7.65625 
Q 5.515625 15.328125 5.515625 27.984375 
Q 5.515625 40.671875 11.671875 48.328125 
Q 17.828125 56 27.875 56 
Q 33.9375 56 38.28125 53.609375 
Q 42.625 51.21875 45.40625 46.390625 
L 45.40625 54.6875 
L 54.390625 54.6875 
z
" id="DejaVuSans-67"/>
      <path d="M 9.421875 75.984375 
L 18.40625 75.984375 
L 18.40625 0 
L 9.421875 0 
z
" id="DejaVuSans-6c"/>
      <path d="M 56.203125 29.59375 
L 56.203125 25.203125 
L 14.890625 25.203125 
Q 15.484375 15.921875 20.484375 11.0625 
Q 25.484375 6.203125 34.421875 6.203125 
Q 39.59375 6.203125 44.453125 7.46875 
Q 49.3125 8.734375 54.109375 11.28125 
L 54.109375 2.78125 
Q 49.265625 0.734375 44.1875 -0.34375 
Q 39.109375 -1.421875 33.890625 -1.421875 
Q 20.796875 -1.421875 13.15625 6.1875 
Q 5.515625 13.8125 5.515625 26.8125 
Q 5.515625 40.234375 12.765625 48.109375 
Q 20.015625 56 32.328125 56 
Q 43.359375 56 49.78125 48.890625 
Q 56.203125 41.796875 56.203125 29.59375 
z
M 47.21875 32.234375 
Q 47.125 39.59375 43.09375 43.984375 
Q 39.0625 48.390625 32.421875 48.390625 
Q 24.90625 48.390625 20.390625 44.140625 
Q 15.875 39.890625 15.1875 32.171875 
z
" id="DejaVuSans-65"/>
     </defs>
     <g transform="translate(94.6 58.070437)scale(0.1 -0.1)">
      <use xlink:href="#DejaVuSans-61"/>
      <use x="61.279297" xlink:href="#DejaVuSans-6e"/>
      <use x="124.658203" xlink:href="#DejaVuSans-67"/>
      <use x="188.134766" xlink:href="#DejaVuSans-6c"/>
      <use x="215.917969" xlink:href="#DejaVuSans-65"/>
     </g>
    </g>
    <g id="line2d_29">
     <path d="M 66.6 69.248562 
L 86.6 69.248562 
" style="fill:none;stroke:#ff7f0e;stroke-linecap:square;stroke-width:1.5;"/>
    </g>
    <g id="line2d_30"/>
    <g id="text_14">
     <!-- RTKtheta -->
     <defs>
      <path d="M 44.390625 34.1875 
Q 47.5625 33.109375 50.5625 29.59375 
Q 53.5625 26.078125 56.59375 19.921875 
L 66.609375 0 
L 56 0 
L 46.6875 18.703125 
Q 43.0625 26.03125 39.671875 28.421875 
Q 36.28125 30.8125 30.421875 30.8125 
L 19.671875 30.8125 
L 19.671875 0 
L 9.8125 0 
L 9.8125 72.90625 
L 32.078125 72.90625 
Q 44.578125 72.90625 50.734375 67.671875 
Q 56.890625 62.453125 56.890625 51.90625 
Q 56.890625 45.015625 53.6875 40.46875 
Q 50.484375 35.9375 44.390625 34.1875 
z
M 19.671875 64.796875 
L 19.671875 38.921875 
L 32.078125 38.921875 
Q 39.203125 38.921875 42.84375 42.21875 
Q 46.484375 45.515625 46.484375 51.90625 
Q 46.484375 58.296875 42.84375 61.546875 
Q 39.203125 64.796875 32.078125 64.796875 
z
" id="DejaVuSans-52"/>
      <path d="M -0.296875 72.90625 
L 61.375 72.90625 
L 61.375 64.59375 
L 35.5 64.59375 
L 35.5 0 
L 25.59375 0 
L 25.59375 64.59375 
L -0.296875 64.59375 
z
" id="DejaVuSans-54"/>
      <path d="M 9.8125 72.90625 
L 19.671875 72.90625 
L 19.671875 42.09375 
L 52.390625 72.90625 
L 65.09375 72.90625 
L 28.90625 38.921875 
L 67.671875 0 
L 54.6875 0 
L 19.671875 35.109375 
L 19.671875 0 
L 9.8125 0 
z
" id="DejaVuSans-4b"/>
      <path d="M 18.3125 70.21875 
L 18.3125 54.6875 
L 36.8125 54.6875 
L 36.8125 47.703125 
L 18.3125 47.703125 
L 18.3125 18.015625 
Q 18.3125 11.328125 20.140625 9.421875 
Q 21.96875 7.515625 27.59375 7.515625 
L 36.8125 7.515625 
L 36.8125 0 
L 27.59375 0 
Q 17.1875 0 13.234375 3.875 
Q 9.28125 7.765625 9.28125 18.015625 
L 9.28125 47.703125 
L 2.6875 47.703125 
L 2.6875 54.6875 
L 9.28125 54.6875 
L 9.28125 70.21875 
z
" id="DejaVuSans-74"/>
      <path d="M 54.890625 33.015625 
L 54.890625 0 
L 45.90625 0 
L 45.90625 32.71875 
Q 45.90625 40.484375 42.875 44.328125 
Q 39.84375 48.1875 33.796875 48.1875 
Q 26.515625 48.1875 22.3125 43.546875 
Q 18.109375 38.921875 18.109375 30.90625 
L 18.109375 0 
L 9.078125 0 
L 9.078125 75.984375 
L 18.109375 75.984375 
L 18.109375 46.1875 
Q 21.34375 51.125 25.703125 53.5625 
Q 30.078125 56 35.796875 56 
Q 45.21875 56 50.046875 50.171875 
Q 54.890625 44.34375 54.890625 33.015625 
z
" id="DejaVuSans-68"/>
     </defs>
     <g transform="translate(94.6 72.748562)scale(0.1 -0.1)">
      <use xlink:href="#DejaVuSans-52"/>
      <use x="69.373047" xlink:href="#DejaVuSans-54"/>
      <use x="130.457031" xlink:href="#DejaVuSans-4b"/>
      <use x="196.033203" xlink:href="#DejaVuSans-74"/>
      <use x="235.242188" xlink:href="#DejaVuSans-68"/>
      <use x="298.621094" xlink:href="#DejaVuSans-65"/>
      <use x="360.144531" xlink:href="#DejaVuSans-74"/>
      <use x="399.353516" xlink:href="#DejaVuSans-61"/>
     </g>
    </g>
   </g>
  </g>
 </g>
 <defs>
  <clipPath id="p815d130567">
   <rect height="266.112" width="357.12" x="57.6" y="41.472"/>
  </clipPath>
 </defs>
</svg>
