<?xml version="1.0" encoding="utf-8" standalone="no"?>
<!DOCTYPE svg PUBLIC "-//W3C//DTD SVG 1.1//EN"
  "http://www.w3.org/Graphics/SVG/1.1/DTD/svg11.dtd">
<!-- Created with matplotlib (http://matplotlib.org/) -->
<svg height="345pt" version="1.1" viewBox="0 0 460 345" width="460pt" xmlns="http://www.w3.org/2000/svg" xmlns:xlink="http://www.w3.org/1999/xlink">
 <defs>
  <style type="text/css">
*{stroke-linecap:butt;stroke-linejoin:round;}
  </style>
 </defs>
 <g id="figure_1">
  <g id="patch_1">
   <path d="M 0 345.6 
L 460.8 345.6 
L 460.8 0 
L 0 0 
z
" style="fill:#ffffff;"/>
  </g>
  <g id="axes_1">
   <g id="patch_2">
    <path d="M 57.6 307.584 
L 414.72 307.584 
L 414.72 41.472 
L 57.6 41.472 
z
" style="fill:#ffffff;"/>
   </g>
   <g id="matplotlib.axis_1">
    <g id="xtick_1">
     <g id="line2d_1">
      <path clip-path="url(#p4bf72bb242)" d="M 73.832727 307.584 
L 73.832727 41.472 
" style="fill:none;stroke:#b0b0b0;stroke-linecap:square;stroke-width:0.8;"/>
     </g>
     <g id="line2d_2">
      <defs>
       <path d="M 0 0 
L 0 3.5 
" id="m291ddf4654" style="stroke:#000000;stroke-width:0.8;"/>
      </defs>
      <g>
       <use style="stroke:#000000;stroke-width:0.8;" x="73.832727" xlink:href="#m291ddf4654" y="307.584"/>
      </g>
     </g>
     <g id="text_1">
      <!-- 0 -->
      <defs>
       <path d="M 31.78125 66.40625 
Q 24.171875 66.40625 20.328125 58.90625 
Q 16.5 51.421875 16.5 36.375 
Q 16.5 21.390625 20.328125 13.890625 
Q 24.171875 6.390625 31.78125 6.390625 
Q 39.453125 6.390625 43.28125 13.890625 
Q 47.125 21.390625 47.125 36.375 
Q 47.125 51.421875 43.28125 58.90625 
Q 39.453125 66.40625 31.78125 66.40625 
z
M 31.78125 74.21875 
Q 44.046875 74.21875 50.515625 64.515625 
Q 56.984375 54.828125 56.984375 36.375 
Q 56.984375 17.96875 50.515625 8.265625 
Q 44.046875 -1.421875 31.78125 -1.421875 
Q 19.53125 -1.421875 13.0625 8.265625 
Q 6.59375 17.96875 6.59375 36.375 
Q 6.59375 54.828125 13.0625 64.515625 
Q 19.53125 74.21875 31.78125 74.21875 
z
" id="DejaVuSans-30"/>
      </defs>
      <g transform="translate(70.651477 322.182437)scale(0.1 -0.1)">
       <use xlink:href="#DejaVuSans-30"/>
      </g>
     </g>
    </g>
    <g id="xtick_2">
     <g id="line2d_3">
      <path clip-path="url(#p4bf72bb242)" d="M 129.904324 307.584 
L 129.904324 41.472 
" style="fill:none;stroke:#b0b0b0;stroke-linecap:square;stroke-width:0.8;"/>
     </g>
     <g id="line2d_4">
      <g>
       <use style="stroke:#000000;stroke-width:0.8;" x="129.904324" xlink:href="#m291ddf4654" y="307.584"/>
      </g>
     </g>
     <g id="text_2">
      <!-- 100 -->
      <defs>
       <path d="M 12.40625 8.296875 
L 28.515625 8.296875 
L 28.515625 63.921875 
L 10.984375 60.40625 
L 10.984375 69.390625 
L 28.421875 72.90625 
L 38.28125 72.90625 
L 38.28125 8.296875 
L 54.390625 8.296875 
L 54.390625 0 
L 12.40625 0 
z
" id="DejaVuSans-31"/>
      </defs>
      <g transform="translate(120.360574 322.182437)scale(0.1 -0.1)">
       <use xlink:href="#DejaVuSans-31"/>
       <use x="63.623047" xlink:href="#DejaVuSans-30"/>
       <use x="127.246094" xlink:href="#DejaVuSans-30"/>
      </g>
     </g>
    </g>
    <g id="xtick_3">
     <g id="line2d_5">
      <path clip-path="url(#p4bf72bb242)" d="M 185.975921 307.584 
L 185.975921 41.472 
" style="fill:none;stroke:#b0b0b0;stroke-linecap:square;stroke-width:0.8;"/>
     </g>
     <g id="line2d_6">
      <g>
       <use style="stroke:#000000;stroke-width:0.8;" x="185.975921" xlink:href="#m291ddf4654" y="307.584"/>
      </g>
     </g>
     <g id="text_3">
      <!-- 200 -->
      <defs>
       <path d="M 19.1875 8.296875 
L 53.609375 8.296875 
L 53.609375 0 
L 7.328125 0 
L 7.328125 8.296875 
Q 12.9375 14.109375 22.625 23.890625 
Q 32.328125 33.6875 34.8125 36.53125 
Q 39.546875 41.84375 41.421875 45.53125 
Q 43.3125 49.21875 43.3125 52.78125 
Q 43.3125 58.59375 39.234375 62.25 
Q 35.15625 65.921875 28.609375 65.921875 
Q 23.96875 65.921875 18.8125 64.3125 
Q 13.671875 62.703125 7.8125 59.421875 
L 7.8125 69.390625 
Q 13.765625 71.78125 18.9375 73 
Q 24.125 74.21875 28.421875 74.21875 
Q 39.75 74.21875 46.484375 68.546875 
Q 53.21875 62.890625 53.21875 53.421875 
Q 53.21875 48.921875 51.53125 44.890625 
Q 49.859375 40.875 45.40625 35.40625 
Q 44.1875 33.984375 37.640625 27.21875 
Q 31.109375 20.453125 19.1875 8.296875 
z
" id="DejaVuSans-32"/>
      </defs>
      <g transform="translate(176.432171 322.182437)scale(0.1 -0.1)">
       <use xlink:href="#DejaVuSans-32"/>
       <use x="63.623047" xlink:href="#DejaVuSans-30"/>
       <use x="127.246094" xlink:href="#DejaVuSans-30"/>
      </g>
     </g>
    </g>
    <g id="xtick_4">
     <g id="line2d_7">
      <path clip-path="url(#p4bf72bb242)" d="M 242.047518 307.584 
L 242.047518 41.472 
" style="fill:none;stroke:#b0b0b0;stroke-linecap:square;stroke-width:0.8;"/>
     </g>
     <g id="line2d_8">
      <g>
       <use style="stroke:#000000;stroke-width:0.8;" x="242.047518" xlink:href="#m291ddf4654" y="307.584"/>
      </g>
     </g>
     <g id="text_4">
      <!-- 300 -->
      <defs>
       <path d="M 40.578125 39.3125 
Q 47.65625 37.796875 51.625 33 
Q 55.609375 28.21875 55.609375 21.1875 
Q 55.609375 10.40625 48.1875 4.484375 
Q 40.765625 -1.421875 27.09375 -1.421875 
Q 22.515625 -1.421875 17.65625 -0.515625 
Q 12.796875 0.390625 7.625 2.203125 
L 7.625 11.71875 
Q 11.71875 9.328125 16.59375 8.109375 
Q 21.484375 6.890625 26.8125 6.890625 
Q 36.078125 6.890625 40.9375 10.546875 
Q 45.796875 14.203125 45.796875 21.1875 
Q 45.796875 27.640625 41.28125 31.265625 
Q 36.765625 34.90625 28.71875 34.90625 
L 20.21875 34.90625 
L 20.21875 43.015625 
L 29.109375 43.015625 
Q 36.375 43.015625 40.234375 45.921875 
Q 44.09375 48.828125 44.09375 54.296875 
Q 44.09375 59.90625 40.109375 62.90625 
Q 36.140625 65.921875 28.71875 65.921875 
Q 24.65625 65.921875 20.015625 65.03125 
Q 15.375 64.15625 9.8125 62.3125 
L 9.8125 71.09375 
Q 15.4375 72.65625 20.34375 73.4375 
Q 25.25 74.21875 29.59375 74.21875 
Q 40.828125 74.21875 47.359375 69.109375 
Q 53.90625 64.015625 53.90625 55.328125 
Q 53.90625 49.265625 50.4375 45.09375 
Q 46.96875 40.921875 40.578125 39.3125 
z
" id="DejaVuSans-33"/>
      </defs>
      <g transform="translate(232.503768 322.182437)scale(0.1 -0.1)">
       <use xlink:href="#DejaVuSans-33"/>
       <use x="63.623047" xlink:href="#DejaVuSans-30"/>
       <use x="127.246094" xlink:href="#DejaVuSans-30"/>
      </g>
     </g>
    </g>
    <g id="xtick_5">
     <g id="line2d_9">
      <path clip-path="url(#p4bf72bb242)" d="M 298.119114 307.584 
L 298.119114 41.472 
" style="fill:none;stroke:#b0b0b0;stroke-linecap:square;stroke-width:0.8;"/>
     </g>
     <g id="line2d_10">
      <g>
       <use style="stroke:#000000;stroke-width:0.8;" x="298.119114" xlink:href="#m291ddf4654" y="307.584"/>
      </g>
     </g>
     <g id="text_5">
      <!-- 400 -->
      <defs>
       <path d="M 37.796875 64.3125 
L 12.890625 25.390625 
L 37.796875 25.390625 
z
M 35.203125 72.90625 
L 47.609375 72.90625 
L 47.609375 25.390625 
L 58.015625 25.390625 
L 58.015625 17.1875 
L 47.609375 17.1875 
L 47.609375 0 
L 37.796875 0 
L 37.796875 17.1875 
L 4.890625 17.1875 
L 4.890625 26.703125 
z
" id="DejaVuSans-34"/>
      </defs>
      <g transform="translate(288.575364 322.182437)scale(0.1 -0.1)">
       <use xlink:href="#DejaVuSans-34"/>
       <use x="63.623047" xlink:href="#DejaVuSans-30"/>
       <use x="127.246094" xlink:href="#DejaVuSans-30"/>
      </g>
     </g>
    </g>
    <g id="xtick_6">
     <g id="line2d_11">
      <path clip-path="url(#p4bf72bb242)" d="M 354.190711 307.584 
L 354.190711 41.472 
" style="fill:none;stroke:#b0b0b0;stroke-linecap:square;stroke-width:0.8;"/>
     </g>
     <g id="line2d_12">
      <g>
       <use style="stroke:#000000;stroke-width:0.8;" x="354.190711" xlink:href="#m291ddf4654" y="307.584"/>
      </g>
     </g>
     <g id="text_6">
      <!-- 500 -->
      <defs>
       <path d="M 10.796875 72.90625 
L 49.515625 72.90625 
L 49.515625 64.59375 
L 19.828125 64.59375 
L 19.828125 46.734375 
Q 21.96875 47.46875 24.109375 47.828125 
Q 26.265625 48.1875 28.421875 48.1875 
Q 40.625 48.1875 47.75 41.5 
Q 54.890625 34.8125 54.890625 23.390625 
Q 54.890625 11.625 47.5625 5.09375 
Q 40.234375 -1.421875 26.90625 -1.421875 
Q 22.3125 -1.421875 17.546875 -0.640625 
Q 12.796875 0.140625 7.71875 1.703125 
L 7.71875 11.625 
Q 12.109375 9.234375 16.796875 8.0625 
Q 21.484375 6.890625 26.703125 6.890625 
Q 35.15625 6.890625 40.078125 11.328125 
Q 45.015625 15.765625 45.015625 23.390625 
Q 45.015625 31 40.078125 35.4375 
Q 35.15625 39.890625 26.703125 39.890625 
Q 22.75 39.890625 18.8125 39.015625 
Q 14.890625 38.140625 10.796875 36.28125 
z
" id="DejaVuSans-35"/>
      </defs>
      <g transform="translate(344.646961 322.182437)scale(0.1 -0.1)">
       <use xlink:href="#DejaVuSans-35"/>
       <use x="63.623047" xlink:href="#DejaVuSans-30"/>
       <use x="127.246094" xlink:href="#DejaVuSans-30"/>
      </g>
     </g>
    </g>
    <g id="xtick_7">
     <g id="line2d_13">
      <path clip-path="url(#p4bf72bb242)" d="M 410.262308 307.584 
L 410.262308 41.472 
" style="fill:none;stroke:#b0b0b0;stroke-linecap:square;stroke-width:0.8;"/>
     </g>
     <g id="line2d_14">
      <g>
       <use style="stroke:#000000;stroke-width:0.8;" x="410.262308" xlink:href="#m291ddf4654" y="307.584"/>
      </g>
     </g>
     <g id="text_7">
      <!-- 600 -->
      <defs>
       <path d="M 33.015625 40.375 
Q 26.375 40.375 22.484375 35.828125 
Q 18.609375 31.296875 18.609375 23.390625 
Q 18.609375 15.53125 22.484375 10.953125 
Q 26.375 6.390625 33.015625 6.390625 
Q 39.65625 6.390625 43.53125 10.953125 
Q 47.40625 15.53125 47.40625 23.390625 
Q 47.40625 31.296875 43.53125 35.828125 
Q 39.65625 40.375 33.015625 40.375 
z
M 52.59375 71.296875 
L 52.59375 62.3125 
Q 48.875 64.0625 45.09375 64.984375 
Q 41.3125 65.921875 37.59375 65.921875 
Q 27.828125 65.921875 22.671875 59.328125 
Q 17.53125 52.734375 16.796875 39.40625 
Q 19.671875 43.65625 24.015625 45.921875 
Q 28.375 48.1875 33.59375 48.1875 
Q 44.578125 48.1875 50.953125 41.515625 
Q 57.328125 34.859375 57.328125 23.390625 
Q 57.328125 12.15625 50.6875 5.359375 
Q 44.046875 -1.421875 33.015625 -1.421875 
Q 20.359375 -1.421875 13.671875 8.265625 
Q 6.984375 17.96875 6.984375 36.375 
Q 6.984375 53.65625 15.1875 63.9375 
Q 23.390625 74.21875 37.203125 74.21875 
Q 40.921875 74.21875 44.703125 73.484375 
Q 48.484375 72.75 52.59375 71.296875 
z
" id="DejaVuSans-36"/>
      </defs>
      <g transform="translate(400.718558 322.182437)scale(0.1 -0.1)">
       <use xlink:href="#DejaVuSans-36"/>
       <use x="63.623047" xlink:href="#DejaVuSans-30"/>
       <use x="127.246094" xlink:href="#DejaVuSans-30"/>
      </g>
     </g>
    </g>
   </g>
   <g id="matplotlib.axis_2">
    <g id="ytick_1">
     <g id="line2d_15">
      <path clip-path="url(#p4bf72bb242)" d="M 57.6 302.423268 
L 414.72 302.423268 
" style="fill:none;stroke:#b0b0b0;stroke-linecap:square;stroke-width:0.8;"/>
     </g>
     <g id="line2d_16">
      <defs>
       <path d="M 0 0 
L -3.5 0 
" id="mdaf6d97bb0" style="stroke:#000000;stroke-width:0.8;"/>
      </defs>
      <g>
       <use style="stroke:#000000;stroke-width:0.8;" x="57.6" xlink:href="#mdaf6d97bb0" y="302.423268"/>
      </g>
     </g>
     <g id="text_8">
      <!-- −8 -->
      <defs>
       <path d="M 10.59375 35.5 
L 73.1875 35.5 
L 73.1875 27.203125 
L 10.59375 27.203125 
z
" id="DejaVuSans-2212"/>
       <path d="M 31.78125 34.625 
Q 24.75 34.625 20.71875 30.859375 
Q 16.703125 27.09375 16.703125 20.515625 
Q 16.703125 13.921875 20.71875 10.15625 
Q 24.75 6.390625 31.78125 6.390625 
Q 38.8125 6.390625 42.859375 10.171875 
Q 46.921875 13.96875 46.921875 20.515625 
Q 46.921875 27.09375 42.890625 30.859375 
Q 38.875 34.625 31.78125 34.625 
z
M 21.921875 38.8125 
Q 15.578125 40.375 12.03125 44.71875 
Q 8.5 49.078125 8.5 55.328125 
Q 8.5 64.0625 14.71875 69.140625 
Q 20.953125 74.21875 31.78125 74.21875 
Q 42.671875 74.21875 48.875 69.140625 
Q 55.078125 64.0625 55.078125 55.328125 
Q 55.078125 49.078125 51.53125 44.71875 
Q 48 40.375 41.703125 38.8125 
Q 48.828125 37.15625 52.796875 32.3125 
Q 56.78125 27.484375 56.78125 20.515625 
Q 56.78125 9.90625 50.3125 4.234375 
Q 43.84375 -1.421875 31.78125 -1.421875 
Q 19.734375 -1.421875 13.25 4.234375 
Q 6.78125 9.90625 6.78125 20.515625 
Q 6.78125 27.484375 10.78125 32.3125 
Q 14.796875 37.15625 21.921875 38.8125 
z
M 18.3125 54.390625 
Q 18.3125 48.734375 21.84375 45.5625 
Q 25.390625 42.390625 31.78125 42.390625 
Q 38.140625 42.390625 41.71875 45.5625 
Q 45.3125 48.734375 45.3125 54.390625 
Q 45.3125 60.0625 41.71875 63.234375 
Q 38.140625 66.40625 31.78125 66.40625 
Q 25.390625 66.40625 21.84375 63.234375 
Q 18.3125 60.0625 18.3125 54.390625 
z
" id="DejaVuSans-38"/>
      </defs>
      <g transform="translate(35.857813 306.222486)scale(0.1 -0.1)">
       <use xlink:href="#DejaVuSans-2212"/>
       <use x="83.789062" xlink:href="#DejaVuSans-38"/>
      </g>
     </g>
    </g>
    <g id="ytick_2">
     <g id="line2d_17">
      <path clip-path="url(#p4bf72bb242)" d="M 57.6 268.944628 
L 414.72 268.944628 
" style="fill:none;stroke:#b0b0b0;stroke-linecap:square;stroke-width:0.8;"/>
     </g>
     <g id="line2d_18">
      <g>
       <use style="stroke:#000000;stroke-width:0.8;" x="57.6" xlink:href="#mdaf6d97bb0" y="268.944628"/>
      </g>
     </g>
     <g id="text_9">
      <!-- −6 -->
      <g transform="translate(35.857813 272.743846)scale(0.1 -0.1)">
       <use xlink:href="#DejaVuSans-2212"/>
       <use x="83.789062" xlink:href="#DejaVuSans-36"/>
      </g>
     </g>
    </g>
    <g id="ytick_3">
     <g id="line2d_19">
      <path clip-path="url(#p4bf72bb242)" d="M 57.6 235.465988 
L 414.72 235.465988 
" style="fill:none;stroke:#b0b0b0;stroke-linecap:square;stroke-width:0.8;"/>
     </g>
     <g id="line2d_20">
      <g>
       <use style="stroke:#000000;stroke-width:0.8;" x="57.6" xlink:href="#mdaf6d97bb0" y="235.465988"/>
      </g>
     </g>
     <g id="text_10">
      <!-- −4 -->
      <g transform="translate(35.857813 239.265207)scale(0.1 -0.1)">
       <use xlink:href="#DejaVuSans-2212"/>
       <use x="83.789062" xlink:href="#DejaVuSans-34"/>
      </g>
     </g>
    </g>
    <g id="ytick_4">
     <g id="line2d_21">
      <path clip-path="url(#p4bf72bb242)" d="M 57.6 201.987348 
L 414.72 201.987348 
" style="fill:none;stroke:#b0b0b0;stroke-linecap:square;stroke-width:0.8;"/>
     </g>
     <g id="line2d_22">
      <g>
       <use style="stroke:#000000;stroke-width:0.8;" x="57.6" xlink:href="#mdaf6d97bb0" y="201.987348"/>
      </g>
     </g>
     <g id="text_11">
      <!-- −2 -->
      <g transform="translate(35.857813 205.786567)scale(0.1 -0.1)">
       <use xlink:href="#DejaVuSans-2212"/>
       <use x="83.789062" xlink:href="#DejaVuSans-32"/>
      </g>
     </g>
    </g>
    <g id="ytick_5">
     <g id="line2d_23">
      <path clip-path="url(#p4bf72bb242)" d="M 57.6 168.508708 
L 414.72 168.508708 
" style="fill:none;stroke:#b0b0b0;stroke-linecap:square;stroke-width:0.8;"/>
     </g>
     <g id="line2d_24">
      <g>
       <use style="stroke:#000000;stroke-width:0.8;" x="57.6" xlink:href="#mdaf6d97bb0" y="168.508708"/>
      </g>
     </g>
     <g id="text_12">
      <!-- 0 -->
      <g transform="translate(44.2375 172.307927)scale(0.1 -0.1)">
       <use xlink:href="#DejaVuSans-30"/>
      </g>
     </g>
    </g>
    <g id="ytick_6">
     <g id="line2d_25">
      <path clip-path="url(#p4bf72bb242)" d="M 57.6 135.030068 
L 414.72 135.030068 
" style="fill:none;stroke:#b0b0b0;stroke-linecap:square;stroke-width:0.8;"/>
     </g>
     <g id="line2d_26">
      <g>
       <use style="stroke:#000000;stroke-width:0.8;" x="57.6" xlink:href="#mdaf6d97bb0" y="135.030068"/>
      </g>
     </g>
     <g id="text_13">
      <!-- 2 -->
      <g transform="translate(44.2375 138.829287)scale(0.1 -0.1)">
       <use xlink:href="#DejaVuSans-32"/>
      </g>
     </g>
    </g>
    <g id="ytick_7">
     <g id="line2d_27">
      <path clip-path="url(#p4bf72bb242)" d="M 57.6 101.551428 
L 414.72 101.551428 
" style="fill:none;stroke:#b0b0b0;stroke-linecap:square;stroke-width:0.8;"/>
     </g>
     <g id="line2d_28">
      <g>
       <use style="stroke:#000000;stroke-width:0.8;" x="57.6" xlink:href="#mdaf6d97bb0" y="101.551428"/>
      </g>
     </g>
     <g id="text_14">
      <!-- 4 -->
      <g transform="translate(44.2375 105.350647)scale(0.1 -0.1)">
       <use xlink:href="#DejaVuSans-34"/>
      </g>
     </g>
    </g>
    <g id="ytick_8">
     <g id="line2d_29">
      <path clip-path="url(#p4bf72bb242)" d="M 57.6 68.072788 
L 414.72 68.072788 
" style="fill:none;stroke:#b0b0b0;stroke-linecap:square;stroke-width:0.8;"/>
     </g>
     <g id="line2d_30">
      <g>
       <use style="stroke:#000000;stroke-width:0.8;" x="57.6" xlink:href="#mdaf6d97bb0" y="68.072788"/>
      </g>
     </g>
     <g id="text_15">
      <!-- 6 -->
      <g transform="translate(44.2375 71.872007)scale(0.1 -0.1)">
       <use xlink:href="#DejaVuSans-36"/>
      </g>
     </g>
    </g>
   </g>
   <g id="line2d_31">
    <path clip-path="url(#p4bf72bb242)" d="M 73.832727 289.912467 
L 74.393443 289.166731 
L 74.954159 287.478905 
L 75.514875 286.561088 
L 76.075591 284.439714 
L 77.197023 281.555529 
L 77.757739 280.36754 
L 82.243467 268.077196 
L 83.364899 265.723815 
L 83.925615 264.283564 
L 84.486331 263.481583 
L 87.850626 254.720391 
L 89.532774 248.462731 
L 90.09349 247.419034 
L 90.654206 245.76318 
L 91.775638 241.754448 
L 92.336354 240.68648 
L 93.457786 237.999149 
L 94.579218 235.416774 
L 95.70065 232.336572 
L 96.822082 229.278298 
L 97.382798 227.227564 
L 97.943514 224.574214 
L 98.50423 222.908485 
L 99.064946 220.846201 
L 100.186378 217.928537 
L 100.747094 216.771515 
L 101.30781 216.018915 
L 102.429242 213.85268 
L 102.989958 212.101245 
L 105.232821 206.656614 
L 105.793537 204.834874 
L 106.914969 200.74981 
L 107.475685 199.104 
L 108.036401 198.454514 
L 108.597117 196.008063 
L 109.157833 195.632098 
L 109.718549 194.618532 
L 112.522129 187.655644 
L 113.082845 185.059225 
L 113.643561 184.472696 
L 114.204277 183.028461 
L 115.325709 179.687058 
L 115.886425 179.163854 
L 117.007857 176.125333 
L 117.568573 174.972714 
L 118.129289 174.394872 
L 119.250721 170.946807 
L 120.372153 167.940728 
L 120.932869 166.181172 
L 121.493585 165.011261 
L 123.175732 160.499278 
L 124.297164 157.120865 
L 125.418596 151.502731 
L 127.66146 145.525956 
L 129.343608 139.361702 
L 132.147188 130.415372 
L 132.707904 128.776091 
L 133.26862 127.55797 
L 133.829336 125.568837 
L 134.390052 122.944112 
L 135.511484 121.096258 
L 137.754348 114.399024 
L 139.436496 110.368865 
L 142.240075 101.644833 
L 146.165087 91.173887 
L 148.968667 84.016823 
L 149.529383 83.02619 
L 150.650815 80.2406 
L 151.211531 79.249465 
L 152.332963 76.801004 
L 155.697259 70.021412 
L 156.818691 68.03412 
L 157.940122 65.85918 
L 158.500838 65.116792 
L 159.62227 63.068401 
L 160.743702 59.783812 
L 161.304418 59.288328 
L 161.865134 59.04159 
L 162.42585 57.985507 
L 162.986566 57.465416 
L 163.547282 56.543079 
L 164.107998 56.382382 
L 164.668714 56.482483 
L 165.22943 56.200425 
L 165.790146 56.498051 
L 166.911578 56.632802 
L 167.472294 56.40046 
L 168.03301 56.034874 
L 169.154442 55.799017 
L 170.275874 55.645852 
L 171.397306 55.137646 
L 171.958022 55.584921 
L 172.518738 55.610364 
L 173.079454 55.109859 
L 173.64017 55.904139 
L 174.761602 56.294835 
L 175.883033 56.839198 
L 176.443749 57.528021 
L 177.004465 58.421398 
L 178.125897 59.592481 
L 180.929477 63.270445 
L 182.611625 66.638731 
L 183.172341 67.224774 
L 183.733057 68.253238 
L 184.854489 70.851348 
L 185.975921 73.304997 
L 186.536637 75.014082 
L 187.097353 76.162399 
L 189.900933 83.091139 
L 190.461649 85.045454 
L 191.022365 86.48152 
L 192.704512 92.137067 
L 193.825944 95.849681 
L 194.38666 97.385346 
L 195.508092 101.469908 
L 196.068808 103.020806 
L 197.19024 106.658929 
L 198.311672 110.136858 
L 200.554536 116.468171 
L 201.115252 118.508694 
L 201.675968 119.571306 
L 203.358116 123.81305 
L 203.918832 125.528495 
L 205.040264 128.223024 
L 205.60098 129.976802 
L 206.161696 130.713667 
L 207.283128 133.524868 
L 208.965276 136.608418 
L 209.525992 138.135714 
L 210.086707 139.267962 
L 210.647423 141.129541 
L 211.208139 142.366745 
L 212.329571 146.561283 
L 212.890287 147.514755 
L 214.011719 149.95267 
L 214.572435 150.857262 
L 216.815299 155.561664 
L 217.376015 156.351593 
L 220.740311 163.422281 
L 221.301027 163.740814 
L 221.861743 164.525352 
L 223.543891 167.621941 
L 224.665323 169.204448 
L 225.226039 170.563593 
L 228.029618 174.191021 
L 233.076062 179.218023 
L 233.636778 179.514961 
L 234.75821 180.372534 
L 235.318926 180.584889 
L 235.879642 180.982832 
L 236.440358 181.078699 
L 237.56179 181.72184 
L 238.122506 181.780243 
L 238.683222 182.132439 
L 239.804654 183.888845 
L 240.36537 184.217438 
L 240.926086 184.390523 
L 241.486802 184.928273 
L 242.047518 184.993875 
L 243.16895 185.76611 
L 243.729666 186.324701 
L 245.972529 186.969332 
L 246.533245 187.172715 
L 247.093961 187.210211 
L 247.654677 187.518047 
L 248.215393 187.398361 
L 249.336825 187.708373 
L 249.897541 187.825381 
L 250.458257 187.716073 
L 251.018973 187.976202 
L 253.261837 187.316506 
L 254.383269 187.746874 
L 254.943985 187.552697 
L 255.504701 187.541315 
L 256.065417 187.060394 
L 256.626133 187.060394 
L 258.868997 188.019892 
L 259.990429 187.796589 
L 260.551145 188.133887 
L 261.111861 187.871247 
L 262.233293 187.794413 
L 262.794008 187.58785 
L 263.354724 187.523069 
L 263.91544 187.225779 
L 264.476156 187.107264 
L 265.036872 187.111449 
L 265.597588 186.913423 
L 266.158304 187.013691 
L 266.71902 186.827885 
L 267.279736 186.365712 
L 267.840452 186.205015 
L 268.961884 186.076959 
L 269.5226 185.695805 
L 270.083316 185.527407 
L 270.644032 185.643411 
L 271.204748 185.422786 
L 272.886896 184.165965 
L 273.447612 184.195878 
L 274.008328 183.784425 
L 274.569044 183.592744 
L 275.690476 183.030938 
L 276.251192 183.084806 
L 276.811908 182.662238 
L 277.372624 182.677605 
L 277.93334 182.255439 
L 278.494056 181.229419 
L 279.054772 181.454697 
L 279.615488 182.126195 
L 280.176203 182.470088 
L 280.736919 182.564866 
L 281.297635 182.308637 
L 281.858351 180.808359 
L 282.419067 181.253993 
L 282.979783 180.906166 
L 283.540499 179.489953 
L 284.101215 179.770939 
L 284.661931 178.791019 
L 285.222647 179.466585 
L 286.344079 175.79453 
L 286.904795 175.987669 
L 287.465511 175.279512 
L 288.026227 175.840614 
L 288.586943 175.2001 
L 289.147659 174.910226 
L 289.708375 174.313887 
L 290.829807 174.261929 
L 291.390523 173.469372 
L 291.951239 172.252658 
L 292.511955 171.415089 
L 293.072671 171.6403 
L 293.633387 171.611257 
L 294.194103 171.308393 
L 295.315535 169.768238 
L 296.436967 169.693887 
L 298.67983 169.705956 
L 299.240546 170.343187 
L 299.801262 170.343187 
L 300.361978 169.816353 
L 301.48341 170.057375 
L 302.044126 169.435792 
L 302.604842 169.435792 
L 303.165558 169.26828 
L 304.847706 169.427591 
L 306.529854 169.781362 
L 307.09057 170.538334 
L 307.651286 170.537848 
L 308.772718 171.25014 
L 310.454866 172.602392 
L 311.015582 172.34372 
L 311.576298 173.036292 
L 312.137014 173.907825 
L 313.258446 175.110997 
L 313.819162 175.904809 
L 314.379878 176.307323 
L 314.940593 176.51874 
L 316.062025 177.578222 
L 316.622741 178.478931 
L 317.183457 178.873896 
L 317.744173 179.464877 
L 318.304889 179.493585 
L 318.865605 179.937813 
L 319.426321 178.775 
L 319.987037 180.084249 
L 320.547753 181.772259 
L 321.108469 182.62126 
L 322.229901 183.680625 
L 322.790617 183.822708 
L 323.351333 184.107109 
L 324.472765 183.127608 
L 325.033481 184.221305 
L 325.594197 183.937607 
L 326.154913 183.942294 
L 326.715629 184.342816 
L 327.276345 184.568863 
L 327.837061 184.663323 
L 328.397777 185.010346 
L 328.958493 184.977587 
L 330.079925 185.195232 
L 331.201357 185.849304 
L 331.762073 185.757071 
L 332.322789 185.910068 
L 332.883504 187.285371 
L 333.44422 187.644094 
L 334.004936 187.75223 
L 334.565652 188.7206 
L 337.369232 188.714071 
L 337.929948 188.315843 
L 340.733528 188.258427 
L 341.85496 188.460303 
L 342.976392 189.349663 
L 344.097824 189.727135 
L 344.65854 189.767644 
L 345.219256 190.007017 
L 345.779972 190.057737 
L 346.340688 190.939397 
L 346.901404 190.767651 
L 347.46212 190.732833 
L 348.022836 190.262124 
L 348.583552 190.795941 
L 350.826415 190.615993 
L 351.387131 190.706051 
L 352.508563 190.100924 
L 353.069279 189.977221 
L 355.872859 190.454124 
L 358.676439 190.521248 
L 359.797871 190.521751 
L 361.480019 190.842811 
L 362.601451 190.848167 
L 363.722883 190.19366 
L 365.405031 190.014382 
L 365.965747 190.458309 
L 366.526463 190.368418 
L 367.087179 190.630891 
L 368.20861 193.037336 
L 368.769326 193.627899 
L 369.330042 194.03048 
L 369.890758 193.511393 
L 370.451474 193.927867 
L 372.133622 192.858727 
L 373.255054 192.391031 
L 373.81577 192.450957 
L 374.937202 192.230333 
L 375.497918 192.974731 
L 376.058634 192.909447 
L 377.180066 192.586044 
L 379.42293 192.373454 
L 381.665794 192.66656 
L 382.787226 192.640949 
L 383.347942 192.622033 
L 383.908658 192.154839 
L 385.030089 192.591065 
L 387.272953 192.972722 
L 388.394385 192.786413 
L 390.637249 193.252603 
L 391.758681 193.38384 
L 393.440829 193.453308 
L 395.122977 193.380994 
L 397.365841 193.611327 
L 397.926557 193.599442 
L 398.487273 193.708248 
L 398.487273 193.708248 
" style="fill:none;stroke:#1f77b4;stroke-linecap:square;stroke-width:1.5;"/>
   </g>
   <g id="line2d_32">
    <path clip-path="url(#p4bf72bb242)" d="M 73.832727 295.488 
L 81.682751 270.986992 
L 87.289911 254.171676 
L 99.064946 220.899766 
L 102.989958 210.413252 
L 111.961413 186.566249 
L 115.886425 175.785173 
L 122.054301 159.200307 
L 124.297164 152.346493 
L 129.343608 135.669677 
L 134.950768 117.59071 
L 138.315064 107.437475 
L 143.361507 92.848488 
L 146.725803 84.039254 
L 149.529383 77.180317 
L 152.893679 69.586525 
L 156.257975 62.711351 
L 159.061554 57.516471 
L 160.182986 55.705109 
L 161.304418 54.287958 
L 161.865134 53.807707 
L 162.42585 53.568 
L 165.22943 53.679316 
L 173.64017 53.867801 
L 174.761602 54.186518 
L 175.883033 54.741594 
L 177.004465 55.57404 
L 178.125897 56.71834 
L 179.247329 58.174828 
L 180.368761 59.984181 
L 181.490193 62.092164 
L 182.611625 64.515683 
L 184.293773 68.709384 
L 189.340217 82.008105 
L 192.143797 90.149775 
L 194.947376 99.042874 
L 197.19024 106.616077 
L 199.433104 113.329548 
L 203.358116 124.004882 
L 209.525992 139.276331 
L 211.768855 144.475564 
L 214.572435 150.277915 
L 216.815299 154.82341 
L 222.983175 168.101188 
L 225.226039 172.004447 
L 226.908187 174.46896 
L 228.590334 176.552671 
L 230.833198 178.882316 
L 233.076062 181.110085 
L 234.75821 182.409809 
L 236.440358 183.398216 
L 239.243938 184.598894 
L 249.897541 188.806975 
L 251.018973 188.968677 
L 252.140405 188.909754 
L 254.943985 188.471351 
L 259.990429 188.536802 
L 262.233293 188.434023 
L 263.91544 188.051697 
L 267.840452 186.878605 
L 273.447612 185.588171 
L 275.690476 184.539001 
L 278.494056 182.823756 
L 282.419067 180.062957 
L 284.101215 178.576321 
L 285.783363 176.734661 
L 289.147659 172.882441 
L 293.072671 169.132137 
L 294.754819 167.980057 
L 295.876251 167.392785 
L 296.997683 167.087613 
L 305.969138 167.668625 
L 307.09057 167.932601 
L 308.772718 168.631714 
L 309.89415 169.335463 
L 311.015582 170.258854 
L 313.258446 172.284111 
L 318.304889 176.420129 
L 320.547753 178.71119 
L 322.229901 180.518132 
L 324.472765 182.582793 
L 327.276345 185.073805 
L 329.519209 186.78838 
L 331.201357 187.817681 
L 332.883504 188.617151 
L 334.565652 189.21759 
L 337.369232 189.932527 
L 340.172812 190.418971 
L 344.65854 190.939397 
L 346.901404 191.015728 
L 353.629995 190.936718 
L 364.283599 191.508868 
L 367.087179 191.978239 
L 378.301498 194.139452 
L 382.22651 194.612003 
L 387.272953 195.027473 
L 392.319397 195.167079 
L 398.487273 195.196206 
L 398.487273 195.196206 
" style="fill:none;stroke:#ff7f0e;stroke-linecap:square;stroke-width:1.5;"/>
   </g>
   <g id="patch_3">
    <path d="M 57.6 307.584 
L 57.6 41.472 
" style="fill:none;stroke:#000000;stroke-linecap:square;stroke-linejoin:miter;stroke-width:0.8;"/>
   </g>
   <g id="patch_4">
    <path d="M 414.72 307.584 
L 414.72 41.472 
" style="fill:none;stroke:#000000;stroke-linecap:square;stroke-linejoin:miter;stroke-width:0.8;"/>
   </g>
   <g id="patch_5">
    <path d="M 57.6 307.584 
L 414.72 307.584 
" style="fill:none;stroke:#000000;stroke-linecap:square;stroke-linejoin:miter;stroke-width:0.8;"/>
   </g>
   <g id="patch_6">
    <path d="M 57.6 41.472 
L 414.72 41.472 
" style="fill:none;stroke:#000000;stroke-linecap:square;stroke-linejoin:miter;stroke-width:0.8;"/>
   </g>
   <g id="legend_1">
    <g id="patch_7">
     <path d="M 350.198125 78.82825 
L 407.72 78.82825 
Q 409.72 78.82825 409.72 76.82825 
L 409.72 48.472 
Q 409.72 46.472 407.72 46.472 
L 350.198125 46.472 
Q 348.198125 46.472 348.198125 48.472 
L 348.198125 76.82825 
Q 348.198125 78.82825 350.198125 78.82825 
z
" style="fill:#ffffff;opacity:0.8;stroke:#cccccc;stroke-linejoin:miter;"/>
    </g>
    <g id="line2d_33">
     <path d="M 352.198125 54.570437 
L 372.198125 54.570437 
" style="fill:none;stroke:#1f77b4;stroke-linecap:square;stroke-width:1.5;"/>
    </g>
    <g id="line2d_34"/>
    <g id="text_16">
     <!-- x -->
     <defs>
      <path d="M 54.890625 54.6875 
L 35.109375 28.078125 
L 55.90625 0 
L 45.3125 0 
L 29.390625 21.484375 
L 13.484375 0 
L 2.875 0 
L 24.125 28.609375 
L 4.6875 54.6875 
L 15.28125 54.6875 
L 29.78125 35.203125 
L 44.28125 54.6875 
z
" id="DejaVuSans-78"/>
     </defs>
     <g transform="translate(380.198125 58.070437)scale(0.1 -0.1)">
      <use xlink:href="#DejaVuSans-78"/>
     </g>
    </g>
    <g id="line2d_35">
     <path d="M 352.198125 69.248562 
L 372.198125 69.248562 
" style="fill:none;stroke:#ff7f0e;stroke-linecap:square;stroke-width:1.5;"/>
    </g>
    <g id="line2d_36"/>
    <g id="text_17">
     <!-- RTKx -->
     <defs>
      <path d="M 44.390625 34.1875 
Q 47.5625 33.109375 50.5625 29.59375 
Q 53.5625 26.078125 56.59375 19.921875 
L 66.609375 0 
L 56 0 
L 46.6875 18.703125 
Q 43.0625 26.03125 39.671875 28.421875 
Q 36.28125 30.8125 30.421875 30.8125 
L 19.671875 30.8125 
L 19.671875 0 
L 9.8125 0 
L 9.8125 72.90625 
L 32.078125 72.90625 
Q 44.578125 72.90625 50.734375 67.671875 
Q 56.890625 62.453125 56.890625 51.90625 
Q 56.890625 45.015625 53.6875 40.46875 
Q 50.484375 35.9375 44.390625 34.1875 
z
M 19.671875 64.796875 
L 19.671875 38.921875 
L 32.078125 38.921875 
Q 39.203125 38.921875 42.84375 42.21875 
Q 46.484375 45.515625 46.484375 51.90625 
Q 46.484375 58.296875 42.84375 61.546875 
Q 39.203125 64.796875 32.078125 64.796875 
z
" id="DejaVuSans-52"/>
      <path d="M -0.296875 72.90625 
L 61.375 72.90625 
L 61.375 64.59375 
L 35.5 64.59375 
L 35.5 0 
L 25.59375 0 
L 25.59375 64.59375 
L -0.296875 64.59375 
z
" id="DejaVuSans-54"/>
      <path d="M 9.8125 72.90625 
L 19.671875 72.90625 
L 19.671875 42.09375 
L 52.390625 72.90625 
L 65.09375 72.90625 
L 28.90625 38.921875 
L 67.671875 0 
L 54.6875 0 
L 19.671875 35.109375 
L 19.671875 0 
L 9.8125 0 
z
" id="DejaVuSans-4b"/>
     </defs>
     <g transform="translate(380.198125 72.748562)scale(0.1 -0.1)">
      <use xlink:href="#DejaVuSans-52"/>
      <use x="69.373047" xlink:href="#DejaVuSans-54"/>
      <use x="130.457031" xlink:href="#DejaVuSans-4b"/>
      <use x="196.033203" xlink:href="#DejaVuSans-78"/>
     </g>
    </g>
   </g>
  </g>
 </g>
 <defs>
  <clipPath id="p4bf72bb242">
   <rect height="266.112" width="357.12" x="57.6" y="41.472"/>
  </clipPath>
 </defs>
</svg>
