<?xml version="1.0" encoding="utf-8" standalone="no"?>
<!DOCTYPE svg PUBLIC "-//W3C//DTD SVG 1.1//EN"
  "http://www.w3.org/Graphics/SVG/1.1/DTD/svg11.dtd">
<!-- Created with matplotlib (http://matplotlib.org/) -->
<svg height="345pt" version="1.1" viewBox="0 0 460 345" width="460pt" xmlns="http://www.w3.org/2000/svg" xmlns:xlink="http://www.w3.org/1999/xlink">
 <defs>
  <style type="text/css">
*{stroke-linecap:butt;stroke-linejoin:round;}
  </style>
 </defs>
 <g id="figure_1">
  <g id="patch_1">
   <path d="M 0 345.6 
L 460.8 345.6 
L 460.8 0 
L 0 0 
z
" style="fill:#ffffff;"/>
  </g>
  <g id="axes_1">
   <g id="patch_2">
    <path d="M 57.6 307.584 
L 414.72 307.584 
L 414.72 41.472 
L 57.6 41.472 
z
" style="fill:#ffffff;"/>
   </g>
   <g id="matplotlib.axis_1">
    <g id="xtick_1">
     <g id="line2d_1">
      <path clip-path="url(#p824b94d332)" d="M 73.832727 307.584 
L 73.832727 41.472 
" style="fill:none;stroke:#b0b0b0;stroke-linecap:square;stroke-width:0.8;"/>
     </g>
     <g id="line2d_2">
      <defs>
       <path d="M 0 0 
L 0 3.5 
" id="m597b39dee8" style="stroke:#000000;stroke-width:0.8;"/>
      </defs>
      <g>
       <use style="stroke:#000000;stroke-width:0.8;" x="73.832727" xlink:href="#m597b39dee8" y="307.584"/>
      </g>
     </g>
     <g id="text_1">
      <!-- 0 -->
      <defs>
       <path d="M 31.78125 66.40625 
Q 24.171875 66.40625 20.328125 58.90625 
Q 16.5 51.421875 16.5 36.375 
Q 16.5 21.390625 20.328125 13.890625 
Q 24.171875 6.390625 31.78125 6.390625 
Q 39.453125 6.390625 43.28125 13.890625 
Q 47.125 21.390625 47.125 36.375 
Q 47.125 51.421875 43.28125 58.90625 
Q 39.453125 66.40625 31.78125 66.40625 
z
M 31.78125 74.21875 
Q 44.046875 74.21875 50.515625 64.515625 
Q 56.984375 54.828125 56.984375 36.375 
Q 56.984375 17.96875 50.515625 8.265625 
Q 44.046875 -1.421875 31.78125 -1.421875 
Q 19.53125 -1.421875 13.0625 8.265625 
Q 6.59375 17.96875 6.59375 36.375 
Q 6.59375 54.828125 13.0625 64.515625 
Q 19.53125 74.21875 31.78125 74.21875 
z
" id="DejaVuSans-30"/>
      </defs>
      <g transform="translate(70.651477 322.182437)scale(0.1 -0.1)">
       <use xlink:href="#DejaVuSans-30"/>
      </g>
     </g>
    </g>
    <g id="xtick_2">
     <g id="line2d_3">
      <path clip-path="url(#p824b94d332)" d="M 129.904324 307.584 
L 129.904324 41.472 
" style="fill:none;stroke:#b0b0b0;stroke-linecap:square;stroke-width:0.8;"/>
     </g>
     <g id="line2d_4">
      <g>
       <use style="stroke:#000000;stroke-width:0.8;" x="129.904324" xlink:href="#m597b39dee8" y="307.584"/>
      </g>
     </g>
     <g id="text_2">
      <!-- 100 -->
      <defs>
       <path d="M 12.40625 8.296875 
L 28.515625 8.296875 
L 28.515625 63.921875 
L 10.984375 60.40625 
L 10.984375 69.390625 
L 28.421875 72.90625 
L 38.28125 72.90625 
L 38.28125 8.296875 
L 54.390625 8.296875 
L 54.390625 0 
L 12.40625 0 
z
" id="DejaVuSans-31"/>
      </defs>
      <g transform="translate(120.360574 322.182437)scale(0.1 -0.1)">
       <use xlink:href="#DejaVuSans-31"/>
       <use x="63.623047" xlink:href="#DejaVuSans-30"/>
       <use x="127.246094" xlink:href="#DejaVuSans-30"/>
      </g>
     </g>
    </g>
    <g id="xtick_3">
     <g id="line2d_5">
      <path clip-path="url(#p824b94d332)" d="M 185.975921 307.584 
L 185.975921 41.472 
" style="fill:none;stroke:#b0b0b0;stroke-linecap:square;stroke-width:0.8;"/>
     </g>
     <g id="line2d_6">
      <g>
       <use style="stroke:#000000;stroke-width:0.8;" x="185.975921" xlink:href="#m597b39dee8" y="307.584"/>
      </g>
     </g>
     <g id="text_3">
      <!-- 200 -->
      <defs>
       <path d="M 19.1875 8.296875 
L 53.609375 8.296875 
L 53.609375 0 
L 7.328125 0 
L 7.328125 8.296875 
Q 12.9375 14.109375 22.625 23.890625 
Q 32.328125 33.6875 34.8125 36.53125 
Q 39.546875 41.84375 41.421875 45.53125 
Q 43.3125 49.21875 43.3125 52.78125 
Q 43.3125 58.59375 39.234375 62.25 
Q 35.15625 65.921875 28.609375 65.921875 
Q 23.96875 65.921875 18.8125 64.3125 
Q 13.671875 62.703125 7.8125 59.421875 
L 7.8125 69.390625 
Q 13.765625 71.78125 18.9375 73 
Q 24.125 74.21875 28.421875 74.21875 
Q 39.75 74.21875 46.484375 68.546875 
Q 53.21875 62.890625 53.21875 53.421875 
Q 53.21875 48.921875 51.53125 44.890625 
Q 49.859375 40.875 45.40625 35.40625 
Q 44.1875 33.984375 37.640625 27.21875 
Q 31.109375 20.453125 19.1875 8.296875 
z
" id="DejaVuSans-32"/>
      </defs>
      <g transform="translate(176.432171 322.182437)scale(0.1 -0.1)">
       <use xlink:href="#DejaVuSans-32"/>
       <use x="63.623047" xlink:href="#DejaVuSans-30"/>
       <use x="127.246094" xlink:href="#DejaVuSans-30"/>
      </g>
     </g>
    </g>
    <g id="xtick_4">
     <g id="line2d_7">
      <path clip-path="url(#p824b94d332)" d="M 242.047518 307.584 
L 242.047518 41.472 
" style="fill:none;stroke:#b0b0b0;stroke-linecap:square;stroke-width:0.8;"/>
     </g>
     <g id="line2d_8">
      <g>
       <use style="stroke:#000000;stroke-width:0.8;" x="242.047518" xlink:href="#m597b39dee8" y="307.584"/>
      </g>
     </g>
     <g id="text_4">
      <!-- 300 -->
      <defs>
       <path d="M 40.578125 39.3125 
Q 47.65625 37.796875 51.625 33 
Q 55.609375 28.21875 55.609375 21.1875 
Q 55.609375 10.40625 48.1875 4.484375 
Q 40.765625 -1.421875 27.09375 -1.421875 
Q 22.515625 -1.421875 17.65625 -0.515625 
Q 12.796875 0.390625 7.625 2.203125 
L 7.625 11.71875 
Q 11.71875 9.328125 16.59375 8.109375 
Q 21.484375 6.890625 26.8125 6.890625 
Q 36.078125 6.890625 40.9375 10.546875 
Q 45.796875 14.203125 45.796875 21.1875 
Q 45.796875 27.640625 41.28125 31.265625 
Q 36.765625 34.90625 28.71875 34.90625 
L 20.21875 34.90625 
L 20.21875 43.015625 
L 29.109375 43.015625 
Q 36.375 43.015625 40.234375 45.921875 
Q 44.09375 48.828125 44.09375 54.296875 
Q 44.09375 59.90625 40.109375 62.90625 
Q 36.140625 65.921875 28.71875 65.921875 
Q 24.65625 65.921875 20.015625 65.03125 
Q 15.375 64.15625 9.8125 62.3125 
L 9.8125 71.09375 
Q 15.4375 72.65625 20.34375 73.4375 
Q 25.25 74.21875 29.59375 74.21875 
Q 40.828125 74.21875 47.359375 69.109375 
Q 53.90625 64.015625 53.90625 55.328125 
Q 53.90625 49.265625 50.4375 45.09375 
Q 46.96875 40.921875 40.578125 39.3125 
z
" id="DejaVuSans-33"/>
      </defs>
      <g transform="translate(232.503768 322.182437)scale(0.1 -0.1)">
       <use xlink:href="#DejaVuSans-33"/>
       <use x="63.623047" xlink:href="#DejaVuSans-30"/>
       <use x="127.246094" xlink:href="#DejaVuSans-30"/>
      </g>
     </g>
    </g>
    <g id="xtick_5">
     <g id="line2d_9">
      <path clip-path="url(#p824b94d332)" d="M 298.119114 307.584 
L 298.119114 41.472 
" style="fill:none;stroke:#b0b0b0;stroke-linecap:square;stroke-width:0.8;"/>
     </g>
     <g id="line2d_10">
      <g>
       <use style="stroke:#000000;stroke-width:0.8;" x="298.119114" xlink:href="#m597b39dee8" y="307.584"/>
      </g>
     </g>
     <g id="text_5">
      <!-- 400 -->
      <defs>
       <path d="M 37.796875 64.3125 
L 12.890625 25.390625 
L 37.796875 25.390625 
z
M 35.203125 72.90625 
L 47.609375 72.90625 
L 47.609375 25.390625 
L 58.015625 25.390625 
L 58.015625 17.1875 
L 47.609375 17.1875 
L 47.609375 0 
L 37.796875 0 
L 37.796875 17.1875 
L 4.890625 17.1875 
L 4.890625 26.703125 
z
" id="DejaVuSans-34"/>
      </defs>
      <g transform="translate(288.575364 322.182437)scale(0.1 -0.1)">
       <use xlink:href="#DejaVuSans-34"/>
       <use x="63.623047" xlink:href="#DejaVuSans-30"/>
       <use x="127.246094" xlink:href="#DejaVuSans-30"/>
      </g>
     </g>
    </g>
    <g id="xtick_6">
     <g id="line2d_11">
      <path clip-path="url(#p824b94d332)" d="M 354.190711 307.584 
L 354.190711 41.472 
" style="fill:none;stroke:#b0b0b0;stroke-linecap:square;stroke-width:0.8;"/>
     </g>
     <g id="line2d_12">
      <g>
       <use style="stroke:#000000;stroke-width:0.8;" x="354.190711" xlink:href="#m597b39dee8" y="307.584"/>
      </g>
     </g>
     <g id="text_6">
      <!-- 500 -->
      <defs>
       <path d="M 10.796875 72.90625 
L 49.515625 72.90625 
L 49.515625 64.59375 
L 19.828125 64.59375 
L 19.828125 46.734375 
Q 21.96875 47.46875 24.109375 47.828125 
Q 26.265625 48.1875 28.421875 48.1875 
Q 40.625 48.1875 47.75 41.5 
Q 54.890625 34.8125 54.890625 23.390625 
Q 54.890625 11.625 47.5625 5.09375 
Q 40.234375 -1.421875 26.90625 -1.421875 
Q 22.3125 -1.421875 17.546875 -0.640625 
Q 12.796875 0.140625 7.71875 1.703125 
L 7.71875 11.625 
Q 12.109375 9.234375 16.796875 8.0625 
Q 21.484375 6.890625 26.703125 6.890625 
Q 35.15625 6.890625 40.078125 11.328125 
Q 45.015625 15.765625 45.015625 23.390625 
Q 45.015625 31 40.078125 35.4375 
Q 35.15625 39.890625 26.703125 39.890625 
Q 22.75 39.890625 18.8125 39.015625 
Q 14.890625 38.140625 10.796875 36.28125 
z
" id="DejaVuSans-35"/>
      </defs>
      <g transform="translate(344.646961 322.182437)scale(0.1 -0.1)">
       <use xlink:href="#DejaVuSans-35"/>
       <use x="63.623047" xlink:href="#DejaVuSans-30"/>
       <use x="127.246094" xlink:href="#DejaVuSans-30"/>
      </g>
     </g>
    </g>
    <g id="xtick_7">
     <g id="line2d_13">
      <path clip-path="url(#p824b94d332)" d="M 410.262308 307.584 
L 410.262308 41.472 
" style="fill:none;stroke:#b0b0b0;stroke-linecap:square;stroke-width:0.8;"/>
     </g>
     <g id="line2d_14">
      <g>
       <use style="stroke:#000000;stroke-width:0.8;" x="410.262308" xlink:href="#m597b39dee8" y="307.584"/>
      </g>
     </g>
     <g id="text_7">
      <!-- 600 -->
      <defs>
       <path d="M 33.015625 40.375 
Q 26.375 40.375 22.484375 35.828125 
Q 18.609375 31.296875 18.609375 23.390625 
Q 18.609375 15.53125 22.484375 10.953125 
Q 26.375 6.390625 33.015625 6.390625 
Q 39.65625 6.390625 43.53125 10.953125 
Q 47.40625 15.53125 47.40625 23.390625 
Q 47.40625 31.296875 43.53125 35.828125 
Q 39.65625 40.375 33.015625 40.375 
z
M 52.59375 71.296875 
L 52.59375 62.3125 
Q 48.875 64.0625 45.09375 64.984375 
Q 41.3125 65.921875 37.59375 65.921875 
Q 27.828125 65.921875 22.671875 59.328125 
Q 17.53125 52.734375 16.796875 39.40625 
Q 19.671875 43.65625 24.015625 45.921875 
Q 28.375 48.1875 33.59375 48.1875 
Q 44.578125 48.1875 50.953125 41.515625 
Q 57.328125 34.859375 57.328125 23.390625 
Q 57.328125 12.15625 50.6875 5.359375 
Q 44.046875 -1.421875 33.015625 -1.421875 
Q 20.359375 -1.421875 13.671875 8.265625 
Q 6.984375 17.96875 6.984375 36.375 
Q 6.984375 53.65625 15.1875 63.9375 
Q 23.390625 74.21875 37.203125 74.21875 
Q 40.921875 74.21875 44.703125 73.484375 
Q 48.484375 72.75 52.59375 71.296875 
z
" id="DejaVuSans-36"/>
      </defs>
      <g transform="translate(400.718558 322.182437)scale(0.1 -0.1)">
       <use xlink:href="#DejaVuSans-36"/>
       <use x="63.623047" xlink:href="#DejaVuSans-30"/>
       <use x="127.246094" xlink:href="#DejaVuSans-30"/>
      </g>
     </g>
    </g>
   </g>
   <g id="matplotlib.axis_2">
    <g id="ytick_1">
     <g id="line2d_15">
      <path clip-path="url(#p824b94d332)" d="M 57.6 300.472163 
L 414.72 300.472163 
" style="fill:none;stroke:#b0b0b0;stroke-linecap:square;stroke-width:0.8;"/>
     </g>
     <g id="line2d_16">
      <defs>
       <path d="M 0 0 
L -3.5 0 
" id="md67bb9b895" style="stroke:#000000;stroke-width:0.8;"/>
      </defs>
      <g>
       <use style="stroke:#000000;stroke-width:0.8;" x="57.6" xlink:href="#md67bb9b895" y="300.472163"/>
      </g>
     </g>
     <g id="text_8">
      <!-- −3 -->
      <defs>
       <path d="M 10.59375 35.5 
L 73.1875 35.5 
L 73.1875 27.203125 
L 10.59375 27.203125 
z
" id="DejaVuSans-2212"/>
      </defs>
      <g transform="translate(35.857813 304.271381)scale(0.1 -0.1)">
       <use xlink:href="#DejaVuSans-2212"/>
       <use x="83.789062" xlink:href="#DejaVuSans-33"/>
      </g>
     </g>
    </g>
    <g id="ytick_2">
     <g id="line2d_17">
      <path clip-path="url(#p824b94d332)" d="M 57.6 261.886092 
L 414.72 261.886092 
" style="fill:none;stroke:#b0b0b0;stroke-linecap:square;stroke-width:0.8;"/>
     </g>
     <g id="line2d_18">
      <g>
       <use style="stroke:#000000;stroke-width:0.8;" x="57.6" xlink:href="#md67bb9b895" y="261.886092"/>
      </g>
     </g>
     <g id="text_9">
      <!-- −2 -->
      <g transform="translate(35.857813 265.685311)scale(0.1 -0.1)">
       <use xlink:href="#DejaVuSans-2212"/>
       <use x="83.789062" xlink:href="#DejaVuSans-32"/>
      </g>
     </g>
    </g>
    <g id="ytick_3">
     <g id="line2d_19">
      <path clip-path="url(#p824b94d332)" d="M 57.6 223.300022 
L 414.72 223.300022 
" style="fill:none;stroke:#b0b0b0;stroke-linecap:square;stroke-width:0.8;"/>
     </g>
     <g id="line2d_20">
      <g>
       <use style="stroke:#000000;stroke-width:0.8;" x="57.6" xlink:href="#md67bb9b895" y="223.300022"/>
      </g>
     </g>
     <g id="text_10">
      <!-- −1 -->
      <g transform="translate(35.857813 227.09924)scale(0.1 -0.1)">
       <use xlink:href="#DejaVuSans-2212"/>
       <use x="83.789062" xlink:href="#DejaVuSans-31"/>
      </g>
     </g>
    </g>
    <g id="ytick_4">
     <g id="line2d_21">
      <path clip-path="url(#p824b94d332)" d="M 57.6 184.713951 
L 414.72 184.713951 
" style="fill:none;stroke:#b0b0b0;stroke-linecap:square;stroke-width:0.8;"/>
     </g>
     <g id="line2d_22">
      <g>
       <use style="stroke:#000000;stroke-width:0.8;" x="57.6" xlink:href="#md67bb9b895" y="184.713951"/>
      </g>
     </g>
     <g id="text_11">
      <!-- 0 -->
      <g transform="translate(44.2375 188.51317)scale(0.1 -0.1)">
       <use xlink:href="#DejaVuSans-30"/>
      </g>
     </g>
    </g>
    <g id="ytick_5">
     <g id="line2d_23">
      <path clip-path="url(#p824b94d332)" d="M 57.6 146.12788 
L 414.72 146.12788 
" style="fill:none;stroke:#b0b0b0;stroke-linecap:square;stroke-width:0.8;"/>
     </g>
     <g id="line2d_24">
      <g>
       <use style="stroke:#000000;stroke-width:0.8;" x="57.6" xlink:href="#md67bb9b895" y="146.12788"/>
      </g>
     </g>
     <g id="text_12">
      <!-- 1 -->
      <g transform="translate(44.2375 149.927099)scale(0.1 -0.1)">
       <use xlink:href="#DejaVuSans-31"/>
      </g>
     </g>
    </g>
    <g id="ytick_6">
     <g id="line2d_25">
      <path clip-path="url(#p824b94d332)" d="M 57.6 107.54181 
L 414.72 107.54181 
" style="fill:none;stroke:#b0b0b0;stroke-linecap:square;stroke-width:0.8;"/>
     </g>
     <g id="line2d_26">
      <g>
       <use style="stroke:#000000;stroke-width:0.8;" x="57.6" xlink:href="#md67bb9b895" y="107.54181"/>
      </g>
     </g>
     <g id="text_13">
      <!-- 2 -->
      <g transform="translate(44.2375 111.341028)scale(0.1 -0.1)">
       <use xlink:href="#DejaVuSans-32"/>
      </g>
     </g>
    </g>
    <g id="ytick_7">
     <g id="line2d_27">
      <path clip-path="url(#p824b94d332)" d="M 57.6 68.955739 
L 414.72 68.955739 
" style="fill:none;stroke:#b0b0b0;stroke-linecap:square;stroke-width:0.8;"/>
     </g>
     <g id="line2d_28">
      <g>
       <use style="stroke:#000000;stroke-width:0.8;" x="57.6" xlink:href="#md67bb9b895" y="68.955739"/>
      </g>
     </g>
     <g id="text_14">
      <!-- 3 -->
      <g transform="translate(44.2375 72.754958)scale(0.1 -0.1)">
       <use xlink:href="#DejaVuSans-33"/>
      </g>
     </g>
    </g>
   </g>
   <g id="line2d_29">
    <path clip-path="url(#p824b94d332)" d="M 73.832727 53.568 
L 74.393443 58.08913 
L 74.954159 58.866253 
L 75.514875 60.881604 
L 76.636307 61.742845 
L 77.197023 62.868401 
L 77.757739 64.839763 
L 78.318455 65.86268 
L 79.439887 68.363829 
L 80.561319 69.767204 
L 81.122035 71.022795 
L 81.682751 72.567009 
L 82.243467 73.138469 
L 82.804183 74.552649 
L 83.364899 75.587913 
L 83.925615 77.329688 
L 85.607763 80.842178 
L 86.168479 81.733902 
L 87.289911 83.966492 
L 88.411342 84.935003 
L 88.972058 84.905677 
L 91.214922 87.402196 
L 91.775638 87.711656 
L 93.457786 89.587711 
L 94.018502 89.764435 
L 95.70065 91.767824 
L 96.822082 92.771834 
L 97.382798 92.871 
L 98.50423 92.264041 
L 99.064946 92.244748 
L 100.747094 93.550115 
L 101.30781 94.396693 
L 101.868526 94.977799 
L 103.550674 95.870295 
L 104.672106 96.922151 
L 107.475685 97.713552 
L 109.157833 97.278687 
L 111.400697 98.183144 
L 111.961413 98.426236 
L 112.522129 98.379933 
L 113.082845 98.487974 
L 113.643561 98.299288 
L 114.764993 98.75962 
L 115.325709 98.714474 
L 115.886425 98.131439 
L 117.007857 98.463665 
L 117.568573 99.002712 
L 118.129289 98.092853 
L 118.690005 98.31588 
L 119.250721 98.326684 
L 120.372153 97.838956 
L 120.932869 97.55612 
L 121.493585 97.028263 
L 122.054301 97.050643 
L 122.615016 96.802535 
L 123.175732 96.114545 
L 123.736448 95.627203 
L 124.297164 95.536526 
L 124.85788 95.833638 
L 125.418596 96.536291 
L 125.979312 96.750829 
L 126.540028 96.608447 
L 127.66146 96.825686 
L 128.222176 96.594556 
L 128.782892 96.614235 
L 129.343608 96.318665 
L 129.904324 96.212168 
L 130.46504 95.543085 
L 132.147188 94.332254 
L 132.707904 93.693269 
L 133.26862 92.529899 
L 133.829336 91.875865 
L 134.390052 92.08886 
L 134.950768 90.593264 
L 136.0722 88.469101 
L 137.754348 86.863149 
L 138.87578 84.20534 
L 139.997211 83.099077 
L 140.557927 82.190375 
L 143.361507 79.424526 
L 143.922223 79.388255 
L 144.482939 79.770257 
L 146.165087 78.296269 
L 147.286519 78.095236 
L 150.650815 75.268034 
L 151.211531 74.931564 
L 151.772247 74.407565 
L 153.454395 73.261173 
L 154.575827 72.37215 
L 159.061554 69.336969 
L 159.62227 68.993553 
L 160.743702 69.324622 
L 161.865134 69.076513 
L 162.42585 69.517938 
L 162.986566 69.450413 
L 163.547282 70.006438 
L 164.107998 70.20477 
L 164.668714 70.149592 
L 165.22943 70.490693 
L 165.790146 70.217504 
L 166.350862 70.117952 
L 167.472294 70.245671 
L 168.593726 70.85919 
L 170.275874 71.423704 
L 171.397306 72.015229 
L 172.518738 72.18385 
L 173.079454 72.691642 
L 173.64017 72.247131 
L 176.443749 72.650355 
L 177.004465 72.447393 
L 177.565181 72.552347 
L 179.808045 73.556356 
L 181.490193 74.651043 
L 182.050909 75.132211 
L 184.293773 78.504634 
L 185.975921 80.822113 
L 186.536637 81.21955 
L 191.022365 86.317542 
L 192.143797 86.914082 
L 197.750956 92.288736 
L 198.311672 92.643342 
L 198.872388 92.841674 
L 199.433104 93.41352 
L 199.99382 93.755007 
L 200.554536 94.254696 
L 201.675968 94.897926 
L 205.60098 97.752524 
L 206.161696 97.869825 
L 206.722412 98.519615 
L 207.283128 98.65428 
L 207.843844 98.957181 
L 208.40456 99.518994 
L 208.965276 99.794113 
L 209.525992 100.346665 
L 211.208139 101.217939 
L 215.133151 103.781597 
L 216.254583 104.696473 
L 216.815299 105.387549 
L 217.376015 105.826273 
L 217.936731 106.578701 
L 218.497447 107.076462 
L 219.058163 107.932687 
L 219.618879 108.415784 
L 221.861743 111.467557 
L 224.665323 115.355875 
L 225.226039 115.707394 
L 226.908187 117.841204 
L 227.468902 118.939363 
L 228.029618 119.451015 
L 231.393914 123.802366 
L 231.95463 124.636211 
L 232.515346 124.617304 
L 233.076062 125.44266 
L 234.197494 125.091526 
L 234.75821 125.754049 
L 235.879642 126.260298 
L 236.440358 125.897975 
L 237.001074 126.530401 
L 237.56179 126.880377 
L 238.122506 126.913946 
L 238.683222 127.561035 
L 239.243938 127.620843 
L 239.804654 128.31192 
L 240.36537 128.203493 
L 241.486802 128.945503 
L 242.047518 128.805821 
L 242.608234 129.477991 
L 243.16895 129.511947 
L 243.729666 130.066043 
L 244.851098 130.353509 
L 247.654677 131.93901 
L 248.215393 131.733347 
L 249.336825 132.365772 
L 249.897541 132.372718 
L 250.458257 132.211814 
L 251.018973 132.253101 
L 252.140405 131.704407 
L 252.701121 131.584019 
L 253.261837 131.151469 
L 253.822553 131.126002 
L 254.383269 131.237902 
L 256.626133 130.86979 
L 258.868997 131.251021 
L 259.990429 131.23713 
L 260.551145 131.552764 
L 261.111861 131.446266 
L 261.672577 131.469418 
L 262.794008 130.905675 
L 265.597588 129.589119 
L 266.158304 129.706806 
L 266.71902 129.462556 
L 267.279736 129.027691 
L 267.840452 128.791931 
L 268.401168 128.805821 
L 268.961884 128.62138 
L 269.5226 128.190374 
L 270.644032 128.066898 
L 271.204748 127.924902 
L 271.765464 127.312926 
L 273.447612 126.262999 
L 274.008328 125.650639 
L 274.569044 125.271337 
L 275.690476 124.126103 
L 276.251192 123.724036 
L 276.811908 123.162223 
L 277.372624 122.878615 
L 278.494056 121.20861 
L 279.054772 120.945839 
L 280.736919 117.936125 
L 281.297635 117.620877 
L 282.419067 115.610157 
L 282.979783 115.030208 
L 283.540499 114.086393 
L 284.101215 112.436839 
L 284.661931 111.594119 
L 285.783363 109.062487 
L 286.344079 108.000984 
L 288.586943 102.464655 
L 289.708375 99.620475 
L 290.269091 98.502251 
L 290.829807 97.079197 
L 291.390523 96.293198 
L 291.951239 95.003266 
L 292.511955 94.164405 
L 293.633387 91.560231 
L 294.754819 89.993637 
L 295.315535 89.733952 
L 296.436967 89.650992 
L 298.119114 89.650992 
L 298.67983 89.260501 
L 299.240546 88.462541 
L 299.801262 88.462541 
L 300.361978 88.608011 
L 300.922694 89.101912 
L 302.044126 89.543723 
L 302.604842 89.543723 
L 303.165558 89.875563 
L 304.28699 89.909133 
L 304.847706 90.381812 
L 305.408422 90.680854 
L 305.969138 90.709408 
L 307.09057 92.434977 
L 307.651286 92.755242 
L 308.772718 94.957734 
L 309.89415 97.472003 
L 310.454866 98.364113 
L 311.015582 99.754369 
L 311.576298 101.496144 
L 312.137014 101.875059 
L 313.258446 103.713686 
L 314.379878 105.629098 
L 317.183457 112.036701 
L 317.744173 114.006134 
L 318.304889 115.36475 
L 318.865605 117.885578 
L 319.426321 118.728683 
L 320.547753 123.000161 
L 321.108469 125.324586 
L 322.229901 129.014572 
L 326.154913 142.427862 
L 326.715629 144.924381 
L 327.276345 146.651995 
L 328.397777 150.773875 
L 328.958493 152.879555 
L 329.519209 155.583976 
L 330.079925 156.70166 
L 330.640641 159.294335 
L 331.762073 162.401054 
L 332.322789 164.496162 
L 332.883504 166.03073 
L 334.565652 172.299616 
L 335.126368 173.658656 
L 336.2478 177.430676 
L 338.490664 183.069729 
L 339.05138 184.732904 
L 339.612096 185.652951 
L 340.172812 186.98929 
L 340.733528 188.019473 
L 342.415676 192.094193 
L 343.537108 194.537964 
L 345.219256 195.968389 
L 345.779972 196.289078 
L 346.340688 195.417881 
L 346.901404 195.814353 
L 348.022836 195.122543 
L 348.583552 194.328944 
L 349.144268 193.799581 
L 349.704984 193.904999 
L 350.826415 194.614789 
L 351.387131 195.27955 
L 352.508563 195.360465 
L 353.069279 196.407768 
L 353.629995 196.87084 
L 354.190711 197.492461 
L 355.312143 199.0202 
L 355.872859 199.208037 
L 356.433575 199.901814 
L 356.994291 200.056892 
L 357.555007 200.072712 
L 358.115723 200.51923 
L 358.676439 200.527912 
L 359.237155 200.912113 
L 359.797871 200.947111 
L 360.358587 201.421141 
L 360.919303 202.230406 
L 361.480019 202.555918 
L 362.601451 203.912489 
L 363.162167 205.026816 
L 363.722883 205.030868 
L 364.283599 205.927338 
L 364.844315 207.30405 
L 365.405031 208.315353 
L 365.965747 209.979145 
L 366.526463 212.348253 
L 367.087179 213.876416 
L 367.647894 215.90558 
L 368.20861 217.178187 
L 368.769326 219.748482 
L 369.330042 221.26777 
L 369.890758 223.989555 
L 370.451474 225.343154 
L 371.572906 230.608995 
L 372.133622 233.232462 
L 372.694338 234.830697 
L 373.255054 236.087059 
L 373.81577 238.596697 
L 374.937202 242.55177 
L 375.497918 243.848648 
L 376.61935 247.92488 
L 377.180066 249.109087 
L 377.740782 251.076204 
L 378.862214 253.102745 
L 379.983646 256.984118 
L 381.665794 261.103952 
L 382.787226 262.270795 
L 383.347942 263.344646 
L 383.908658 264.792781 
L 385.590805 267.630786 
L 386.151521 268.398263 
L 386.712237 268.738207 
L 387.272953 269.801253 
L 387.833669 270.537089 
L 388.394385 270.689118 
L 388.955101 271.284887 
L 389.515817 272.078989 
L 391.197965 273.775232 
L 391.758681 274.573964 
L 392.319397 274.549655 
L 393.440829 275.666336 
L 394.001545 275.683313 
L 395.122977 276.106217 
L 397.365841 276.203454 
L 397.926557 275.956889 
L 398.487273 276.209242 
L 398.487273 276.209242 
" style="fill:none;stroke:#1f77b4;stroke-linecap:square;stroke-width:1.5;"/>
   </g>
   <g id="line2d_30">
    <path clip-path="url(#p824b94d332)" d="M 73.832727 71.925709 
L 76.075591 74.607441 
L 80.561319 79.637521 
L 82.804183 81.885545 
L 91.214922 89.565717 
L 94.579218 92.072654 
L 97.382798 93.886199 
L 105.232821 98.496077 
L 109.157833 100.38911 
L 111.961413 101.849593 
L 114.204277 102.821962 
L 118.129289 104.248874 
L 120.372153 104.709206 
L 123.175732 104.800655 
L 124.85788 104.63705 
L 126.540028 104.248874 
L 127.66146 103.874204 
L 131.586472 101.663222 
L 136.0722 98.428166 
L 137.754348 97.036366 
L 140.557927 94.859726 
L 141.118643 94.486984 
L 142.240075 93.524648 
L 144.482939 91.946092 
L 145.604371 91.157392 
L 150.090099 88.596049 
L 151.772247 87.791144 
L 153.454395 87.019422 
L 161.865134 83.346028 
L 162.986566 83.222939 
L 170.275874 83.276959 
L 173.079454 83.433233 
L 175.322317 83.806746 
L 177.565181 84.419879 
L 179.808045 85.342472 
L 181.490193 86.262749 
L 183.733057 87.738667 
L 185.415205 88.880814 
L 195.508092 95.418838 
L 197.19024 96.644332 
L 198.872388 97.812718 
L 200.554536 98.908948 
L 202.7974 100.28377 
L 204.479548 101.066295 
L 207.283128 102.017442 
L 211.768855 103.629182 
L 212.890287 103.830987 
L 215.133151 104.344182 
L 216.254583 104.679495 
L 217.936731 105.47321 
L 220.179595 107.35351 
L 221.301027 108.450126 
L 224.665323 112.3342 
L 231.393914 120.655286 
L 233.076062 122.752053 
L 234.75821 124.502317 
L 236.440358 125.784146 
L 240.926086 128.588582 
L 246.533245 131.774248 
L 249.336825 133.457372 
L 250.458257 133.901498 
L 251.579689 133.987931 
L 252.701121 133.7568 
L 254.383269 133.137494 
L 257.747565 133.066495 
L 262.233293 132.613109 
L 263.354724 132.269693 
L 265.036872 131.465173 
L 267.840452 130.146687 
L 269.5226 129.616129 
L 272.32618 128.794632 
L 273.447612 128.220085 
L 274.569044 127.431 
L 276.251192 125.903763 
L 277.93334 124.111054 
L 280.176203 121.383791 
L 282.419067 118.373691 
L 283.540499 116.618411 
L 284.661931 114.460292 
L 286.344079 110.530301 
L 290.269091 100.744873 
L 293.072671 94.038228 
L 294.754819 90.847932 
L 295.876251 89.068343 
L 296.436967 88.453666 
L 296.997683 88.16813 
L 298.67983 88.37225 
L 300.361978 88.38344 
L 301.48341 88.454052 
L 302.604842 88.704476 
L 304.847706 89.43028 
L 305.969138 89.988234 
L 307.09057 90.900409 
L 308.212002 92.324621 
L 309.333434 94.301385 
L 310.454866 96.877777 
L 313.819162 105.286454 
L 317.183457 113.332421 
L 318.865605 118.157609 
L 320.547753 123.881081 
L 328.958493 154.412773 
L 331.762073 165.22212 
L 334.004936 173.012455 
L 336.2478 179.965252 
L 338.490664 186.123114 
L 340.733528 191.48542 
L 342.976392 196.213063 
L 344.097824 198.087999 
L 345.219256 199.421263 
L 345.779972 199.794583 
L 346.340688 199.907718 
L 346.901404 199.821555 
L 347.46212 199.583595 
L 348.583552 198.650391 
L 349.704984 197.533594 
L 350.265699 197.128325 
L 350.826415 196.87983 
L 351.387131 196.78132 
L 351.947847 196.8299 
L 352.508563 197.013492 
L 353.069279 197.360343 
L 354.190711 198.571829 
L 355.312143 199.914393 
L 356.433575 200.893399 
L 356.994291 201.175463 
L 360.358587 202.031264 
L 361.480019 202.70625 
L 362.601451 203.740395 
L 363.722883 205.189572 
L 364.844315 207.110618 
L 365.965747 210.029346 
L 367.087179 213.851952 
L 368.20861 218.5287 
L 374.937202 248.63332 
L 378.301498 260.958097 
L 380.544362 268.212664 
L 382.22651 272.91785 
L 384.469374 278.343437 
L 387.272953 284.409939 
L 388.955101 287.418109 
L 390.637249 290.037718 
L 393.440829 293.539789 
L 394.562261 294.51756 
L 395.683693 295.163877 
L 396.805125 295.46562 
L 397.926557 295.443626 
L 398.487273 295.368769 
L 398.487273 295.368769 
" style="fill:none;stroke:#ff7f0e;stroke-linecap:square;stroke-width:1.5;"/>
   </g>
   <g id="patch_3">
    <path d="M 57.6 307.584 
L 57.6 41.472 
" style="fill:none;stroke:#000000;stroke-linecap:square;stroke-linejoin:miter;stroke-width:0.8;"/>
   </g>
   <g id="patch_4">
    <path d="M 414.72 307.584 
L 414.72 41.472 
" style="fill:none;stroke:#000000;stroke-linecap:square;stroke-linejoin:miter;stroke-width:0.8;"/>
   </g>
   <g id="patch_5">
    <path d="M 57.6 307.584 
L 414.72 307.584 
" style="fill:none;stroke:#000000;stroke-linecap:square;stroke-linejoin:miter;stroke-width:0.8;"/>
   </g>
   <g id="patch_6">
    <path d="M 57.6 41.472 
L 414.72 41.472 
" style="fill:none;stroke:#000000;stroke-linecap:square;stroke-linejoin:miter;stroke-width:0.8;"/>
   </g>
   <g id="legend_1">
    <g id="patch_7">
     <path d="M 350.209063 78.82825 
L 407.72 78.82825 
Q 409.72 78.82825 409.72 76.82825 
L 409.72 48.472 
Q 409.72 46.472 407.72 46.472 
L 350.209063 46.472 
Q 348.209063 46.472 348.209063 48.472 
L 348.209063 76.82825 
Q 348.209063 78.82825 350.209063 78.82825 
z
" style="fill:#ffffff;opacity:0.8;stroke:#cccccc;stroke-linejoin:miter;"/>
    </g>
    <g id="line2d_31">
     <path d="M 352.209063 54.570437 
L 372.209063 54.570437 
" style="fill:none;stroke:#1f77b4;stroke-linecap:square;stroke-width:1.5;"/>
    </g>
    <g id="line2d_32"/>
    <g id="text_15">
     <!-- y -->
     <defs>
      <path d="M 32.171875 -5.078125 
Q 28.375 -14.84375 24.75 -17.8125 
Q 21.140625 -20.796875 15.09375 -20.796875 
L 7.90625 -20.796875 
L 7.90625 -13.28125 
L 13.1875 -13.28125 
Q 16.890625 -13.28125 18.9375 -11.515625 
Q 21 -9.765625 23.484375 -3.21875 
L 25.09375 0.875 
L 2.984375 54.6875 
L 12.5 54.6875 
L 29.59375 11.921875 
L 46.6875 54.6875 
L 56.203125 54.6875 
z
" id="DejaVuSans-79"/>
     </defs>
     <g transform="translate(380.209063 58.070437)scale(0.1 -0.1)">
      <use xlink:href="#DejaVuSans-79"/>
     </g>
    </g>
    <g id="line2d_33">
     <path d="M 352.209063 69.248562 
L 372.209063 69.248562 
" style="fill:none;stroke:#ff7f0e;stroke-linecap:square;stroke-width:1.5;"/>
    </g>
    <g id="line2d_34"/>
    <g id="text_16">
     <!-- RTKy -->
     <defs>
      <path d="M 44.390625 34.1875 
Q 47.5625 33.109375 50.5625 29.59375 
Q 53.5625 26.078125 56.59375 19.921875 
L 66.609375 0 
L 56 0 
L 46.6875 18.703125 
Q 43.0625 26.03125 39.671875 28.421875 
Q 36.28125 30.8125 30.421875 30.8125 
L 19.671875 30.8125 
L 19.671875 0 
L 9.8125 0 
L 9.8125 72.90625 
L 32.078125 72.90625 
Q 44.578125 72.90625 50.734375 67.671875 
Q 56.890625 62.453125 56.890625 51.90625 
Q 56.890625 45.015625 53.6875 40.46875 
Q 50.484375 35.9375 44.390625 34.1875 
z
M 19.671875 64.796875 
L 19.671875 38.921875 
L 32.078125 38.921875 
Q 39.203125 38.921875 42.84375 42.21875 
Q 46.484375 45.515625 46.484375 51.90625 
Q 46.484375 58.296875 42.84375 61.546875 
Q 39.203125 64.796875 32.078125 64.796875 
z
" id="DejaVuSans-52"/>
      <path d="M -0.296875 72.90625 
L 61.375 72.90625 
L 61.375 64.59375 
L 35.5 64.59375 
L 35.5 0 
L 25.59375 0 
L 25.59375 64.59375 
L -0.296875 64.59375 
z
" id="DejaVuSans-54"/>
      <path d="M 9.8125 72.90625 
L 19.671875 72.90625 
L 19.671875 42.09375 
L 52.390625 72.90625 
L 65.09375 72.90625 
L 28.90625 38.921875 
L 67.671875 0 
L 54.6875 0 
L 19.671875 35.109375 
L 19.671875 0 
L 9.8125 0 
z
" id="DejaVuSans-4b"/>
     </defs>
     <g transform="translate(380.209063 72.748562)scale(0.1 -0.1)">
      <use xlink:href="#DejaVuSans-52"/>
      <use x="69.373047" xlink:href="#DejaVuSans-54"/>
      <use x="130.457031" xlink:href="#DejaVuSans-4b"/>
      <use x="195.923828" xlink:href="#DejaVuSans-79"/>
     </g>
    </g>
   </g>
  </g>
 </g>
 <defs>
  <clipPath id="p824b94d332">
   <rect height="266.112" width="357.12" x="57.6" y="41.472"/>
  </clipPath>
 </defs>
</svg>
